<svg width="348" height="105" viewBox="0 0 348 105" fill="none" xmlns="http://www.w3.org/2000/svg">
<path d="M45.0423 84.0827C44.0663 84.632 43.3036 84.4187 42.7542 83.4427L38.9545 77.0347C36.667 78.4508 34.3937 79.8161 32.1347 81.1305C29.8574 82.4124 27.6268 83.6251 25.4429 84.7686C24.2859 85.3771 23.26 85.419 22.365 84.8946C21.5026 84.3519 20.8485 83.4562 20.4027 82.2077C19.033 78.4804 17.4894 74.7866 15.7719 71.1265C14.0544 67.4664 12.0827 63.7352 9.85671 59.9329C9.43552 59.1846 9.30314 58.5308 9.45957 57.9715C9.64853 57.3939 10.0196 56.9494 10.5726 56.6381L15.5014 53.8637C16.1521 53.4975 16.7591 53.4343 17.3225 53.6741C17.8676 53.8813 18.307 54.3195 18.6408 54.9885C20.4802 58.4086 22.165 61.7443 23.6953 64.9957C25.2398 68.1963 26.5198 71.1173 27.5354 73.7587C28.8409 73.1096 30.0792 72.4554 31.2504 71.7962L34.764 69.8184L23.2426 50.149C22.6932 49.173 22.8902 48.4195 23.8337 47.8884L29.7873 44.5372C30.7633 43.9878 31.5098 44.2103 32.0266 45.2046L42.7488 64.9383C43.3161 64.5761 43.8926 64.2303 44.4782 63.9006C45.0454 63.5385 45.6361 63.1417 46.2502 62.7104C46.7524 62.3849 47.1631 62.2393 47.4824 62.2738C47.816 62.2575 48.1434 62.4587 48.4649 62.8775L51.3091 66.6746C51.9886 67.5774 51.9166 68.3248 51.0931 68.9168C50.3998 69.4356 49.6739 69.9727 48.9155 70.5281C48.1714 71.0327 47.4109 71.5464 46.6342 72.0693L50.4647 79.1026C51.014 80.0786 50.8007 80.8413 49.8247 81.3907L45.0423 84.0827Z" fill="#996899"/>
<path d="M73.5323 69.5242C71.0694 69.3139 68.7566 68.5912 66.5939 67.3563C64.4312 66.1213 62.4795 64.4313 60.7386 62.2861C59.0199 60.0931 57.6143 57.5069 56.5218 54.5275C55.4294 51.5482 54.83 48.6663 54.7237 45.8821C54.6395 43.0499 55.0169 40.4462 55.8558 38.0709C56.6947 35.6956 57.9793 33.6141 59.7097 31.8265C61.44 30.0388 63.5671 28.6823 66.0908 27.757C68.6144 26.8316 71.0967 26.498 73.5374 26.7562C76.0132 27.0016 78.3214 27.7657 80.4618 29.0486C82.6374 30.3186 84.5909 32.0676 86.3224 34.2957C88.0762 36.4759 89.4993 39.0557 90.5917 42.035C91.6842 45.0144 92.266 47.9026 92.3373 50.6997C92.4308 53.4489 92.0517 55.9937 91.1999 58.3339C90.3833 60.6614 89.1033 62.7014 87.3601 64.4539C85.6519 66.1937 83.536 67.5262 81.0123 68.4516C78.4886 69.3769 75.9953 69.7345 73.5323 69.5242ZM71.438 59.2576C73.5948 60.6936 75.9351 60.9488 78.4588 60.0235C80.9825 59.0981 82.603 57.3905 83.3204 54.9007C84.0249 52.3758 83.7088 49.2907 82.3722 45.6454C81.0356 42 79.2824 39.4419 77.1127 37.9709C74.943 36.4999 72.5963 36.2271 70.0726 37.1525C67.5489 38.0779 65.9348 39.803 65.2303 42.3278C64.5258 44.8527 64.8418 47.9378 66.1785 51.5832C67.5151 55.2285 69.2683 57.7867 71.438 59.2576Z" fill="#9A7B9A"/>
<path d="M126.34 55.6078C125.241 55.8195 124.585 55.3755 124.373 54.2757L122.8 46.9938C120.182 47.612 117.593 48.1865 115.034 48.7173C112.468 49.2114 109.968 49.6547 107.534 50.0473C106.244 50.2577 105.257 49.9724 104.575 49.1913C103.929 48.4033 103.592 47.3465 103.565 46.021C103.447 42.0518 103.154 38.0592 102.685 34.0435C102.215 30.0277 101.528 25.864 100.622 21.5522C100.459 20.7091 100.541 20.047 100.866 19.5661C101.229 19.0781 101.722 18.7742 102.345 18.6542L107.899 17.5848C108.632 17.4436 109.228 17.576 109.686 17.982C110.137 18.3513 110.415 18.9061 110.52 19.6464C111.181 23.4731 111.721 27.1709 112.142 30.7397C112.593 34.2647 112.881 37.4408 113.008 40.2679C114.451 40.066 115.833 39.8379 117.153 39.5838L121.112 38.8215L116.418 16.5147C116.206 15.4149 116.632 14.7626 117.695 14.5579L124.404 13.2662C125.504 13.0544 126.141 13.502 126.316 14.6088L130.232 36.7233C130.885 36.5596 131.541 36.4142 132.201 36.2872C132.854 36.1235 133.54 35.9344 134.259 35.7199C134.839 35.5703 135.274 35.5624 135.566 35.6963C135.888 35.7865 136.134 36.0811 136.307 36.5802L137.801 41.0829C138.159 42.1545 137.854 42.8406 136.886 43.1411C136.064 43.4134 135.205 43.6928 134.31 43.9793C133.444 44.222 132.56 44.4683 131.657 44.7181L133.062 52.6028C133.273 53.7026 132.829 54.3584 131.729 54.5701L126.34 55.6078Z" fill="#996899"/>
<path d="M174.426 39.8444C174.681 41.4572 175.505 42.7494 176.898 43.7209C178.292 44.6552 179.997 45.131 182.013 45.1485C183.544 45.1527 184.911 45.0218 186.113 44.7557C187.317 44.4523 188.449 43.9976 189.512 43.3915C190.686 42.7886 191.523 42.886 192.025 43.6839L193.909 46.4802C194.124 46.8221 194.207 47.1979 194.159 47.6074C194.149 47.9806 193.914 48.3663 193.455 48.7647C191.776 50.0635 189.94 51.0033 187.944 51.584C185.987 52.1657 183.72 52.4215 181.145 52.3515C178.719 52.2856 176.49 51.8515 174.458 51.0494C172.463 50.2482 170.738 49.1369 169.283 47.7155C167.828 46.2568 166.718 44.5273 165.95 42.5271C165.184 40.4895 164.835 38.2205 164.903 35.7201C164.971 33.2197 165.424 30.9725 166.263 28.9785C167.138 26.9856 168.305 25.2993 169.761 23.9197C171.219 22.5028 172.929 21.4289 174.891 20.6979C176.853 19.9669 178.953 19.6319 181.192 19.6928C183.581 19.7577 185.717 20.1892 187.6 20.9873C189.521 21.7491 191.135 22.8201 192.442 24.2001C193.75 25.5428 194.734 27.1194 195.395 28.9301C196.092 30.7417 196.45 32.7121 196.466 34.8414C196.466 36.2232 196.061 37.4073 195.249 38.3936C194.476 39.3809 193.286 39.8715 191.68 39.8652L174.426 39.8444ZM188.289 32.7144C188.107 31.1782 187.357 29.9067 186.04 28.8999C184.723 27.893 183.13 27.4016 181.262 27.4255C179.245 27.4454 177.643 27.9807 176.457 29.0315C175.271 30.0824 174.563 31.3703 174.335 32.8953L188.289 32.7144Z" fill="#9A7B9A"/>
<path d="M207.085 53.5218C205.979 53.346 205.514 52.705 205.69 51.5989L209.395 24.0064C209.497 22.8886 210.119 22.4205 211.262 22.6021L218.009 23.6744C218.562 23.7623 218.932 23.9345 219.118 24.1909C219.304 24.4472 219.353 24.852 219.265 25.405L219.002 27.0642C220.274 25.7166 221.916 24.9002 223.927 24.6149C225.981 24.2987 228.102 24.3901 230.291 24.8892C231.385 25.1387 231.851 25.7797 231.686 26.812L230.781 32.5085C230.693 33.0616 230.46 33.4593 230.081 33.7015C229.745 33.9127 229.343 33.9433 228.876 33.7934C227.731 33.3847 226.52 33.1545 225.243 33.1027C223.972 33.0141 222.764 33.1245 221.618 33.4339C220.516 33.7122 219.55 34.2013 218.72 34.9011C217.933 35.57 217.434 36.4545 217.221 37.5547L214.428 52.9877C214.252 54.0938 213.611 54.5589 212.505 54.3831L207.085 53.5218Z" fill="#996899"/>
<path d="M236.714 58.9945C235.635 58.6959 235.244 58.0068 235.543 56.9274L242.317 29.924C242.544 28.8246 243.215 28.4292 244.33 28.7378L250.915 30.5597C251.455 30.709 251.803 30.9215 251.959 31.1971C252.115 31.4727 252.118 31.8804 251.969 32.4201L251.521 34.0393C252.937 32.8428 254.66 32.2155 256.69 32.1575C258.766 32.0735 260.864 32.4021 262.983 33.1433C264.043 33.5139 264.433 34.203 264.154 35.2105L262.616 40.7696C262.467 41.3093 262.19 41.6783 261.787 41.8766C261.429 42.0488 261.027 42.0342 260.579 41.8328C259.487 41.2984 258.31 40.9339 257.046 40.7393C255.793 40.5088 254.58 40.483 253.407 40.6621C252.28 40.8151 251.266 41.1929 250.363 41.7953C249.506 42.3717 248.91 43.1947 248.576 44.2642L244.071 59.2868C243.772 60.3662 243.083 60.7566 242.004 60.458L236.714 58.9945Z" fill="#996899"/>
<path d="M268.743 64.9806C267.959 63.1052 267.559 61.0891 267.543 58.9322C267.576 56.7556 268.082 54.5164 269.061 52.2146C270.04 49.9129 271.302 47.9951 272.847 46.4615C274.427 44.9424 276.164 43.8151 278.059 43.0796C279.969 42.3096 281.97 41.9439 284.063 41.9823C286.191 42.0354 288.286 42.5003 290.347 43.3771C292.408 44.2538 294.179 45.4329 295.658 46.9142C297.172 48.4101 298.314 50.113 299.084 52.0227C299.868 53.8981 300.244 55.9241 300.211 58.1007C300.212 60.292 299.723 62.5385 298.744 64.8402C297.765 67.142 296.486 69.0524 294.906 70.5715C293.376 72.0708 291.663 73.1882 289.768 73.9238C287.888 74.625 285.891 74.9319 283.778 74.8445C281.699 74.7717 279.629 74.2969 277.568 73.4201C275.507 72.5434 273.712 71.3742 272.183 69.9126C270.689 68.4656 269.542 66.8216 268.743 64.9806ZM276.845 56.3774C275.924 58.5418 275.832 60.5715 276.567 62.4666C277.352 64.342 278.792 65.7254 280.888 66.6168C281.918 67.0552 282.936 67.2853 283.941 67.307C284.98 67.3434 285.941 67.1839 286.822 66.8286C287.718 66.4389 288.521 65.8877 289.23 65.1749C289.987 64.4425 290.6 63.5266 291.068 62.4272C291.521 61.3622 291.748 60.3027 291.75 59.2488C291.787 58.2094 291.627 57.249 291.272 56.3676C290.931 55.4519 290.387 54.6322 289.64 53.9087C288.927 53.1999 288.056 52.6262 287.025 52.1879C284.861 51.2672 282.841 51.1992 280.966 51.9837C279.139 52.7485 277.766 54.2131 276.845 56.3774Z" fill="#9A7B9A"/>
<path d="M302.679 84.6594C301.715 84.0889 301.518 83.3217 302.089 82.3579L315.686 58.0644C316.193 57.0626 316.944 56.8564 317.94 57.4458L323.819 60.9257C324.301 61.2109 324.581 61.5069 324.66 61.8138C324.739 62.1207 324.635 62.5151 324.35 62.997L323.494 64.4427C325.174 63.6579 327.001 63.5029 328.976 63.9776C331.002 64.4393 332.94 65.3048 334.792 66.5743C335.718 67.209 335.915 67.9761 335.382 68.8757L332.444 73.8395C332.159 74.3214 331.796 74.6053 331.354 74.6912C330.964 74.7639 330.579 74.6446 330.2 74.3331C329.286 73.5319 328.245 72.8722 327.076 72.3542C325.927 71.8041 324.763 71.4621 323.584 71.3283C322.456 71.1814 321.378 71.2807 320.349 71.6262C319.371 71.9586 318.581 72.5973 317.979 73.5421L309.703 86.8646C309.133 87.8284 308.365 88.0251 307.402 87.4546L302.679 84.6594Z" fill="#996899"/>
</svg>
