<svg width="377" height="283" viewBox="0 0 377 283" fill="none" xmlns="http://www.w3.org/2000/svg">
<path d="M279.34 65.7297C279.159 63.8627 278.764 61.9826 278.88 60.1331C278.941 59.1526 279.689 58.004 280.479 57.314C282.811 55.2745 285.674 56.2637 287.004 59.5195C287.515 60.7663 287.751 62.1202 288.2 63.7383C288.695 63.2775 289.101 62.9696 289.417 62.5919C291.174 60.4912 293.417 59.8863 296.074 60.4431C298.249 60.8973 299.495 62.8211 298.91 64.9305C297.989 68.2475 295.707 70.1538 291.957 70.9574C293.318 71.9619 294.518 72.7807 295.642 73.6891C297.322 75.0473 298.395 76.7964 298.544 78.9364C298.775 82.2839 295.987 83.937 291.892 82.736C291.558 82.8735 291.486 83.0788 291.416 83.284C292.631 88.1448 293.844 93.0056 295.118 98.1022C297.245 97.6437 299.231 97.3205 301.149 96.7768C304.6 95.7985 306.049 96.0038 308.449 99.6461C310.772 103.175 311.054 107.064 309.446 111.049C308.377 113.696 307.63 116.48 306.426 119.063C303.101 126.19 297.872 131.789 291.045 135.829C286.073 138.773 281.096 141.773 275.448 143.465C267.882 145.732 260.209 146.797 252.3 145.865C248.262 145.389 244.219 144.961 239.895 144.465C239.526 144.668 239.437 144.92 239.349 145.168C239.443 146.468 239.463 147.774 239.644 149.062C239.96 151.322 240.935 153.006 242.973 154.528C249.734 159.576 254.226 166.186 255.793 174.477C256.173 176.484 256.454 178.521 256.587 180.559C256.67 181.814 257.095 182.273 258.396 182.293C261.382 182.338 264.371 182.452 267.349 182.666C269.479 182.819 271.427 183.491 272.967 185.083C274.132 186.286 275.596 185.784 276.879 185.376C282.866 183.472 288.752 187.463 288.975 193.656C289.009 194.648 289.116 195.667 288.948 196.633C287.888 202.718 289.533 208.595 290.244 214.554C291.163 222.253 291.852 229.977 292.585 237.696C293.345 245.69 284.797 254.351 277.145 254.827C273.969 255.025 271.052 254.46 268.883 251.929C267.127 249.881 266.996 247.684 268.325 245.369C268.562 244.957 268.715 244.496 269.117 243.579C267.216 243.839 265.709 244.173 264.192 244.227C260.97 244.343 257.743 244.275 254.521 244.367C253.716 244.389 252.909 244.688 252.125 244.937C250.869 245.336 249.656 246.094 248.386 246.184C241.069 246.706 233.915 245.638 226.938 243.542C224.963 242.95 223.168 241.81 221.237 241.05C220.595 240.797 219.718 240.733 219.068 240.941C210.42 243.705 201.532 243.895 192.619 243.057C182.972 242.151 173.363 241.491 163.653 242.194C157.127 242.666 150.53 242.849 144.006 242.458C138.532 242.131 133.381 243.937 127.966 243.817C124.853 243.749 121.711 244.668 118.594 245.203C117.924 245.319 117.285 245.653 116.656 245.941C111.028 248.507 106.37 247.71 102.261 243.114C99.8114 240.373 97.9176 237.154 95.4239 234.46C92.1143 230.883 88.6301 227.422 84.9146 224.249C79.7352 219.827 74.6388 215.381 71.3182 209.389C67.9322 203.28 66.2501 196.838 67.8384 189.865C69.1496 184.114 74.8111 180.203 79.9512 181.924C82.9598 182.932 85.8506 184.537 88.4599 186.334C90.4234 187.688 91.8219 189.806 93.5498 191.51C93.9316 191.887 94.8392 192.289 95.1708 192.106C100.54 189.125 106.601 188.044 112.308 186C112.902 185.789 113.558 185.129 113.742 184.544C115.269 179.701 118.762 177.34 123.729 176.63C127.052 176.154 129.664 174.827 130.744 171.309C131.815 167.815 132.973 164.293 134.61 161.03C136.207 157.851 138.266 154.838 140.496 152.034C141.901 150.267 142.209 150.499 142.191 147.885C139.178 148.236 136.183 148.61 133.183 148.933C126.064 149.702 118.958 149.769 111.87 148.564C102.405 146.952 93.4473 143.948 85.0957 139.303C79.0436 135.938 73.3363 132.121 69.5226 126.238C66.2937 121.258 65.4428 115.982 68.2049 110.516C69.8783 107.206 72.5138 106.094 76.2554 106.819C80.6799 107.678 85.0848 108.734 89.5508 109.282C99.6543 110.523 109.758 110.381 119.763 108.324C128.785 106.47 137.636 104.029 146.195 100.657C147.482 100.15 148.78 99.5937 149.912 98.8338C150.458 98.4691 150.916 97.5869 150.933 96.9253C151.114 90.5927 151.199 84.2579 151.302 77.9232C151.402 71.75 152.646 65.7341 154.228 59.8077C156.145 52.6235 158.345 45.5092 160.487 38.384C161.146 36.1938 161.861 33.9949 162.837 31.9292C163.526 30.4705 163.018 29.9901 161.748 29.5009C156.669 27.5531 152.441 24.4174 149.085 20.2685C146.677 17.2944 146.153 13.7241 146.86 10.0338C147.294 7.75842 150.436 5.5442 153.287 5.18172C158.255 4.55065 162.906 5.89577 167.471 7.44616C171.241 8.72577 174.869 10.3897 178.586 11.8222C179.06 12.0056 179.73 11.9292 180.238 11.7632C182.25 11.1081 184.207 9.87437 186.233 9.76737C190.208 9.55774 194.218 9.99884 198.215 10.0687C198.837 10.0796 199.719 9.71715 200.046 9.2433C200.875 8.03574 201.955 7.82393 203.198 8.16676C204.486 8.52051 204.992 9.55774 204.878 10.7718C204.776 11.8615 205.077 12.4685 206.054 13.1586C213.507 18.4124 218.606 25.2407 219.928 34.2897C220.436 37.7769 220.438 41.3385 220.591 44.8694C220.979 53.8638 221.149 62.8692 221.745 71.8483C222.103 77.2485 223.754 82.4259 226.229 87.3085C226.469 87.7823 226.844 88.3894 227.291 88.5313C231.294 89.8066 234.083 92.8135 237.314 95.1696C241.884 98.5018 246.662 101.467 252.361 102.454C259.281 103.655 266.224 104.101 273.207 102.526C279.024 101.216 284.908 100.199 290.774 99.1045C291.935 98.8884 292.225 98.4909 291.892 97.3467C290.816 93.6542 289.865 89.9289 288.833 86.2232C288.708 85.7799 288.379 85.3913 288.146 84.9785C287.82 85.2908 287.445 85.5681 287.181 85.9241C286.341 87.0552 285.53 88.0684 283.8 87.7867C281.91 87.4788 281.11 86.3499 280.848 84.6641C280.726 83.8802 280.632 83.0941 280.488 82.0394C277.992 83.1683 275.393 84.8847 273.327 81.9477C271.405 79.2181 273.445 77.0672 275.092 74.6696C274.438 74.5953 273.936 74.5211 273.432 74.4861C270.797 74.2984 269.35 73.2044 269.058 71.1627C268.735 68.9135 269.865 66.9722 272.376 66.4503C274.366 66.0355 276.5 66.2778 278.832 66.2669C279.174 66.1141 279.257 65.9219 279.34 65.7297ZM203.046 15.1959C202.142 14.8247 201.239 14.4513 200.183 13.9447C200.05 13.9141 199.917 13.8813 199.633 13.6215C198.575 13.4424 197.517 13.2612 196.191 13.0101C195.911 12.9926 195.634 12.973 195.148 12.7764C194.69 12.7764 194.232 12.7764 193.426 12.7175C191.406 12.7371 189.386 12.759 187.117 12.6978C186.801 12.7939 186.486 12.8922 185.878 12.9904C185.134 13.2787 184.39 13.5669 183.648 13.8551C183.672 14.0342 183.696 14.2133 183.72 14.3923C185.653 15.4143 187.584 16.4362 189.541 17.6678C189.89 17.9124 190.241 18.1569 190.793 18.5609C192.8 19.9038 194.805 21.249 196.887 22.8059C197.443 23.092 197.999 23.3802 198.691 23.8802C201.396 25.922 204.099 27.9615 206.923 30.1844C207.392 30.5513 207.861 30.9203 208.461 31.5012C211.38 34.4884 214.297 37.4778 217.035 40.2794C216.653 36.1086 215.449 31.7741 213.668 27.6034C211.81 23.247 208.947 19.6221 204.848 16.7135C204.287 16.2986 203.726 15.8837 203.131 15.471C203.131 15.471 203.122 15.4383 203.046 15.1959ZM244.983 141.958C247.328 142.162 249.675 142.328 252.014 142.579C259.456 143.374 266.821 142.913 273.862 140.437C278.184 138.917 282.277 136.748 286.4 134.731C292.915 131.54 298.21 126.87 301.751 120.718C303.993 116.823 305.388 112.429 306.852 108.158C307.482 106.319 307.334 104.225 306.262 102.557C304.842 104.048 303.511 105.616 301.975 106.963C301.469 107.407 300.123 107.656 299.706 107.328C298.746 106.579 299.447 105.719 300.143 104.983C301.262 103.804 302.359 102.598 303.378 101.336C303.697 100.943 303.73 100.33 303.893 99.8164C303.363 99.8098 302.831 99.7596 302.305 99.8077C301.866 99.8492 301.445 100.024 301.009 100.111C292.415 101.812 283.791 103.378 275.236 105.245C268.36 106.747 261.507 106.911 254.571 105.944C250.448 105.369 246.398 104.459 242.875 102.271C238.712 99.6876 234.604 96.9755 230.749 93.9839C226.951 91.036 221.156 89.835 217.122 92.5471C216.502 92.9641 215.776 93.296 215.049 93.4686C214.526 93.593 213.919 93.3921 213.35 93.3353C213.529 92.8549 213.561 92.2086 213.908 91.9247C216.14 90.0992 218.311 88.1252 221.451 87.885C221.787 87.8588 222.107 87.6491 222.474 87.5094C222.304 87.0552 222.179 86.7058 222.04 86.3608C219.11 79.1526 217.115 71.7806 217.458 63.9195C217.657 59.3906 217.635 54.853 217.643 50.3198C217.646 49.6429 217.48 48.765 217.037 48.3196C215.141 46.4132 213.324 44.3257 211.094 42.8605C202.164 36.9908 192.63 32.3397 181.979 30.1735C177.507 29.2651 173.045 28.9747 168.546 30.0796C167.183 30.4137 166.476 31.0906 165.981 32.3877C162.983 40.2226 160.347 48.1492 158.294 56.2855C156.3 64.1946 154.579 72.1082 154.505 80.2815C154.404 91.274 154.542 102.271 154.21 113.255C154.036 118.991 153.486 124.784 152.345 130.403C151.319 135.451 149.212 140.286 147.663 145.241C147.185 146.767 146.891 148.359 146.655 149.94C146.456 151.276 147.032 152.305 148.267 153.054C149.284 153.669 150.207 154.445 151.112 155.215C154.317 157.943 157.515 160.594 161.748 161.832C168.023 163.668 174.446 164.36 180.934 164.625C195.584 165.225 209.787 162.41 223.914 159.096C228.665 157.98 233.195 156.309 237.484 154.049C237.233 153.189 236.923 152.427 236.799 151.639C236.339 148.713 235.771 145.786 235.582 142.841C235.459 140.976 236.391 140.447 238.276 140.775C240.403 141.148 242.526 141.548 244.983 141.958ZM160.585 165.225C159.126 164.625 157.515 164.236 156.239 163.378C153.536 161.555 150.964 159.537 148.424 157.499C147.039 156.388 145.767 155.08 143.851 155.097C143.055 155.104 141.866 155.386 141.534 155.934C139.905 158.637 138.353 161.408 137.064 164.278C135.847 166.987 134.943 169.837 133.981 172.652C132.607 176.676 129.825 179.008 125.525 179.694C124.214 179.904 122.953 180.386 121.652 180.672C119.894 181.059 118.624 182.107 117.954 183.631C116.386 187.201 115.43 190.968 115.978 194.853C116.94 201.683 118.969 208.219 121.796 214.573C125.728 223.406 131.64 230.686 139.108 236.842C140.238 237.775 141.674 238.818 143.042 238.923C147.211 239.246 151.418 239.27 155.604 239.166C162.594 238.991 169.58 238.417 176.571 238.417C181.449 238.417 186.332 239.069 191.208 239.471C201.741 240.343 212.139 240.308 222.19 236.333C226.497 234.63 230.542 232.634 233.755 229.346C238.686 224.299 243.069 218.812 245.881 212.357C247.834 207.876 249.403 203.229 251.002 198.609C252.544 194.154 252.597 189.479 252.968 184.837C253.568 177.342 252.147 170.39 247.675 164.214C246.041 161.958 244.023 159.958 242.081 157.93C241.217 157.028 239.98 156.927 238.924 157.62C234.927 160.247 230.317 161.244 225.759 162.279C219.341 163.736 212.872 164.992 206.412 166.26C199.16 167.686 191.816 168.315 184.427 168.206C180.552 168.147 176.653 168.014 172.816 167.533C168.799 167.029 164.848 166.068 160.585 165.225ZM73.7857 111.866C75.3151 113.412 76.8706 114.934 78.352 116.523C78.6836 116.879 79.0393 117.711 78.8713 117.906C78.5397 118.294 77.7935 118.65 77.3223 118.55C76.4954 118.375 75.5769 118.008 75.0009 117.434C73.5741 116.004 72.3218 114.41 70.8338 112.693C70.0353 114.726 69.743 116.624 70.0462 118.618C70.7946 123.518 73.7988 127.07 77.4379 130.189C82.4449 134.477 88.1785 137.644 94.296 140.153C101.598 143.146 109.153 145.192 117.073 145.937C125.656 146.743 134.101 145.723 142.521 144.312C143.212 144.197 144.124 143.446 144.338 142.801C146.123 137.454 148.455 132.161 149.29 126.658C150.445 119.076 150.438 111.326 150.92 103.646C150.931 103.478 150.826 103.304 150.733 102.994C150.235 103.105 149.742 103.16 149.286 103.323C146.378 104.361 143.526 105.577 140.568 106.446C130.458 109.416 120.254 112.008 109.664 112.744C101.059 113.34 92.4852 113.176 83.9852 111.558C80.9286 110.977 77.8764 110.376 74.8067 109.863C74.2439 109.769 73.6155 110.058 73.0177 110.169C73.2163 110.658 73.4148 111.147 73.7857 111.866ZM71.532 189.335C69.8455 194.366 70.5568 199.275 72.4679 204.068C75.0424 210.525 79.6021 215.512 84.9757 219.897C89.8475 223.871 94.6974 227.878 98.5263 232.888C100.304 235.215 101.956 237.644 103.826 239.897C107.07 243.81 110.406 245.47 115.596 242.786C116.039 242.557 116.532 242.421 117.003 242.242C120.926 240.751 125.06 240.594 129.19 240.371C131.625 240.24 134.053 240.004 136.484 239.816C136.538 239.679 136.593 239.539 136.647 239.401C121.12 226.07 112.926 209.411 112.28 189.254C111.566 189.49 110.665 189.761 109.786 190.086C105.938 191.516 102.089 192.944 98.2558 194.412C96.9577 194.907 95.7315 195.584 94.4247 196.054C93.2488 196.475 92.2343 196.355 91.5994 195.01C89.3108 190.149 85.1153 187.356 80.2261 185.474C76.4518 184.02 73.3646 185.417 71.532 189.335ZM268.093 240.62C271.516 240.884 272.812 243.146 271.272 246.171C271.215 246.282 271.15 246.389 271.091 246.498C269.976 248.662 270.622 250.411 272.935 251.252C273.753 251.549 274.647 251.708 275.52 251.787C282.015 252.379 289.708 244.354 289.184 238.574C288.434 230.298 287.659 222.02 286.703 213.765C286.09 208.479 284.664 203.277 285.486 197.873C285.726 196.294 285.634 194.645 285.527 193.04C285.327 190.031 281.203 186.824 278.145 188.411C277.492 188.75 276.692 188.889 275.943 188.961C275.081 189.047 275.023 189.444 274.97 190.184C274.848 191.905 274.735 193.663 274.27 195.314C272.151 202.838 269.734 210.287 267.766 217.849C265.835 225.269 262.652 232.062 258.236 238.344C257.588 239.266 256.842 240.122 256.142 241.008C256.24 241.207 256.336 241.406 256.434 241.605C260.217 241.279 263.996 240.95 268.093 240.62ZM228.862 240.816C234.139 242.351 239.585 242.825 245.039 242.989C247.029 243.05 249.187 243.181 250.921 241.511C257.911 234.772 261.904 226.468 264.48 217.384C266.424 210.534 268.449 203.708 270.358 196.849C270.921 194.829 271.447 192.752 271.569 190.678C271.726 188.049 270.452 186.479 267.819 186.153C264.557 185.751 261.238 185.789 257.953 185.553C256.735 185.465 256.513 185.948 256.402 187.022C256.048 190.407 255.821 193.837 255.042 197.139C252.725 206.933 248.945 216.137 242.687 224.249C239.978 227.76 237.288 231.311 233.646 233.953C231.02 235.859 228.157 237.458 225.319 239.246C226.322 239.716 227.442 240.242 228.862 240.816ZM149.816 15.6938C150.056 16.2615 150.211 16.8839 150.547 17.3905C153.894 22.4041 158.648 25.6184 164.39 27.5204C165.084 27.7497 165.935 28.0051 166.583 27.8174C169.956 26.8434 173.394 26.9286 176.808 27.1906C180.092 27.4418 183.425 27.7278 186.602 28.5183C194.029 30.3678 200.692 34.0364 207.422 37.4843C208.98 38.2836 210.42 39.3011 211.914 40.2183C212.028 40.096 212.141 39.9759 212.257 39.8536C211.67 39.1046 211.194 38.229 210.474 37.6285C206.002 33.8901 201.645 29.9879 196.917 26.5792C192.133 23.1313 187.091 19.9759 181.931 17.0848C175.713 13.5997 169.14 10.8264 162.184 8.92448C159.128 8.08815 156.148 7.52913 153.004 8.11653C150.942 8.50086 149.443 10.0491 149.397 12.0864C149.376 13.1848 149.609 14.2897 149.816 15.6938ZM289.136 77.9079C290.325 78.6897 291.455 79.5893 292.723 80.2204C293.888 80.7991 295.19 80.6025 295.96 79.5107C296.713 78.4451 296.006 77.3358 295.168 76.7528C293.185 75.3727 291.056 74.187 288.944 72.9925C288.582 72.7873 287.779 72.7283 287.607 72.9379C287.299 73.3092 287.079 74.0298 287.247 74.4403C287.707 75.567 288.388 76.6108 289.136 77.9079ZM285.955 68.92C285.94 67.623 286.09 66.2997 285.87 65.0375C285.569 63.3037 285.113 61.5655 284.454 59.9344C284.247 59.4212 283.176 59.0041 282.495 58.9954C282.093 58.991 281.493 59.8208 281.31 60.3776C280.453 62.998 282.323 68.1449 284.635 69.7018C285.218 70.097 285.837 70.2892 285.955 68.92ZM289.496 69.6123C290.84 69.062 292.162 68.4462 293.537 67.9789C295.02 67.4745 295.827 66.3936 296.189 65.0485C296.371 64.3737 296.329 63.2448 295.904 62.9085C295.339 62.463 294.169 62.2752 293.482 62.5351C290.554 63.6444 288.972 66.0355 287.98 68.7999C287.578 69.9158 288.071 70.3438 289.496 69.6123ZM279.043 68.6951C277.422 68.5183 275.799 68.1951 274.18 68.2147C273.015 68.2278 271.927 68.8611 271.791 70.1844C271.637 71.6845 272.908 72.2392 273.988 72.1977C276.74 72.0972 279.482 71.7042 282.222 71.3897C282.475 71.3614 282.696 71.06 282.931 70.8853C282.709 70.6277 282.536 70.2717 282.253 70.1276C281.301 69.6428 280.309 69.2323 279.043 68.6951ZM278.902 80.1811C281.105 78.3228 282.578 76.0824 283.04 72.9423C279.927 73.8573 277.418 75.1369 275.965 77.6939C275.461 78.5805 275.162 80.2248 275.66 80.858C276.447 81.8647 277.719 80.9825 278.902 80.1811ZM284.441 77.0563C284.188 77.5498 283.802 78.0215 283.706 78.5434C283.37 80.3689 283.032 82.2075 282.929 84.0527C282.901 84.5811 283.673 85.1511 284.077 85.7013C284.712 85.1227 285.634 84.6597 285.931 83.9457C286.95 81.5066 285.887 79.1089 285.421 76.7156C285.418 76.7025 284.855 76.7899 284.441 77.0563Z" fill="#101010"/>
<path d="M189.168 260.535C196.791 260.655 204.228 260.764 211.668 260.902C217.26 261.005 222.849 261.133 228.441 261.275C232.503 261.378 236.57 261.422 240.623 261.673C247.066 262.07 253.5 262.618 259.938 263.103C264.987 263.483 270.057 263.701 275.079 264.291C280.715 264.95 286.409 265.485 291.769 267.505C292.697 267.855 293.417 268.735 294.23 269.37C293.541 270.047 292.958 270.923 292.132 271.349C291.097 271.884 289.882 272.191 288.711 272.349C282.329 273.205 276.098 274.912 269.594 275.139C262.702 275.38 255.832 276.161 248.945 276.541C240.46 277.011 231.966 277.552 223.473 277.637C199.029 277.882 174.581 278.002 150.135 277.974C143.11 277.965 136.082 277.316 129.059 276.906C123.498 276.581 117.93 276.288 112.387 275.77C105.973 275.172 99.5736 274.406 93.1855 273.591C90.2664 273.218 87.3756 272.598 84.4957 271.988C83.7278 271.827 82.9882 271.366 82.3337 270.907C80.5338 269.645 80.6363 268.748 82.6566 267.754C85.8135 266.2 89.2301 265.713 92.7012 265.337C97.0297 264.87 101.336 264.201 105.656 263.651C107.349 263.435 109.049 263.249 110.753 263.149C115.561 262.863 120.372 262.59 125.187 262.383C131.845 262.094 138.504 261.845 145.165 261.625C150.054 261.461 154.945 261.35 159.837 261.249C166.637 261.109 173.44 261.016 180.242 260.867C183.153 260.802 186.068 260.649 189.168 260.535Z" fill="#DBDBDB"/>
<path d="M244.814 141.948C242.523 141.548 240.403 141.149 238.276 140.777C236.388 140.45 235.459 140.978 235.581 142.843C235.773 145.789 236.34 148.715 236.799 151.641C236.923 152.429 237.233 153.191 237.484 154.052C233.194 156.312 228.665 157.985 223.913 159.098C209.785 162.413 195.584 165.228 180.934 164.627C174.445 164.361 168.022 163.671 161.748 161.834C157.515 160.594 154.317 157.945 151.112 155.218C150.206 154.447 149.281 153.672 148.267 153.056C147.032 152.307 146.456 151.279 146.655 149.942C146.89 148.361 147.185 146.769 147.663 145.243C149.214 140.291 151.319 135.454 152.345 130.405C153.488 124.784 154.038 118.993 154.21 113.257C154.544 102.273 154.406 91.2743 154.504 80.284C154.579 72.1107 156.298 64.1972 158.294 56.288C160.347 48.1518 162.983 40.2251 165.98 32.3902C166.478 31.091 167.185 30.4162 168.546 30.0821C173.045 28.9794 177.506 29.2676 181.979 30.176C192.63 32.34 202.164 36.9933 211.094 42.863C213.323 44.3282 215.141 46.4158 217.037 48.3221C217.482 48.7697 217.645 49.6454 217.643 50.3223C217.634 54.8555 217.656 59.3953 217.458 63.922C217.113 71.7831 219.109 79.1551 222.039 86.3633C222.179 86.7061 222.301 87.0577 222.474 87.5119C222.105 87.6517 221.786 87.8613 221.45 87.8875C218.311 88.1299 216.14 90.1017 213.908 91.9272C213.561 92.2111 213.528 92.8596 213.35 93.3379C213.919 93.3946 214.526 93.5955 215.049 93.4711C215.776 93.2964 216.502 92.9644 217.122 92.5496C221.158 89.8375 226.95 91.0385 230.749 93.9864C234.606 96.9802 238.714 99.6901 242.875 102.273C246.398 104.461 250.447 105.372 254.571 105.946C261.509 106.911 268.359 106.748 275.236 105.247C283.791 103.378 292.415 101.813 301.009 100.114C301.445 100.029 301.866 99.8517 302.305 99.8102C302.828 99.7599 303.363 99.8102 303.893 99.8189C303.729 100.332 303.694 100.943 303.378 101.339C302.359 102.601 301.262 103.804 300.142 104.985C299.447 105.719 298.746 106.582 299.706 107.331C300.123 107.656 301.471 107.407 301.975 106.966C303.511 105.619 304.842 104.051 306.262 102.559C307.331 104.228 307.48 106.324 306.851 108.16C305.387 112.432 303.993 116.825 301.75 120.721C298.209 126.872 292.917 131.545 286.4 134.733C282.276 136.751 278.184 138.919 273.862 140.439C266.821 142.915 259.456 143.376 252.014 142.581C249.675 142.33 247.325 142.164 244.814 141.948ZM164.503 46.0576C162.668 49.6082 161.767 53.3947 161.787 57.3449C161.796 58.797 162.071 60.3452 162.64 61.6816C164.593 66.2651 170.267 67.7478 174.487 65.075C174.821 64.8632 175.7 64.9418 175.951 65.2147C178.682 68.1757 182.95 68.809 186.429 66.7891C190.271 64.5596 192.63 61.1706 194.157 57.2423C195.442 53.9384 196.151 50.4926 195.383 46.8896C194.356 42.0703 188.773 39.6312 184.758 41.8083C183.619 42.4262 182.524 43.1206 181.392 43.7888C181.235 43.5224 181.091 43.3739 181.054 43.2036C179.882 37.976 175.019 37.4847 171.354 39.0329C168.16 40.3889 166.155 42.8717 164.503 46.0576ZM194.319 40.1138C195.274 38.4739 194.271 37.4104 193.095 36.5042C191.515 35.2879 189.405 35.0455 188.349 35.9496C187.981 36.2662 187.629 36.93 187.721 37.3362C187.808 37.7249 188.48 38.2511 188.903 38.2577C190.193 38.2795 190.998 38.8669 191.718 39.8299C192.329 40.6531 193.171 41.0353 194.319 40.1138ZM176.64 32.0539C175.161 31.9426 173.658 31.8487 172.713 33.2681C172.469 33.6349 172.318 34.2703 172.484 34.6219C172.643 34.9626 173.368 35.3774 173.664 35.2726C175.063 34.7813 176.199 35.1678 177.454 35.7705C177.897 35.9845 179.007 35.5805 179.321 35.1329C179.601 34.7333 179.413 33.7004 179.04 33.2746C178.545 32.7156 177.668 32.471 176.64 32.0539Z" fill="#FDFDFD"/>
<path d="M160.727 165.267C164.848 166.068 168.797 167.027 172.809 167.529C176.647 168.009 180.545 168.142 184.42 168.201C191.812 168.313 199.153 167.682 206.405 166.256C212.867 164.987 219.334 163.731 225.753 162.275C230.312 161.24 234.92 160.242 238.917 157.615C239.971 156.923 241.21 157.023 242.074 157.925C244.013 159.954 246.034 161.954 247.668 164.21C252.143 170.385 253.561 177.338 252.961 184.832C252.59 189.474 252.535 194.15 250.995 198.604C249.396 203.223 247.827 207.872 245.874 212.352C243.062 218.807 238.679 224.293 233.749 229.341C230.535 232.63 226.49 234.626 222.183 236.329C212.132 240.305 201.734 240.338 191.201 239.467C186.325 239.063 181.444 238.412 176.564 238.412C169.576 238.412 162.59 238.986 155.597 239.161C151.411 239.266 147.204 239.242 143.035 238.919C141.667 238.812 140.232 237.77 139.101 236.838C131.636 230.682 125.721 223.402 121.79 214.569C118.962 208.214 116.933 201.681 115.971 194.848C115.423 190.964 116.379 187.197 117.948 183.627C118.617 182.102 119.889 181.054 121.646 180.668C122.946 180.382 124.207 179.897 125.518 179.689C129.82 179.004 132.6 176.672 133.974 172.647C134.937 169.833 135.84 166.983 137.057 164.273C138.347 161.404 139.898 158.633 141.528 155.929C141.857 155.381 143.046 155.099 143.844 155.093C145.76 155.075 147.032 156.383 148.417 157.495C150.959 159.532 153.529 161.552 156.232 163.373C157.515 164.238 159.125 164.625 160.727 165.267Z" fill="#947B97"/>
<path d="M73.6985 111.751C73.4149 111.146 73.2163 110.659 73.02 110.17C73.6178 110.058 74.2483 109.77 74.809 109.864C77.8765 110.377 80.9309 110.975 83.9874 111.558C92.4874 113.176 101.062 113.34 109.666 112.744C120.256 112.008 130.46 109.416 140.57 106.446C143.529 105.577 146.38 104.361 149.288 103.324C149.742 103.162 150.237 103.106 150.735 102.994C150.829 103.306 150.933 103.481 150.922 103.647C150.44 111.325 150.447 119.074 149.293 126.658C148.455 132.161 146.125 137.454 144.34 142.802C144.124 143.446 143.214 144.197 142.523 144.313C134.104 145.724 125.658 146.743 117.075 145.938C109.156 145.193 101.6 143.147 94.2982 140.153C88.1807 137.644 82.4472 134.478 77.4401 130.189C73.801 127.071 70.7968 123.518 70.0485 118.618C69.7452 116.624 70.0376 114.727 70.8361 112.694C72.324 114.412 73.5763 116.004 75.0031 117.435C75.5769 118.011 76.4976 118.376 77.3245 118.55C77.7957 118.651 78.5419 118.293 78.8735 117.906C79.0415 117.71 78.6859 116.878 78.3543 116.524C76.8729 114.934 75.3151 113.412 73.6985 111.751Z" fill="#FCFCFC"/>
<path d="M71.5949 189.201C73.3643 185.419 76.4514 184.02 80.2236 185.474C85.1128 187.356 89.3083 190.151 91.5969 195.01C92.2296 196.355 93.2463 196.475 94.4222 196.054C95.729 195.586 96.9552 194.91 98.2533 194.412C102.087 192.944 105.935 191.516 109.784 190.086C110.663 189.76 111.564 189.49 112.277 189.254C112.923 209.411 121.118 226.07 136.647 239.401C136.593 239.539 136.538 239.679 136.483 239.816C134.053 240.004 131.623 240.24 129.19 240.371C125.06 240.594 120.926 240.751 117.003 242.242C116.532 242.421 116.039 242.557 115.596 242.786C110.405 245.47 107.07 243.808 103.825 239.897C101.956 237.641 100.304 235.215 98.526 232.887C94.6971 227.876 89.8471 223.869 84.9754 219.897C79.6018 215.512 75.042 210.525 72.4676 204.068C70.5564 199.275 69.8452 194.366 71.5949 189.201Z" fill="#FCFCFC"/>
<path d="M267.934 240.62C263.996 240.95 260.217 241.278 256.436 241.605C256.338 241.406 256.242 241.208 256.144 241.009C256.844 240.122 257.591 239.266 258.238 238.345C262.654 232.063 265.835 225.269 267.768 217.849C269.736 210.287 272.151 202.839 274.272 195.314C274.737 193.663 274.85 191.903 274.972 190.185C275.025 189.444 275.086 189.047 275.945 188.962C276.694 188.888 277.494 188.75 278.147 188.412C281.203 186.824 285.329 190.032 285.53 193.041C285.636 194.646 285.728 196.295 285.488 197.873C284.666 203.278 286.092 208.479 286.705 213.766C287.663 222.022 288.436 230.298 289.186 238.574C289.71 244.354 282.017 252.379 275.522 251.787C274.649 251.709 273.755 251.549 272.937 251.252C270.624 250.412 269.978 248.66 271.093 246.499C271.15 246.387 271.217 246.28 271.274 246.171C272.812 243.147 271.516 240.885 267.934 240.62Z" fill="#FBFBFB"/>
<path d="M228.711 240.793C227.442 240.243 226.322 239.716 225.314 239.245C228.153 237.456 231.015 235.86 233.642 233.951C237.283 231.309 239.973 227.759 242.683 224.247C248.942 216.135 252.723 206.931 255.038 197.137C255.819 193.838 256.046 190.405 256.397 187.021C256.509 185.946 256.731 185.464 257.949 185.551C261.236 185.787 264.553 185.75 267.814 186.152C270.45 186.477 271.722 188.047 271.565 190.676C271.44 192.751 270.917 194.827 270.354 196.847C268.445 203.706 266.42 210.532 264.476 217.382C261.897 226.466 257.907 234.77 250.917 241.509C249.182 243.182 247.025 243.049 245.035 242.987C239.583 242.826 234.137 242.354 228.711 240.793Z" fill="#937A96"/>
<path d="M149.77 15.5427C149.606 14.2893 149.375 13.1822 149.399 12.0816C149.443 10.0443 150.944 8.49611 153.006 8.11179C156.149 7.52657 159.13 8.08558 162.186 8.91973C169.142 10.8217 175.715 13.5949 181.933 17.08C187.093 19.9711 192.137 23.1265 196.919 26.5745C201.647 29.9831 206.004 33.8853 210.476 37.6237C211.194 38.2242 211.67 39.0999 212.259 39.8488C212.145 39.9711 212.032 40.0912 211.916 40.2135C210.422 39.2964 208.982 38.2788 207.424 37.4796C200.691 34.0316 194.03 30.3609 186.604 28.5136C183.427 27.7231 180.094 27.437 176.81 27.1859C173.396 26.9239 169.957 26.8387 166.585 27.8126C165.937 28.0004 165.086 27.7449 164.392 27.5156C158.65 25.6159 153.896 22.4015 150.549 17.3857C150.211 16.8835 150.056 16.2611 149.77 15.5427Z" fill="#927995"/>
<path d="M200.242 13.0845C204.171 10.2567 212.523 23.7363 213.666 26.9637C214.761 30.0579 220.944 37.9125 217.032 39.6398C213.417 41.236 207.243 34.8226 206.861 31.1214C206.556 28.1756 207.54 24.3696 206.831 22.4065C206.285 20.8997 198.486 14.3488 200.242 13.0845Z" fill="#C5A2CA"/>
<path d="M206.861 31.1214C204.156 29.0797 199.568 25.813 196.847 23.5071C197.678 21.0657 198.647 18.9236 199.326 16.6985C199.672 15.5608 200.174 15.1546 201.296 15.3315C201.296 15.3315 201.304 15.3643 201.265 15.5084C203.562 14.7572 203.565 15.7289 204.719 18.4192C206.493 22.5462 209.15 27.6865 206.861 31.1214Z" fill="#C9A5CE"/>
<path d="M199.193 13.2131C199.326 13.2437 200.447 12.9052 200.506 13.2131C201.089 16.3204 198.226 21.5044 196.04 23.8278C194.033 22.4848 191.306 21.1397 189.249 19.5762C190.025 17.4799 190.355 16.8052 191.971 16.1152C193.457 15.4775 199.62 12.1781 199.193 13.2131Z" fill="#C9A5CE"/>
<path d="M289.057 77.7991C288.388 76.6112 287.707 75.5674 287.246 74.4385C287.078 74.028 287.299 73.3074 287.606 72.9361C287.779 72.7265 288.584 72.7876 288.944 72.9907C291.056 74.1874 293.185 75.3709 295.168 76.751C296.006 77.334 296.711 78.4433 295.96 79.5089C295.19 80.6007 293.885 80.7994 292.723 80.2186C291.453 79.5897 290.325 78.69 289.057 77.7991Z" fill="#D57378"/>
<path d="M285.948 69.0821C285.837 70.2897 285.217 70.0975 284.633 69.7045C282.32 68.1475 280.45 63.0007 281.308 60.3803C281.491 59.8235 282.091 58.9937 282.492 58.9981C283.173 59.0046 284.244 59.4217 284.452 59.937C285.111 61.5682 285.566 63.3064 285.868 65.0402C286.09 66.3002 285.94 67.6234 285.948 69.0821Z" fill="#D57378"/>
<path d="M289.356 69.6688C288.071 70.3435 287.578 69.9155 287.98 68.7997C288.972 66.0352 290.554 63.6441 293.482 62.5348C294.169 62.275 295.338 62.4649 295.904 62.9082C296.331 63.2445 296.37 64.3735 296.189 65.0482C295.827 66.3933 295.02 67.4742 293.536 67.9786C292.162 68.4459 290.84 69.0617 289.356 69.6688Z" fill="#C99FA2"/>
<path d="M279.187 68.743C280.308 69.2299 281.301 69.6405 282.252 70.1274C282.536 70.2715 282.708 70.6275 282.931 70.8851C282.695 71.0598 282.475 71.3612 282.222 71.3896C279.482 71.704 276.739 72.0971 273.988 72.1975C272.906 72.2368 271.634 71.6844 271.791 70.1842C271.929 68.8609 273.017 68.2277 274.18 68.2146C275.799 68.1971 277.422 68.5181 279.187 68.743Z" fill="#CFBE73"/>
<path d="M278.788 80.2641C277.719 80.9826 276.447 81.8626 275.657 80.8581C275.16 80.2248 275.459 78.5805 275.962 77.694C277.416 75.1369 279.924 73.8573 283.038 72.9424C282.577 76.0825 281.105 78.3229 278.788 80.2641Z" fill="#C99FA2"/>
<path d="M184.869 12.6982C186.072 11.0649 199.014 10.7482 199.707 13.2136C199.79 13.6132 195.241 14.5412 194.851 14.6548C192.549 15.3186 191.676 17.5131 189.111 18.3517C187.101 19.0177 183.722 16.8406 183.24 14.7508C183.829 13.8403 183.875 13.148 184.869 12.6982Z" fill="#C5A2CA"/>
<path d="M284.497 76.9425C284.855 76.7896 285.42 76.7023 285.422 76.7175C285.889 79.113 286.952 81.5106 285.933 83.9476C285.636 84.6595 284.713 85.1246 284.079 85.7032C283.673 85.153 282.903 84.583 282.931 84.0546C283.031 82.2094 283.372 80.3708 283.708 78.5453C283.801 78.0234 284.188 77.5517 284.497 76.9425Z" fill="#CFBE73"/>
<path d="M206.861 30.0928C207.213 26.064 205.389 22.6291 204.2 19.0545C203.833 17.9517 203.436 16.8577 203.109 15.6152C203.726 15.8838 204.287 16.2987 204.883 16.8228C205.565 18.9671 206.336 20.9761 206.831 23.0462C207.455 25.6556 207.854 28.3175 208.338 31.1213C207.856 30.9182 207.389 30.5513 206.861 30.0928Z" fill="#947B97"/>
<path d="M196.847 22.6967C198.998 20.2663 199.326 17.1917 200.318 14.2285C201.237 14.4512 202.14 14.8225 203.083 15.316C201.998 15.2592 201.499 15.6654 201.149 16.8052C200.469 19.0303 199.502 21.1703 198.603 23.5068C197.999 23.378 197.441 23.0919 196.847 22.6967Z" fill="#947B97"/>
<path d="M189.528 17.5608C190.636 15.0517 192.955 14.4229 195.257 13.759C195.648 13.6477 196.021 13.4817 196.431 13.2109C197.517 13.259 198.575 13.4402 199.71 13.7328C198.215 14.294 196.577 14.591 195.091 15.2264C193.475 15.9165 191.522 16.2396 190.643 18.2551C190.239 18.1547 189.89 17.9101 189.528 17.5608Z" fill="#947B97"/>
<path d="M195.248 12.8663C194.851 12.9733 194.349 12.9907 193.808 12.8925C194.229 12.7789 194.687 12.7789 195.248 12.8663Z" fill="#947B97"/>
<path d="M187.239 12.7393C187.008 12.9118 186.652 13.0428 186.233 13.0821C186.484 12.8899 186.801 12.7938 187.239 12.7393Z" fill="#947B97"/>
<path d="M279.214 65.8438C279.257 65.9224 279.174 66.1145 278.978 66.2586C278.939 66.1254 279.013 66.0403 279.214 65.8438Z" fill="white"/>
<path d="M291.534 83.1638C291.486 83.0786 291.556 82.8733 291.743 82.7227C291.791 82.8646 291.724 82.9541 291.534 83.1638Z" fill="white"/>
<path d="M239.498 145.029C239.437 144.917 239.524 144.668 239.731 144.48C239.783 144.66 239.716 144.775 239.498 145.029Z" fill="white"/>
<path d="M164.573 45.9351C166.155 42.8714 168.16 40.3865 171.356 39.0348C175.022 37.4866 179.885 37.9757 181.056 43.2055C181.095 43.3759 181.237 43.5244 181.394 43.7908C182.524 43.1226 183.622 42.4282 184.761 41.8102C188.777 39.6309 194.358 42.0722 195.386 46.8915C196.154 50.4945 195.445 53.9381 194.16 57.2442C192.632 61.1726 190.272 64.5616 186.432 66.7911C182.952 68.8109 178.685 68.1777 175.953 65.2167C175.702 64.9437 174.823 64.8651 174.489 65.0769C170.27 67.7497 164.595 66.267 162.642 61.6835C162.073 60.3471 161.796 58.7989 161.789 57.3468C161.768 53.3944 162.671 49.608 164.573 45.9351ZM178.988 52.1061C178.696 52.9839 178.336 53.8486 178.122 54.7439C177.443 57.5892 176.802 60.4061 178.327 63.2536C179.025 64.5572 180.015 65.149 181.348 65.0201C182.579 64.9 183.853 64.5921 184.966 64.0768C187.405 62.9435 189.087 61.0153 190.064 58.5718C191.426 55.1654 192.691 51.7196 192.255 47.9593C191.919 45.066 189.454 43.1007 187.021 44.1183C185.166 44.8957 183.41 46.1404 181.966 47.5292C180.746 48.704 180.033 50.3832 178.988 52.1061ZM177.199 41.9958C175.72 41.0962 174.197 41.1638 172.637 41.784C170.313 42.7077 168.474 44.2428 167.318 46.3675C165.189 50.274 164.135 54.4841 164.654 58.9169C165.154 63.1662 168.54 64.6402 172.478 63.1247C173.3 62.8081 174.374 61.6158 174.326 60.8887C174.02 56.0759 176.237 51.9947 177.958 47.7584C178.75 45.815 178.885 43.9349 177.199 41.9958Z" fill="#131313"/>
<path d="M194.244 40.2157C193.171 41.0345 192.329 40.6524 191.716 39.8313C190.996 38.8684 190.191 38.2831 188.901 38.2591C188.478 38.2526 187.806 37.7263 187.719 37.3376C187.627 36.9293 187.978 36.2655 188.347 35.951C189.403 35.047 191.513 35.2894 193.092 36.5057C194.271 37.4097 195.274 38.4731 194.244 40.2157Z" fill="#1D1D1D"/>
<path d="M176.798 32.0738C177.668 32.4734 178.545 32.7158 179.038 33.2791C179.411 33.7049 179.599 34.7378 179.32 35.1374C179.008 35.5851 177.895 35.989 177.452 35.775C176.198 35.1724 175.061 34.7858 173.662 35.2772C173.366 35.382 172.641 34.9649 172.482 34.6264C172.318 34.2727 172.469 33.6372 172.711 33.2726C173.658 31.8488 175.161 31.9427 176.798 32.0738Z" fill="#1D1D1D"/>
<path d="M179.04 51.9728C180.031 50.3831 180.746 48.706 181.968 47.5312C183.412 46.1424 185.168 44.8978 187.023 44.1204C189.456 43.1028 191.921 45.0659 192.257 47.9614C192.693 51.7216 191.428 55.1674 190.066 58.5739C189.089 61.0174 187.407 62.9456 184.968 64.0789C183.855 64.5964 182.581 64.9021 181.35 65.0222C180.017 65.1532 179.027 64.5615 178.329 63.2556C176.804 60.4082 177.445 57.5913 178.124 54.746C178.338 53.8485 178.695 52.986 179.04 51.9728ZM180.561 56.5191C181.789 58.3315 183.146 58.6569 184.302 57.1393C185.134 56.0453 185.622 54.6259 185.965 53.2808C186.248 52.1606 185.622 51.0294 184.392 50.9377C183.547 50.8744 182.21 51.298 181.865 51.916C181.141 53.2065 180.927 54.77 180.561 56.5191Z" fill="#F5F5F5"/>
<path d="M177.306 42.1004C178.885 43.9346 178.752 45.8147 177.96 47.7582C176.239 51.9944 174.022 56.0735 174.328 60.8884C174.373 61.6156 173.302 62.8078 172.48 63.1245C168.544 64.6421 165.158 63.1681 164.656 58.9166C164.135 54.4838 165.191 50.2737 167.32 46.3672C168.476 44.2425 170.315 42.7074 172.639 41.7837C174.197 41.1658 175.72 41.0959 177.306 42.1004ZM168.273 52.4115C168.121 53.7435 168.348 55.069 169.807 55.4009C170.531 55.5669 171.755 55.1039 172.24 54.5209C173.365 53.1671 174.057 51.4966 173.403 49.7038C173.184 49.1033 172.549 48.3128 172.013 48.2386C171.326 48.1425 170.281 48.481 169.866 48.9963C169.148 49.885 168.799 51.0555 168.273 52.4115Z" fill="#F5F5F5"/>
<path d="M180.532 56.371C180.927 54.7704 181.141 53.2069 181.863 51.9142C182.208 51.2963 183.545 50.8726 184.389 50.9359C185.62 51.0277 186.248 52.161 185.963 53.279C185.62 54.6263 185.133 56.0457 184.3 57.1375C183.146 58.6595 181.789 58.3341 180.532 56.371Z" fill="#131313"/>
<path d="M168.284 52.2587C168.284 50.9529 169.148 49.8829 169.866 48.9941C170.28 48.4788 171.325 48.1425 172.013 48.2364C172.549 48.3107 173.182 49.1011 173.402 49.7016C174.057 51.4944 173.365 53.1649 172.24 54.5188C171.755 55.1018 170.531 55.5647 169.807 55.3988C168.345 55.069 168.284 53.8506 168.284 52.2587Z" fill="#131313"/>
<path d="M279.34 65.7297C279.159 63.8627 278.764 61.9826 278.88 60.1331C278.941 59.1526 279.689 58.004 280.479 57.314C282.811 55.2745 285.674 56.2637 287.004 59.5195C287.515 60.7663 287.751 62.1202 288.2 63.7383C288.695 63.2775 289.101 62.9696 289.417 62.5919C291.174 60.4912 293.417 59.8863 296.074 60.4431C298.249 60.8973 299.495 62.8211 298.91 64.9305C297.989 68.2475 295.707 70.1538 291.957 70.9574C293.318 71.9619 294.518 72.7807 295.642 73.6891C297.322 75.0473 298.395 76.7964 298.544 78.9364C298.775 82.2839 295.987 83.937 291.892 82.736C291.558 82.8735 291.486 83.0788 291.416 83.284C292.631 88.1448 293.844 93.0056 295.118 98.1022C297.245 97.6437 299.231 97.3205 301.149 96.7768C304.6 95.7985 306.049 96.0038 308.449 99.6461C310.772 103.175 311.054 107.064 309.446 111.049C308.377 113.696 307.63 116.48 306.426 119.063C303.101 126.19 297.872 131.789 291.045 135.829C286.073 138.773 281.096 141.773 275.448 143.465C267.882 145.732 260.209 146.797 252.3 145.865C248.262 145.389 244.219 144.961 239.895 144.465C239.526 144.668 239.437 144.92 239.349 145.168C239.443 146.468 239.463 147.774 239.644 149.062C239.96 151.322 240.935 153.006 242.973 154.528C249.734 159.576 254.226 166.186 255.793 174.477C256.173 176.484 256.454 178.521 256.587 180.559C256.67 181.814 257.095 182.273 258.396 182.293C261.382 182.338 264.371 182.452 267.349 182.666C269.479 182.819 271.427 183.491 272.967 185.083C274.132 186.286 275.596 185.784 276.879 185.376C282.866 183.472 288.752 187.463 288.975 193.656C289.009 194.648 289.116 195.667 288.948 196.633C287.888 202.718 289.533 208.595 290.244 214.554C291.163 222.253 291.852 229.977 292.585 237.696C293.345 245.69 284.797 254.351 277.145 254.827C273.969 255.025 271.052 254.46 268.883 251.929C267.127 249.881 266.996 247.684 268.325 245.369C268.562 244.957 268.715 244.496 269.117 243.579C267.216 243.839 265.709 244.173 264.192 244.227C260.97 244.343 257.743 244.275 254.521 244.367C253.716 244.389 252.909 244.688 252.125 244.937C250.869 245.336 249.656 246.094 248.386 246.184C241.069 246.706 233.915 245.638 226.938 243.542C224.963 242.95 223.168 241.81 221.237 241.05C220.595 240.797 219.718 240.733 219.068 240.941C210.42 243.705 201.532 243.895 192.619 243.057C182.972 242.151 173.363 241.491 163.653 242.194C157.127 242.666 150.53 242.849 144.006 242.458C138.532 242.131 133.381 243.937 127.966 243.817C124.853 243.749 121.711 244.668 118.594 245.203C117.924 245.319 117.285 245.653 116.656 245.941C111.028 248.507 106.37 247.71 102.261 243.114C99.8114 240.373 97.9176 237.154 95.4239 234.46C92.1143 230.883 88.6301 227.422 84.9146 224.249C79.7352 219.827 74.6388 215.381 71.3182 209.389C67.9322 203.28 66.2501 196.838 67.8384 189.865C69.1496 184.114 74.8111 180.203 79.9512 181.924C82.9598 182.932 85.8506 184.537 88.4599 186.334C90.4234 187.688 91.8219 189.806 93.5498 191.51C93.9316 191.887 94.8392 192.289 95.1708 192.106C100.54 189.125 106.601 188.044 112.308 186C112.902 185.789 113.558 185.129 113.742 184.544C115.269 179.701 118.762 177.34 123.729 176.63C127.052 176.154 129.664 174.827 130.744 171.309C131.815 167.815 132.973 164.293 134.61 161.03C136.207 157.851 138.266 154.838 140.496 152.034C141.901 150.267 142.209 150.499 142.191 147.885C139.178 148.236 136.183 148.61 133.183 148.933C126.064 149.702 118.958 149.769 111.87 148.564C102.405 146.952 93.4473 143.948 85.0957 139.303C79.0436 135.938 73.3363 132.121 69.5226 126.238C66.2937 121.258 65.4428 115.982 68.2049 110.516C69.8783 107.206 72.5138 106.094 76.2554 106.819C80.6799 107.678 85.0848 108.734 89.5508 109.282C99.6543 110.523 109.758 110.381 119.763 108.324C128.785 106.47 137.636 104.029 146.195 100.657C147.482 100.15 148.78 99.5937 149.912 98.8338C150.458 98.4691 150.916 97.5869 150.933 96.9253C151.114 90.5927 151.199 84.2579 151.302 77.9232C151.402 71.75 152.646 65.7341 154.228 59.8077C156.145 52.6235 158.345 45.5092 160.487 38.384C161.146 36.1938 161.861 33.9949 162.837 31.9292C163.526 30.4705 163.018 29.9901 161.748 29.5009C156.669 27.5531 152.441 24.4174 149.085 20.2685C146.677 17.2944 146.153 13.7241 146.86 10.0338C147.294 7.75842 150.436 5.5442 153.287 5.18172C158.255 4.55065 162.906 5.89577 167.471 7.44616C171.241 8.72577 174.869 10.3897 178.586 11.8222C179.06 12.0056 179.73 11.9292 180.238 11.7632C182.25 11.1081 184.207 9.87437 186.233 9.76737C190.208 9.55774 194.218 9.99884 198.215 10.0687C198.837 10.0796 199.719 9.71715 200.046 9.2433C200.875 8.03574 201.955 7.82393 203.198 8.16676C204.486 8.52051 204.992 9.55774 204.878 10.7718C204.776 11.8615 205.077 12.4685 206.054 13.1586C213.507 18.4124 218.606 25.2407 219.928 34.2897C220.436 37.7769 220.438 41.3385 220.591 44.8694C220.979 53.8638 221.149 62.8692 221.745 71.8483C222.103 77.2485 223.754 82.4259 226.229 87.3085C226.469 87.7823 226.844 88.3894 227.291 88.5313C231.294 89.8066 234.083 92.8135 237.314 95.1696C241.884 98.5018 246.662 101.467 252.361 102.454C259.281 103.655 266.224 104.101 273.207 102.526C279.024 101.216 284.908 100.199 290.774 99.1045C291.935 98.8884 292.225 98.4909 291.892 97.3467C290.816 93.6542 289.865 89.9289 288.833 86.2232C288.708 85.7799 288.379 85.3913 288.146 84.9785C287.82 85.2908 287.445 85.5681 287.181 85.9241C286.341 87.0552 285.53 88.0684 283.8 87.7867C281.91 87.4788 281.11 86.3499 280.848 84.6641C280.726 83.8802 280.632 83.0941 280.488 82.0394C277.992 83.1683 275.393 84.8847 273.327 81.9477C271.405 79.2181 273.445 77.0672 275.092 74.6696C274.438 74.5953 273.936 74.5211 273.432 74.4861C270.797 74.2984 269.35 73.2044 269.058 71.1627C268.735 68.9135 269.865 66.9722 272.376 66.4503C274.366 66.0355 276.5 66.2778 278.832 66.2669C279.174 66.1141 279.257 65.9219 279.34 65.7297ZM203.046 15.1959C202.142 14.8247 201.239 14.4513 200.183 13.9447C200.05 13.9141 199.917 13.8813 199.633 13.6215C198.575 13.4424 197.517 13.2612 196.191 13.0101C195.911 12.9926 195.634 12.973 195.148 12.7764C194.69 12.7764 194.232 12.7764 193.426 12.7175C191.406 12.7371 189.386 12.759 187.117 12.6978C186.801 12.7939 186.486 12.8922 185.878 12.9904C185.134 13.2787 184.39 13.5669 183.648 13.8551C183.672 14.0342 183.696 14.2133 183.72 14.3923C185.653 15.4143 187.584 16.4362 189.541 17.6678C189.89 17.9124 190.241 18.1569 190.793 18.5609C192.8 19.9038 194.805 21.249 196.887 22.8059C197.443 23.092 197.999 23.3802 198.691 23.8802C201.396 25.922 204.099 27.9615 206.923 30.1844C207.392 30.5513 207.861 30.9203 208.461 31.5012C211.38 34.4884 214.297 37.4778 217.035 40.2794C216.653 36.1086 215.449 31.7741 213.668 27.6034C211.81 23.247 208.947 19.6221 204.848 16.7135C204.287 16.2986 203.726 15.8837 203.131 15.471C203.131 15.471 203.122 15.4383 203.046 15.1959ZM244.983 141.958C247.328 142.162 249.675 142.328 252.014 142.579C259.456 143.374 266.821 142.913 273.862 140.437C278.184 138.917 282.277 136.748 286.4 134.731C292.915 131.54 298.21 126.87 301.751 120.718C303.993 116.823 305.388 112.429 306.852 108.158C307.482 106.319 307.334 104.225 306.262 102.557C304.842 104.048 303.511 105.616 301.975 106.963C301.469 107.407 300.123 107.656 299.706 107.328C298.746 106.579 299.447 105.719 300.143 104.983C301.262 103.804 302.359 102.598 303.378 101.336C303.697 100.943 303.73 100.33 303.893 99.8164C303.363 99.8098 302.831 99.7596 302.305 99.8077C301.866 99.8492 301.445 100.024 301.009 100.111C292.415 101.812 283.791 103.378 275.236 105.245C268.36 106.747 261.507 106.911 254.571 105.944C250.448 105.369 246.398 104.459 242.875 102.271C238.712 99.6876 234.604 96.9755 230.749 93.9839C226.951 91.036 221.156 89.835 217.122 92.5471C216.502 92.9641 215.776 93.296 215.049 93.4686C214.526 93.593 213.919 93.3921 213.35 93.3353C213.529 92.8549 213.561 92.2086 213.908 91.9247C216.14 90.0992 218.311 88.1252 221.451 87.885C221.787 87.8588 222.107 87.6491 222.474 87.5094C222.304 87.0552 222.179 86.7058 222.04 86.3608C219.11 79.1526 217.115 71.7806 217.458 63.9195C217.657 59.3906 217.635 54.853 217.643 50.3198C217.646 49.6429 217.48 48.765 217.037 48.3196C215.141 46.4132 213.324 44.3257 211.094 42.8605C202.164 36.9908 192.63 32.3397 181.979 30.1735C177.507 29.2651 173.045 28.9747 168.546 30.0796C167.183 30.4137 166.476 31.0906 165.981 32.3877C162.983 40.2226 160.347 48.1492 158.294 56.2855C156.3 64.1946 154.579 72.1082 154.505 80.2815C154.404 91.274 154.542 102.271 154.21 113.255C154.036 118.991 153.486 124.784 152.345 130.403C151.319 135.451 149.212 140.286 147.663 145.241C147.185 146.767 146.891 148.359 146.655 149.94C146.456 151.276 147.032 152.305 148.267 153.054C149.284 153.669 150.207 154.445 151.112 155.215C154.317 157.943 157.515 160.594 161.748 161.832C168.023 163.668 174.446 164.36 180.934 164.625C195.584 165.225 209.787 162.41 223.914 159.096C228.665 157.98 233.195 156.309 237.484 154.049C237.233 153.189 236.923 152.427 236.799 151.639C236.339 148.713 235.771 145.786 235.582 142.841C235.459 140.976 236.391 140.447 238.276 140.775C240.403 141.148 242.526 141.548 244.983 141.958ZM160.585 165.225C159.126 164.625 157.515 164.236 156.239 163.378C153.536 161.555 150.964 159.537 148.424 157.499C147.039 156.388 145.767 155.08 143.851 155.097C143.055 155.104 141.866 155.386 141.534 155.934C139.905 158.637 138.353 161.408 137.064 164.278C135.847 166.987 134.943 169.837 133.981 172.652C132.607 176.676 129.825 179.008 125.525 179.694C124.214 179.904 122.953 180.386 121.652 180.672C119.894 181.059 118.624 182.107 117.954 183.631C116.386 187.201 115.43 190.968 115.978 194.853C116.94 201.683 118.969 208.219 121.796 214.573C125.728 223.406 131.64 230.686 139.108 236.842C140.238 237.775 141.674 238.818 143.042 238.923C147.211 239.246 151.418 239.27 155.604 239.166C162.594 238.991 169.58 238.417 176.571 238.417C181.449 238.417 186.332 239.069 191.208 239.471C201.741 240.343 212.139 240.308 222.19 236.333C226.497 234.63 230.542 232.634 233.755 229.346C238.686 224.299 243.069 218.812 245.881 212.357C247.834 207.876 249.403 203.229 251.002 198.609C252.544 194.154 252.597 189.479 252.968 184.837C253.568 177.342 252.147 170.39 247.675 164.214C246.041 161.958 244.023 159.958 242.081 157.93C241.217 157.028 239.98 156.927 238.924 157.62C234.927 160.247 230.317 161.244 225.759 162.279C219.341 163.736 212.872 164.992 206.412 166.26C199.16 167.686 191.816 168.315 184.427 168.206C180.552 168.147 176.653 168.014 172.816 167.533C168.799 167.029 164.848 166.068 160.585 165.225ZM73.7857 111.866C75.3151 113.412 76.8706 114.934 78.352 116.523C78.6836 116.879 79.0393 117.711 78.8713 117.906C78.5397 118.294 77.7935 118.65 77.3223 118.55C76.4954 118.375 75.5769 118.008 75.0009 117.434C73.5741 116.004 72.3218 114.41 70.8338 112.693C70.0353 114.726 69.743 116.624 70.0462 118.618C70.7946 123.518 73.7988 127.07 77.4379 130.189C82.4449 134.477 88.1785 137.644 94.296 140.153C101.598 143.146 109.153 145.192 117.073 145.937C125.656 146.743 134.101 145.723 142.521 144.312C143.212 144.197 144.124 143.446 144.338 142.801C146.123 137.454 148.455 132.161 149.29 126.658C150.445 119.076 150.438 111.326 150.92 103.646C150.931 103.478 150.826 103.304 150.733 102.994C150.235 103.105 149.742 103.16 149.286 103.323C146.378 104.361 143.526 105.577 140.568 106.446C130.458 109.416 120.254 112.008 109.664 112.744C101.059 113.34 92.4852 113.176 83.9852 111.558C80.9286 110.977 77.8764 110.376 74.8067 109.863C74.2439 109.769 73.6155 110.058 73.0177 110.169C73.2163 110.658 73.4148 111.147 73.7857 111.866ZM71.532 189.335C69.8455 194.366 70.5568 199.275 72.4679 204.068C75.0424 210.525 79.6021 215.512 84.9757 219.897C89.8475 223.871 94.6974 227.878 98.5263 232.888C100.304 235.215 101.956 237.644 103.826 239.897C107.07 243.81 110.406 245.47 115.596 242.786C116.039 242.557 116.532 242.421 117.003 242.242C120.926 240.751 125.06 240.594 129.19 240.371C131.625 240.24 134.053 240.004 136.484 239.816C136.538 239.679 136.593 239.539 136.647 239.401C121.12 226.07 112.926 209.411 112.28 189.254C111.566 189.49 110.665 189.761 109.786 190.086C105.938 191.516 102.089 192.944 98.2558 194.412C96.9577 194.907 95.7315 195.584 94.4247 196.054C93.2488 196.475 92.2343 196.355 91.5994 195.01C89.3108 190.149 85.1153 187.356 80.2261 185.474C76.4518 184.02 73.3646 185.417 71.532 189.335ZM268.093 240.62C271.516 240.884 272.812 243.146 271.272 246.171C271.215 246.282 271.15 246.389 271.091 246.498C269.976 248.662 270.622 250.411 272.935 251.252C273.753 251.549 274.647 251.708 275.52 251.787C282.015 252.379 289.708 244.354 289.184 238.574C288.434 230.298 287.659 222.02 286.703 213.765C286.09 208.479 284.664 203.277 285.486 197.873C285.726 196.294 285.634 194.645 285.527 193.04C285.327 190.031 281.203 186.824 278.145 188.411C277.492 188.75 276.692 188.889 275.943 188.961C275.081 189.047 275.023 189.444 274.97 190.184C274.848 191.905 274.735 193.663 274.27 195.314C272.151 202.838 269.734 210.287 267.766 217.849C265.835 225.269 262.652 232.062 258.236 238.344C257.588 239.266 256.842 240.122 256.142 241.008C256.24 241.207 256.336 241.406 256.434 241.605C260.217 241.279 263.996 240.95 268.093 240.62ZM228.862 240.816C234.139 242.351 239.585 242.825 245.039 242.989C247.029 243.05 249.187 243.181 250.921 241.511C257.911 234.772 261.904 226.468 264.48 217.384C266.424 210.534 268.449 203.708 270.358 196.849C270.921 194.829 271.447 192.752 271.569 190.678C271.726 188.049 270.452 186.479 267.819 186.153C264.557 185.751 261.238 185.789 257.953 185.553C256.735 185.465 256.513 185.948 256.402 187.022C256.048 190.407 255.821 193.837 255.042 197.139C252.725 206.933 248.945 216.137 242.687 224.249C239.978 227.76 237.288 231.311 233.646 233.953C231.02 235.859 228.157 237.458 225.319 239.246C226.322 239.716 227.442 240.242 228.862 240.816ZM149.816 15.6938C150.056 16.2615 150.211 16.8839 150.547 17.3905C153.894 22.4041 158.648 25.6184 164.39 27.5204C165.084 27.7497 165.935 28.0051 166.583 27.8174C169.956 26.8434 173.394 26.9286 176.808 27.1906C180.092 27.4418 183.425 27.7278 186.602 28.5183C194.029 30.3678 200.692 34.0364 207.422 37.4843C208.98 38.2836 210.42 39.3011 211.914 40.2183C212.028 40.096 212.141 39.9759 212.257 39.8536C211.67 39.1046 211.194 38.229 210.474 37.6285C206.002 33.8901 201.645 29.9879 196.917 26.5792C192.133 23.1313 187.091 19.9759 181.931 17.0848C175.713 13.5997 169.14 10.8264 162.184 8.92448C159.128 8.08815 156.148 7.52913 153.004 8.11653C150.942 8.50086 149.443 10.0491 149.397 12.0864C149.376 13.1848 149.609 14.2897 149.816 15.6938ZM289.136 77.9079C290.325 78.6897 291.455 79.5893 292.723 80.2204C293.888 80.7991 295.19 80.6025 295.96 79.5107C296.713 78.4451 296.006 77.3358 295.168 76.7528C293.185 75.3727 291.056 74.187 288.944 72.9925C288.582 72.7873 287.779 72.7283 287.607 72.9379C287.299 73.3092 287.079 74.0298 287.247 74.4403C287.707 75.567 288.388 76.6108 289.136 77.9079ZM285.955 68.92C285.94 67.623 286.09 66.2997 285.87 65.0375C285.569 63.3037 285.113 61.5655 284.454 59.9344C284.247 59.4212 283.176 59.0041 282.495 58.9954C282.093 58.991 281.493 59.8208 281.31 60.3776C280.453 62.998 282.323 68.1449 284.635 69.7018C285.218 70.097 285.837 70.2892 285.955 68.92ZM289.496 69.6123C290.84 69.062 292.162 68.4462 293.537 67.9789C295.02 67.4745 295.827 66.3936 296.189 65.0485C296.371 64.3737 296.329 63.2448 295.904 62.9085C295.339 62.463 294.169 62.2752 293.482 62.5351C290.554 63.6444 288.972 66.0355 287.98 68.7999C287.578 69.9158 288.071 70.3438 289.496 69.6123ZM279.043 68.6951C277.422 68.5183 275.799 68.1951 274.18 68.2147C273.015 68.2278 271.927 68.8611 271.791 70.1844C271.637 71.6845 272.908 72.2392 273.988 72.1977C276.74 72.0972 279.482 71.7042 282.222 71.3897C282.475 71.3614 282.696 71.06 282.931 70.8853C282.709 70.6277 282.536 70.2717 282.253 70.1276C281.301 69.6428 280.309 69.2323 279.043 68.6951ZM278.902 80.1811C281.105 78.3228 282.578 76.0824 283.04 72.9423C279.927 73.8573 277.418 75.1369 275.965 77.6939C275.461 78.5805 275.162 80.2248 275.66 80.858C276.447 81.8647 277.719 80.9825 278.902 80.1811ZM284.441 77.0563C284.188 77.5498 283.802 78.0215 283.706 78.5434C283.37 80.3689 283.032 82.2075 282.929 84.0527C282.901 84.5811 283.673 85.1511 284.077 85.7013C284.712 85.1227 285.634 84.6597 285.931 83.9457C286.95 81.5066 285.887 79.1089 285.421 76.7156C285.418 76.7025 284.855 76.7899 284.441 77.0563Z" fill="#101010"/>
<path d="M189.168 260.535C196.791 260.655 204.228 260.764 211.668 260.902C217.26 261.005 222.849 261.133 228.441 261.275C232.503 261.378 236.57 261.422 240.623 261.673C247.066 262.07 253.5 262.618 259.938 263.103C264.987 263.483 270.057 263.701 275.079 264.291C280.715 264.95 286.409 265.485 291.769 267.505C292.697 267.855 293.417 268.735 294.23 269.37C293.541 270.047 292.958 270.923 292.132 271.349C291.097 271.884 289.882 272.191 288.711 272.349C282.329 273.205 276.098 274.912 269.594 275.139C262.702 275.38 255.832 276.161 248.945 276.541C240.46 277.011 231.966 277.552 223.473 277.637C199.029 277.882 174.581 278.002 150.135 277.974C143.11 277.965 136.082 277.316 129.059 276.906C123.498 276.581 117.93 276.288 112.387 275.77C105.973 275.172 99.5736 274.406 93.1855 273.591C90.2664 273.218 87.3756 272.598 84.4957 271.988C83.7278 271.827 82.9882 271.366 82.3337 270.907C80.5338 269.645 80.6363 268.748 82.6566 267.754C85.8135 266.2 89.2301 265.713 92.7012 265.337C97.0297 264.87 101.336 264.201 105.656 263.651C107.349 263.435 109.049 263.249 110.753 263.149C115.561 262.863 120.372 262.59 125.187 262.383C131.845 262.094 138.504 261.845 145.165 261.625C150.054 261.461 154.945 261.35 159.837 261.249C166.637 261.109 173.44 261.016 180.242 260.867C183.153 260.802 186.068 260.649 189.168 260.535Z" fill="#DBDBDB"/>
<path d="M244.814 141.948C242.523 141.548 240.403 141.149 238.276 140.777C236.388 140.45 235.459 140.978 235.581 142.843C235.773 145.789 236.34 148.715 236.799 151.641C236.923 152.429 237.233 153.191 237.484 154.052C233.194 156.312 228.665 157.985 223.913 159.098C209.785 162.413 195.584 165.228 180.934 164.627C174.445 164.361 168.022 163.671 161.748 161.834C157.515 160.594 154.317 157.945 151.112 155.218C150.206 154.447 149.281 153.672 148.267 153.056C147.032 152.307 146.456 151.279 146.655 149.942C146.89 148.361 147.185 146.769 147.663 145.243C149.214 140.291 151.319 135.454 152.345 130.405C153.488 124.784 154.038 118.993 154.21 113.257C154.544 102.273 154.406 91.2743 154.504 80.284C154.579 72.1107 156.298 64.1972 158.294 56.288C160.347 48.1518 162.983 40.2251 165.98 32.3902C166.478 31.091 167.185 30.4162 168.546 30.0821C173.045 28.9794 177.506 29.2676 181.979 30.176C192.63 32.34 202.164 36.9933 211.094 42.863C213.323 44.3282 215.141 46.4158 217.037 48.3221C217.482 48.7697 217.645 49.6454 217.643 50.3223C217.634 54.8555 217.656 59.3953 217.458 63.922C217.113 71.7831 219.109 79.1551 222.039 86.3633C222.179 86.7061 222.301 87.0577 222.474 87.5119C222.105 87.6517 221.786 87.8613 221.45 87.8875C218.311 88.1299 216.14 90.1017 213.908 91.9272C213.561 92.2111 213.528 92.8596 213.35 93.3379C213.919 93.3946 214.526 93.5955 215.049 93.4711C215.776 93.2964 216.502 92.9644 217.122 92.5496C221.158 89.8375 226.95 91.0385 230.749 93.9864C234.606 96.9802 238.714 99.6901 242.875 102.273C246.398 104.461 250.447 105.372 254.571 105.946C261.509 106.911 268.359 106.748 275.236 105.247C283.791 103.378 292.415 101.813 301.009 100.114C301.445 100.029 301.866 99.8517 302.305 99.8102C302.828 99.7599 303.363 99.8102 303.893 99.8189C303.729 100.332 303.694 100.943 303.378 101.339C302.359 102.601 301.262 103.804 300.142 104.985C299.447 105.719 298.746 106.582 299.706 107.331C300.123 107.656 301.471 107.407 301.975 106.966C303.511 105.619 304.842 104.051 306.262 102.559C307.331 104.228 307.48 106.324 306.851 108.16C305.387 112.432 303.993 116.825 301.75 120.721C298.209 126.872 292.917 131.545 286.4 134.733C282.276 136.751 278.184 138.919 273.862 140.439C266.821 142.915 259.456 143.376 252.014 142.581C249.675 142.33 247.325 142.164 244.814 141.948ZM164.503 46.0576C162.668 49.6082 161.767 53.3947 161.787 57.3449C161.796 58.797 162.071 60.3452 162.64 61.6816C164.593 66.2651 170.267 67.7478 174.487 65.075C174.821 64.8632 175.7 64.9418 175.951 65.2147C178.682 68.1757 182.95 68.809 186.429 66.7891C190.271 64.5596 192.63 61.1706 194.157 57.2423C195.442 53.9384 196.151 50.4926 195.383 46.8896C194.356 42.0703 188.773 39.6312 184.758 41.8083C183.619 42.4262 182.524 43.1206 181.392 43.7888C181.235 43.5224 181.091 43.3739 181.054 43.2036C179.882 37.976 175.019 37.4847 171.354 39.0329C168.16 40.3889 166.155 42.8717 164.503 46.0576ZM194.319 40.1138C195.274 38.4739 194.271 37.4104 193.095 36.5042C191.515 35.2879 189.405 35.0455 188.349 35.9496C187.981 36.2662 187.629 36.93 187.721 37.3362C187.808 37.7249 188.48 38.2511 188.903 38.2577C190.193 38.2795 190.998 38.8669 191.718 39.8299C192.329 40.6531 193.171 41.0353 194.319 40.1138ZM176.64 32.0539C175.161 31.9426 173.658 31.8487 172.713 33.2681C172.469 33.6349 172.318 34.2703 172.484 34.6219C172.643 34.9626 173.368 35.3774 173.664 35.2726C175.063 34.7813 176.199 35.1678 177.454 35.7705C177.897 35.9845 179.007 35.5805 179.321 35.1329C179.601 34.7333 179.413 33.7004 179.04 33.2746C178.545 32.7156 177.668 32.471 176.64 32.0539Z" fill="#FDFDFD"/>
<path d="M160.727 165.267C164.848 166.068 168.797 167.027 172.809 167.529C176.647 168.009 180.545 168.142 184.42 168.201C191.812 168.313 199.153 167.682 206.405 166.256C212.867 164.987 219.334 163.731 225.753 162.275C230.312 161.24 234.92 160.242 238.917 157.615C239.971 156.923 241.21 157.023 242.074 157.925C244.013 159.954 246.034 161.954 247.668 164.21C252.143 170.385 253.561 177.338 252.961 184.832C252.59 189.474 252.535 194.15 250.995 198.604C249.396 203.223 247.827 207.872 245.874 212.352C243.062 218.807 238.679 224.293 233.749 229.341C230.535 232.63 226.49 234.626 222.183 236.329C212.132 240.305 201.734 240.338 191.201 239.467C186.325 239.063 181.444 238.412 176.564 238.412C169.576 238.412 162.59 238.986 155.597 239.161C151.411 239.266 147.204 239.242 143.035 238.919C141.667 238.812 140.232 237.77 139.101 236.838C131.636 230.682 125.721 223.402 121.79 214.569C118.962 208.214 116.933 201.681 115.971 194.848C115.423 190.964 116.379 187.197 117.948 183.627C118.617 182.102 119.889 181.054 121.646 180.668C122.946 180.382 124.207 179.897 125.518 179.689C129.82 179.004 132.6 176.672 133.974 172.647C134.937 169.833 135.84 166.983 137.057 164.273C138.347 161.404 139.898 158.633 141.528 155.929C141.857 155.381 143.046 155.099 143.844 155.093C145.76 155.075 147.032 156.383 148.417 157.495C150.959 159.532 153.529 161.552 156.232 163.373C157.515 164.238 159.125 164.625 160.727 165.267Z" fill="#947B97"/>
<path d="M73.6985 111.751C73.4149 111.146 73.2163 110.659 73.02 110.17C73.6178 110.058 74.2483 109.77 74.809 109.864C77.8765 110.377 80.9309 110.975 83.9874 111.558C92.4874 113.176 101.062 113.34 109.666 112.744C120.256 112.008 130.46 109.416 140.57 106.446C143.529 105.577 146.38 104.361 149.288 103.324C149.742 103.162 150.237 103.106 150.735 102.994C150.829 103.306 150.933 103.481 150.922 103.647C150.44 111.325 150.447 119.074 149.293 126.658C148.455 132.161 146.125 137.454 144.34 142.802C144.124 143.446 143.214 144.197 142.523 144.313C134.104 145.724 125.658 146.743 117.075 145.938C109.156 145.193 101.6 143.147 94.2982 140.153C88.1807 137.644 82.4472 134.478 77.4401 130.189C73.801 127.071 70.7968 123.518 70.0485 118.618C69.7452 116.624 70.0376 114.727 70.8361 112.694C72.324 114.412 73.5763 116.004 75.0031 117.435C75.5769 118.011 76.4976 118.376 77.3245 118.55C77.7957 118.651 78.5419 118.293 78.8735 117.906C79.0415 117.71 78.6859 116.878 78.3543 116.524C76.8729 114.934 75.3151 113.412 73.6985 111.751Z" fill="#FCFCFC"/>
<path d="M71.5949 189.201C73.3643 185.419 76.4514 184.02 80.2236 185.474C85.1128 187.356 89.3083 190.151 91.5969 195.01C92.2296 196.355 93.2463 196.475 94.4222 196.054C95.729 195.586 96.9552 194.91 98.2533 194.412C102.087 192.944 105.935 191.516 109.784 190.086C110.663 189.76 111.564 189.49 112.277 189.254C112.923 209.411 121.118 226.07 136.647 239.401C136.593 239.539 136.538 239.679 136.483 239.816C134.053 240.004 131.623 240.24 129.19 240.371C125.06 240.594 120.926 240.751 117.003 242.242C116.532 242.421 116.039 242.557 115.596 242.786C110.405 245.47 107.07 243.808 103.825 239.897C101.956 237.641 100.304 235.215 98.526 232.887C94.6971 227.876 89.8471 223.869 84.9754 219.897C79.6018 215.512 75.042 210.525 72.4676 204.068C70.5564 199.275 69.8452 194.366 71.5949 189.201Z" fill="#FCFCFC"/>
<path d="M267.934 240.62C263.996 240.95 260.217 241.278 256.436 241.605C256.338 241.406 256.242 241.208 256.144 241.009C256.844 240.122 257.591 239.266 258.238 238.345C262.654 232.063 265.835 225.269 267.768 217.849C269.736 210.287 272.151 202.839 274.272 195.314C274.737 193.663 274.85 191.903 274.972 190.185C275.025 189.444 275.086 189.047 275.945 188.962C276.694 188.888 277.494 188.75 278.147 188.412C281.203 186.824 285.329 190.032 285.53 193.041C285.636 194.646 285.728 196.295 285.488 197.873C284.666 203.278 286.092 208.479 286.705 213.766C287.663 222.022 288.436 230.298 289.186 238.574C289.71 244.354 282.017 252.379 275.522 251.787C274.649 251.709 273.755 251.549 272.937 251.252C270.624 250.412 269.978 248.66 271.093 246.499C271.15 246.387 271.217 246.28 271.274 246.171C272.812 243.147 271.516 240.885 267.934 240.62Z" fill="#FBFBFB"/>
<path d="M228.711 240.793C227.442 240.243 226.322 239.716 225.314 239.245C228.153 237.456 231.015 235.86 233.642 233.951C237.283 231.309 239.973 227.759 242.683 224.247C248.942 216.135 252.723 206.931 255.038 197.137C255.819 193.838 256.046 190.405 256.397 187.021C256.509 185.946 256.731 185.464 257.949 185.551C261.236 185.787 264.553 185.75 267.814 186.152C270.45 186.477 271.722 188.047 271.565 190.676C271.44 192.751 270.917 194.827 270.354 196.847C268.445 203.706 266.42 210.532 264.476 217.382C261.897 226.466 257.907 234.77 250.917 241.509C249.182 243.182 247.025 243.049 245.035 242.987C239.583 242.826 234.137 242.354 228.711 240.793Z" fill="#937A96"/>
<path d="M149.77 15.5427C149.606 14.2893 149.375 13.1822 149.399 12.0816C149.443 10.0443 150.944 8.49611 153.006 8.11179C156.149 7.52657 159.13 8.08558 162.186 8.91973C169.142 10.8217 175.715 13.5949 181.933 17.08C187.093 19.9711 192.137 23.1265 196.919 26.5745C201.647 29.9831 206.004 33.8853 210.476 37.6237C211.194 38.2242 211.67 39.0999 212.259 39.8488C212.145 39.9711 212.032 40.0912 211.916 40.2135C210.422 39.2964 208.982 38.2788 207.424 37.4796C200.691 34.0316 194.03 30.3609 186.604 28.5136C183.427 27.7231 180.094 27.437 176.81 27.1859C173.396 26.9239 169.957 26.8387 166.585 27.8126C165.937 28.0004 165.086 27.7449 164.392 27.5156C158.65 25.6159 153.896 22.4015 150.549 17.3857C150.211 16.8835 150.056 16.2611 149.77 15.5427Z" fill="#927995"/>
<path d="M204.919 16.9346C208.947 19.6248 211.809 23.2475 213.668 27.606C215.448 31.7768 216.653 36.1091 217.034 40.2821C214.296 37.4783 211.379 34.4911 208.406 31.2309C207.856 28.3201 207.455 25.6582 206.831 23.0488C206.335 20.9765 205.565 18.9697 204.919 16.9346Z" fill="#C5A2CA"/>
<path d="M206.802 30.0011C204.097 27.9594 201.394 25.9199 198.671 23.6118C199.502 21.1705 200.471 19.0283 201.149 16.8032C201.496 15.6655 201.998 15.2593 203.119 15.4362C203.119 15.4362 203.128 15.469 203.089 15.6131C203.434 16.8556 203.831 17.9474 204.197 19.0502C205.388 22.6291 207.212 26.064 206.802 30.0011Z" fill="#C9A5CE"/>
<path d="M199.784 13.8486C199.917 13.8792 200.05 13.912 200.242 14.1609C199.326 17.1918 198.996 20.2664 196.81 22.5898C194.803 21.2468 192.798 19.9017 190.741 18.3382C191.517 16.2419 193.472 15.9187 195.087 15.2287C196.575 14.5933 198.213 14.2963 199.784 13.8486Z" fill="#C9A5CE"/>
<path d="M289.057 77.7991C288.388 76.6112 287.707 75.5674 287.246 74.4385C287.078 74.028 287.299 73.3074 287.606 72.9361C287.779 72.7265 288.584 72.7876 288.944 72.9907C291.056 74.1874 293.185 75.3709 295.168 76.751C296.006 77.334 296.711 78.4433 295.96 79.5089C295.19 80.6007 293.885 80.7994 292.723 80.2186C291.453 79.5897 290.325 78.69 289.057 77.7991Z" fill="#D57378"/>
<path d="M285.948 69.0821C285.837 70.2897 285.217 70.0975 284.633 69.7045C282.32 68.1475 280.45 63.0007 281.308 60.3803C281.491 59.8235 282.091 58.9937 282.492 58.9981C283.173 59.0046 284.244 59.4217 284.452 59.937C285.111 61.5682 285.566 63.3064 285.868 65.0402C286.09 66.3002 285.94 67.6234 285.948 69.0821Z" fill="#D57378"/>
<path d="M289.356 69.6688C288.071 70.3435 287.578 69.9155 287.98 68.7997C288.972 66.0352 290.554 63.6441 293.482 62.5348C294.169 62.275 295.338 62.4649 295.904 62.9082C296.331 63.2445 296.37 64.3735 296.189 65.0482C295.827 66.3933 295.02 67.4742 293.536 67.9786C292.162 68.4459 290.84 69.0617 289.356 69.6688Z" fill="#C99FA2"/>
<path d="M279.187 68.743C280.308 69.2299 281.301 69.6405 282.252 70.1274C282.536 70.2715 282.708 70.6275 282.931 70.8851C282.695 71.0598 282.475 71.3612 282.222 71.3896C279.482 71.704 276.739 72.0971 273.988 72.1975C272.906 72.2368 271.634 71.6844 271.791 70.1842C271.929 68.8609 273.017 68.2277 274.18 68.2146C275.799 68.1971 277.422 68.5181 279.187 68.743Z" fill="#CFBE73"/>
<path d="M278.788 80.2641C277.719 80.9826 276.447 81.8626 275.657 80.8581C275.16 80.2248 275.459 78.5805 275.962 77.694C277.416 75.1369 279.924 73.8573 283.038 72.9424C282.577 76.0825 281.105 78.3229 278.788 80.2641Z" fill="#C99FA2"/>
<path d="M187.363 12.7788C189.383 12.7591 191.404 12.7373 193.636 12.8639C194.349 12.9928 194.851 12.9731 195.35 12.9556C195.63 12.9731 195.907 12.9928 196.293 13.1762C196.018 13.4819 195.645 13.6478 195.254 13.7592C192.953 14.423 190.636 15.0519 189.514 17.4561C187.581 16.4342 185.651 15.4122 183.718 14.3903C183.694 14.2112 183.67 14.0322 183.646 13.8531C184.389 13.5649 185.133 13.2766 186.087 13.0801C186.652 13.043 187.008 12.912 187.363 12.7788Z" fill="#C5A2CA"/>
<path d="M284.497 76.9425C284.855 76.7896 285.42 76.7023 285.422 76.7175C285.889 79.113 286.952 81.5106 285.933 83.9476C285.636 84.6595 284.713 85.1246 284.079 85.7032C283.673 85.153 282.903 84.583 282.931 84.0546C283.031 82.2094 283.372 80.3708 283.708 78.5453C283.801 78.0234 284.188 77.5517 284.497 76.9425Z" fill="#CFBE73"/>
<path d="M204.217 114.487C204.324 113.238 203.772 112.172 203.412 111.063C203.301 110.72 203.181 110.381 203.083 109.997C203.268 110.08 203.438 110.209 203.619 110.373C203.826 111.039 204.058 111.661 204.208 112.303C204.396 113.113 204.518 113.939 204.664 114.808C204.518 114.742 204.376 114.629 204.217 114.487Z" fill="#947B97"/>
<path d="M196.847 22.6967C198.998 20.2663 199.326 17.1917 200.318 14.2285C201.237 14.4512 202.14 14.8225 203.083 15.316C201.998 15.2592 201.499 15.6654 201.149 16.8052C200.469 19.0303 199.502 21.1703 198.603 23.5068C197.999 23.378 197.441 23.0919 196.847 22.6967Z" fill="#947B97"/>
<path d="M189.528 17.5608C190.636 15.0517 192.955 14.4229 195.257 13.759C195.648 13.6477 196.021 13.4817 196.431 13.2109C197.517 13.259 198.575 13.4402 199.71 13.7328C198.215 14.294 196.577 14.591 195.091 15.2264C193.475 15.9165 191.522 16.2396 190.643 18.2551C190.239 18.1547 189.89 17.9101 189.528 17.5608Z" fill="#947B97"/>
<path d="M200.707 109.143C200.587 109.175 200.434 109.182 200.272 109.151C200.399 109.116 200.536 109.117 200.707 109.143Z" fill="#947B97"/>
<path d="M187.239 12.7393C187.008 12.9118 186.652 13.0428 186.233 13.0821C186.484 12.8899 186.801 12.7938 187.239 12.7393Z" fill="#947B97"/>
<path d="M279.214 65.8438C279.257 65.9224 279.174 66.1145 278.978 66.2586C278.939 66.1254 279.013 66.0403 279.214 65.8438Z" fill="white"/>
<path d="M291.534 83.1638C291.486 83.0786 291.556 82.8733 291.743 82.7227C291.791 82.8646 291.724 82.9541 291.534 83.1638Z" fill="white"/>
<path d="M239.498 145.029C239.437 144.917 239.524 144.668 239.731 144.48C239.783 144.66 239.716 144.775 239.498 145.029Z" fill="white"/>
<path d="M164.573 45.9351C166.155 42.8714 168.16 40.3865 171.356 39.0348C175.022 37.4866 179.885 37.9757 181.056 43.2055C181.095 43.3759 181.237 43.5244 181.394 43.7908C182.524 43.1226 183.622 42.4282 184.761 41.8102C188.777 39.6309 194.358 42.0722 195.386 46.8915C196.154 50.4945 195.445 53.9381 194.16 57.2442C192.632 61.1726 190.272 64.5616 186.432 66.7911C182.952 68.8109 178.685 68.1777 175.953 65.2167C175.702 64.9437 174.823 64.8651 174.489 65.0769C170.27 67.7497 164.595 66.267 162.642 61.6835C162.073 60.3471 161.796 58.7989 161.789 57.3468C161.768 53.3944 162.671 49.608 164.573 45.9351ZM178.988 52.1061C178.696 52.9839 178.336 53.8486 178.122 54.7439C177.443 57.5892 176.802 60.4061 178.327 63.2536C179.025 64.5572 180.015 65.149 181.348 65.0201C182.579 64.9 183.853 64.5921 184.966 64.0768C187.405 62.9435 189.087 61.0153 190.064 58.5718C191.426 55.1654 192.691 51.7196 192.255 47.9593C191.919 45.066 189.454 43.1007 187.021 44.1183C185.166 44.8957 183.41 46.1404 181.966 47.5292C180.746 48.704 180.033 50.3832 178.988 52.1061ZM177.199 41.9958C175.72 41.0962 174.197 41.1638 172.637 41.784C170.313 42.7077 168.474 44.2428 167.318 46.3675C165.189 50.274 164.135 54.4841 164.654 58.9169C165.154 63.1662 168.54 64.6402 172.478 63.1247C173.3 62.8081 174.374 61.6158 174.326 60.8887C174.02 56.0759 176.237 51.9947 177.958 47.7584C178.75 45.815 178.885 43.9349 177.199 41.9958Z" fill="#131313"/>
<path d="M194.244 40.2157C193.171 41.0345 192.329 40.6524 191.716 39.8313C190.996 38.8684 190.191 38.2831 188.901 38.2591C188.478 38.2526 187.806 37.7263 187.719 37.3376C187.627 36.9293 187.978 36.2655 188.347 35.951C189.403 35.047 191.513 35.2894 193.092 36.5057C194.271 37.4097 195.274 38.4731 194.244 40.2157Z" fill="#1D1D1D"/>
<path d="M176.798 32.0738C177.668 32.4734 178.545 32.7158 179.038 33.2791C179.411 33.7049 179.599 34.7378 179.32 35.1374C179.008 35.5851 177.895 35.989 177.452 35.775C176.198 35.1724 175.061 34.7858 173.662 35.2772C173.366 35.382 172.641 34.9649 172.482 34.6264C172.318 34.2727 172.469 33.6372 172.711 33.2726C173.658 31.8488 175.161 31.9427 176.798 32.0738Z" fill="#1D1D1D"/>
<path d="M179.04 51.9728C180.031 50.3831 180.746 48.706 181.968 47.5312C183.412 46.1424 185.168 44.8978 187.023 44.1204C189.456 43.1028 191.921 45.0659 192.257 47.9614C192.693 51.7216 191.428 55.1674 190.066 58.5739C189.089 61.0174 187.407 62.9456 184.968 64.0789C183.855 64.5964 182.581 64.9021 181.35 65.0222C180.017 65.1532 179.027 64.5615 178.329 63.2556C176.804 60.4082 177.445 57.5913 178.124 54.746C178.338 53.8485 178.695 52.986 179.04 51.9728ZM180.561 56.5191C181.789 58.3315 183.146 58.6569 184.302 57.1393C185.134 56.0453 185.622 54.6259 185.965 53.2808C186.248 52.1606 185.622 51.0294 184.392 50.9377C183.547 50.8744 182.21 51.298 181.865 51.916C181.141 53.2065 180.927 54.77 180.561 56.5191Z" fill="#F5F5F5"/>
<path d="M195.285 118.209C195.763 118.779 195.722 119.362 195.484 119.965C194.962 121.28 194.293 122.544 194.386 124.038C194.4 124.262 194.077 124.634 193.828 124.732C192.639 125.201 191.616 124.745 191.463 123.426C191.306 122.05 191.624 120.747 192.268 119.533C192.617 118.873 193.173 118.397 193.876 118.111C194.345 117.921 194.805 117.899 195.285 118.209ZM192.554 121.408C192.508 121.821 192.576 122.232 193.016 122.337C193.235 122.387 193.605 122.245 193.752 122.064C194.092 121.644 194.301 121.125 194.103 120.57C194.037 120.384 193.845 120.138 193.684 120.116C193.477 120.085 193.16 120.19 193.036 120.352C192.82 120.625 192.713 120.987 192.554 121.408Z" fill="#F5F5F5"/>
<path d="M180.532 56.371C180.262 54.7464 180.796 52.9558 181.863 51.9142C182.668 51.1303 183.545 50.8726 184.39 50.9359C185.62 51.0277 186.046 52.1282 185.963 53.279C185.854 54.7923 185.313 55.8295 184.3 57.1375C183.135 58.6507 180.912 58.6551 180.532 56.371Z" fill="#131313"/>
<path d="M168.284 52.2587C168.799 51.0533 169.148 49.8829 169.866 48.9941C170.281 48.4788 171.326 48.1425 172.013 48.2364C172.55 48.3107 173.182 49.1011 173.403 49.7016C174.057 51.4944 173.366 53.1649 172.24 54.5188C171.756 55.1018 170.532 55.5647 169.807 55.3988C168.346 55.069 168.121 53.7436 168.284 52.2587Z" fill="#131313"/>
</svg>
