<svg width="131" height="32" viewBox="0 0 131 32" fill="none" xmlns="http://www.w3.org/2000/svg">
<path d="M26.8133 30.5735L23.8886 29.7507C22.5397 29.3712 21.3196 28.6316 20.3592 27.6112C19.6966 26.9072 19.1721 26.085 18.8132 25.1873L18.4768 24.3461L18.1229 22.9304L24.9931 22.1226L24.8035 23.0168C24.595 23.9997 24.6167 25.0176 24.8669 25.9907C24.9581 26.3454 25.079 26.6917 25.2284 27.026L26.8133 30.5735Z" fill="white" stroke="#D4D4D4"/>
<path d="M0.5 13C0.5 6.09644 6.09644 0.5 13 0.5H118C124.904 0.5 130.5 6.09644 130.5 13C130.5 19.9036 124.904 25.5 118 25.5H13C6.09644 25.5 0.5 19.9036 0.5 13Z" fill="white" stroke="#D5D5D5"/>
<path d="M16.4834 18.1367C14.3643 18.1367 12.8604 16.9883 12.8193 15.3203H14.6104C14.665 16.1133 15.458 16.6328 16.4834 16.6328C17.5771 16.6328 18.3564 16.0312 18.3564 15.1562C18.3564 14.2676 17.5908 13.625 16.3057 13.625H15.417V12.2578H16.3057C17.3584 12.2578 18.0967 11.6699 18.083 10.8086C18.0967 9.97461 17.4678 9.41406 16.4971 9.41406C15.5674 9.41406 14.7607 9.93359 14.7334 10.7676H13.0244C13.0654 9.09961 14.5693 7.96484 16.5107 7.96484C18.5205 7.96484 19.8193 9.19531 19.8057 10.7129C19.8193 11.8203 19.0811 12.627 18.001 12.8457V12.9277C19.3955 13.1191 20.1885 14.0078 20.1748 15.252C20.1885 16.9199 18.6299 18.1367 16.4834 18.1367ZM32.6162 16.5098V17.7539H21.3232V16.5098H26.2041V13.9531H27.708V16.5098H32.6162ZM31.6045 8.64844V9.87891H27.749C27.8516 11.417 29.458 12.832 32.124 13.1875L31.5635 14.377C29.4238 14.0762 27.7764 13.126 26.9561 11.7656C26.1357 13.126 24.502 14.0762 22.3623 14.377L21.7881 13.1875C24.4678 12.832 26.0674 11.417 26.1904 9.87891H22.3213V8.64844H26.2041V7.04883H27.708V8.64844H31.6045ZM39.6982 7.92383V13.7617H33.8467V7.92383H39.6982ZM35.3369 9.14062V12.5586H38.208V9.14062H35.3369ZM43.1709 6.85742V10.4805H44.8936V11.752H43.1709V15.8809H41.6533V6.85742H43.1709ZM43.6631 17.7402V18.9707H35.2549V15.0059H36.7725V17.7402H43.6631ZM56.1865 6.85742V19.2168H54.7236V6.85742H56.1865ZM53.6436 7.07617V18.6152H52.1943V12.7363H51.0186C50.875 15.1426 49.8428 16.6328 48.3115 16.6191C46.6982 16.6328 45.6455 14.9238 45.6455 12.2031C45.6455 9.48242 46.6982 7.80078 48.3115 7.80078C49.8086 7.80078 50.8271 9.19531 51.0049 11.5059H52.1943V7.07617H53.6436ZM48.3115 9.23633C47.5322 9.22266 47.04 10.2754 47.0537 12.2031C47.04 14.1309 47.5322 15.1836 48.3115 15.1699C49.1318 15.1836 49.624 14.1309 49.624 12.2031C49.624 10.2754 49.1318 9.22266 48.3115 9.23633ZM65.6201 9.82422C65.6064 12.0938 66.7959 14.3633 68.8057 15.2246L67.9033 16.4414C66.4814 15.7852 65.4355 14.4727 64.8682 12.8594C64.3008 14.6025 63.2412 16.0244 61.7373 16.7285L60.8076 15.457C62.8721 14.5684 64.0752 12.2031 64.0752 9.82422V7.85547H65.6201V9.82422ZM71.2256 6.85742V19.2305H69.6943V6.85742H71.2256ZM77.4736 9.00391C77.4736 10.5215 78.458 12.0254 80.3994 12.668L79.6338 13.8438C78.2529 13.3857 77.2686 12.4561 76.7354 11.3008C76.1816 12.5654 75.1562 13.5703 73.7139 14.0625L72.9072 12.8867C74.9033 12.2305 75.9424 10.6309 75.9424 9.00391V8.85352H73.3311V7.63672H80.0439V8.85352H77.4736V9.00391ZM82.792 6.85742V9.94727H84.5146V11.2188H82.792V14.3086H81.2744V6.85742H82.792ZM82.792 14.8828V19.2168H81.2744V16.0996H74.5615V14.8828H82.792ZM94.8232 6.85742V11.7793H96.7236V13.0371H94.8232V19.2168H93.3193V6.85742H94.8232ZM92.3623 8.75781V9.97461H85.0752V8.75781H88.001V7.03516H89.5186V8.75781H92.3623ZM88.7666 10.7812C90.5439 10.7812 91.8701 11.9844 91.8701 13.6934C91.8701 15.4023 90.5439 16.5918 88.7666 16.5918C86.9619 16.5918 85.6357 15.4023 85.6494 13.6934C85.6357 11.9844 86.9619 10.7812 88.7666 10.7812ZM88.7666 12.0254C87.7959 12.0254 87.0986 12.6816 87.0986 13.6934C87.0986 14.7051 87.7959 15.3477 88.7666 15.334C89.71 15.3477 90.4072 14.7051 90.4209 13.6934C90.4072 12.6816 89.71 12.0254 88.7666 12.0254ZM107.565 6.85742V19.2168H106.034V6.85742H107.565ZM103.874 8.16992C103.874 11.8477 102.452 14.9785 98.1182 17.0293L97.3252 15.8125C100.559 14.2744 102.062 12.1826 102.329 9.37305H97.9541V8.16992H103.874Z" fill="#333333"/>
<path d="M19.5 25H24.5L24.35 26H19.75L19.5 25Z" fill="white"/>
<path d="M121.161 10.8477C121.078 10.7297 120.93 10.6755 120.79 10.7122L116.751 11.771L117.893 6.63014C117.929 6.46843 117.845 6.30405 117.693 6.23809C117.62 6.20588 117.54 6.20133 117.467 6.22045C117.39 6.24088 117.319 6.28874 117.27 6.359L115.369 9.12582L111.577 14.6442C111.495 14.7632 111.496 14.9207 111.579 15.0387C111.662 15.1567 111.81 15.2113 111.949 15.1747L115.989 14.1158L114.846 19.2567C114.81 19.4184 114.894 19.5828 115.046 19.6488C115.119 19.681 115.199 19.6855 115.272 19.6664C115.35 19.646 115.421 19.5981 115.469 19.5278L117.37 16.761L121.162 11.2427C121.245 11.1236 121.244 10.9661 121.161 10.8477Z" fill="#FFAC33"/>
</svg>
