<svg width="131" height="32" viewBox="0 0 131 32" fill="none" xmlns="http://www.w3.org/2000/svg">
<path d="M26.8133 30.5735L23.8886 29.7507C22.5397 29.3712 21.3196 28.6316 20.3592 27.6112C19.6966 26.9072 19.1721 26.085 18.8132 25.1873L18.4768 24.3461L18.1229 22.9304L24.9931 22.1226L24.8035 23.0168C24.595 23.9997 24.6167 25.0176 24.8669 25.9907C24.9581 26.3454 25.079 26.6917 25.2284 27.026L26.8133 30.5735Z" fill="white" stroke="#D4D4D4"/>
<path d="M0.5 13C0.5 6.09644 6.09644 0.5 13 0.5H118C124.904 0.5 130.5 6.09644 130.5 13C130.5 19.9036 124.904 25.5 118 25.5H13C6.09644 25.5 0.5 19.9036 0.5 13Z" fill="white" stroke="#D5D5D5"/>
<path d="M19.5 25H24.5L24.35 26H19.75L19.5 25Z" fill="white"/>
</svg>
