<svg width="192" height="54" viewBox="0 0 192 54" fill="none" xmlns="http://www.w3.org/2000/svg">
<path d="M2.46938 29.848C1.94671 29.8853 1.53604 29.7547 1.23738 29.456C0.938708 29.12 0.789375 28.6907 0.789375 28.168V24.136C0.789375 23.6133 0.938708 23.2027 1.23738 22.904C1.53604 22.6053 1.94671 22.456 2.46938 22.456L16.8054 22.4L16.7494 19.208L8.12538 19.32C5.96004 19.3573 4.84004 18.256 4.76538 16.016L4.54138 3.752C4.50404 2.44533 4.76538 1.568 5.32538 1.12C5.88538 0.634665 6.74404 0.391998 7.90138 0.391998L37.1334 0.279996C37.7307 0.279996 38.1974 0.466664 38.5334 0.839999C38.9067 1.176 39.0934 1.64267 39.0934 2.24V5.88C39.0934 6.47733 38.9067 6.96267 38.5334 7.336C38.1974 7.672 37.7307 7.84 37.1334 7.84L14.4534 8.008V11.816L37.3574 11.928C38.5894 11.928 39.2054 12.432 39.2054 13.44V17.304C39.2054 18.3493 38.6827 18.872 37.6374 18.872L26.7174 19.04L26.6614 22.344L40.8854 22.232C41.408 22.232 41.8187 22.3813 42.1174 22.68C42.416 22.9787 42.5654 23.3893 42.5654 23.912V27.328C42.5654 27.8507 42.416 28.2613 42.1174 28.56C41.8187 28.8213 41.408 28.9707 40.8854 29.008L2.46938 29.848ZM11.5414 50.456C10.3094 49.4853 9.33871 48.328 8.62938 46.984C7.95738 45.64 7.62138 44.128 7.62138 42.448C7.62138 40.88 7.95738 39.424 8.62938 38.08C9.30138 36.736 10.2534 35.5787 11.4854 34.608C12.7547 33.6 14.248 32.816 15.9654 32.256C17.72 31.696 19.6614 31.416 21.7894 31.416C23.88 31.416 25.784 31.696 27.5014 32.256C29.256 32.816 30.7494 33.5813 31.9814 34.552C33.2507 35.5227 34.2214 36.68 34.8934 38.024C35.6027 39.368 35.9574 40.8427 35.9574 42.448C35.9574 44.0907 35.6027 45.584 34.8934 46.928C34.2214 48.3093 33.2507 49.4853 31.9814 50.456C30.7494 51.4267 29.256 52.1733 27.5014 52.696C25.784 53.2187 23.88 53.48 21.7894 53.48C19.6987 53.48 17.776 53.2187 16.0214 52.696C14.304 52.1733 12.8107 51.4267 11.5414 50.456ZM17.3094 42.448C17.3094 43.7173 17.8134 44.744 18.8214 45.528C19.8667 46.312 21.192 46.704 22.7974 46.704C24.3654 46.704 25.672 46.312 26.7174 45.528C27.7627 44.744 28.2854 43.7173 28.2854 42.448C28.2854 41.2533 27.744 40.2453 26.6614 39.424C25.616 38.6027 24.328 38.192 22.7974 38.192C21.1174 38.192 19.7734 38.6027 18.7654 39.424C17.7947 40.2453 17.3094 41.2533 17.3094 42.448ZM73.8506 45.248C72.7306 45.248 72.1706 44.688 72.1706 43.568L71.8346 23.016H64.3306C63.7332 23.016 63.2479 22.848 62.8746 22.512C62.5386 22.1387 62.3706 21.6533 62.3706 21.056V16.24C62.3706 15.6427 62.5386 15.176 62.8746 14.84C63.2479 14.4667 63.7332 14.28 64.3306 14.28H71.7226L71.6106 4.48C71.6106 3.36 72.1519 2.8 73.2346 2.8H79.5066C80.6266 2.8 81.1679 3.36 81.1306 4.48L80.4586 43.568C80.4586 44.688 79.8986 45.248 78.7786 45.248H73.8506ZM84.9946 45.248C83.8746 45.248 83.3146 44.688 83.3146 43.568V3.92C83.3146 2.8 83.8559 2.24 84.9386 2.24H91.2106C92.3306 2.24 92.8719 2.8 92.8346 3.92L91.6026 43.568C91.6026 44.688 91.0426 45.248 89.9226 45.248H84.9946ZM57.3306 29.624C58.9359 29.624 60.5226 29.5493 62.0906 29.4C63.6586 29.2507 65.1519 29.064 66.5706 28.84C67.2052 28.728 67.6532 28.7653 67.9146 28.952C68.1759 29.1013 68.3439 29.4373 68.4186 29.96L69.2586 34.608C69.3706 35.2053 69.3146 35.6533 69.0906 35.952C68.9039 36.2133 68.5679 36.4187 68.0826 36.568C66.7759 36.904 65.4132 37.2213 63.9946 37.52C62.6132 37.7813 61.1946 38.024 59.7386 38.248C58.3199 38.4347 56.9012 38.584 55.4826 38.696C54.0639 38.7707 52.7199 38.7893 51.4506 38.752C48.8746 38.6773 47.5679 37.3893 47.5306 34.888L46.6906 6.44C46.6159 5.32 47.1572 4.76 48.3146 4.76H55.0346C55.5946 4.76 55.9866 4.90933 56.2106 5.208C56.4719 5.46933 56.6212 5.88 56.6586 6.44L57.3306 29.624ZM130.923 45.248C129.803 45.248 129.243 44.688 129.243 43.568V3.92C129.243 2.8 129.785 2.24 130.867 2.24H137.699C138.819 2.24 139.361 2.8 139.323 3.92L138.931 16.688L143.579 16.632C144.177 16.632 144.643 16.8187 144.979 17.192C145.353 17.528 145.539 17.9947 145.539 18.592V23.184C145.539 23.7813 145.353 24.2667 144.979 24.64C144.643 24.976 144.177 25.144 143.579 25.144L138.651 25.256L138.091 43.568C138.091 44.688 137.531 45.248 136.411 45.248H130.923ZM101.915 39.2C100.87 39.2 100.049 38.9013 99.4513 38.304C98.854 37.7067 98.5553 36.8853 98.5553 35.84L97.8273 6.888C97.79 5.84266 98.07 5.02133 98.6673 4.424C99.302 3.82667 100.142 3.528 101.187 3.528L120.899 3.416C121.945 3.416 122.766 3.71467 123.363 4.312C123.961 4.90933 124.241 5.73067 124.203 6.776L123.755 35.616C123.718 36.6613 123.401 37.4827 122.803 38.08C122.243 38.6773 121.441 38.976 120.395 38.976L101.915 39.2ZM107.459 30.352L114.851 30.296V12.264L107.179 12.376L107.459 30.352ZM159.729 51.464C158.983 51.464 158.385 51.2213 157.937 50.736C157.489 50.288 157.247 49.6907 157.209 48.944L157.041 39.76C157.004 39.0133 157.228 38.416 157.713 37.968C158.199 37.52 158.815 37.2773 159.561 37.24L180.169 36.848L180.225 34.272L158.329 34.608C157.807 34.608 157.396 34.4587 157.097 34.16C156.799 33.824 156.649 33.4133 156.649 32.928V29.624C156.649 28.504 157.209 27.944 158.329 27.944L187.729 27.552C188.551 27.5147 189.185 27.72 189.633 28.168C190.081 28.616 190.287 29.2507 190.249 30.072L189.913 39.928C189.876 40.6747 189.633 41.272 189.185 41.72C188.737 42.168 188.14 42.4107 187.393 42.448L166.897 42.616V44.968L189.017 45.248C189.54 45.248 189.951 45.3973 190.249 45.696C190.548 45.9947 190.697 46.4053 190.697 46.928L190.641 49.616C190.641 50.1387 190.492 50.5493 190.193 50.848C189.895 51.1467 189.484 51.296 188.961 51.296L159.729 51.464ZM183.249 25.928C182.129 25.928 181.569 25.368 181.569 24.248L181.233 2.24C181.233 1.12 181.775 0.559999 182.857 0.559999H189.689C190.809 0.559999 191.351 1.12 191.313 2.24L190.753 24.248C190.679 25.368 190.119 25.928 189.073 25.928H183.249ZM146.569 23.184C146.271 22.848 146.121 22.456 146.121 22.008C146.159 21.5227 146.439 21.112 146.961 20.776C148.492 19.768 149.929 18.592 151.273 17.248C152.617 15.904 153.793 14.4667 154.801 12.936C155.809 11.4053 156.612 9.81867 157.209 8.176C157.807 6.496 158.143 4.79733 158.217 3.08C158.255 2.22133 158.479 1.58666 158.889 1.176C159.3 0.765332 159.823 0.559999 160.457 0.559999H166.449C167.196 0.559999 167.756 0.802665 168.129 1.288C168.503 1.736 168.671 2.33333 168.633 3.08C168.484 5.656 167.831 8.25066 166.673 10.864C168.465 12.432 170.276 13.7573 172.105 14.84C173.972 15.8853 175.857 16.8373 177.761 17.696C178.321 17.9573 178.62 18.312 178.657 18.76C178.732 19.1707 178.639 19.5813 178.377 19.992L175.297 24.472C175.036 24.92 174.681 25.1813 174.233 25.256C173.823 25.2933 173.356 25.1813 172.833 24.92C171.041 23.9867 169.268 22.9413 167.513 21.784C165.759 20.6267 164.097 19.2453 162.529 17.64C159.655 21.224 156.201 24.136 152.169 26.376C151.049 26.9733 150.135 26.88 149.425 26.096L146.569 23.184Z" fill="#9A7B9A"/>
<path d="M2.46938 29.848L2.46282 29.5481L2.4554 29.5482L2.448 29.5488L2.46938 29.848ZM1.23738 29.456L1.01315 29.6553L1.01901 29.6619L1.02524 29.6681L1.23738 29.456ZM1.23738 22.904L1.02524 22.6919L1.02524 22.6919L1.23738 22.904ZM2.46938 22.456V22.756L2.47055 22.756L2.46938 22.456ZM16.8054 22.4L16.8065 22.7L17.1107 22.6988L17.1053 22.3947L16.8054 22.4ZM16.7494 19.208L17.0493 19.2027L17.0441 18.9041L16.7455 18.908L16.7494 19.208ZM8.12538 19.32L8.12148 19.02L8.1202 19.02L8.12538 19.32ZM4.76538 16.016L4.46539 16.0215L4.46554 16.026L4.76538 16.016ZM4.54138 3.752L4.84134 3.74652L4.84125 3.74343L4.54138 3.752ZM5.32538 1.12L5.51293 1.35444L5.52185 1.34671L5.32538 1.12ZM7.90137 0.391998V0.692L7.90252 0.691996L7.90137 0.391998ZM37.1334 0.279996V-0.0200057L37.1322 -0.0200014L37.1334 0.279996ZM38.5334 0.839999L38.3104 1.04069L38.321 1.05242L38.3327 1.06299L38.5334 0.839999ZM37.1334 7.84V7.53999L37.1312 7.54001L37.1334 7.84ZM14.4534 8.008L14.4512 7.708L14.1534 7.71021V8.008H14.4534ZM14.4534 11.816H14.1534V12.1145L14.4519 12.116L14.4534 11.816ZM37.3574 11.928L37.3559 12.228H37.3574V11.928ZM37.6374 18.872V18.572L37.6328 18.572L37.6374 18.872ZM26.7174 19.04L26.7128 18.74L26.4223 18.7445L26.4174 19.0349L26.7174 19.04ZM26.6614 22.344L26.3614 22.3389L26.3562 22.6464L26.6637 22.644L26.6614 22.344ZM40.8854 22.232V21.932L40.883 21.932L40.8854 22.232ZM42.1174 22.68L41.9052 22.8921L42.1174 22.68ZM42.1174 28.56L42.3149 28.7858L42.3224 28.7792L42.3295 28.7721L42.1174 28.56ZM40.8854 29.008L40.8919 29.3079L40.8994 29.3078L40.9068 29.3072L40.8854 29.008ZM11.5414 50.456L11.3557 50.6917L11.3591 50.6943L11.5414 50.456ZM8.62938 46.984L8.36098 47.1182L8.36406 47.124L8.62938 46.984ZM8.62938 38.08L8.36105 37.9458L8.62938 38.08ZM11.4854 34.608L11.671 34.8437L11.6719 34.8429L11.4854 34.608ZM15.9654 32.256L15.8742 31.9702L15.8724 31.9708L15.9654 32.256ZM27.5014 32.256L27.4084 32.5412L27.4102 32.5418L27.5014 32.256ZM31.9814 34.552L31.7957 34.7877L31.7991 34.7903L31.9814 34.552ZM34.8934 38.024L34.625 38.1582L34.6281 38.164L34.8934 38.024ZM34.8934 46.928L34.6279 46.7879L34.6236 46.7968L34.8934 46.928ZM31.9814 50.456L31.7991 50.2177L31.7957 50.2204L31.9814 50.456ZM27.5014 52.696L27.4157 52.4085L27.414 52.409L27.5014 52.696ZM16.0214 52.696L15.934 52.983L15.9357 52.9835L16.0214 52.696ZM18.8214 45.528L18.6372 45.7648L18.6414 45.768L18.8214 45.528ZM26.7174 45.528L26.5374 45.288L26.7174 45.528ZM26.6614 39.424L26.476 39.6599L26.4801 39.663L26.6614 39.424ZM18.7654 39.424L18.5758 39.1914L18.5716 39.195L18.7654 39.424ZM2.448 29.5488C1.98949 29.5815 1.67224 29.4666 1.44951 29.2439L1.02524 29.6681C1.39984 30.0427 1.90393 30.1892 2.49075 30.1472L2.448 29.5488ZM1.4616 29.2567C1.21956 28.9844 1.08938 28.6299 1.08938 28.168H0.489375C0.489375 28.7514 0.657852 29.2556 1.01315 29.6553L1.4616 29.2567ZM1.08938 28.168V24.136H0.489375V28.168H1.08938ZM1.08938 24.136C1.08938 23.6729 1.21983 23.3458 1.44951 23.1161L1.02524 22.6919C0.657584 23.0595 0.489375 23.5538 0.489375 24.136H1.08938ZM1.44951 23.1161C1.67918 22.8865 2.00625 22.756 2.46938 22.756V22.156C1.88716 22.156 1.3929 22.3242 1.02524 22.6919L1.44951 23.1161ZM2.47055 22.756L16.8065 22.7L16.8042 22.1L2.4682 22.156L2.47055 22.756ZM17.1053 22.3947L17.0493 19.2027L16.4494 19.2133L16.5054 22.4053L17.1053 22.3947ZM16.7455 18.908L8.12148 19.02L8.12927 19.62L16.7533 19.508L16.7455 18.908ZM8.1202 19.02C7.08682 19.0379 6.35536 18.7837 5.87172 18.3081C5.38625 17.8307 5.10107 17.0819 5.06521 16.006L4.46554 16.026C4.50434 17.1901 4.8165 18.1119 5.45103 18.7359C6.08739 19.3617 6.9986 19.6395 8.13055 19.62L8.1202 19.02ZM5.06533 16.0105L4.84133 3.74652L4.24143 3.75748L4.46543 16.0215L5.06533 16.0105ZM4.84125 3.74343C4.80451 2.45735 5.06919 1.70913 5.51278 1.35426L5.13797 0.885738C4.46156 1.42686 4.20358 2.43332 4.2415 3.76057L4.84125 3.74343ZM5.52185 1.34671C6.00389 0.928944 6.7776 0.691998 7.90137 0.691998V0.0919981C6.71048 0.0919981 5.76686 0.340386 5.1289 0.893292L5.52185 1.34671ZM7.90252 0.691996L37.1345 0.579994L37.1322 -0.0200014L7.90023 0.0920005L7.90252 0.691996ZM37.1334 0.579997C37.6632 0.579997 38.0421 0.742548 38.3104 1.04069L38.7564 0.63931C38.3527 0.190779 37.7982 -0.0200038 37.1334 -0.0200038V0.579997ZM38.3327 1.06299C38.6308 1.33131 38.7934 1.71014 38.7934 2.24H39.3934C39.3934 1.57519 39.1826 1.02069 38.7341 0.617011L38.3327 1.06299ZM38.7934 2.24V5.88H39.3934V2.24H38.7934ZM38.7934 5.88C38.7934 6.40916 38.6307 6.81437 38.3212 7.12387L38.7455 7.54813C39.1827 7.11096 39.3934 6.54551 39.3934 5.88H38.7934ZM38.3212 7.12387C38.0551 7.39 37.6727 7.54 37.1334 7.54V8.14C37.7887 8.14 38.3396 7.954 38.7455 7.54813L38.3212 7.12387ZM37.1312 7.54001L14.4512 7.708L14.4556 8.30799L37.1356 8.13999L37.1312 7.54001ZM14.1534 8.008V11.816H14.7534V8.008H14.1534ZM14.4519 12.116L37.3559 12.228L37.3588 11.628L14.4548 11.516L14.4519 12.116ZM37.3574 12.228C37.9401 12.228 38.3215 12.3484 38.5534 12.5382C38.7738 12.7185 38.9054 12.9999 38.9054 13.44H39.5054C39.5054 12.8721 39.3289 12.3975 38.9333 12.0738C38.5493 11.7596 38.0066 11.628 37.3574 11.628V12.228ZM38.9054 13.44V17.304H39.5054V13.44H38.9054ZM38.9054 17.304C38.9054 17.7804 38.7865 18.0826 38.6012 18.2679C38.416 18.4531 38.1138 18.572 37.6374 18.572V19.172C38.2063 19.172 38.6881 19.0296 39.0255 18.6921C39.3629 18.3547 39.5054 17.8729 39.5054 17.304H38.9054ZM37.6328 18.572L26.7128 18.74L26.722 19.34L37.642 19.172L37.6328 18.572ZM26.4174 19.0349L26.3614 22.3389L26.9613 22.3491L27.0173 19.0451L26.4174 19.0349ZM26.6637 22.644L40.8877 22.532L40.883 21.932L26.659 22.044L26.6637 22.644ZM40.8854 22.532C41.3485 22.532 41.6756 22.6625 41.9052 22.8921L42.3295 22.4679C41.9618 22.1002 41.4676 21.932 40.8854 21.932V22.532ZM41.9052 22.8921C42.1349 23.1218 42.2654 23.4489 42.2654 23.912H42.8654C42.8654 23.3298 42.6972 22.8355 42.3295 22.4679L41.9052 22.8921ZM42.2654 23.912V27.328H42.8654V23.912H42.2654ZM42.2654 27.328C42.2654 27.7911 42.1349 28.1182 41.9052 28.3479L42.3295 28.7721C42.6972 28.4045 42.8654 27.9102 42.8654 27.328H42.2654ZM41.9198 28.3342C41.684 28.5406 41.3423 28.6746 40.864 28.7088L40.9068 29.3072C41.4738 29.2667 41.9534 29.1021 42.3149 28.7858L41.9198 28.3342ZM40.8788 28.7081L2.46282 29.5481L2.47593 30.1479L40.8919 29.3079L40.8788 28.7081ZM11.727 50.2204C10.5269 49.2748 9.58381 48.1497 8.89469 46.844L8.36406 47.124C9.0936 48.5063 10.0919 49.6959 11.3557 50.6916L11.727 50.2204ZM8.8977 46.8498C8.24888 45.5522 7.92138 44.087 7.92138 42.448H7.32138C7.32138 44.169 7.66587 45.7278 8.36105 47.1182L8.8977 46.8498ZM7.92138 42.448C7.92138 40.9245 8.24745 39.5147 8.8977 38.2142L8.36105 37.9458C7.6673 39.3333 7.32138 40.8355 7.32138 42.448H7.92138ZM8.8977 38.2142C9.54908 36.9114 10.4722 35.7882 11.671 34.8436L11.2997 34.3724C10.0346 35.3691 9.05367 36.5606 8.36105 37.9458L8.8977 38.2142ZM11.6719 34.8429C12.9103 33.8595 14.3711 33.0914 16.0584 32.5412L15.8724 31.9708C14.125 32.5406 12.5991 33.3405 11.2988 34.3731L11.6719 34.8429ZM16.0566 32.5418C17.7776 31.9925 19.6876 31.716 21.7894 31.716V31.116C19.6351 31.116 17.6625 31.3995 15.8742 31.9702L16.0566 32.5418ZM21.7894 31.716C23.8533 31.716 25.7254 31.9924 27.4084 32.5412L27.5944 31.9708C25.8427 31.3996 23.9068 31.116 21.7894 31.116V31.716ZM27.4102 32.5418C29.1364 33.0927 30.5964 33.8427 31.7957 34.7876L32.167 34.3164C30.9024 33.3199 29.3756 32.5393 27.5926 31.9702L27.4102 32.5418ZM31.7991 34.7903C33.0346 35.7351 33.9747 36.8575 34.625 38.1582L35.1617 37.8898C34.468 36.5025 33.4668 35.3103 32.1636 34.3137L31.7991 34.7903ZM34.6281 38.164C35.3133 39.4624 35.6574 40.8886 35.6574 42.448H36.2574C36.2574 40.7967 35.8921 39.2736 35.1587 37.884L34.6281 38.164ZM35.6574 42.448C35.6574 44.0459 35.3128 45.4906 34.6281 46.788L35.1587 47.068C35.8926 45.6774 36.2574 44.1354 36.2574 42.448H35.6574ZM34.6236 46.7968C33.9729 48.1344 33.0329 49.2742 31.7991 50.2177L32.1636 50.6943C33.4685 49.6964 34.4699 48.4843 35.1631 47.0592L34.6236 46.7968ZM31.7957 50.2204C30.598 51.164 29.1401 51.8949 27.4157 52.4085L27.587 52.9835C29.372 52.4518 30.9007 51.6893 32.167 50.6916L31.7957 50.2204ZM27.414 52.409C25.7292 52.9218 23.8552 53.18 21.7894 53.18V53.78C23.9049 53.78 25.8389 53.5156 27.5887 52.983L27.414 52.409ZM21.7894 53.18C19.7237 53.18 17.8303 52.9218 16.107 52.4085L15.9357 52.9835C17.7218 53.5155 19.6737 53.78 21.7894 53.78V53.18ZM16.1087 52.409C14.4215 51.8955 12.9612 51.1641 11.7236 50.2177L11.3591 50.6943C12.6602 51.6893 14.1866 52.4512 15.934 52.983L16.1087 52.409ZM17.0094 42.448C17.0094 43.8106 17.5566 44.9244 18.6372 45.7648L19.0056 45.2912C18.0701 44.5636 17.6094 43.6241 17.6094 42.448H17.0094ZM18.6414 45.768C19.7496 46.5991 21.1423 47.004 22.7974 47.004V46.404C21.2418 46.404 19.9838 46.0249 19.0014 45.288L18.6414 45.768ZM22.7974 47.004C24.4169 47.004 25.7904 46.5983 26.8974 45.768L26.5374 45.288C25.5537 46.0257 24.3138 46.404 22.7974 46.404V47.004ZM26.8974 45.768C28.0156 44.9293 28.5854 43.815 28.5854 42.448H27.9854C27.9854 43.6197 27.5098 44.5587 26.5374 45.288L26.8974 45.768ZM28.5854 42.448C28.5854 41.1457 27.9884 40.0541 26.8427 39.185L26.4801 39.663C27.4997 40.4365 27.9854 41.361 27.9854 42.448H28.5854ZM26.8467 39.1881C25.7407 38.3191 24.3846 37.892 22.7974 37.892V38.492C24.2715 38.492 25.4914 38.8862 26.476 39.6599L26.8467 39.1881ZM22.7974 37.892C21.0688 37.892 19.6514 38.3151 18.5759 39.1914L18.9549 39.6566C19.8954 38.8902 21.166 38.492 22.7974 38.492V37.892ZM18.5716 39.195C17.5385 40.0691 17.0094 41.1588 17.0094 42.448H17.6094C17.6094 41.3479 18.0509 40.4215 18.9592 39.653L18.5716 39.195ZM72.1706 43.568H72.4706L72.4705 43.5631L72.1706 43.568ZM71.8346 23.016L72.1345 23.0111L72.1297 22.716H71.8346V23.016ZM62.8746 22.512L62.6516 22.7127L62.6621 22.7244L62.6739 22.735L62.8746 22.512ZM71.7226 14.28V14.58H72.026L72.0225 14.2766L71.7226 14.28ZM71.6106 4.48H71.3105L71.3106 4.48343L71.6106 4.48ZM81.1306 4.48L80.8307 4.47L80.8306 4.47484L81.1306 4.48ZM80.4586 43.568L80.1586 43.5628V43.568H80.4586ZM92.8346 3.92L92.5347 3.91001L92.5347 3.91068L92.8346 3.92ZM91.6026 43.568L91.3026 43.5587V43.568H91.6026ZM57.3306 29.624L57.0307 29.6327L57.0391 29.924H57.3306V29.624ZM62.0906 29.4L62.119 29.6986L62.0906 29.4ZM66.5706 28.84L66.6174 29.1364L66.6227 29.1354L66.5706 28.84ZM67.9146 28.952L67.7402 29.1961L67.7525 29.2049L67.7657 29.2125L67.9146 28.952ZM68.4186 29.96L68.1214 30.0025L68.1233 30.0134L68.4186 29.96ZM69.2586 34.608L68.9633 34.6614L68.9637 34.6633L69.2586 34.608ZM69.0906 35.952L68.8505 35.7719L68.8464 35.7776L69.0906 35.952ZM68.0826 36.568L68.1574 36.8589L68.1708 36.8547L68.0826 36.568ZM63.9946 37.52L64.0503 37.8148L64.0564 37.8136L63.9946 37.52ZM59.7386 38.248L59.7777 38.5455L59.7842 38.5445L59.7386 38.248ZM55.4826 38.696L55.4983 38.9957L55.5062 38.9951L55.4826 38.696ZM51.4506 38.752L51.4594 38.4521L51.4593 38.4521L51.4506 38.752ZM47.5306 34.888L47.8306 34.8835L47.8304 34.8791L47.5306 34.888ZM46.6906 6.44L46.9906 6.43114L46.9899 6.42004L46.6906 6.44ZM56.2106 5.208L55.9706 5.388L55.9834 5.40506L55.9984 5.42013L56.2106 5.208ZM56.6586 6.44L56.9586 6.4313L56.9579 6.42004L56.6586 6.44ZM73.8506 44.948C73.3368 44.948 73.0066 44.8198 72.8027 44.6159C72.5988 44.412 72.4706 44.0818 72.4706 43.568H71.8706C71.8706 44.1742 72.0223 44.684 72.3784 45.0401C72.7345 45.3962 73.2443 45.548 73.8506 45.548V44.948ZM72.4705 43.5631L72.1345 23.0111L71.5346 23.0209L71.8706 43.5729L72.4705 43.5631ZM71.8346 22.716H64.3306V23.316H71.8346V22.716ZM64.3306 22.716C63.7925 22.716 63.3834 22.5663 63.0752 22.289L62.6739 22.735C63.1124 23.1297 63.6739 23.316 64.3306 23.316V22.716ZM63.0975 22.3113C62.8202 22.0032 62.6706 21.594 62.6706 21.056H62.0706C62.0706 21.7126 62.2569 22.2742 62.6516 22.7127L63.0975 22.3113ZM62.6706 21.056V16.24H62.0706V21.056H62.6706ZM62.6706 16.24C62.6706 15.7007 62.8206 15.3183 63.0867 15.0521L62.6624 14.6279C62.2566 15.0337 62.0706 15.5847 62.0706 16.24H62.6706ZM63.0867 15.0521C63.3962 14.7426 63.8014 14.58 64.3306 14.58V13.98C63.6651 13.98 63.0996 14.1907 62.6624 14.6279L63.0867 15.0521ZM64.3306 14.58H71.7226V13.98H64.3306V14.58ZM72.0225 14.2766L71.9105 4.47657L71.3106 4.48343L71.4226 14.2834L72.0225 14.2766ZM71.9106 4.48C71.9106 3.96374 72.0354 3.63211 72.2323 3.4285C72.4272 3.22679 72.7421 3.1 73.2346 3.1V2.5C72.6444 2.5 72.1472 2.6532 71.8009 3.01149C71.4564 3.36789 71.3106 3.87626 71.3106 4.48H71.9106ZM73.2346 3.1H79.5066V2.5H73.2346V3.1ZM79.5066 3.1C80.0212 3.1 80.3436 3.22859 80.5369 3.4285C80.7302 3.62846 80.8479 3.95525 80.8307 4.47001L81.4304 4.48999C81.4506 3.88475 81.3163 3.37154 80.9683 3.01149C80.6202 2.65141 80.1119 2.5 79.5066 2.5V3.1ZM80.8306 4.47484L80.1586 43.5628L80.7585 43.5732L81.4305 4.48516L80.8306 4.47484ZM80.1586 43.568C80.1586 44.0818 80.0303 44.412 79.8264 44.6159C79.6225 44.8198 79.2923 44.948 78.7786 44.948V45.548C79.3848 45.548 79.8946 45.3962 80.2507 45.0401C80.6068 44.684 80.7586 44.1742 80.7586 43.568H80.1586ZM78.7786 44.948H73.8506V45.548H78.7786V44.948ZM84.9946 44.948C84.4808 44.948 84.1506 44.8198 83.9467 44.6159C83.7428 44.412 83.6146 44.0818 83.6146 43.568H83.0146C83.0146 44.1742 83.1663 44.684 83.5224 45.0401C83.8785 45.3962 84.3883 45.548 84.9946 45.548V44.948ZM83.6146 43.568V3.92H83.0146V43.568H83.6146ZM83.6146 3.92C83.6146 3.40374 83.7394 3.07211 83.9363 2.8685C84.1312 2.66679 84.4461 2.54 84.9386 2.54V1.94C84.3484 1.94 83.8512 2.0932 83.5049 2.45149C83.1603 2.80789 83.0146 3.31625 83.0146 3.92H83.6146ZM84.9386 2.54H91.2106V1.94H84.9386V2.54ZM91.2106 2.54C91.7252 2.54 92.0476 2.66859 92.2409 2.8685C92.4342 3.06846 92.5519 3.39525 92.5347 3.91001L93.1344 3.92999C93.1546 3.32475 93.0203 2.81154 92.6723 2.45149C92.3242 2.09141 91.8159 1.94 91.2106 1.94V2.54ZM92.5347 3.91068L91.3027 43.5587L91.9024 43.5773L93.1344 3.92932L92.5347 3.91068ZM91.3026 43.568C91.3026 44.0818 91.1743 44.412 90.9704 44.6159C90.7665 44.8198 90.4363 44.948 89.9226 44.948V45.548C90.5288 45.548 91.0386 45.3962 91.3947 45.0401C91.7508 44.684 91.9026 44.1742 91.9026 43.568H91.3026ZM89.9226 44.948H84.9946V45.548H89.9226V44.948ZM57.3306 29.924C58.9452 29.924 60.5414 29.8489 62.119 29.6986L62.0621 29.1014C60.5038 29.2498 58.9266 29.324 57.3306 29.324V29.924ZM62.119 29.6986C63.6926 29.5488 65.192 29.3614 66.6174 29.1363L66.5238 28.5437C65.1117 28.7666 63.6246 28.9525 62.0621 29.1014L62.119 29.6986ZM66.6227 29.1354C67.2474 29.0252 67.5854 29.0855 67.7402 29.1961L68.0889 28.7079C67.7211 28.4451 67.163 28.4308 66.5184 28.5446L66.6227 29.1354ZM67.7657 29.2125C67.9024 29.2905 68.0505 29.5049 68.1216 30.0024L68.7155 29.9176C68.6373 29.3697 68.4494 28.9121 68.0634 28.6915L67.7657 29.2125ZM68.1233 30.0134L68.9633 34.6614L69.5538 34.5546L68.7138 29.9066L68.1233 30.0134ZM68.9637 34.6633C69.0696 35.2282 69 35.5728 68.8506 35.772L69.3306 36.132C69.6292 35.7339 69.6715 35.1825 69.5534 34.5527L68.9637 34.6633ZM68.8464 35.7776C68.7145 35.9623 68.4509 36.1408 67.9943 36.2813L68.1708 36.8547C68.6849 36.6965 69.0932 36.4644 69.3347 36.1264L68.8464 35.7776ZM68.0079 36.2775C66.7058 36.6123 65.3474 36.9286 63.9328 37.2264L64.0564 37.8136C65.479 37.5141 66.846 37.1957 68.1573 36.8585L68.0079 36.2775ZM63.9388 37.2252C62.561 37.4859 61.1457 37.728 59.6929 37.9515L59.7842 38.5445C61.2434 38.32 62.6655 38.0768 64.0503 37.8148L63.9388 37.2252ZM59.6994 37.9506C58.2859 38.1366 56.8724 38.2853 55.459 38.3969L55.5062 38.9951C56.9301 38.8827 58.3539 38.7328 59.7777 38.5454L59.6994 37.9506ZM55.4668 38.3964C54.0554 38.4707 52.7196 38.4892 51.4594 38.4521L51.4417 39.0519C52.7202 39.0895 54.0724 39.0706 55.4983 38.9956L55.4668 38.3964ZM51.4593 38.4521C50.2163 38.4161 49.33 38.0889 48.7492 37.5163C48.1698 36.9453 47.8485 36.0847 47.8305 34.8835L47.2306 34.8925C47.25 36.1926 47.6007 37.2267 48.328 37.9437C49.0538 38.6591 50.1088 39.0132 51.4419 39.0519L51.4593 38.4521ZM47.8304 34.8791L46.9904 6.43114L46.3907 6.44885L47.2307 34.8969L47.8304 34.8791ZM46.9899 6.42004C46.9557 5.90655 47.0666 5.58471 47.2563 5.3885C47.4479 5.19027 47.7778 5.06 48.3146 5.06V4.46C47.694 4.46 47.1746 4.60972 46.8249 4.97149C46.4732 5.33529 46.3508 5.85344 46.3912 6.45995L46.9899 6.42004ZM48.3146 5.06H55.0346V4.46H48.3146V5.06ZM55.0346 5.06C55.5491 5.06 55.8273 5.19692 55.9706 5.388L56.4506 5.028C56.1459 4.62174 55.6401 4.46 55.0346 4.46V5.06ZM55.9984 5.42013C56.1875 5.60917 56.3243 5.93619 56.3592 6.45995L56.9579 6.42004C56.9181 5.8238 56.7563 5.32949 56.4227 4.99587L55.9984 5.42013ZM56.3587 6.44869L57.0307 29.6327L57.6304 29.6153L56.9584 6.4313L56.3587 6.44869ZM139.323 3.92L139.023 3.91001L139.023 3.91079L139.323 3.92ZM138.931 16.688L138.631 16.6788L138.622 16.9917L138.935 16.988L138.931 16.688ZM143.579 16.632V16.332L143.576 16.332L143.579 16.632ZM144.979 17.192L144.756 17.3927L144.767 17.4044L144.779 17.415L144.979 17.192ZM144.979 24.64L145.191 24.8521V24.8521L144.979 24.64ZM143.579 25.144V24.8439L143.572 24.8441L143.579 25.144ZM138.651 25.256L138.645 24.9561L138.36 24.9625L138.351 25.2468L138.651 25.256ZM138.091 43.568L137.791 43.5588V43.568H138.091ZM101.915 39.2V39.5L101.919 39.5L101.915 39.2ZM99.4513 38.304L99.2392 38.5161L99.4513 38.304ZM98.5553 35.84H98.8554L98.8552 35.8325L98.5553 35.84ZM97.8273 6.888L98.1272 6.88046L98.1271 6.87729L97.8273 6.888ZM98.6673 4.424L98.4616 4.20544L98.4552 4.21187L98.6673 4.424ZM101.187 3.528V3.828L101.189 3.82799L101.187 3.528ZM120.899 3.416V3.11599L120.898 3.116L120.899 3.416ZM123.363 4.312L123.575 4.09987L123.363 4.312ZM124.203 6.776L123.903 6.76529L123.903 6.77134L124.203 6.776ZM123.755 35.616L124.055 35.6267L124.055 35.6207L123.755 35.616ZM122.803 38.08L122.591 37.8678L122.584 37.8748L122.803 38.08ZM120.395 38.976V38.676L120.392 38.676L120.395 38.976ZM107.459 30.352L107.159 30.3567L107.164 30.6542L107.462 30.652L107.459 30.352ZM114.851 30.296L114.854 30.596L115.151 30.5937V30.296H114.851ZM114.851 12.264H115.151V11.9596L114.847 11.964L114.851 12.264ZM107.179 12.376L107.175 12.076L106.875 12.0804L106.879 12.3807L107.179 12.376ZM130.923 44.948C130.41 44.948 130.079 44.8198 129.875 44.6159C129.672 44.412 129.543 44.0818 129.543 43.568H128.943C128.943 44.1742 129.095 44.684 129.451 45.0401C129.807 45.3962 130.317 45.548 130.923 45.548V44.948ZM129.543 43.568V3.92H128.943V43.568H129.543ZM129.543 3.92C129.543 3.40374 129.668 3.07211 129.865 2.8685C130.06 2.66679 130.375 2.54 130.867 2.54V1.94C130.277 1.94 129.78 2.0932 129.434 2.45149C129.089 2.80789 128.943 3.31626 128.943 3.92H129.543ZM130.867 2.54H137.699V1.94H130.867V2.54ZM137.699 2.54C138.214 2.54 138.536 2.66859 138.73 2.8685C138.923 3.06846 139.041 3.39525 139.023 3.91001L139.623 3.92999C139.643 3.32475 139.509 2.81154 139.161 2.45149C138.813 2.09141 138.305 1.94 137.699 1.94V2.54ZM139.023 3.91079L138.631 16.6788L139.231 16.6972L139.623 3.92921L139.023 3.91079ZM138.935 16.988L143.583 16.932L143.576 16.332L138.928 16.388L138.935 16.988ZM143.579 16.932C144.109 16.932 144.488 17.0946 144.756 17.3927L145.202 16.9913C144.799 16.5428 144.244 16.332 143.579 16.332V16.932ZM144.779 17.415C145.077 17.6833 145.239 18.0621 145.239 18.592H145.839C145.839 17.9272 145.629 17.3727 145.18 16.969L144.779 17.415ZM145.239 18.592V23.184H145.839V18.592H145.239ZM145.239 23.184C145.239 23.7132 145.077 24.1184 144.767 24.4279L145.191 24.8521C145.629 24.415 145.839 23.8495 145.839 23.184H145.239ZM144.767 24.4279C144.501 24.694 144.119 24.844 143.579 24.844V25.444C144.235 25.444 144.786 25.258 145.191 24.8521L144.767 24.4279ZM143.572 24.8441L138.645 24.9561L138.658 25.5559L143.586 25.4439L143.572 24.8441ZM138.351 25.2468L137.791 43.5588L138.391 43.5772L138.951 25.2652L138.351 25.2468ZM137.791 43.568C137.791 44.0818 137.663 44.412 137.459 44.6159C137.255 44.8198 136.925 44.948 136.411 44.948V45.548C137.018 45.548 137.527 45.3962 137.883 45.0401C138.24 44.684 138.391 44.1742 138.391 43.568H137.791ZM136.411 44.948H130.923V45.548H136.411V44.948ZM101.915 38.9C100.93 38.9 100.192 38.6202 99.6634 38.0919L99.2392 38.5161C99.9055 39.1825 100.81 39.5 101.915 39.5V38.9ZM99.6634 38.0919C99.1351 37.5635 98.8553 36.8258 98.8553 35.84H98.2553C98.2553 36.9449 98.5729 37.8498 99.2392 38.5161L99.6634 38.0919ZM98.8552 35.8325L98.1272 6.88046L97.5274 6.89554L98.2554 35.8475L98.8552 35.8325ZM98.1271 6.87729C98.092 5.89394 98.3545 5.16106 98.8794 4.63613L98.4552 4.21187C97.7854 4.88161 97.488 5.79139 97.5275 6.89871L98.1271 6.87729ZM98.8729 4.64246C99.4412 4.10762 100.202 3.828 101.187 3.828V3.228C100.082 3.228 99.1628 3.54571 98.4617 4.20554L98.8729 4.64246ZM101.189 3.82799L120.901 3.71599L120.898 3.116L101.186 3.228L101.189 3.82799ZM120.899 3.716C121.885 3.716 122.623 3.99579 123.151 4.52413L123.575 4.09987C122.909 3.43354 122.004 3.116 120.899 3.116V3.716ZM123.151 4.52413C123.676 5.04906 123.939 5.78194 123.904 6.76529L124.503 6.78671C124.543 5.67939 124.245 4.76961 123.575 4.09987L123.151 4.52413ZM123.903 6.77134L123.455 35.6113L124.055 35.6207L124.503 6.78066L123.903 6.77134ZM123.456 35.6053C123.42 36.5937 123.123 37.3362 122.591 37.8679L123.015 38.2921C123.678 37.6291 124.016 36.7289 124.055 35.6267L123.456 35.6053ZM122.584 37.8748C122.096 38.396 121.382 38.676 120.395 38.676V39.276C121.499 39.276 122.391 38.9587 123.022 38.2852L122.584 37.8748ZM120.392 38.676L101.912 38.9L101.919 39.5L120.399 39.276L120.392 38.676ZM107.462 30.652L114.854 30.596L114.849 29.996L107.457 30.052L107.462 30.652ZM115.151 30.296V12.264H114.551V30.296H115.151ZM114.847 11.964L107.175 12.076L107.184 12.676L114.856 12.564L114.847 11.964ZM106.879 12.3807L107.159 30.3567L107.759 30.3473L107.479 12.3713L106.879 12.3807ZM159.729 51.464V51.764L159.731 51.764L159.729 51.464ZM157.937 50.736L158.158 50.5324L158.149 50.5239L157.937 50.736ZM157.209 48.944L156.909 48.9495L156.91 48.959L157.209 48.944ZM157.041 39.76L157.341 39.7545L157.341 39.745L157.041 39.76ZM157.713 37.968L157.51 37.7476L157.713 37.968ZM159.561 37.24L159.555 36.9399L159.546 36.9404L159.561 37.24ZM180.169 36.848L180.175 37.1479L180.463 37.1425L180.469 36.8545L180.169 36.848ZM180.225 34.272L180.525 34.2785L180.532 33.9673L180.221 33.972L180.225 34.272ZM158.329 34.608V34.908L158.334 34.908L158.329 34.608ZM157.097 34.16L156.873 34.3593L156.879 34.3659L156.885 34.3721L157.097 34.16ZM158.329 27.944V28.244L158.333 28.244L158.329 27.944ZM187.729 27.552L187.733 27.8521L187.743 27.8517L187.729 27.552ZM189.633 28.168L189.421 28.3801L189.633 28.168ZM190.249 30.072L189.949 30.0584L189.949 30.0618L190.249 30.072ZM189.913 39.928L190.213 39.943L190.213 39.9382L189.913 39.928ZM189.185 41.72L189.397 41.9321L189.185 41.72ZM187.393 42.448L187.396 42.7483L187.408 42.7476L187.393 42.448ZM166.897 42.616L166.895 42.316L166.597 42.3184V42.616H166.897ZM166.897 44.968H166.597V45.2642L166.893 45.268L166.897 44.968ZM189.017 45.248L189.013 45.548H189.017V45.248ZM190.249 45.696L190.461 45.4839L190.249 45.696ZM190.697 46.928L190.997 46.9342V46.928H190.697ZM190.641 49.616L190.341 49.6097V49.616H190.641ZM190.193 50.848L190.405 51.0601L190.193 50.848ZM188.961 51.296V50.996L188.959 50.996L188.961 51.296ZM181.569 24.248H181.869L181.869 24.2434L181.569 24.248ZM181.233 2.24H180.933L180.933 2.24458L181.233 2.24ZM191.313 2.24L191.013 2.23L191.013 2.23237L191.313 2.24ZM190.753 24.248L191.053 24.268L191.053 24.2556L190.753 24.248ZM146.569 23.184L146.345 23.3833L146.35 23.3888L146.355 23.3941L146.569 23.184ZM146.121 22.008L145.822 21.985L145.821 21.9965V22.008H146.121ZM146.961 20.776L147.123 21.0284L147.126 21.0266L146.961 20.776ZM151.273 17.248L151.061 17.0359L151.273 17.248ZM154.801 12.936L154.551 12.771L154.801 12.936ZM157.209 8.176L157.491 8.27852L157.492 8.2765L157.209 8.176ZM158.217 3.08L157.917 3.06697L158.217 3.08ZM158.889 1.176L159.101 1.38813V1.38813L158.889 1.176ZM168.129 1.288L167.891 1.47105L167.899 1.48005L168.129 1.288ZM168.633 3.08L168.933 3.09736L168.933 3.09498L168.633 3.08ZM166.673 10.864L166.399 10.7425L166.309 10.9444L166.476 11.0898L166.673 10.864ZM172.105 14.84L171.952 15.0982L171.959 15.1018L172.105 14.84ZM177.761 17.696L177.888 17.4241L177.885 17.4225L177.761 17.696ZM178.657 18.76L178.358 18.7849L178.359 18.7994L178.362 18.8137L178.657 18.76ZM178.377 19.992L178.625 20.1621L178.63 20.1531L178.377 19.992ZM175.297 24.472L175.05 24.302L175.044 24.3112L175.038 24.3208L175.297 24.472ZM174.233 25.256L174.26 25.5548L174.271 25.5538L174.283 25.5519L174.233 25.256ZM172.833 24.92L172.695 25.1861L172.699 25.1883L172.833 24.92ZM167.513 21.784L167.678 21.5336V21.5336L167.513 21.784ZM162.529 17.64L162.744 17.4304L162.507 17.188L162.295 17.4523L162.529 17.64ZM152.169 26.376L152.31 26.6407L152.315 26.6382L152.169 26.376ZM149.425 26.096L149.648 25.8946L149.639 25.8859L149.425 26.096ZM159.729 51.164C159.054 51.164 158.541 50.948 158.158 50.5325L157.717 50.9395C158.229 51.4947 158.911 51.764 159.729 51.764V51.164ZM158.149 50.5239C157.763 50.1377 157.543 49.6156 157.509 48.929L156.91 48.959C156.95 49.7658 157.215 50.4383 157.725 50.9481L158.149 50.5239ZM157.509 48.9385L157.341 39.7545L156.741 39.7655L156.909 48.9495L157.509 48.9385ZM157.341 39.745C157.307 39.074 157.506 38.5677 157.917 38.1884L157.51 37.7476C156.95 38.2643 156.7 38.9526 156.742 39.775L157.341 39.745ZM157.917 38.1884C158.344 37.7944 158.89 37.5739 159.576 37.5396L159.546 36.9404C158.739 36.9807 158.053 37.2456 157.51 37.7476L157.917 38.1884ZM159.567 37.5399L180.175 37.1479L180.163 36.5481L159.555 36.9401L159.567 37.5399ZM180.469 36.8545L180.525 34.2785L179.925 34.2655L179.869 36.8415L180.469 36.8545ZM180.221 33.972L158.325 34.308L158.334 34.908L180.23 34.572L180.221 33.972ZM158.329 34.308C157.866 34.308 157.539 34.1775 157.309 33.9479L156.885 34.3721C157.253 34.7398 157.747 34.908 158.329 34.908V34.308ZM157.321 33.9607C157.076 33.6842 156.949 33.3462 156.949 32.928H156.349C156.349 33.4805 156.521 33.9638 156.873 34.3593L157.321 33.9607ZM156.949 32.928V29.624H156.349V32.928H156.949ZM156.949 29.624C156.949 29.1102 157.077 28.78 157.281 28.5761C157.485 28.3722 157.815 28.244 158.329 28.244V27.644C157.723 27.644 157.213 27.7958 156.857 28.1519C156.501 28.508 156.349 29.0178 156.349 29.624H156.949ZM158.333 28.244L187.733 27.852L187.725 27.252L158.325 27.644L158.333 28.244ZM187.743 27.8517C188.506 27.817 189.049 28.0082 189.421 28.3801L189.845 27.9559C189.321 27.4318 188.595 27.2124 187.716 27.2523L187.743 27.8517ZM189.421 28.3801C189.793 28.752 189.984 29.2947 189.949 30.0584L190.549 30.0856C190.589 29.2066 190.369 28.48 189.845 27.9559L189.421 28.3801ZM189.949 30.0618L189.613 39.9178L190.213 39.9382L190.549 30.0822L189.949 30.0618ZM189.614 39.913C189.579 40.5996 189.359 41.1217 188.973 41.5079L189.397 41.9321C189.907 41.4223 190.172 40.7498 190.213 39.943L189.614 39.913ZM188.973 41.5079C188.587 41.894 188.065 42.114 187.378 42.1484L187.408 42.7476C188.215 42.7073 188.887 42.442 189.397 41.9321L188.973 41.5079ZM187.391 42.148L166.895 42.316L166.9 42.916L187.396 42.748L187.391 42.148ZM166.597 42.616V44.968H167.197V42.616H166.597ZM166.893 45.268L189.013 45.548L189.021 44.948L166.901 44.668L166.893 45.268ZM189.017 45.548C189.48 45.548 189.807 45.6785 190.037 45.9081L190.461 45.4839C190.094 45.1162 189.599 44.948 189.017 44.948V45.548ZM190.037 45.9081C190.267 46.1378 190.397 46.4649 190.397 46.928H190.997C190.997 46.3458 190.829 45.8515 190.461 45.4839L190.037 45.9081ZM190.397 46.9218L190.341 49.6098L190.941 49.6222L190.997 46.9342L190.397 46.9218ZM190.341 49.616C190.341 50.0791 190.211 50.4062 189.981 50.6359L190.405 51.0601C190.773 50.6925 190.941 50.1982 190.941 49.616H190.341ZM189.981 50.6359C189.751 50.8655 189.424 50.996 188.961 50.996V51.596C189.543 51.596 190.038 51.4278 190.405 51.0601L189.981 50.6359ZM188.959 50.996L159.727 51.164L159.731 51.764L188.963 51.596L188.959 50.996ZM183.249 25.628C182.735 25.628 182.405 25.4998 182.201 25.2959C181.997 25.092 181.869 24.7618 181.869 24.248H181.269C181.269 24.8542 181.421 25.364 181.777 25.7201C182.133 26.0762 182.643 26.228 183.249 26.228V25.628ZM181.869 24.2434L181.533 2.23542L180.933 2.24458L181.269 24.2526L181.869 24.2434ZM181.533 2.24C181.533 1.72374 181.658 1.39211 181.855 1.18851C182.05 0.986795 182.365 0.86 182.857 0.86V0.259999C182.267 0.259999 181.77 0.413203 181.423 0.771492C181.079 1.12789 180.933 1.63625 180.933 2.24H181.533ZM182.857 0.86H189.689V0.259999H182.857V0.86ZM189.689 0.86C190.204 0.86 190.526 0.988588 190.719 1.18851C190.913 1.38846 191.031 1.71525 191.013 2.23L191.613 2.24999C191.633 1.64475 191.499 1.13154 191.151 0.771492C190.803 0.411411 190.295 0.259999 189.689 0.259999V0.86ZM191.013 2.23237L190.453 24.2404L191.053 24.2556L191.613 2.24763L191.013 2.23237ZM190.454 24.228C190.419 24.7455 190.276 25.0851 190.065 25.2959C189.858 25.5034 189.543 25.628 189.073 25.628V26.228C189.649 26.228 190.137 26.0727 190.489 25.7201C190.839 25.3709 191.012 24.8705 191.053 24.268L190.454 24.228ZM189.073 25.628H183.249V26.228H189.073V25.628ZM146.793 22.9847C146.543 22.7034 146.421 22.3822 146.421 22.008H145.821C145.821 22.5298 145.998 22.9926 146.345 23.3833L146.793 22.9847ZM146.42 22.031C146.448 21.6646 146.656 21.329 147.123 21.0284L146.799 20.5236C146.221 20.895 145.869 21.3808 145.822 21.985L146.42 22.031ZM147.126 21.0266C148.674 20.007 150.127 18.818 151.485 17.4601L151.061 17.0359C149.731 18.366 148.309 19.529 146.796 20.5254L147.126 21.0266ZM151.485 17.4601C152.843 16.1023 154.032 14.6493 155.052 13.101L154.551 12.771C153.554 14.2841 152.391 15.7057 151.061 17.0359L151.485 17.4601ZM155.052 13.101C156.072 11.5517 156.885 9.94421 157.491 8.27852L156.927 8.07347C156.338 9.69313 155.546 11.2589 154.551 12.771L155.052 13.101ZM157.492 8.2765C158.099 6.56941 158.441 4.84131 158.517 3.09303L157.917 3.06697C157.844 4.75336 157.514 6.42258 156.927 8.0755L157.492 8.2765ZM158.517 3.09303C158.553 2.27405 158.764 1.72514 159.101 1.38813L158.677 0.963866C158.193 1.44818 157.957 2.16861 157.917 3.06697L158.517 3.09303ZM159.101 1.38813C159.45 1.03922 159.894 0.86 160.457 0.86V0.259999C159.751 0.259999 159.149 0.491442 158.677 0.963866L159.101 1.38813ZM160.457 0.86H166.449V0.259999H160.457V0.86ZM166.449 0.86C167.125 0.86 167.587 1.07574 167.891 1.47091L168.367 1.10508C167.924 0.529592 167.266 0.259999 166.449 0.259999V0.86ZM167.899 1.48005C168.211 1.85525 168.368 2.37165 168.334 3.06502L168.933 3.09498C168.973 2.29502 168.794 1.61674 168.36 1.09594L167.899 1.48005ZM168.334 3.06263C168.187 5.59903 167.543 8.15857 166.399 10.7425L166.947 10.9855C168.118 8.34276 168.781 5.71296 168.933 3.09736L168.334 3.06263ZM166.476 11.0898C168.28 12.6685 170.105 14.0051 171.952 15.0982L172.258 14.5818C170.446 13.5096 168.65 12.1955 166.871 10.6382L166.476 11.0898ZM171.959 15.1018C173.833 16.1512 175.726 17.1072 177.638 17.9695L177.885 17.4225C175.989 16.5675 174.111 15.6194 172.252 14.5782L171.959 15.1018ZM177.634 17.9679C178.138 18.2029 178.333 18.4828 178.358 18.7849L178.956 18.7351C178.907 18.1412 178.504 17.7118 177.888 17.4241L177.634 17.9679ZM178.362 18.8137C178.421 19.1378 178.352 19.4727 178.124 19.8309L178.63 20.1531C178.925 19.69 179.043 19.2035 178.952 18.7063L178.362 18.8137ZM178.13 19.822L175.05 24.302L175.544 24.642L178.624 20.162L178.13 19.822ZM175.038 24.3208C174.815 24.7041 174.531 24.9023 174.184 24.9601L174.283 25.5519C174.832 25.4604 175.257 25.1359 175.556 24.6232L175.038 24.3208ZM174.206 24.9572C173.869 24.9878 173.46 24.898 172.967 24.6517L172.699 25.1883C173.252 25.4647 173.776 25.5988 174.26 25.5548L174.206 24.9572ZM172.972 24.6539C171.189 23.7255 169.425 22.6855 167.678 21.5336L167.348 22.0344C169.111 23.1972 170.893 24.2478 172.695 25.1861L172.972 24.6539ZM167.678 21.5336C165.943 20.3888 164.298 19.0214 162.744 17.4304L162.315 17.8496C163.897 19.4693 165.574 20.8645 167.348 22.0344L167.678 21.5336ZM162.295 17.4523C159.445 21.0058 156.022 23.8926 152.023 26.1138L152.315 26.6382C156.381 24.3794 159.864 21.4422 162.763 17.8277L162.295 17.4523ZM152.028 26.1113C151.501 26.3923 151.053 26.4943 150.674 26.4555C150.301 26.4175 149.96 26.2405 149.648 25.8947L149.203 26.2973C149.599 26.7355 150.071 26.9971 150.613 27.0524C151.148 27.1071 151.717 26.9571 152.31 26.6407L152.028 26.1113ZM149.639 25.8859L146.783 22.9739L146.355 23.3941L149.211 26.3061L149.639 25.8859Z" fill="#6F4B73"/>
</svg>
