<svg width="13" height="17" viewBox="0 0 13 17" fill="none" xmlns="http://www.w3.org/2000/svg">
<g id="Emoji">
<path id="Vector" d="M10.8866 12.4717H2.56345C1.54202 12.4717 0.713867 13.2999 0.713867 14.3213V16.6333H12.7362V14.3213C12.7362 13.2999 11.908 12.4717 10.8866 12.4717Z" fill="#FA743E"/>
<path id="Vector_2" d="M2.56348 14.7836H3.02587V16.6332H2.56348V14.7836ZM10.4242 14.7836H10.8866V16.6332H10.4242V14.7836Z" fill="#DD551F"/>
<path id="Vector_3" d="M8.53111 0.570591C7.59707 0.268184 5.39976 0.350953 4.85044 1.06489C3.4221 1.09217 1.74637 2.38318 1.52673 4.08665C1.30941 5.77209 1.794 6.55492 1.96647 7.82235C2.1616 9.25856 2.96895 9.71771 3.61445 9.91007C4.54294 11.1373 5.5297 11.0846 7.18739 11.0846C10.4242 11.0846 11.9658 8.91869 12.1022 5.24033C12.1845 3.01528 10.8792 1.33031 8.53111 0.570591Z" fill="#FFAC33"/>
<path id="Vector_4" d="M5.33691 10.1599V12.9343C5.33691 13.7005 5.95791 14.3215 6.7241 14.3215C7.49029 14.3215 8.11129 13.7005 8.11129 12.9343V10.1599H5.33691Z" fill="#FFDC5D"/>
<path id="Vector_5" d="M10.3809 5.39773C10.0679 4.964 9.66649 4.61489 8.78747 4.49143C9.11716 4.64264 9.43298 5.16422 9.47413 5.45276C9.51529 5.74129 9.55644 5.9748 9.29565 5.68627C8.25063 4.53074 7.11221 4.98574 5.98397 4.28012C5.19604 3.7872 4.95606 3.24158 4.95606 3.24158C4.95606 3.24158 4.85988 3.96939 3.66505 4.71107C3.31871 4.92609 2.90533 5.40467 2.67598 6.11213C2.51091 6.62031 2.56223 7.07346 2.56223 7.84797C2.56223 10.1086 4.42523 12.0095 6.7238 12.0095C9.02237 12.0095 10.8854 10.092 10.8854 7.84797C10.8854 6.44182 10.7379 5.8925 10.3809 5.39773Z" fill="#FFDC5D"/>
<path id="Vector_6" d="M6.72509 11.0847C6.98047 11.0847 7.18749 10.8777 7.18749 10.6223C7.18749 10.3669 6.98047 10.1599 6.72509 10.1599C6.46972 10.1599 6.2627 10.3669 6.2627 10.6223C6.2627 10.8777 6.46972 11.0847 6.72509 11.0847Z" fill="#C1694F"/>
<path id="Vector_7" d="M4.87548 7.3856C4.62024 7.3856 4.41309 7.17845 4.41309 6.92321V6.46081C4.41309 6.20557 4.62024 5.99841 4.87548 5.99841C5.13073 5.99841 5.33788 6.20557 5.33788 6.46081V6.92321C5.33788 7.17845 5.13073 7.3856 4.87548 7.3856ZM8.57465 7.3856C8.31941 7.3856 8.11226 7.17845 8.11226 6.92321V6.46081C8.11226 6.20557 8.31941 5.99841 8.57465 5.99841C8.8299 5.99841 9.03705 6.20557 9.03705 6.46081V6.92321C9.03705 7.17845 8.8299 7.3856 8.57465 7.3856Z" fill="#662113"/>
<path id="Vector_8" d="M7.18724 9.00372H6.26245C6.13483 9.00372 6.03125 8.90014 6.03125 8.77252C6.03125 8.6449 6.13483 8.54132 6.26245 8.54132H7.18724C7.31486 8.54132 7.41844 8.6449 7.41844 8.77252C7.41844 8.90014 7.31486 9.00372 7.18724 9.00372Z" fill="#C1694F"/>
</g>
</svg>
