<svg width="17" height="15" viewBox="0 0 17 15" fill="none" xmlns="http://www.w3.org/2000/svg">
<g id="Emoji">
<path id="Vector" d="M0.454102 4.82662C0.454102 4.82662 0.454102 3.0506 2.23012 3.0506H14.6623C14.6623 3.0506 16.4383 3.0506 16.4383 4.82662V12.8187C16.4383 12.8187 16.4383 14.5947 14.6623 14.5947H2.23012C2.23012 14.5947 0.454102 14.5947 0.454102 12.8187V4.82662Z" fill="#31373D"/>
<path id="Vector_2" d="M9.77795 13.2627C12.2301 13.2627 14.218 11.2748 14.218 8.82262C14.218 6.37045 12.2301 4.38257 9.77795 4.38257C7.32577 4.38257 5.33789 6.37045 5.33789 8.82262C5.33789 11.2748 7.32577 13.2627 9.77795 13.2627Z" fill="#CCD6DD"/>
<path id="Vector_3" d="M9.77861 12.3747C11.7403 12.3747 13.3307 10.7844 13.3307 8.82261C13.3307 6.86087 11.7403 5.27057 9.77861 5.27057C7.81687 5.27057 6.22656 6.86087 6.22656 8.82261C6.22656 10.7844 7.81687 12.3747 9.77861 12.3747Z" fill="#31373D"/>
<path id="Vector_4" d="M9.77862 11.0427C11.0047 11.0427 11.9986 10.0487 11.9986 8.82263C11.9986 7.59654 11.0047 6.6026 9.77862 6.6026C8.55253 6.6026 7.55859 7.59654 7.55859 8.82263C7.55859 10.0487 8.55253 11.0427 9.77862 11.0427Z" fill="#3B88C3"/>
<path id="Vector_5" d="M14.8848 5.27062C15.2526 5.27062 15.5508 4.97243 15.5508 4.60461C15.5508 4.23678 15.2526 3.9386 14.8848 3.9386C14.5169 3.9386 14.2188 4.23678 14.2188 4.60461C14.2188 4.97243 14.5169 5.27062 14.8848 5.27062Z" fill="white"/>
<path id="Vector_6" d="M7.55819 4.38259L8.89021 1.71855L6.22617 2.60656L4.45015 0.386536L3.56214 2.60656L0.898107 2.16256L2.67413 4.82659L0.454102 6.60261H3.11813L2.23012 9.26665L4.89416 7.93463L7.55819 10.1547L7.11418 6.60261L9.77822 6.15861L7.55819 4.38259Z" fill="#FFAC33"/>
<path id="Vector_7" d="M4.89386 6.60259L3.56184 7.4906L4.00584 6.15859L2.67383 5.71458L4.00584 4.82657L2.67383 3.49455H4.44985L4.89386 2.16254L5.78187 3.49455L7.11388 3.05055L6.22587 4.38256L7.55789 5.71458L6.22587 6.15859L6.66988 7.93461L4.89386 6.60259Z" fill="white"/>
</g>
</svg>
