<svg width="37" height="37" viewBox="0 0 37 37" fill="none" xmlns="http://www.w3.org/2000/svg">
<g id="&#240;&#159;&#166;&#134; icon &#34;message&#34;">
<g id="Group">
<path id="Vector" d="M12.375 30.75H11.5C4.5 30.75 1 29 1 20.25V11.5C1 4.5 4.5 1 11.5 1H25.5C32.5 1 36 4.5 36 11.5V20.25C36 27.25 32.5 30.75 25.5 30.75H24.625C24.0825 30.75 23.5575 31.0125 23.225 31.45L20.6 34.95C19.445 36.49 17.555 36.49 16.4 34.95L13.775 31.45C13.495 31.065 12.8475 30.75 12.375 30.75Z" stroke="#616161" stroke-width="1.5" stroke-miterlimit="10" stroke-linecap="round" stroke-linejoin="round"/>
<g id="Group_2">
<path id="Vector_2" opacity="0.4" d="M25.4941 16.75H25.5088" stroke="#616161" stroke-width="3.05878" stroke-linecap="round" stroke-linejoin="round"/>
<path id="Vector_3" opacity="0.4" d="M18.4912 16.75H18.5061" stroke="#616161" stroke-width="3.05878" stroke-linecap="round" stroke-linejoin="round"/>
<path id="Vector_4" opacity="0.4" d="M11.4902 16.75H11.5051" stroke="#616161" stroke-width="3.05878" stroke-linecap="round" stroke-linejoin="round"/>
</g>
</g>
</g>
</svg>
