<svg width="25" height="25" viewBox="0 0 25 25" fill="none" xmlns="http://www.w3.org/2000/svg">
<g id="&#240;&#159;&#166;&#134; icon &#34;message&#34;">
<g id="Group">
<path id="Vector" d="M8.825 19.85H8.3C4.1 19.85 2 18.8 2 13.55V8.3C2 4.1 4.1 2 8.3 2H16.7C20.9 2 23 4.1 23 8.3V13.55C23 17.75 20.9 19.85 16.7 19.85H16.175C15.8495 19.85 15.5345 20.0075 15.335 20.27L13.76 22.37C13.067 23.294 11.933 23.294 11.24 22.37L9.665 20.27C9.497 20.039 9.1085 19.85 8.825 19.85Z" stroke="#292D32" stroke-width="2.29408" stroke-miterlimit="10" stroke-linecap="round" stroke-linejoin="round"/>
<g id="Group_2">
<path id="Vector_2" opacity="0.4" d="M16.6963 11.45H16.7049" stroke="#292D32" stroke-width="3.05878" stroke-linecap="round" stroke-linejoin="round"/>
<path id="Vector_3" opacity="0.4" d="M12.4941 11.45H12.5028" stroke="#292D32" stroke-width="3.05878" stroke-linecap="round" stroke-linejoin="round"/>
<path id="Vector_4" opacity="0.4" d="M8.29395 11.45H8.30259" stroke="#292D32" stroke-width="3.05878" stroke-linecap="round" stroke-linejoin="round"/>
</g>
</g>
</g>
</svg>
