<svg width="15" height="15" viewBox="0 0 15 15" fill="none" xmlns="http://www.w3.org/2000/svg">
<g id="&#240;&#159;&#166;&#134; icon &#34;message&#34;">
<g id="Group">
<g id="Group_2">
<path id="Vector" opacity="0.4" d="M10.0977 7.10547H10.1031" stroke="#4E4E4E" stroke-width="2" stroke-linecap="round" stroke-linejoin="round"/>
<path id="Vector_2" opacity="0.4" d="M7.49707 7.10547H7.50261" stroke="#4E4E4E" stroke-width="2" stroke-linecap="round" stroke-linejoin="round"/>
<path id="Vector_3" opacity="0.4" d="M4.89648 7.10547H4.90201" stroke="#4E4E4E" stroke-width="2" stroke-linecap="round" stroke-linejoin="round"/>
</g>
<path id="Vector_4" d="M5.225 12.3894H4.9C2.3 12.3894 1 11.7289 1 8.42646V5.12404C1 2.4821 2.3 1.16113 4.9 1.16113H10.1C12.7 1.16113 14 2.4821 14 5.12404V8.42646C14 11.0684 12.7 12.3894 10.1 12.3894H9.775C9.5735 12.3894 9.3785 12.4884 9.255 12.6536L8.28 13.9745C7.851 14.5557 7.149 14.5557 6.72 13.9745L5.745 12.6536C5.641 12.5082 5.4005 12.3894 5.225 12.3894Z" stroke="#4E4E4E" stroke-miterlimit="10" stroke-linecap="round" stroke-linejoin="round"/>
</g>
</g>
</svg>
