<svg width="17" height="17" viewBox="0 0 17 17" fill="none" xmlns="http://www.w3.org/2000/svg">
<g id="Emoji">
<path id="Vector" d="M6.7123 9.24035H6.71995V5.41508C6.71995 2.83302 4.62668 0.739746 2.04462 0.739746C1.60089 0.739746 1.17543 0.809876 0.769531 0.926759V14.1184C1.04665 14.1652 1.3293 14.1945 1.61959 14.1945C4.38696 14.1945 6.63452 11.989 6.7123 9.24035Z" fill="#FFAC33"/>
<path id="Vector_2" d="M5.62805 12.2154C5.56684 12.2086 0.769531 12.2154 0.769531 12.2154V16.0407H7.14498V13.9155C7.14498 13.0396 6.47938 12.3081 5.62805 12.2154Z" fill="#9268CA"/>
<path id="Vector_3" d="M5.01953 14.3406H5.44456V16.0408H5.01953V14.3406Z" fill="#7450A8"/>
<path id="Vector_4" d="M0.769531 4.14771V13.5851C0.995647 13.7882 1.29147 13.9157 1.61959 13.9157C2.32387 13.9157 2.89468 13.3449 2.89468 12.6407V11.5683C4.37974 11.0425 5.44486 9.63017 5.44486 7.96532V5.8321C2.92868 5.74709 1.53161 4.91063 0.769531 4.14771Z" fill="#FFDC5D"/>
<path id="Vector_5" d="M0.769531 10.0906V10.7863C0.998197 10.8765 1.27574 10.9406 1.61959 10.9406C2.22016 10.9406 2.62649 10.7515 2.89468 10.5517C3.19518 10.3277 3.31971 10.0906 3.31971 10.0906H0.769531Z" fill="#DF1F32"/>
<path id="Vector_6" d="M2.04402 9.02775H1.19396C1.07665 9.02775 0.981445 8.93255 0.981445 8.81524C0.981445 8.69793 1.07665 8.60272 1.19396 8.60272H2.04402C2.16133 8.60272 2.25654 8.69793 2.25654 8.81524C2.25654 8.93255 2.16133 9.02775 2.04402 9.02775Z" fill="#C1694F"/>
<path id="Vector_7" d="M3.31956 7.54041C3.08494 7.54041 2.89453 7.35 2.89453 7.11538V6.69035C2.89453 6.45573 3.08494 6.26532 3.31956 6.26532C3.55418 6.26532 3.74459 6.45573 3.74459 6.69035V7.11538C3.74459 7.35 3.55418 7.54041 3.31956 7.54041Z" fill="#662113"/>
<path id="Vector_8" d="M14.7954 0.739807C12.2134 0.739807 10.1201 2.83308 10.1201 5.41514C10.1201 7.99719 12.2134 10.0905 14.7954 10.0905C15.2379 10.0905 15.6646 10.025 16.0705 9.90983V0.920445C15.6646 0.805262 15.2379 0.739807 14.7954 0.739807Z" fill="#FFAC33"/>
<path id="Vector_9" d="M11.3945 12.2156C10.4556 12.2156 9.69434 12.9769 9.69434 13.9158V16.0409H16.0698V12.2156H11.3945Z" fill="#4289C1"/>
<path id="Vector_10" d="M11.3955 14.3406H11.8205V16.0408H11.3955V14.3406Z" fill="#2A6797"/>
<path id="Vector_11" d="M16.0708 5.53421C14.273 5.05606 13.3876 4.11971 12.9826 3.49237C12.8041 4.25912 12.3714 5.48959 11.3955 5.77436V7.96539C11.3955 8.21573 11.4214 8.45927 11.4669 8.69601C11.7262 10.0349 12.6838 11.1212 13.9457 11.5679V12.2157L15.2208 14.3408L16.0708 12.8974V5.53421Z" fill="#FFDC5D"/>
<path id="Vector_12" d="M13.5195 10.0903C13.5195 10.0903 13.6441 10.3275 13.9446 10.5515C14.2123 10.7508 14.6191 10.9404 15.2197 10.9404C15.5635 10.9404 15.841 10.8762 16.0697 10.7861V10.0903H13.5195ZM15.6447 9.02775H14.7946C14.6773 9.02775 14.5821 8.93255 14.5821 8.81524C14.5821 8.69793 14.6773 8.60272 14.7946 8.60272H15.6447C15.762 8.60272 15.8572 8.69793 15.8572 8.81524C15.8572 8.93255 15.762 9.02775 15.6447 9.02775Z" fill="#C1694F"/>
<path id="Vector_13" d="M13.5198 7.54041C13.2847 7.54041 13.0947 7.35 13.0947 7.11538V6.69035C13.0947 6.45573 13.2847 6.26532 13.5198 6.26532C13.7548 6.26532 13.9448 6.45573 13.9448 6.69035V7.11538C13.9448 7.35 13.7548 7.54041 13.5198 7.54041Z" fill="#662113"/>
<path id="Vector_14" d="M12.0497 2.74212C12.0497 1.6362 11.1529 0.739807 10.0474 0.739807C9.37624 0.739807 8.78375 1.07133 8.42035 1.57797C8.05652 1.07133 7.46403 0.739807 6.79333 0.739807C5.68783 0.739807 4.79102 1.6362 4.79102 2.74212C4.79102 2.89896 4.81099 3.05112 4.84499 3.19691C5.12296 4.92465 7.04367 6.74718 8.41992 7.24702C9.79617 6.74676 11.7173 4.92423 11.9953 3.19733C12.0297 3.05112 12.0497 2.89896 12.0497 2.74212Z" fill="#DD2E44"/>
</g>
</svg>
