<svg width="15" height="15" viewBox="0 0 15 15" fill="none" xmlns="http://www.w3.org/2000/svg">
<g id="Emoji">
<path id="Vector" d="M6.21484 10.6614V13.2325C6.21484 13.2325 6.21484 14.5181 7.50042 14.5181C8.78599 14.5181 8.78599 13.2325 8.78599 13.2325V10.6614H6.21484Z" fill="#DD2E44"/>
<path id="Vector_2" d="M6.21484 13.2325L6.21527 13.2484C6.66137 13.2334 7.07918 13.131 7.34315 12.6973C7.41643 12.5769 7.58441 12.5769 7.65811 12.6973C7.92208 13.1305 8.3399 13.2334 8.78599 13.2484V10.6614H6.21484V13.2325Z" fill="#BE1931"/>
<path id="Vector_3" d="M13.4792 8.3554C13.4792 11.0448 11.3365 11.0448 11.3365 11.0448H3.62309C3.62309 11.0448 1.48047 11.0448 1.48047 8.3554C1.48047 5.47401 3.62309 0.376709 7.47981 0.376709C11.3365 0.376709 13.4792 5.90253 13.4792 8.3554Z" fill="#D99E82"/>
<path id="Vector_4" d="M7.49911 7.66162C4.49944 7.66162 3.21387 9.17303 3.21387 10.402C3.21387 11.7035 4.26889 12.7589 5.57075 12.7589C6.25853 12.7589 6.87432 12.4744 7.30585 11.5732C7.38512 11.4078 7.61267 11.4078 7.69195 11.5732C8.12347 12.4744 8.73969 12.7589 9.42704 12.7589C10.7289 12.7589 11.7839 11.7035 11.7839 10.402C11.7844 9.17303 10.4988 7.66162 7.49911 7.66162Z" fill="#F4C7B5"/>
<path id="Vector_5" d="M6.2141 8.90224C5.78557 9.33076 7.07115 10.6163 7.49967 10.6163C7.92819 10.6163 9.21377 9.33076 8.78524 8.90224C8.35672 8.47371 6.64262 8.47371 6.2141 8.90224ZM5.35705 7.23313C4.88567 7.23313 4.5 6.84746 4.5 6.37608V5.51904C4.5 5.04766 4.88567 4.66199 5.35705 4.66199C5.82843 4.66199 6.2141 5.04766 6.2141 5.51904V6.37608C6.2141 6.84746 5.82843 7.23313 5.35705 7.23313ZM9.64229 7.23313C9.17092 7.23313 8.78524 6.84746 8.78524 6.37608V5.51904C8.78524 5.04766 9.17092 4.66199 9.64229 4.66199C10.1137 4.66199 10.4993 5.04766 10.4993 5.51904V6.37608C10.4993 6.84746 10.1137 7.23313 9.64229 7.23313Z" fill="#292F33"/>
<path id="Vector_6" d="M6.21443 0.637305C5.76062 0.0335138 4.79215 -0.531281 0.998429 0.890991C-0.777376 1.55692 0.089957 6.72064 1.47281 7.05531C1.94675 7.05531 3.36945 7.05531 3.36945 3.26202C3.36945 3.16774 3.3686 3.08075 3.36731 2.99419C4.22179 1.79004 5.14312 1.17253 6.21443 0.637305ZM14.0016 0.890991C10.2078 -0.531281 9.23938 0.0335138 8.78557 0.637305C9.85688 1.17296 10.7782 1.79046 11.6327 2.99462C11.6314 3.08075 11.6305 3.16774 11.6305 3.26244C11.6305 7.05574 13.0528 7.05574 13.5272 7.05574C14.91 6.72064 15.7774 1.55692 14.0016 0.890991Z" fill="#662113"/>
<path id="Vector_7" d="M9.85684 10.2328C9.97517 10.2328 10.0711 10.1369 10.0711 10.0186C10.0711 9.90025 9.97517 9.80432 9.85684 9.80432C9.73851 9.80432 9.64258 9.90025 9.64258 10.0186C9.64258 10.1369 9.73851 10.2328 9.85684 10.2328Z" fill="#D99E82"/>
<path id="Vector_8" d="M4.71426 10.2328C4.8326 10.2328 4.92852 10.1369 4.92852 10.0186C4.92852 9.90025 4.8326 9.80432 4.71426 9.80432C4.59593 9.80432 4.5 9.90025 4.5 10.0186C4.5 10.1369 4.59593 10.2328 4.71426 10.2328Z" fill="#D99E82"/>
<path id="Vector_9" d="M10.7143 11.0899C10.8326 11.0899 10.9285 10.994 10.9285 10.8756C10.9285 10.7573 10.8326 10.6614 10.7143 10.6614C10.5959 10.6614 10.5 10.7573 10.5 10.8756C10.5 10.994 10.5959 11.0899 10.7143 11.0899Z" fill="#D99E82"/>
<path id="Vector_10" d="M4.28653 11.0899C4.40486 11.0899 4.50079 10.994 4.50079 10.8756C4.50079 10.7573 4.40486 10.6614 4.28653 10.6614C4.16819 10.6614 4.07227 10.7573 4.07227 10.8756C4.07227 10.994 4.16819 11.0899 4.28653 11.0899Z" fill="#D99E82"/>
<path id="Vector_11" d="M9.64239 11.5184C9.87906 11.5184 10.0709 11.3266 10.0709 11.0899C10.0709 10.8532 9.87906 10.6614 9.64239 10.6614C9.40572 10.6614 9.21387 10.8532 9.21387 11.0899C9.21387 11.3266 9.40572 11.5184 9.64239 11.5184Z" fill="#D99E82"/>
<path id="Vector_12" d="M5.35821 11.5184C5.59488 11.5184 5.78674 11.3266 5.78674 11.0899C5.78674 10.8532 5.59488 10.6614 5.35821 10.6614C5.12154 10.6614 4.92969 10.8532 4.92969 11.0899C4.92969 11.3266 5.12154 11.5184 5.35821 11.5184Z" fill="#D99E82"/>
<path id="Vector_13" d="M4.02265 2.19022C3.91166 1.90182 3.75097 1.59157 3.51871 1.35931C3.35115 1.19175 3.08033 1.19175 2.91277 1.35931C2.74522 1.52686 2.74522 1.79769 2.91277 1.96524C3.15703 2.2095 3.36958 2.79401 3.37044 2.97056C3.43257 2.79744 3.72997 2.47776 4.02265 2.19022ZM10.972 2.19022C11.083 1.90225 11.2437 1.59157 11.476 1.35931C11.6435 1.19175 11.9144 1.19175 12.0819 1.35931C12.2495 1.52686 12.2495 1.79769 12.0819 1.96524C11.8377 2.2095 11.6251 2.79401 11.6242 2.97056C11.5621 2.79744 11.2647 2.47776 10.972 2.19022Z" fill="#380F09"/>
</g>
</svg>
