<svg width="21" height="18" viewBox="0 0 21 18" fill="none" xmlns="http://www.w3.org/2000/svg">
<g id="&#240;&#159;&#166;&#134; icon &#34;Edit&#34;">
<path id="Vector" d="M14.1567 2.92206L17.3284 6.09377C17.462 6.22739 17.462 6.4454 17.3284 6.57902L9.64876 14.2586L6.38562 14.6208C5.9496 14.6701 5.58039 14.3008 5.62961 13.8648L5.99179 10.6017L13.6714 2.92206C13.805 2.78844 14.0231 2.78844 14.1567 2.92206ZM19.8531 2.11682L18.1371 0.40086C17.6027 -0.13362 16.7341 -0.13362 16.1961 0.40086L14.9514 1.64563C14.8177 1.77925 14.8177 1.99727 14.9514 2.13089L18.1231 5.3026C18.2567 5.43622 18.4747 5.43622 18.6083 5.3026L19.8531 4.05782C20.3876 3.51983 20.3876 2.6513 19.8531 2.11682ZM13.5026 12.17V15.7496H2.25044V4.49736H10.3309C10.4434 4.49736 10.5489 4.45165 10.6298 4.37429L12.0363 2.96777C12.3036 2.70053 12.1137 2.24692 11.7374 2.24692H1.68783C0.756007 2.24692 0 3.00293 0 3.93475V16.3122C0 17.244 0.756007 18 1.68783 18H14.0652C14.9971 18 15.7531 17.244 15.7531 16.3122V10.7634C15.7531 10.3872 15.2995 10.2008 15.0322 10.4645L13.6257 11.8711C13.5483 11.9519 13.5026 12.0574 13.5026 12.17Z" fill="#B3A6B3"/>
</g>
</svg>
