<svg width="54" height="54" viewBox="0 0 54 54" fill="none" xmlns="http://www.w3.org/2000/svg">
<path d="M27.0544 35.9459C30.7488 35.9459 33.7436 32.9511 33.7436 29.2568C33.7436 25.5624 30.7488 22.5676 27.0544 22.5676C23.3601 22.5676 20.3652 25.5624 20.3652 29.2568C20.3652 32.9511 23.3601 35.9459 27.0544 35.9459Z" stroke="#9A7B9A" stroke-width="3" stroke-linecap="round" stroke-linejoin="round"/>
<path d="M27.0549 9.18918H22.5954C22.0041 9.18918 21.4369 9.4241 21.0188 9.84225C20.6006 10.2604 20.3657 10.8275 20.3657 11.4189C20.3657 12.6016 19.8958 13.7359 19.0595 14.5722C18.2232 15.4085 17.0889 15.8784 15.9062 15.8784H11.4468C10.264 15.8784 9.12976 16.3482 8.29345 17.1845C7.45714 18.0208 6.9873 19.1551 6.9873 20.3378V40.4054C6.9873 41.5881 7.45714 42.7224 8.29345 43.5587C9.12976 44.395 10.264 44.8649 11.4468 44.8649H42.663C43.8457 44.8649 44.98 44.395 45.8163 43.5587C46.6526 42.7224 47.1224 41.5881 47.1224 40.4054V24.7973" stroke="#9A7B9A" stroke-width="3" stroke-linecap="round" stroke-linejoin="round"/>
<path d="M33.7441 13.6487H47.1225" stroke="#9A7B9A" stroke-width="3" stroke-linecap="round" stroke-linejoin="round"/>
<path d="M40.4326 6.95944V20.3378" stroke="#9A7B9A" stroke-width="3" stroke-linecap="round" stroke-linejoin="round"/>
</svg>
