<svg width="26" height="24" viewBox="0 0 26 24" fill="none" xmlns="http://www.w3.org/2000/svg">
<g id="&#240;&#159;&#166;&#134; icon &#34;heart&#34;">
<path id="Vector" d="M13 23.8804C12.8741 23.8804 12.7503 23.848 12.6405 23.7861C10.4042 22.4694 8.30534 20.9297 6.37569 19.1905C2.14503 15.363 0 11.5485 0 7.85306C0.000435696 6.32355 0.488581 4.83446 1.39279 3.60434C2.297 2.37423 3.56965 1.46788 5.02394 1.01833C6.47824 0.568773 8.03759 0.599693 9.47312 1.10655C10.9086 1.6134 12.1448 2.5695 13 3.8345C13.8553 2.5695 15.0914 1.6134 16.5269 1.10655C17.9624 0.599693 19.5218 0.568773 20.9761 1.01833C22.4304 1.46788 23.703 2.37423 24.6072 3.60434C25.5114 4.83446 25.9996 6.32355 26 7.85306C26 11.5485 23.855 15.363 19.6243 19.1905C17.6947 20.9297 15.5958 22.4693 13.3595 23.7861C13.2497 23.848 13.1259 23.8804 13 23.8804ZM7.11321 2.18184C5.61751 2.18355 4.18355 2.7816 3.12593 3.84479C2.06831 4.90798 1.47339 6.34949 1.4717 7.85306C1.4717 14.9206 11.0115 21.0765 13 22.2823C14.9885 21.0765 24.5283 14.9206 24.5283 7.85306C24.5281 6.54226 24.0762 5.27199 23.2496 4.25824C22.423 3.24448 21.2726 2.54981 19.9941 2.29234C18.7155 2.03487 17.3877 2.23048 16.2365 2.84593C15.0852 3.46137 14.1815 4.45865 13.679 5.66822C13.623 5.80285 13.5287 5.91784 13.4079 5.99871C13.2871 6.07959 13.1451 6.12274 13 6.12274C12.8549 6.12274 12.7129 6.07959 12.5921 5.99871C12.4713 5.91784 12.377 5.80285 12.321 5.66822C11.8933 4.63446 11.1702 3.75143 10.2432 3.13085C9.31623 2.51027 8.22696 2.18001 7.11321 2.18184Z" fill="#616161"/>
</g>
</svg>
