<svg width="26" height="24" viewBox="0 0 26 24" fill="none" xmlns="http://www.w3.org/2000/svg">
<g id="Group 34">
<g id="&#240;&#159;&#166;&#134; icon &#34;heart&#34;">
<path id="Vector" d="M26 7.33545C26 11.0339 23.8678 14.8383 19.6627 18.6429C17.7553 20.3617 15.6809 21.8832 13.4705 23.1846C13.3268 23.2655 13.1648 23.308 13 23.308C12.8352 23.308 12.6732 23.2655 12.5295 23.1846C12.0179 22.8966 0 16.0312 0 7.33545C0.000512167 5.81198 0.477585 4.32724 1.36371 3.09133C2.24984 1.85542 3.50015 0.930924 4.93771 0.44867C6.37527 -0.0335845 7.9273 -0.04918 9.37417 0.404089C10.821 0.857359 12.0895 1.75654 13 2.9744C13.9105 1.75654 15.179 0.857359 16.6258 0.404089C18.0727 -0.04918 19.6247 -0.0335845 21.0623 0.44867C22.4999 0.930924 23.7502 1.85542 24.6363 3.09133C25.5224 4.32724 25.9995 5.81198 26 7.33545Z" fill="#DE5A60"/>
</g>
</g>
</svg>
