<svg xmlns="http://www.w3.org/2000/svg" width="14" height="16" viewBox="0 0 14 16" fill="none">
<path d="M12.1608 5.84771C12.0777 5.72971 11.9298 5.67553 11.79 5.71218L7.75057 6.77104L8.89304 1.63014C8.92895 1.46843 8.84546 1.30405 8.69339 1.23809C8.61987 1.20588 8.54039 1.20133 8.46746 1.22045C8.38952 1.24088 8.31876 1.28874 8.27032 1.359L6.36896 4.12582L2.57688 9.64416C2.49511 9.76319 2.49565 9.92072 2.57878 10.0387C2.6619 10.1567 2.80957 10.2113 2.9494 10.1747L6.98879 9.1158L5.84632 14.2567C5.81042 14.4184 5.8939 14.5828 6.04598 14.6488C6.11949 14.681 6.19897 14.6855 6.2719 14.6664C6.34985 14.646 6.4206 14.5981 6.46904 14.5278L8.3704 11.761L12.1625 6.24268C12.2446 6.12356 12.2437 5.96613 12.1608 5.84771Z" fill="#FFAC33"/>
</svg>
