<svg width="39" height="39" viewBox="0 0 39 39" fill="none" xmlns="http://www.w3.org/2000/svg">
<g id="&#240;&#159;&#166;&#134; icon &#34;logout&#34;">
<path id="Vector" d="M22.75 13V9.75C22.75 8.88805 22.4076 8.0614 21.7981 7.4519C21.1886 6.84241 20.362 6.5 19.5 6.5H8.125C7.26305 6.5 6.4364 6.84241 5.8269 7.4519C5.21741 8.0614 4.875 8.88805 4.875 9.75V29.25C4.875 30.112 5.21741 30.9386 5.8269 31.5481C6.4364 32.1576 7.26305 32.5 8.125 32.5H19.5C20.362 32.5 21.1886 32.1576 21.7981 31.5481C22.4076 30.9386 22.75 30.112 22.75 29.25V26" stroke="#747474" stroke-width="1.7" stroke-linecap="round" stroke-linejoin="round"/>
<path id="Vector_2" d="M11.375 19.5H34.125M34.125 19.5L29.25 14.625M34.125 19.5L29.25 24.375" stroke="#747474" stroke-width="1.7" stroke-linecap="round" stroke-linejoin="round"/>
</g>
</svg>
