<svg width="97" height="36" viewBox="0 0 97 36" fill="none" xmlns="http://www.w3.org/2000/svg">
<path d="M27.7719 7.937C27.7483 7.6929 27.6967 7.44709 27.7118 7.20527C27.7198 7.07709 27.8174 6.92692 27.9205 6.8367C28.2249 6.57005 28.5985 6.69938 28.7722 7.12505C28.8388 7.28807 28.8695 7.46507 28.9282 7.67662C28.9928 7.61639 29.0458 7.57613 29.0871 7.52674C29.3163 7.2521 29.609 7.17301 29.9558 7.24581C30.2397 7.3052 30.4023 7.55672 30.326 7.8325C30.2058 8.26617 29.908 8.51541 29.4185 8.62047C29.5962 8.75179 29.7528 8.85885 29.8994 8.97762C30.1187 9.1552 30.2588 9.38388 30.2781 9.66366C30.3083 10.1013 29.9444 10.3174 29.41 10.1604C29.3664 10.1784 29.357 10.2052 29.3479 10.2321C29.5065 10.8676 29.6648 11.5031 29.8311 12.1694C30.1087 12.1095 30.3678 12.0672 30.6181 11.9961C31.0685 11.8682 31.2576 11.8951 31.5708 12.3713C31.8741 12.8326 31.9108 13.3411 31.7009 13.8621C31.5614 14.2082 31.464 14.5722 31.3069 14.9099C30.8729 15.8417 30.1904 16.5738 29.2995 17.1019C28.6506 17.4868 28.0011 17.879 27.2639 18.1003C26.2765 18.3966 25.2751 18.536 24.2429 18.414C23.7158 18.3518 23.1882 18.2959 22.6239 18.231C22.5758 18.2576 22.5641 18.2904 22.5527 18.323C22.5649 18.4928 22.5675 18.6636 22.5911 18.832C22.6324 19.1275 22.7597 19.3476 23.0257 19.5466C23.908 20.2067 24.4943 21.0709 24.6987 22.1549C24.7483 22.4172 24.785 22.6836 24.8024 22.95C24.8132 23.1141 24.8687 23.1741 25.0384 23.1767C25.4282 23.1826 25.8183 23.1975 26.207 23.2255C26.4849 23.2455 26.7392 23.3334 26.9402 23.5415C27.0922 23.6988 27.2833 23.6332 27.4507 23.5798C28.232 23.3308 29.0002 23.8527 29.0293 24.6624C29.0338 24.792 29.0478 24.9253 29.0259 25.0515C28.8875 25.8472 29.1022 26.6154 29.195 27.3945C29.3149 28.4012 29.4048 29.411 29.5005 30.4202C29.5996 31.4654 28.484 32.5977 27.4854 32.6599C27.0709 32.6859 26.6902 32.6119 26.4072 32.2811C26.1779 32.0133 26.1609 31.7261 26.3343 31.4234C26.3653 31.3695 26.3852 31.3092 26.4376 31.1893C26.1896 31.2233 25.9929 31.267 25.795 31.2741C25.3744 31.2892 24.9533 31.2804 24.5327 31.2924C24.4277 31.2952 24.3223 31.3344 24.2201 31.3669C24.0561 31.4191 23.8978 31.5182 23.7321 31.5299C22.7771 31.5982 21.8434 31.4585 20.9329 31.1845C20.6752 31.1071 20.4408 30.9581 20.1888 30.8587C20.1051 30.8256 19.9907 30.8173 19.9058 30.8444C18.7771 31.2059 17.6171 31.2307 16.454 31.1211C15.1949 31.0026 13.9409 30.9164 12.6736 31.0083C11.8219 31.07 10.9609 31.094 10.1095 31.0429C9.39512 31 8.72286 31.2361 8.01615 31.2204C7.60984 31.2116 7.19982 31.3318 6.79293 31.4017C6.70552 31.4169 6.62209 31.4605 6.54009 31.4982C5.80547 31.8337 5.19757 31.7295 4.66141 31.1285C4.34165 30.7702 4.0945 30.3494 3.76905 29.9971C3.33711 29.5295 2.88239 29.077 2.39749 28.6621C1.72153 28.084 1.05639 27.5027 0.623021 26.7193C0.181113 25.9205 -0.038418 25.0783 0.168869 24.1667C0.339994 23.4148 1.07888 22.9034 1.74971 23.1284C2.14236 23.2603 2.51964 23.4701 2.86018 23.7051C3.11644 23.8821 3.29896 24.159 3.52447 24.3817C3.57429 24.4311 3.69274 24.4836 3.73602 24.4597C4.43675 24.07 5.22775 23.9286 5.97261 23.6614C6.05006 23.6337 6.13577 23.5475 6.15968 23.471C6.359 22.8378 6.81486 22.5292 7.4632 22.4364C7.89685 22.3741 8.23768 22.2006 8.37862 21.7406C8.51843 21.2838 8.66962 20.8233 8.88317 20.3968C9.0916 19.9811 9.36038 19.5871 9.65138 19.2206C9.83475 18.9896 9.8749 19.0199 9.87262 18.6781C9.4794 18.7241 9.08846 18.7729 8.69695 18.8152C7.76787 18.9157 6.84048 18.9245 5.91538 18.7669C4.6802 18.5562 3.51108 18.1634 2.42112 17.5561C1.63127 17.1162 0.8864 16.6171 0.388684 15.848C-0.0327233 15.1968 -0.14377 14.5071 0.216704 13.7925C0.435095 13.3597 0.779055 13.2143 1.26737 13.3091C1.84482 13.4213 2.4197 13.5595 3.00255 13.6312C4.32115 13.7933 5.63976 13.7748 6.94555 13.5058C8.12293 13.2635 9.2781 12.9443 10.3951 12.5035C10.5631 12.4372 10.7325 12.3644 10.8803 12.2651C10.9515 12.2174 11.0113 12.1021 11.0136 12.0156C11.0372 11.1876 11.0483 10.3594 11.0617 9.53119C11.0748 8.7241 11.2371 7.93757 11.4435 7.16274C11.6938 6.22346 11.9808 5.29332 12.2604 4.36176C12.3464 4.07541 12.4398 3.78791 12.5671 3.51784C12.657 3.32713 12.5907 3.26432 12.425 3.20037C11.7621 2.94571 11.2103 2.53574 10.7724 1.9933C10.458 1.60446 10.3897 1.13767 10.482 0.655189C10.5386 0.357705 10.9486 0.0682139 11.3208 0.0208219C11.9691 -0.0616858 12.5762 0.114178 13.1718 0.316879C13.6639 0.484178 14.1374 0.701725 14.6226 0.889009C14.6844 0.91299 14.7718 0.902998 14.8381 0.8813C15.1006 0.795652 15.356 0.634348 15.6206 0.620359C16.1393 0.592952 16.6627 0.650621 17.1843 0.659757C17.2655 0.661185 17.3805 0.613793 17.4232 0.55184C17.5314 0.393962 17.6724 0.366269 17.8347 0.411092C18.0026 0.457342 18.0687 0.592952 18.0539 0.751686C18.0405 0.894148 18.0798 0.973515 18.2074 1.06373C19.18 1.75063 19.8454 2.64337 20.018 3.82645C20.0843 4.28239 20.0846 4.74803 20.1046 5.20967C20.1552 6.38562 20.1775 7.563 20.2552 8.73695C20.3019 9.44297 20.5174 10.1199 20.8403 10.7582C20.8716 10.8202 20.9206 10.8996 20.979 10.9181C21.5015 11.0848 21.8654 11.478 22.287 11.786C22.8836 12.2217 23.5071 12.6094 24.2509 12.7384C25.154 12.8955 26.0601 12.9537 26.9715 12.7479C27.7306 12.5766 28.4985 12.4435 29.2642 12.3005C29.4157 12.2722 29.4535 12.2203 29.41 12.0707C29.2696 11.5879 29.1455 11.1008 29.0108 10.6164C28.9945 10.5584 28.9515 10.5076 28.9211 10.4536C28.8787 10.4944 28.8297 10.5307 28.7952 10.5772C28.6856 10.7251 28.5797 10.8576 28.3539 10.8208C28.1073 10.7805 28.0028 10.6329 27.9686 10.4125C27.9527 10.31 27.9405 10.2072 27.9217 10.0693C27.5959 10.2169 27.2568 10.4413 26.9872 10.0574C26.7363 9.70049 27.0025 9.41928 27.2175 9.10581C27.1321 9.0961 27.0666 9.08639 27.0008 9.08182C26.6569 9.05727 26.4681 8.91424 26.4299 8.6473C26.3878 8.35324 26.5353 8.09944 26.863 8.03121C27.1227 7.97696 27.4012 8.00865 27.7055 8.00723C27.7503 7.98724 27.7611 7.96212 27.7719 7.937ZM17.8147 1.3301C17.6968 1.28156 17.579 1.23274 17.4412 1.16651C17.4238 1.16251 17.4064 1.15823 17.3694 1.12426C17.2313 1.10085 17.0932 1.07715 16.9201 1.04432C16.8836 1.04203 16.8475 1.03946 16.784 1.01377C16.7242 1.01377 16.6644 1.01377 16.5593 1.00606C16.2957 1.00863 16.032 1.01149 15.7359 1.00349C15.6946 1.01605 15.6536 1.0289 15.5741 1.04175C15.4771 1.07943 15.38 1.11712 15.2831 1.1548C15.2863 1.17821 15.2894 1.20162 15.2925 1.22503C15.5448 1.35865 15.7968 1.49226 16.0522 1.65328C16.0978 1.68525 16.1436 1.71723 16.2157 1.77004C16.4776 1.94562 16.7393 2.12149 17.0109 2.32504C17.0835 2.36244 17.1561 2.40013 17.2464 2.46551C17.5995 2.73244 17.9522 2.99909 18.3207 3.28973C18.3819 3.33769 18.4431 3.38594 18.5214 3.46188C18.9024 3.85243 19.2831 4.24328 19.6404 4.60956C19.5906 4.06427 19.4334 3.49757 19.2011 2.95227C18.9585 2.38271 18.5849 1.90879 18.0499 1.52851C17.9767 1.47427 17.9036 1.42003 17.8258 1.36607C17.8258 1.36607 17.8247 1.36179 17.8147 1.3301ZM23.2879 17.9033C23.594 17.9298 23.9004 17.9515 24.2056 17.9844C25.1768 18.0883 26.1381 18.0281 27.0569 17.7043C27.621 17.5056 28.1551 17.2221 28.6933 16.9583C29.5435 16.5412 30.2346 15.9305 30.6967 15.1263C30.9894 14.617 31.1713 14.0426 31.3624 13.4841C31.4447 13.2438 31.4253 12.97 31.2855 12.7518C31.1002 12.9468 30.9265 13.1518 30.726 13.328C30.66 13.3859 30.4843 13.4185 30.4299 13.3757C30.3046 13.2777 30.396 13.1652 30.4868 13.069C30.6329 12.9149 30.7761 12.7573 30.9091 12.5923C30.9507 12.5409 30.9549 12.4606 30.9763 12.3936C30.9071 12.3927 30.8376 12.3861 30.769 12.3924C30.7118 12.3978 30.6568 12.4207 30.5999 12.4321C29.4783 12.6545 28.3528 12.8592 27.2363 13.1033C26.3388 13.2997 25.4445 13.3211 24.5393 13.1946C24.0012 13.1196 23.4727 13.0005 23.0128 12.7144C22.4696 12.3767 21.9334 12.0221 21.4303 11.631C20.9346 11.2456 20.1783 11.0886 19.6518 11.4431C19.571 11.4977 19.4761 11.5411 19.3813 11.5636C19.313 11.5799 19.2338 11.5536 19.1595 11.5462C19.1829 11.4834 19.1871 11.3989 19.2324 11.3618C19.5237 11.1231 19.807 10.865 20.2167 10.8336C20.2606 10.8302 20.3024 10.8028 20.3503 10.7845C20.3281 10.7251 20.3118 10.6794 20.2936 10.6343C19.9112 9.69193 19.651 8.7281 19.6957 7.70032C19.7216 7.10821 19.7187 6.51495 19.7199 5.92226C19.7202 5.83376 19.6985 5.71899 19.6407 5.66075C19.3933 5.41152 19.1561 5.13858 18.8651 4.94702C17.6997 4.17961 16.4554 3.57151 15.0653 3.2883C14.4816 3.16953 13.8993 3.13156 13.3122 3.27602C13.1343 3.3197 13.042 3.40821 12.9774 3.57779C12.5861 4.60214 12.2422 5.63848 11.9742 6.70223C11.714 7.73629 11.4893 8.77092 11.4797 9.83953C11.4666 11.2767 11.4845 12.7144 11.4412 14.1505C11.4184 14.9005 11.3467 15.6579 11.1978 16.3925C11.064 17.0525 10.7889 17.6846 10.5867 18.3324C10.5244 18.532 10.4859 18.7401 10.4552 18.9468C10.4293 19.1215 10.5044 19.256 10.6656 19.3539C10.7983 19.4344 10.9187 19.5358 11.0369 19.6365C11.4552 19.9931 11.8726 20.3397 12.425 20.5016C13.2439 20.7417 14.0821 20.8322 14.9289 20.8667C16.8409 20.9452 18.6946 20.5772 20.5382 20.1439C21.1584 19.998 21.7495 19.7796 22.3093 19.4841C22.2765 19.3716 22.2361 19.272 22.2199 19.1689C22.1598 18.7863 22.0857 18.4038 22.061 18.0186C22.045 17.7748 22.1666 17.7057 22.4126 17.7486C22.6902 17.7974 22.9673 17.8496 23.2879 17.9033ZM12.2732 20.9452C12.0827 20.8667 11.8726 20.8159 11.706 20.7037C11.3532 20.4653 11.0175 20.2015 10.6861 19.9352C10.5053 19.7898 10.3393 19.6188 10.0893 19.6211C9.98538 19.622 9.8302 19.6588 9.78692 19.7305C9.57422 20.0839 9.37177 20.4462 9.2035 20.8213C9.04461 21.1756 8.92673 21.5482 8.80117 21.9162C8.62178 22.4424 8.25875 22.7473 7.69753 22.8369C7.52641 22.8643 7.36183 22.9274 7.19213 22.9648C6.96263 23.0154 6.79692 23.1524 6.70951 23.3517C6.50478 23.8184 6.38007 24.3109 6.45154 24.8188C6.57711 25.7118 6.84191 26.5663 7.21092 27.3971C7.72402 28.5519 8.49565 29.5038 9.47029 30.3086C9.61778 30.4305 9.80514 30.5669 9.98367 30.5807C10.5278 30.6229 11.0768 30.626 11.6232 30.6123C12.5355 30.5895 13.4472 30.5144 14.3595 30.5144C14.9961 30.5144 15.6334 30.5998 16.2698 30.6523C17.6445 30.7662 19.0015 30.7617 20.3133 30.2421C20.8753 30.0194 21.4032 29.7584 21.8226 29.3285C22.4661 28.6687 23.0382 27.9513 23.4052 27.1073C23.66 26.5215 23.8648 25.914 24.0735 25.3099C24.2748 24.7275 24.2816 24.1162 24.33 23.5093C24.4083 22.5294 24.223 21.6204 23.6393 20.8131C23.426 20.5181 23.1626 20.2566 22.9092 19.9914C22.7964 19.8735 22.635 19.8604 22.4972 19.9509C21.9755 20.2943 21.3739 20.4248 20.7791 20.5601C19.9414 20.7505 19.0972 20.9147 18.2541 21.0806C17.3076 21.267 16.3492 21.3492 15.3848 21.3349C14.8791 21.3272 14.3703 21.3098 13.8694 21.247C13.3452 21.1811 12.8296 21.0554 12.2732 20.9452ZM0.945055 13.9689C1.14465 14.171 1.34767 14.37 1.541 14.5779C1.58428 14.6244 1.6307 14.7332 1.60877 14.7586C1.56549 14.8094 1.46811 14.8559 1.40661 14.8428C1.2987 14.82 1.17882 14.772 1.10365 14.6969C0.917436 14.5099 0.753999 14.3015 0.55981 14.0771C0.455597 14.3429 0.417442 14.591 0.45702 14.8517C0.554684 15.4923 0.946764 15.9568 1.4217 16.3645C2.07517 16.9252 2.82345 17.3392 3.62184 17.6672C4.57485 18.0586 5.56089 18.3261 6.59447 18.4235C7.71462 18.5288 8.81683 18.3955 9.91562 18.2111C10.0059 18.1959 10.1249 18.0977 10.1528 18.0135C10.3857 17.3143 10.6901 16.6223 10.7991 15.9028C10.9498 14.9116 10.9489 13.8984 11.0118 12.8943C11.0133 12.8723 10.9996 12.8495 10.9874 12.8089C10.9224 12.8235 10.8581 12.8306 10.7986 12.8521C10.419 12.9877 10.0469 13.1467 9.66078 13.2603C8.34132 13.6486 7.00962 13.9875 5.62751 14.0837C4.50452 14.1616 3.38552 14.1402 2.27619 13.9287C1.87728 13.8527 1.47893 13.7742 1.07831 13.7071C1.00485 13.6948 0.922846 13.7325 0.844828 13.7471C0.870739 13.811 0.896651 13.875 0.945055 13.9689ZM0.650924 24.0974C0.430824 24.7551 0.523648 25.3969 0.773076 26.0236C1.10906 26.8678 1.70416 27.5199 2.40546 28.0931C3.04127 28.6127 3.67424 29.1366 4.17394 29.7915C4.406 30.0959 4.62155 30.4134 4.86557 30.708C5.28897 31.2196 5.72433 31.4366 6.40171 31.0857C6.45951 31.0557 6.52386 31.038 6.58536 31.0146C7.09731 30.8196 7.63689 30.7991 8.17589 30.7699C8.49365 30.7528 8.81056 30.722 9.12776 30.6974C9.13488 30.6794 9.14199 30.6612 9.14911 30.6432C7.12266 28.9002 6.05319 26.7222 5.96891 24.0868C5.8758 24.1176 5.75821 24.153 5.64346 24.1956C5.14119 24.3826 4.63892 24.5693 4.13864 24.7611C3.96922 24.826 3.8092 24.9145 3.63864 24.9758C3.48517 25.0309 3.35277 25.0152 3.26991 24.8394C2.97123 24.2039 2.42368 23.8387 1.78559 23.5926C1.293 23.4025 0.890101 23.5852 0.650924 24.0974ZM26.3041 30.8025C26.7508 30.837 26.92 31.1328 26.7189 31.5282C26.7115 31.5428 26.703 31.5568 26.6953 31.571C26.5498 31.854 26.6341 32.0826 26.9359 32.1926C27.0427 32.2314 27.1594 32.2522 27.2733 32.2625C28.121 32.3399 29.1249 31.2907 29.0566 30.535C28.9587 29.453 28.8576 28.3706 28.7329 27.2915C28.6529 26.6003 28.4666 25.9202 28.574 25.2137C28.6053 25.0072 28.5933 24.7917 28.5794 24.5819C28.5532 24.1884 28.0151 23.7691 27.6159 23.9766C27.5307 24.0209 27.4262 24.0391 27.3286 24.0486C27.2161 24.0597 27.2084 24.1116 27.2016 24.2084C27.1856 24.4334 27.1708 24.6632 27.1102 24.8791C26.8337 25.8629 26.5182 26.8367 26.2614 27.8254C26.0094 28.7955 25.594 29.6836 25.0177 30.505C24.9331 30.6255 24.8357 30.7374 24.7443 30.8533C24.7571 30.8793 24.7696 30.9053 24.7825 30.9312C25.2762 30.8887 25.7694 30.8456 26.3041 30.8025ZM21.184 30.8282C21.8728 31.0289 22.5835 31.0908 23.2953 31.1122C23.555 31.1202 23.8366 31.1374 24.0629 30.919C24.9752 30.0379 25.4963 28.9522 25.8326 27.7645C26.0863 26.8689 26.3505 25.9765 26.5996 25.0798C26.6731 24.8157 26.7417 24.5442 26.7577 24.273C26.7782 23.9292 26.6119 23.7239 26.2682 23.6814C25.8425 23.6289 25.4094 23.6337 24.9806 23.6029C24.8218 23.5915 24.7927 23.6546 24.7782 23.795C24.7321 24.2375 24.7025 24.6861 24.6008 25.1177C24.2984 26.3982 23.805 27.6015 22.9883 28.6621C22.6347 29.1212 22.2836 29.5854 21.8084 29.9309C21.4656 30.1801 21.092 30.3891 20.7216 30.6229C20.8526 30.6843 20.9986 30.7531 21.184 30.8282ZM10.8678 1.39519C10.8991 1.46942 10.9193 1.55078 10.9632 1.61702C11.3999 2.27251 12.0204 2.69276 12.7698 2.94142C12.8603 2.9714 12.9714 3.0048 13.056 2.98025C13.4962 2.85292 13.9449 2.86405 14.3905 2.89831C14.819 2.93115 15.2541 2.96855 15.6687 3.07189C16.6379 3.31371 17.5075 3.79334 18.3859 4.24413C18.5892 4.34862 18.7771 4.48166 18.9722 4.60157C18.987 4.58558 19.0018 4.56988 19.0169 4.55389C18.9403 4.45597 18.8782 4.34149 18.7842 4.26297C18.2005 3.77421 17.6319 3.26403 17.0149 2.81838C16.3905 2.36758 15.7325 1.95504 15.0591 1.57705C14.2476 1.1214 13.3897 0.758823 12.4819 0.510158C12.083 0.400814 11.6941 0.327728 11.2838 0.404526C11.0147 0.454772 10.8191 0.657188 10.8131 0.923553C10.8103 1.06716 10.8407 1.21162 10.8678 1.39519ZM29.0503 9.52919C29.2055 9.6314 29.353 9.74902 29.5185 9.83153C29.6705 9.90719 29.8405 9.88149 29.941 9.73875C30.0392 9.59943 29.947 9.45439 29.8376 9.37817C29.5788 9.19773 29.3009 9.04271 29.0253 8.88655C28.978 8.85971 28.8732 8.852 28.8507 8.87941C28.8106 8.92794 28.7818 9.02216 28.8038 9.07583C28.8638 9.22314 28.9527 9.35961 29.0503 9.52919ZM28.6352 8.3541C28.6332 8.18452 28.6529 8.01151 28.6241 7.84649C28.5848 7.61981 28.5253 7.39256 28.4393 7.17929C28.4123 7.1122 28.2725 7.05767 28.1836 7.05653C28.1312 7.05596 28.0529 7.16445 28.029 7.23725C27.9171 7.57984 28.1611 8.25275 28.4629 8.45631C28.539 8.50798 28.6198 8.53311 28.6352 8.3541ZM29.0973 8.4446C29.2727 8.37266 29.4453 8.29215 29.6247 8.23105C29.8183 8.1651 29.9236 8.02379 29.9709 7.84792C29.9945 7.7597 29.9891 7.6121 29.9336 7.56814C29.8598 7.5099 29.7072 7.48534 29.6175 7.51932C29.2354 7.66435 29.029 7.97696 28.8994 8.3384C28.847 8.48429 28.9114 8.54024 29.0973 8.4446ZM27.7332 8.3247C27.5216 8.30157 27.3098 8.25932 27.0985 8.26189C26.9464 8.2636 26.8044 8.34639 26.7867 8.5194C26.7665 8.71554 26.9325 8.78805 27.0734 8.78263C27.4325 8.7695 27.7904 8.71811 28.148 8.67699C28.1811 8.67328 28.2098 8.63389 28.2406 8.61105C28.2115 8.57736 28.189 8.53082 28.152 8.51198C28.0279 8.4486 27.8983 8.39493 27.7332 8.3247ZM27.7147 9.82639C28.0022 9.58344 28.1944 9.29052 28.2548 8.87998C27.8485 8.9996 27.521 9.1669 27.3314 9.50121C27.2656 9.61713 27.2266 9.8321 27.2915 9.9149C27.3943 10.0465 27.5603 9.93117 27.7147 9.82639ZM28.4376 9.41785C28.4046 9.48237 28.3542 9.54404 28.3416 9.61227C28.2978 9.85095 28.2537 10.0913 28.2403 10.3326C28.2366 10.4017 28.3374 10.4762 28.39 10.5481C28.4729 10.4725 28.5933 10.4119 28.6321 10.3186C28.765 9.99969 28.6264 9.68622 28.5654 9.37331C28.5652 9.3716 28.4917 9.38302 28.4376 9.41785Z" fill="#101010"/>
<path d="M16.0034 33.4062C16.9983 33.422 17.9689 33.4362 18.9399 33.4542C19.6696 33.4676 20.3991 33.4845 21.1289 33.503C21.6591 33.5165 22.1898 33.5222 22.7189 33.555C23.5597 33.607 24.3994 33.6786 25.2396 33.742C25.8985 33.7917 26.5602 33.8202 27.2157 33.8973C27.9511 33.9835 28.6943 34.0535 29.3939 34.3175C29.5149 34.3632 29.6089 34.4783 29.7151 34.5614C29.6251 34.6499 29.5491 34.7643 29.4412 34.82C29.3062 34.89 29.1476 34.9302 28.9947 34.9508C28.1618 35.0627 27.3486 35.2859 26.4998 35.3156C25.6004 35.347 24.7037 35.4492 23.8048 35.4989C22.6975 35.5603 21.589 35.6311 20.4806 35.6422C17.2904 35.6742 14.0997 35.6899 10.9092 35.6862C9.99237 35.6851 9.07524 35.6003 8.15868 35.5466C7.43289 35.5041 6.70624 35.4658 5.98273 35.3981C5.14562 35.3199 4.31049 35.2197 3.47679 35.1132C3.09581 35.0644 2.71854 34.9833 2.34269 34.9037C2.24246 34.8825 2.14594 34.8223 2.06052 34.7623C1.82561 34.5973 1.83899 34.48 2.10266 34.3501C2.51467 34.1468 2.96056 34.0832 3.41357 34.0341C3.97849 33.973 4.54055 33.8856 5.10433 33.8137C5.32528 33.7854 5.54709 33.7611 5.76947 33.748C6.39702 33.7106 7.02486 33.6749 7.65327 33.6478C8.52228 33.6101 9.39129 33.5775 10.2606 33.5487C10.8987 33.5273 11.5371 33.5127 12.1754 33.4996C13.0629 33.4813 13.9507 33.4691 14.8385 33.4496C15.2184 33.4411 15.5988 33.4211 16.0034 33.4062Z" fill="#DBDBDB"/>
<path d="M23.266 17.9025C22.967 17.8503 22.6903 17.798 22.4126 17.7495C22.1663 17.7066 22.045 17.7757 22.061 18.0196C22.086 18.4047 22.1601 18.7872 22.2199 19.1698C22.2361 19.2729 22.2765 19.3725 22.3093 19.485C21.7495 19.7805 21.1584 19.9992 20.5382 20.1448C18.6943 20.5781 16.841 20.9461 14.929 20.8676C14.0822 20.8328 13.2439 20.7426 12.425 20.5025C11.8726 20.3403 11.4552 19.994 11.0369 19.6374C10.9188 19.5367 10.798 19.4353 10.6656 19.3548C10.5045 19.2569 10.4293 19.1224 10.4552 18.9477C10.486 18.741 10.5244 18.5329 10.5868 18.3333C10.7892 17.6858 11.064 17.0534 11.1978 16.3934C11.347 15.6585 11.4188 14.9014 11.4412 14.1514C11.4848 12.7154 11.4669 11.2773 11.4797 9.84044C11.4894 8.77184 11.7137 7.73721 11.9743 6.70315C12.2422 5.6394 12.5862 4.60306 12.9774 3.5787C13.0423 3.40884 13.1346 3.32062 13.3122 3.27694C13.8994 3.13276 14.4816 3.17045 15.0653 3.28921C16.4554 3.57214 17.6997 4.18053 18.8651 4.94793C19.1561 5.1395 19.3933 5.41243 19.6407 5.66167C19.6988 5.72019 19.7202 5.83468 19.7199 5.92318C19.7188 6.51586 19.7216 7.10941 19.6957 7.70123C19.6507 8.72901 19.9112 9.69284 20.2936 10.6353C20.3119 10.6801 20.3278 10.726 20.3503 10.7854C20.3022 10.8037 20.2606 10.8311 20.2168 10.8345C19.807 10.8662 19.5237 11.124 19.2324 11.3627C19.1872 11.3998 19.1829 11.4846 19.1595 11.5471C19.2339 11.5545 19.313 11.5808 19.3814 11.5645C19.4762 11.5417 19.571 11.4983 19.6518 11.4441C20.1786 11.0895 20.9346 11.2465 21.4303 11.6319C21.9337 12.0233 22.4699 12.3776 23.0129 12.7154C23.4727 13.0014 24.0012 13.1205 24.5393 13.1956C25.4448 13.3218 26.3388 13.3003 27.2363 13.1042C28.3528 12.8598 29.4783 12.6551 30.5999 12.433C30.6568 12.4219 30.7118 12.3987 30.769 12.3933C30.8374 12.3868 30.9071 12.3933 30.9763 12.3945C30.955 12.4616 30.9504 12.5415 30.9091 12.5932C30.7761 12.7582 30.6329 12.9155 30.4869 13.0699C30.396 13.1659 30.3046 13.2786 30.4299 13.3766C30.4843 13.4191 30.6603 13.3866 30.726 13.3289C30.9265 13.1527 31.1002 12.9478 31.2855 12.7528C31.4251 12.9709 31.4444 13.245 31.3624 13.4851C31.1714 14.0435 30.9894 14.6179 30.6967 15.1272C30.2346 15.9314 29.5438 16.5424 28.6933 16.9592C28.1552 17.223 27.621 17.5065 27.0569 17.7052C26.1381 18.029 25.1768 18.0892 24.2056 17.9853C23.9004 17.9525 23.5937 17.9308 23.266 17.9025ZM12.7846 5.36561C12.5452 5.82982 12.4276 6.32487 12.4301 6.84133C12.4313 7.03118 12.4671 7.2336 12.5415 7.40832C12.7963 8.00757 13.5369 8.20142 14.0876 7.85198C14.1311 7.82428 14.2459 7.83456 14.2786 7.87025C14.6351 8.25738 15.1921 8.34017 15.6462 8.07609C16.1476 7.7846 16.4554 7.34151 16.6547 6.82791C16.8224 6.39596 16.915 5.94545 16.8148 5.47438C16.6806 4.8443 15.952 4.5254 15.4281 4.81004C15.2795 4.89083 15.1365 4.98162 14.9888 5.06898C14.9683 5.03415 14.9495 5.01474 14.9446 4.99247C14.7917 4.309 14.157 4.24476 13.6787 4.44718C13.2618 4.62447 13.0002 4.94907 12.7846 5.36561ZM16.6758 4.5885C16.8005 4.37409 16.6695 4.23505 16.5161 4.11657C16.3099 3.95755 16.0346 3.92587 15.8968 4.04406C15.8487 4.08546 15.8028 4.17225 15.8148 4.22535C15.8262 4.27617 15.9139 4.34497 15.9691 4.34583C16.1374 4.34868 16.2424 4.42548 16.3364 4.55138C16.4161 4.65901 16.526 4.70897 16.6758 4.5885ZM14.3686 3.53474C14.1756 3.52018 13.9794 3.5079 13.8561 3.69347C13.8242 3.74144 13.8045 3.82451 13.8262 3.87048C13.847 3.91502 13.9415 3.96926 13.9802 3.95556C14.1627 3.89132 14.3111 3.94185 14.4748 4.02065C14.5326 4.04863 14.6775 3.99581 14.7185 3.93728C14.755 3.88504 14.7305 3.75 14.6818 3.69433C14.6172 3.62124 14.5027 3.58927 14.3686 3.53474Z" fill="#FDFDFD"/>
<path d="M12.292 20.9512C12.8299 21.056 13.3452 21.1813 13.8689 21.247C14.3697 21.3098 14.8785 21.3272 15.3842 21.3349C16.3489 21.3495 17.307 21.267 18.2535 21.0806C19.0969 20.9147 19.9408 20.7505 20.7785 20.5601C21.3736 20.4248 21.975 20.2943 22.4966 19.9509C22.6341 19.8604 22.7959 19.8735 22.9086 19.9914C23.1617 20.2566 23.4254 20.5181 23.6387 20.8131C24.2227 21.6204 24.4077 22.5294 24.3294 23.5093C24.281 24.1162 24.2739 24.7275 24.0729 25.3099C23.8642 25.9137 23.6595 26.5215 23.4046 27.1073C23.0376 27.9513 22.4656 28.6684 21.8221 29.3285C21.4027 29.7584 20.8748 30.0194 20.3127 30.2421C19.0009 30.7619 17.6439 30.7662 16.2692 30.6523C15.6328 30.5995 14.9958 30.5144 14.3589 30.5144C13.4469 30.5144 12.5352 30.5895 11.6226 30.6123C11.0762 30.626 10.5272 30.6229 9.98309 30.5807C9.80456 30.5667 9.61721 30.4305 9.46971 30.3086C8.49535 29.5038 7.72343 28.5519 7.21034 27.3971C6.84133 26.5663 6.57652 25.7121 6.45096 24.8188C6.37949 24.3109 6.5042 23.8184 6.70893 23.3517C6.79634 23.1524 6.96234 23.0154 7.19155 22.9648C7.36125 22.9274 7.52583 22.864 7.69696 22.8369C8.25845 22.7473 8.6212 22.4424 8.80059 21.9162C8.92615 21.5482 9.04403 21.1756 9.20292 20.8213C9.37119 20.4462 9.57364 20.0839 9.78634 19.7305C9.82933 19.6588 9.98451 19.622 10.0887 19.6211C10.3387 19.6188 10.5047 19.7898 10.6855 19.9352C11.0172 20.2015 11.3527 20.4656 11.7054 20.7037C11.8729 20.8168 12.083 20.8673 12.292 20.9512Z" fill="#947B97"/>
<path d="M0.933567 13.9534C0.896551 13.8743 0.870641 13.8107 0.845015 13.7467C0.923032 13.7322 1.00532 13.6945 1.0785 13.7068C1.47883 13.7738 1.87746 13.8521 2.27637 13.9283C3.3857 14.1399 4.50471 14.1613 5.6277 14.0833C7.0098 13.9871 8.34151 13.6482 9.66096 13.26C10.0471 13.1463 10.4192 12.9873 10.7988 12.8517C10.858 12.8306 10.9226 12.8232 10.9875 12.8086C10.9998 12.8494 11.0135 12.8723 11.012 12.894C10.9491 13.8978 10.95 14.911 10.7993 15.9025C10.69 16.6219 10.3859 17.314 10.153 18.0131C10.1248 18.0974 10.0061 18.1956 9.9158 18.2107C8.81701 18.3951 7.7148 18.5285 6.59466 18.4231C5.56107 18.3258 4.57504 18.0583 3.62203 17.6668C2.82363 17.3388 2.07535 16.9248 1.42189 16.3641C0.94695 15.9564 0.554871 15.492 0.457207 14.8513C0.417628 14.5906 0.455782 14.3426 0.559995 14.0768C0.754184 14.3014 0.917622 14.5096 1.10384 14.6966C1.17872 14.7719 1.29888 14.8196 1.4068 14.8425C1.4683 14.8556 1.56568 14.8088 1.60896 14.7582C1.63088 14.7325 1.58447 14.6238 1.54119 14.5775C1.34786 14.3697 1.14456 14.1707 0.933567 13.9534Z" fill="#FCFCFC"/>
<path d="M0.659218 24.0806C0.890138 23.5861 1.29304 23.4031 1.78534 23.5933C2.42343 23.8393 2.97098 24.2048 3.26966 24.84C3.35224 25.0159 3.48492 25.0316 3.6384 24.9765C3.80895 24.9154 3.96897 24.8269 4.13839 24.7618C4.63867 24.5699 5.14094 24.3832 5.64321 24.1962C5.75796 24.1537 5.87555 24.1183 5.96866 24.0874C6.05294 26.7228 7.12241 28.9009 9.14915 30.6438C9.14203 30.6618 9.13491 30.6801 9.12779 30.698C8.8106 30.7226 8.4934 30.7534 8.17593 30.7706C7.63692 30.7997 7.09735 30.8202 6.5854 31.0152C6.52389 31.0386 6.45955 31.0563 6.40174 31.0863C5.72436 31.4372 5.289 31.2199 4.8656 30.7086C4.62158 30.4137 4.40604 30.0965 4.17398 29.7922C3.67427 29.137 3.04131 28.6131 2.40549 28.0938C1.70419 27.5205 1.1091 26.8684 0.773112 26.0242C0.523685 25.3976 0.430861 24.7558 0.659218 24.0806Z" fill="#FCFCFC"/>
<path d="M26.2833 30.8027C25.7694 30.8458 25.2762 30.8886 24.7828 30.9315C24.77 30.9055 24.7574 30.8795 24.7446 30.8535C24.836 30.7376 24.9334 30.6257 25.018 30.5052C25.5943 29.6839 26.0094 28.7957 26.2617 27.8256C26.5185 26.8369 26.8337 25.8631 27.1105 24.8793C27.1711 24.6634 27.1859 24.4333 27.2019 24.2087C27.2087 24.1119 27.2167 24.0599 27.3289 24.0488C27.4265 24.0391 27.531 24.0211 27.6162 23.9768C28.0151 23.7693 28.5535 24.1887 28.5797 24.5821C28.5937 24.7919 28.6056 25.0075 28.5743 25.2139C28.467 25.9205 28.6532 26.6005 28.7332 27.2917C28.8582 28.3712 28.959 29.4532 29.0569 30.5352C29.1253 31.2909 28.1213 32.3401 27.2736 32.2627C27.1597 32.2524 27.043 32.2316 26.9362 32.1928C26.6344 32.0829 26.5501 31.8539 26.6956 31.5713C26.703 31.5567 26.7119 31.5427 26.7193 31.5284C26.92 31.133 26.7509 30.8373 26.2833 30.8027Z" fill="#FBFBFB"/>
<path d="M21.1645 30.8253C20.9988 30.7534 20.8527 30.6845 20.7212 30.6229C21.0916 30.3891 21.4652 30.1804 21.808 29.9308C22.2832 29.5854 22.6343 29.1212 22.988 28.6621C23.8049 27.6015 24.2983 26.3981 24.6004 25.1177C24.7023 24.6863 24.732 24.2375 24.7778 23.795C24.7923 23.6545 24.8214 23.5915 24.9802 23.6029C25.4093 23.6337 25.8421 23.6289 26.2678 23.6814C26.6118 23.7239 26.7778 23.9292 26.7573 24.2729C26.741 24.5441 26.6727 24.8157 26.5993 25.0797C26.3501 25.9765 26.0859 26.8689 25.8322 27.7645C25.4956 28.9522 24.9748 30.0379 24.0626 30.9189C23.8362 31.1376 23.5546 31.1202 23.2949 31.1122C22.5834 31.0911 21.8727 31.0294 21.1645 30.8253Z" fill="#937A96"/>
<path d="M10.8621 1.37618C10.8408 1.21231 10.8106 1.06756 10.8137 0.923671C10.8194 0.657305 11.0153 0.45489 11.2844 0.404643C11.6947 0.328131 12.0836 0.401217 12.4825 0.510276C13.3903 0.758941 14.2482 1.12152 15.0597 1.57717C15.7331 1.95516 16.3914 2.3677 17.0155 2.81849C17.6325 3.26415 18.2011 3.77433 18.7848 4.26309C18.8785 4.3416 18.9406 4.45609 19.0175 4.55401C19.0027 4.57 18.9879 4.5857 18.9728 4.60169C18.7777 4.48178 18.5898 4.34874 18.3865 4.24425C17.5078 3.79346 16.6385 3.31354 15.6693 3.07201C15.2547 2.96866 14.8196 2.93126 14.3911 2.89843C13.9455 2.86417 13.4968 2.85304 13.0566 2.98037C12.972 3.00492 12.8609 2.97152 12.7704 2.94154C12.021 2.69316 11.4005 2.27292 10.9638 1.61714C10.9196 1.55147 10.8994 1.47011 10.8621 1.37618Z" fill="#927995"/>
<path d="M17.4491 1.05453C17.9619 0.684819 19.0518 2.44717 19.201 2.86913C19.344 3.27368 20.1509 4.3006 19.6404 4.52642C19.1686 4.73512 18.3628 3.89662 18.313 3.41271C18.2731 3.02758 18.4015 2.52997 18.309 2.27331C18.2378 2.07632 17.2199 1.21983 17.4491 1.05453Z" fill="#C5A2CA"/>
<path d="M18.3128 3.41324C17.9597 3.14631 17.3609 2.71921 17.0059 2.41773C17.1143 2.09855 17.2408 1.81848 17.3293 1.52756C17.3746 1.37882 17.4401 1.32571 17.5864 1.34884C17.5864 1.34884 17.5876 1.35312 17.5824 1.37196C17.8823 1.27375 17.8826 1.4008 18.0332 1.75253C18.2647 2.29211 18.6115 2.96416 18.3128 3.41324Z" fill="#C9A5CE"/>
<path d="M17.312 1.071C17.3293 1.07499 17.4757 1.03074 17.4834 1.071C17.5594 1.47725 17.1858 2.15502 16.9005 2.45878C16.6386 2.2832 16.2827 2.10734 16.0142 1.90292C16.1155 1.62885 16.1585 1.54063 16.3695 1.45042C16.5634 1.36705 17.3678 0.935672 17.312 1.071Z" fill="#C9A5CE"/>
<path d="M29.0403 9.51613C28.9529 9.36082 28.864 9.22436 28.804 9.07676C28.782 9.02309 28.8108 8.92887 28.8509 8.88034C28.8734 8.85293 28.9785 8.86093 29.0255 8.88748C29.3011 9.04393 29.579 9.19866 29.8378 9.3791C29.9472 9.45532 30.0391 9.60035 29.9412 9.73967C29.8407 9.88242 29.6704 9.9084 29.5186 9.83246C29.3529 9.75024 29.2057 9.63262 29.0403 9.51613Z" fill="#D57378"/>
<path d="M28.6343 8.37505C28.6198 8.53293 28.5389 8.50781 28.4626 8.45642C28.1608 8.25286 27.9168 7.57995 28.0287 7.23736C28.0526 7.16456 28.1309 7.05607 28.1833 7.05664C28.2721 7.0575 28.4119 7.11203 28.439 7.17941C28.5249 7.39267 28.5845 7.61992 28.6237 7.8466C28.6528 8.01133 28.6331 8.18434 28.6343 8.37505Z" fill="#D57378"/>
<path d="M29.0793 8.45202C28.9116 8.54024 28.8472 8.48428 28.8996 8.33839C29.0292 7.97696 29.2356 7.66434 29.6177 7.51931C29.7074 7.48534 29.86 7.51018 29.9338 7.56813C29.9896 7.6121 29.9947 7.7597 29.9711 7.84792C29.9238 8.02378 29.8185 8.1651 29.6248 8.23105C29.4455 8.29214 29.2729 8.37265 29.0793 8.45202Z" fill="#C99FA2"/>
<path d="M27.7521 8.3309C27.8985 8.39456 28.028 8.44824 28.1522 8.5119C28.1892 8.53074 28.2117 8.57728 28.2407 8.61097C28.21 8.63381 28.1812 8.6732 28.1482 8.67692C27.7906 8.71803 27.4327 8.76942 27.0736 8.78255C26.9324 8.78769 26.7664 8.71546 26.7869 8.51932C26.8048 8.34631 26.9469 8.26352 27.0987 8.26181C27.3099 8.25952 27.5218 8.30149 27.7521 8.3309Z" fill="#CFBE73"/>
<path d="M27.6997 9.83812C27.5602 9.93205 27.3942 10.0471 27.2911 9.91577C27.2262 9.83298 27.2652 9.618 27.331 9.50209C27.5206 9.16778 27.8481 9.00048 28.2544 8.88086C28.1943 9.2914 28.0021 9.58432 27.6997 9.83812Z" fill="#C99FA2"/>
<path d="M15.4427 1.00332C15.5996 0.78977 17.2886 0.748374 17.3792 1.0707C17.39 1.12294 16.7963 1.24428 16.7453 1.25912C16.4449 1.34591 16.331 1.63283 15.9962 1.74246C15.734 1.82954 15.2929 1.5449 15.23 1.27168C15.3069 1.15263 15.3128 1.06213 15.4427 1.00332Z" fill="#C5A2CA"/>
<path d="M28.4453 9.40268C28.492 9.38269 28.5657 9.37127 28.566 9.37327C28.6269 9.68646 28.7656 9.99993 28.6326 10.3185C28.5939 10.4116 28.4735 10.4724 28.3906 10.5481C28.3376 10.4761 28.2371 10.4016 28.2408 10.3325C28.2539 10.0913 28.2983 9.8509 28.3422 9.61223C28.3544 9.544 28.4048 9.48233 28.4453 9.40268Z" fill="#CFBE73"/>
<path d="M18.313 3.27759C18.3588 2.75085 18.1208 2.30177 17.9656 1.83442C17.9178 1.69024 17.866 1.54721 17.8232 1.38477C17.9038 1.41988 17.977 1.47413 18.0547 1.54264C18.1439 1.823 18.2444 2.08565 18.309 2.3563C18.3904 2.69747 18.4425 3.04548 18.5058 3.41206C18.4428 3.38551 18.3819 3.33754 18.313 3.27759Z" fill="#947B97"/>
<path d="M17.0059 2.31027C17.2866 1.99252 17.3293 1.59054 17.4589 1.20312C17.5787 1.23225 17.6966 1.28078 17.8196 1.3453C17.6781 1.33788 17.6129 1.39098 17.5674 1.54001C17.4785 1.83093 17.3524 2.11071 17.2351 2.41619C17.1562 2.39934 17.0833 2.36194 17.0059 2.31027Z" fill="#947B97"/>
<path d="M16.0508 1.63902C16.1954 1.31098 16.4981 1.22876 16.7985 1.14197C16.8495 1.12741 16.8981 1.10571 16.9517 1.07031C17.0935 1.07659 17.2316 1.10029 17.3796 1.13855C17.1846 1.21192 16.9708 1.25074 16.7769 1.33382C16.5659 1.42404 16.311 1.46629 16.1963 1.7298C16.1436 1.71667 16.098 1.6847 16.0508 1.63902Z" fill="#947B97"/>
<path d="M16.7973 1.02576C16.7455 1.03975 16.68 1.04203 16.6094 1.02918C16.6643 1.01434 16.7241 1.01434 16.7973 1.02576Z" fill="#947B97"/>
<path d="M15.7519 1.00977C15.7217 1.03232 15.6753 1.04945 15.6206 1.05459C15.6533 1.02946 15.6946 1.0169 15.7519 1.00977Z" fill="#947B97"/>
<path d="M27.7557 7.95312C27.7614 7.9634 27.7506 7.98853 27.725 8.00737C27.7198 7.98995 27.7295 7.97882 27.7557 7.95312Z" fill="white"/>
<path d="M29.3632 10.2159C29.357 10.2047 29.3661 10.1779 29.3906 10.1582C29.3968 10.1768 29.388 10.1885 29.3632 10.2159Z" fill="white"/>
<path d="M22.5723 18.306C22.5643 18.2915 22.5757 18.2589 22.6028 18.2344C22.6096 18.2578 22.6008 18.2729 22.5723 18.306Z" fill="white"/>
<path d="M12.794 5.34881C13.0005 4.94826 13.2621 4.62337 13.6793 4.44665C14.1576 4.24423 14.7923 4.30818 14.9452 4.99194C14.9503 5.01421 14.9688 5.03362 14.9893 5.06845C15.1368 4.98109 15.2801 4.89031 15.4287 4.80951C15.9529 4.52459 16.6812 4.84377 16.8153 5.47386C16.9156 5.94492 16.823 6.39514 16.6553 6.82738C16.456 7.34098 16.1479 7.78407 15.6468 8.07556C15.1926 8.33964 14.6357 8.25685 14.2792 7.86972C14.2465 7.83403 14.1317 7.82375 14.0882 7.85145C13.5375 8.20089 12.7969 8.00704 12.542 7.40779C12.4677 7.23307 12.4316 7.03065 12.4307 6.8408C12.4279 6.32406 12.5457 5.82901 12.794 5.34881ZM14.6753 6.15561C14.6371 6.27038 14.5901 6.38344 14.5622 6.50049C14.4737 6.87249 14.39 7.24078 14.589 7.61306C14.6801 7.7835 14.8094 7.86087 14.9834 7.84403C15.1439 7.82832 15.3102 7.78807 15.4554 7.72069C15.7738 7.57252 15.9933 7.32043 16.1209 7.00096C16.2985 6.55559 16.4637 6.10508 16.4067 5.61346C16.3629 5.23518 16.0411 4.97824 15.7237 5.11128C15.4816 5.21291 15.2524 5.37565 15.0639 5.55722C14.9048 5.71082 14.8117 5.93036 14.6753 6.15561ZM14.4418 4.83378C14.2487 4.71615 14.05 4.72501 13.8464 4.80609C13.5432 4.92685 13.3031 5.12755 13.1522 5.40534C12.8743 5.91609 12.7368 6.46652 12.8046 7.04607C12.8698 7.60164 13.3117 7.79435 13.8256 7.59622C13.933 7.55482 14.0731 7.39894 14.0668 7.30387C14.0269 6.67464 14.3162 6.14105 14.5409 5.5872C14.6442 5.33311 14.6619 5.0873 14.4418 4.83378Z" fill="#131313"/>
<path d="M16.6661 4.60158C16.526 4.70864 16.4161 4.65868 16.3361 4.55133C16.2421 4.42543 16.137 4.34892 15.9687 4.34578C15.9135 4.34492 15.8258 4.27611 15.8144 4.2253C15.8025 4.17191 15.8483 4.08512 15.8964 4.04401C16.0342 3.92581 16.3096 3.9575 16.5157 4.11652C16.6695 4.23472 16.8005 4.37375 16.6661 4.60158Z" fill="#1D1D1D"/>
<path d="M14.389 3.53635C14.5027 3.58859 14.6171 3.62028 14.6815 3.69394C14.7302 3.74961 14.7546 3.88465 14.7182 3.9369C14.6775 3.99542 14.5323 4.04824 14.4745 4.02026C14.3107 3.94147 14.1624 3.89093 13.9799 3.95517C13.9412 3.96887 13.8466 3.91434 13.8258 3.87009C13.8045 3.82384 13.8241 3.74076 13.8557 3.69309C13.9793 3.50694 14.1755 3.51922 14.389 3.53635Z" fill="#1D1D1D"/>
<path d="M14.6819 6.13834C14.8111 5.9305 14.9045 5.71124 15.064 5.55764C15.2525 5.37607 15.4817 5.21334 15.7237 5.1117C16.0412 4.97866 16.3629 5.23532 16.4068 5.61388C16.4637 6.1055 16.2986 6.55601 16.1209 7.00138C15.9934 7.32085 15.7738 7.57294 15.4555 7.72111C15.3103 7.78878 15.144 7.82875 14.9834 7.84445C14.8094 7.86158 14.6802 7.78421 14.589 7.61348C14.39 7.2412 14.4737 6.87291 14.5623 6.50091C14.5902 6.38358 14.6369 6.27081 14.6819 6.13834ZM14.8803 6.73273C15.0406 6.96969 15.2177 7.01223 15.3687 6.81382C15.4771 6.67078 15.5409 6.48521 15.5856 6.30935C15.6226 6.16289 15.5409 6.015 15.3803 6.00301C15.2701 5.99473 15.0956 6.05012 15.0506 6.13091C14.9561 6.29964 14.9282 6.50405 14.8803 6.73273Z" fill="#F5F5F5"/>
<path d="M14.4557 4.84875C14.6618 5.08857 14.6444 5.33438 14.5411 5.58847C14.3164 6.14233 14.0271 6.67563 14.067 7.30514C14.073 7.40021 13.9332 7.55609 13.8258 7.59749C13.3122 7.79591 12.8703 7.6032 12.8048 7.04734C12.7367 6.46779 12.8745 5.91736 13.1524 5.40661C13.3033 5.12882 13.5434 4.92812 13.8466 4.80736C14.0499 4.72656 14.2487 4.71743 14.4557 4.84875ZM13.2769 6.19686C13.2569 6.37101 13.2865 6.5443 13.477 6.5877C13.5716 6.6094 13.7313 6.54887 13.7945 6.47264C13.9414 6.29564 14.0317 6.07723 13.9463 5.84284C13.9178 5.76433 13.8349 5.66098 13.7649 5.65128C13.6752 5.63872 13.5388 5.68297 13.4847 5.75034C13.391 5.86654 13.3455 6.01956 13.2769 6.19686Z" fill="#F5F5F5"/>
<path d="M14.8765 6.71337C14.928 6.5041 14.9559 6.29969 15.0502 6.13067C15.0951 6.04988 15.2697 5.99449 15.3799 6.00277C15.5405 6.01476 15.6225 6.16293 15.5852 6.30911C15.5405 6.48526 15.477 6.67083 15.3682 6.81357C15.2176 7.01256 15.0405 6.97002 14.8765 6.71337Z" fill="#131313"/>
<path d="M13.2783 6.17637C13.2783 6.00565 13.3911 5.86575 13.4848 5.74956C13.5389 5.68218 13.6752 5.63822 13.7649 5.65049C13.835 5.6602 13.9175 5.76355 13.9463 5.84206C14.0317 6.07645 13.9415 6.29485 13.7945 6.47186C13.7313 6.54808 13.5716 6.60861 13.4771 6.58691C13.2863 6.5438 13.2783 6.3845 13.2783 6.17637Z" fill="#131313"/>
<path d="M27.7719 7.937C27.7483 7.6929 27.6967 7.44709 27.7118 7.20527C27.7198 7.07709 27.8174 6.92692 27.9205 6.8367C28.2249 6.57005 28.5985 6.69938 28.7722 7.12505C28.8388 7.28807 28.8695 7.46507 28.9282 7.67662C28.9928 7.61639 29.0458 7.57613 29.0871 7.52674C29.3163 7.2521 29.609 7.17301 29.9558 7.24581C30.2397 7.3052 30.4023 7.55672 30.326 7.8325C30.2058 8.26617 29.908 8.51541 29.4185 8.62047C29.5962 8.75179 29.7528 8.85885 29.8994 8.97762C30.1187 9.1552 30.2588 9.38388 30.2781 9.66366C30.3083 10.1013 29.9444 10.3174 29.41 10.1604C29.3664 10.1784 29.357 10.2052 29.3479 10.2321C29.5065 10.8676 29.6648 11.5031 29.8311 12.1694C30.1087 12.1095 30.3678 12.0672 30.6181 11.9961C31.0685 11.8682 31.2576 11.8951 31.5708 12.3713C31.8741 12.8326 31.9108 13.3411 31.7009 13.8621C31.5614 14.2082 31.464 14.5722 31.3069 14.9099C30.8729 15.8417 30.1904 16.5738 29.2995 17.1019C28.6506 17.4868 28.0011 17.879 27.2639 18.1003C26.2765 18.3966 25.2751 18.536 24.2429 18.414C23.7158 18.3518 23.1882 18.2959 22.6239 18.231C22.5758 18.2576 22.5641 18.2904 22.5527 18.323C22.5649 18.4928 22.5675 18.6636 22.5911 18.832C22.6324 19.1275 22.7597 19.3476 23.0257 19.5466C23.908 20.2067 24.4943 21.0709 24.6987 22.1549C24.7483 22.4172 24.785 22.6836 24.8024 22.95C24.8132 23.1141 24.8687 23.1741 25.0384 23.1767C25.4282 23.1826 25.8183 23.1975 26.207 23.2255C26.4849 23.2455 26.7392 23.3334 26.9402 23.5415C27.0922 23.6988 27.2833 23.6332 27.4507 23.5798C28.232 23.3308 29.0002 23.8527 29.0293 24.6624C29.0338 24.792 29.0478 24.9253 29.0259 25.0515C28.8875 25.8472 29.1022 26.6154 29.195 27.3945C29.3149 28.4012 29.4048 29.411 29.5005 30.4202C29.5996 31.4654 28.484 32.5977 27.4854 32.6599C27.0709 32.6859 26.6902 32.6119 26.4072 32.2811C26.1779 32.0133 26.1609 31.7261 26.3343 31.4234C26.3653 31.3695 26.3852 31.3092 26.4376 31.1893C26.1896 31.2233 25.9929 31.267 25.795 31.2741C25.3744 31.2892 24.9533 31.2804 24.5327 31.2924C24.4277 31.2952 24.3223 31.3344 24.2201 31.3669C24.0561 31.4191 23.8978 31.5182 23.7321 31.5299C22.7771 31.5982 21.8434 31.4585 20.9329 31.1845C20.6752 31.1071 20.4408 30.9581 20.1888 30.8587C20.1051 30.8256 19.9907 30.8173 19.9058 30.8444C18.7771 31.2059 17.6171 31.2307 16.454 31.1211C15.1949 31.0026 13.9409 30.9164 12.6736 31.0083C11.8219 31.07 10.9609 31.094 10.1095 31.0429C9.39512 31 8.72286 31.2361 8.01615 31.2204C7.60984 31.2116 7.19982 31.3318 6.79293 31.4017C6.70552 31.4169 6.62209 31.4605 6.54009 31.4982C5.80547 31.8337 5.19757 31.7295 4.66141 31.1285C4.34165 30.7702 4.0945 30.3494 3.76905 29.9971C3.33711 29.5295 2.88239 29.077 2.39749 28.6621C1.72153 28.084 1.05639 27.5027 0.623021 26.7193C0.181113 25.9205 -0.038418 25.0783 0.168869 24.1667C0.339994 23.4148 1.07888 22.9034 1.74971 23.1284C2.14236 23.2603 2.51964 23.4701 2.86018 23.7051C3.11644 23.8821 3.29896 24.159 3.52447 24.3817C3.57429 24.4311 3.69274 24.4836 3.73602 24.4597C4.43675 24.07 5.22775 23.9286 5.97261 23.6614C6.05006 23.6337 6.13577 23.5475 6.15968 23.471C6.359 22.8378 6.81486 22.5292 7.4632 22.4364C7.89685 22.3741 8.23768 22.2006 8.37862 21.7406C8.51843 21.2838 8.66962 20.8233 8.88317 20.3968C9.0916 19.9811 9.36038 19.5871 9.65138 19.2206C9.83475 18.9896 9.8749 19.0199 9.87262 18.6781C9.4794 18.7241 9.08846 18.7729 8.69695 18.8152C7.76787 18.9157 6.84048 18.9245 5.91538 18.7669C4.6802 18.5562 3.51108 18.1634 2.42112 17.5561C1.63127 17.1162 0.8864 16.6171 0.388684 15.848C-0.0327233 15.1968 -0.14377 14.5071 0.216704 13.7925C0.435095 13.3597 0.779055 13.2143 1.26737 13.3091C1.84482 13.4213 2.4197 13.5595 3.00255 13.6312C4.32115 13.7933 5.63976 13.7748 6.94555 13.5058C8.12293 13.2635 9.2781 12.9443 10.3951 12.5035C10.5631 12.4372 10.7325 12.3644 10.8803 12.2651C10.9515 12.2174 11.0113 12.1021 11.0136 12.0156C11.0372 11.1876 11.0483 10.3594 11.0617 9.53119C11.0748 8.7241 11.2371 7.93757 11.4435 7.16274C11.6938 6.22346 11.9808 5.29332 12.2604 4.36176C12.3464 4.07541 12.4398 3.78791 12.5671 3.51784C12.657 3.32713 12.5907 3.26432 12.425 3.20037C11.7621 2.94571 11.2103 2.53574 10.7724 1.9933C10.458 1.60446 10.3897 1.13767 10.482 0.655189C10.5386 0.357705 10.9486 0.0682139 11.3208 0.0208219C11.9691 -0.0616858 12.5762 0.114178 13.1718 0.316879C13.6639 0.484178 14.1374 0.701725 14.6226 0.889009C14.6844 0.91299 14.7718 0.902998 14.8381 0.8813C15.1006 0.795652 15.356 0.634348 15.6206 0.620359C16.1393 0.592952 16.6627 0.650621 17.1843 0.659757C17.2655 0.661185 17.3805 0.613793 17.4232 0.55184C17.5314 0.393962 17.6724 0.366269 17.8347 0.411092C18.0026 0.457342 18.0687 0.592952 18.0539 0.751686C18.0405 0.894148 18.0798 0.973515 18.2074 1.06373C19.18 1.75063 19.8454 2.64337 20.018 3.82645C20.0843 4.28239 20.0846 4.74803 20.1046 5.20967C20.1552 6.38562 20.1775 7.563 20.2552 8.73695C20.3019 9.44297 20.5174 10.1199 20.8403 10.7582C20.8716 10.8202 20.9206 10.8996 20.979 10.9181C21.5015 11.0848 21.8654 11.478 22.287 11.786C22.8836 12.2217 23.5071 12.6094 24.2509 12.7384C25.154 12.8955 26.0601 12.9537 26.9715 12.7479C27.7306 12.5766 28.4985 12.4435 29.2642 12.3005C29.4157 12.2722 29.4535 12.2203 29.41 12.0707C29.2696 11.5879 29.1455 11.1008 29.0108 10.6164C28.9945 10.5584 28.9515 10.5076 28.9211 10.4536C28.8787 10.4944 28.8297 10.5307 28.7952 10.5772C28.6856 10.7251 28.5797 10.8576 28.3539 10.8208C28.1073 10.7805 28.0028 10.6329 27.9686 10.4125C27.9527 10.31 27.9405 10.2072 27.9217 10.0693C27.5959 10.2169 27.2568 10.4413 26.9872 10.0574C26.7363 9.70049 27.0025 9.41928 27.2175 9.10581C27.1321 9.0961 27.0666 9.08639 27.0008 9.08182C26.6569 9.05727 26.4681 8.91424 26.4299 8.6473C26.3878 8.35324 26.5353 8.09944 26.863 8.03121C27.1227 7.97696 27.4012 8.00865 27.7055 8.00723C27.7503 7.98724 27.7611 7.96212 27.7719 7.937ZM17.8147 1.3301C17.6968 1.28156 17.579 1.23274 17.4412 1.16651C17.4238 1.16251 17.4064 1.15823 17.3694 1.12426C17.2313 1.10085 17.0932 1.07715 16.9201 1.04432C16.8836 1.04203 16.8475 1.03946 16.784 1.01377C16.7242 1.01377 16.6644 1.01377 16.5593 1.00606C16.2957 1.00863 16.032 1.01149 15.7359 1.00349C15.6946 1.01605 15.6536 1.0289 15.5741 1.04175C15.4771 1.07943 15.38 1.11712 15.2831 1.1548C15.2863 1.17821 15.2894 1.20162 15.2925 1.22503C15.5448 1.35865 15.7968 1.49226 16.0522 1.65328C16.0978 1.68525 16.1436 1.71723 16.2157 1.77004C16.4776 1.94562 16.7393 2.12149 17.0109 2.32504C17.0835 2.36244 17.1561 2.40013 17.2464 2.46551C17.5995 2.73244 17.9522 2.99909 18.3207 3.28973C18.3819 3.33769 18.4431 3.38594 18.5214 3.46188C18.9024 3.85243 19.2831 4.24328 19.6404 4.60956C19.5906 4.06427 19.4334 3.49757 19.2011 2.95227C18.9585 2.38271 18.5849 1.90879 18.0499 1.52851C17.9767 1.47427 17.9036 1.42003 17.8258 1.36607C17.8258 1.36607 17.8247 1.36179 17.8147 1.3301ZM23.2879 17.9033C23.594 17.9298 23.9004 17.9515 24.2056 17.9844C25.1768 18.0883 26.1381 18.0281 27.0569 17.7043C27.621 17.5056 28.1551 17.2221 28.6933 16.9583C29.5435 16.5412 30.2346 15.9305 30.6967 15.1263C30.9894 14.617 31.1713 14.0426 31.3624 13.4841C31.4447 13.2438 31.4253 12.97 31.2855 12.7518C31.1002 12.9468 30.9265 13.1518 30.726 13.328C30.66 13.3859 30.4843 13.4185 30.4299 13.3757C30.3046 13.2777 30.396 13.1652 30.4868 13.069C30.6329 12.9149 30.7761 12.7573 30.9091 12.5923C30.9507 12.5409 30.9549 12.4606 30.9763 12.3936C30.9071 12.3927 30.8376 12.3861 30.769 12.3924C30.7118 12.3978 30.6568 12.4207 30.5999 12.4321C29.4783 12.6545 28.3528 12.8592 27.2363 13.1033C26.3388 13.2997 25.4445 13.3211 24.5393 13.1946C24.0012 13.1196 23.4727 13.0005 23.0128 12.7144C22.4696 12.3767 21.9334 12.0221 21.4303 11.631C20.9346 11.2456 20.1783 11.0886 19.6518 11.4431C19.571 11.4977 19.4761 11.5411 19.3813 11.5636C19.313 11.5799 19.2338 11.5536 19.1595 11.5462C19.1829 11.4834 19.1871 11.3989 19.2324 11.3618C19.5237 11.1231 19.807 10.865 20.2167 10.8336C20.2606 10.8302 20.3024 10.8028 20.3503 10.7845C20.3281 10.7251 20.3118 10.6794 20.2936 10.6343C19.9112 9.69193 19.651 8.7281 19.6957 7.70032C19.7216 7.10821 19.7187 6.51495 19.7199 5.92226C19.7202 5.83376 19.6985 5.71899 19.6407 5.66075C19.3933 5.41152 19.1561 5.13858 18.8651 4.94702C17.6997 4.17961 16.4554 3.57151 15.0653 3.2883C14.4816 3.16953 13.8993 3.13156 13.3122 3.27602C13.1343 3.3197 13.042 3.40821 12.9774 3.57779C12.5861 4.60214 12.2422 5.63848 11.9742 6.70223C11.714 7.73629 11.4893 8.77092 11.4797 9.83953C11.4666 11.2767 11.4845 12.7144 11.4412 14.1505C11.4184 14.9005 11.3467 15.6579 11.1978 16.3925C11.064 17.0525 10.7889 17.6846 10.5867 18.3324C10.5244 18.532 10.4859 18.7401 10.4552 18.9468C10.4293 19.1215 10.5044 19.256 10.6656 19.3539C10.7983 19.4344 10.9187 19.5358 11.0369 19.6365C11.4552 19.9931 11.8726 20.3397 12.425 20.5016C13.2439 20.7417 14.0821 20.8322 14.9289 20.8667C16.8409 20.9452 18.6946 20.5772 20.5382 20.1439C21.1584 19.998 21.7495 19.7796 22.3093 19.4841C22.2765 19.3716 22.2361 19.272 22.2199 19.1689C22.1598 18.7863 22.0857 18.4038 22.061 18.0186C22.045 17.7748 22.1666 17.7057 22.4126 17.7486C22.6902 17.7974 22.9673 17.8496 23.2879 17.9033ZM12.2732 20.9452C12.0827 20.8667 11.8726 20.8159 11.706 20.7037C11.3532 20.4653 11.0175 20.2015 10.6861 19.9352C10.5053 19.7898 10.3393 19.6188 10.0893 19.6211C9.98538 19.622 9.8302 19.6588 9.78692 19.7305C9.57422 20.0839 9.37177 20.4462 9.2035 20.8213C9.04461 21.1756 8.92673 21.5482 8.80117 21.9162C8.62178 22.4424 8.25875 22.7473 7.69753 22.8369C7.52641 22.8643 7.36183 22.9274 7.19213 22.9648C6.96263 23.0154 6.79692 23.1524 6.70951 23.3517C6.50478 23.8184 6.38007 24.3109 6.45154 24.8188C6.57711 25.7118 6.84191 26.5663 7.21092 27.3971C7.72402 28.5519 8.49565 29.5038 9.47029 30.3086C9.61778 30.4305 9.80514 30.5669 9.98367 30.5807C10.5278 30.6229 11.0768 30.626 11.6232 30.6123C12.5355 30.5895 13.4472 30.5144 14.3595 30.5144C14.9961 30.5144 15.6334 30.5998 16.2698 30.6523C17.6445 30.7662 19.0015 30.7617 20.3133 30.2421C20.8753 30.0194 21.4032 29.7584 21.8226 29.3285C22.4661 28.6687 23.0382 27.9513 23.4052 27.1073C23.66 26.5215 23.8648 25.914 24.0735 25.3099C24.2748 24.7275 24.2816 24.1162 24.33 23.5093C24.4083 22.5294 24.223 21.6204 23.6393 20.8131C23.426 20.5181 23.1626 20.2566 22.9092 19.9914C22.7964 19.8735 22.635 19.8604 22.4972 19.9509C21.9755 20.2943 21.3739 20.4248 20.7791 20.5601C19.9414 20.7505 19.0972 20.9147 18.2541 21.0806C17.3076 21.267 16.3492 21.3492 15.3848 21.3349C14.8791 21.3272 14.3703 21.3098 13.8694 21.247C13.3452 21.1811 12.8296 21.0554 12.2732 20.9452ZM0.945055 13.9689C1.14465 14.171 1.34767 14.37 1.541 14.5779C1.58428 14.6244 1.6307 14.7332 1.60877 14.7586C1.56549 14.8094 1.46811 14.8559 1.40661 14.8428C1.2987 14.82 1.17882 14.772 1.10365 14.6969C0.917436 14.5099 0.753999 14.3015 0.55981 14.0771C0.455597 14.3429 0.417442 14.591 0.45702 14.8517C0.554684 15.4923 0.946764 15.9568 1.4217 16.3645C2.07517 16.9252 2.82345 17.3392 3.62184 17.6672C4.57485 18.0586 5.56089 18.3261 6.59447 18.4235C7.71462 18.5288 8.81683 18.3955 9.91562 18.2111C10.0059 18.1959 10.1249 18.0977 10.1528 18.0135C10.3857 17.3143 10.6901 16.6223 10.7991 15.9028C10.9498 14.9116 10.9489 13.8984 11.0118 12.8943C11.0133 12.8723 10.9996 12.8495 10.9874 12.8089C10.9224 12.8235 10.8581 12.8306 10.7986 12.8521C10.419 12.9877 10.0469 13.1467 9.66078 13.2603C8.34132 13.6486 7.00962 13.9875 5.62751 14.0837C4.50452 14.1616 3.38552 14.1402 2.27619 13.9287C1.87728 13.8527 1.47893 13.7742 1.07831 13.7071C1.00485 13.6948 0.922846 13.7325 0.844828 13.7471C0.870739 13.811 0.896651 13.875 0.945055 13.9689ZM0.650924 24.0974C0.430824 24.7551 0.523648 25.3969 0.773076 26.0236C1.10906 26.8678 1.70416 27.5199 2.40546 28.0931C3.04127 28.6127 3.67424 29.1366 4.17394 29.7915C4.406 30.0959 4.62155 30.4134 4.86557 30.708C5.28897 31.2196 5.72433 31.4366 6.40171 31.0857C6.45951 31.0557 6.52386 31.038 6.58536 31.0146C7.09731 30.8196 7.63689 30.7991 8.17589 30.7699C8.49365 30.7528 8.81056 30.722 9.12776 30.6974C9.13488 30.6794 9.14199 30.6612 9.14911 30.6432C7.12266 28.9002 6.05319 26.7222 5.96891 24.0868C5.8758 24.1176 5.75821 24.153 5.64346 24.1956C5.14119 24.3826 4.63892 24.5693 4.13864 24.7611C3.96922 24.826 3.8092 24.9145 3.63864 24.9758C3.48517 25.0309 3.35277 25.0152 3.26991 24.8394C2.97123 24.2039 2.42368 23.8387 1.78559 23.5926C1.293 23.4025 0.890101 23.5852 0.650924 24.0974ZM26.3041 30.8025C26.7508 30.837 26.92 31.1328 26.7189 31.5282C26.7115 31.5428 26.703 31.5568 26.6953 31.571C26.5498 31.854 26.6341 32.0826 26.9359 32.1926C27.0427 32.2314 27.1594 32.2522 27.2733 32.2625C28.121 32.3399 29.1249 31.2907 29.0566 30.535C28.9587 29.453 28.8576 28.3706 28.7329 27.2915C28.6529 26.6003 28.4666 25.9202 28.574 25.2137C28.6053 25.0072 28.5933 24.7917 28.5794 24.5819C28.5532 24.1884 28.0151 23.7691 27.6159 23.9766C27.5307 24.0209 27.4262 24.0391 27.3286 24.0486C27.2161 24.0597 27.2084 24.1116 27.2016 24.2084C27.1856 24.4334 27.1708 24.6632 27.1102 24.8791C26.8337 25.8629 26.5182 26.8367 26.2614 27.8254C26.0094 28.7955 25.594 29.6836 25.0177 30.505C24.9331 30.6255 24.8357 30.7374 24.7443 30.8533C24.7571 30.8793 24.7696 30.9053 24.7825 30.9312C25.2762 30.8887 25.7694 30.8456 26.3041 30.8025ZM21.184 30.8282C21.8728 31.0289 22.5835 31.0908 23.2953 31.1122C23.555 31.1202 23.8366 31.1374 24.0629 30.919C24.9752 30.0379 25.4963 28.9522 25.8326 27.7645C26.0863 26.8689 26.3505 25.9765 26.5996 25.0798C26.6731 24.8157 26.7417 24.5442 26.7577 24.273C26.7782 23.9292 26.6119 23.7239 26.2682 23.6814C25.8425 23.6289 25.4094 23.6337 24.9806 23.6029C24.8218 23.5915 24.7927 23.6546 24.7782 23.795C24.7321 24.2375 24.7025 24.6861 24.6008 25.1177C24.2984 26.3982 23.805 27.6015 22.9883 28.6621C22.6347 29.1212 22.2836 29.5854 21.8084 29.9309C21.4656 30.1801 21.092 30.3891 20.7216 30.6229C20.8526 30.6843 20.9986 30.7531 21.184 30.8282ZM10.8678 1.39519C10.8991 1.46942 10.9193 1.55078 10.9632 1.61702C11.3999 2.27251 12.0204 2.69276 12.7698 2.94142C12.8603 2.9714 12.9714 3.0048 13.056 2.98025C13.4962 2.85292 13.9449 2.86405 14.3905 2.89831C14.819 2.93115 15.2541 2.96855 15.6687 3.07189C16.6379 3.31371 17.5075 3.79334 18.3859 4.24413C18.5892 4.34862 18.7771 4.48166 18.9722 4.60157C18.987 4.58558 19.0018 4.56988 19.0169 4.55389C18.9403 4.45597 18.8782 4.34149 18.7842 4.26297C18.2005 3.77421 17.6319 3.26403 17.0149 2.81838C16.3905 2.36758 15.7325 1.95504 15.0591 1.57705C14.2476 1.1214 13.3897 0.758823 12.4819 0.510158C12.083 0.400814 11.6941 0.327728 11.2838 0.404526C11.0147 0.454772 10.8191 0.657188 10.8131 0.923553C10.8103 1.06716 10.8407 1.21162 10.8678 1.39519ZM29.0503 9.52919C29.2055 9.6314 29.353 9.74902 29.5185 9.83153C29.6705 9.90719 29.8405 9.88149 29.941 9.73875C30.0392 9.59943 29.947 9.45439 29.8376 9.37817C29.5788 9.19773 29.3009 9.04271 29.0253 8.88655C28.978 8.85971 28.8732 8.852 28.8507 8.87941C28.8106 8.92794 28.7818 9.02216 28.8038 9.07583C28.8638 9.22314 28.9527 9.35961 29.0503 9.52919ZM28.6352 8.3541C28.6332 8.18452 28.6529 8.01151 28.6241 7.84649C28.5848 7.61981 28.5253 7.39256 28.4393 7.17929C28.4123 7.1122 28.2725 7.05767 28.1836 7.05653C28.1312 7.05596 28.0529 7.16445 28.029 7.23725C27.9171 7.57984 28.1611 8.25275 28.4629 8.45631C28.539 8.50798 28.6198 8.53311 28.6352 8.3541ZM29.0973 8.4446C29.2727 8.37266 29.4453 8.29215 29.6247 8.23105C29.8183 8.1651 29.9236 8.02379 29.9709 7.84792C29.9945 7.7597 29.9891 7.6121 29.9336 7.56814C29.8598 7.5099 29.7072 7.48534 29.6175 7.51932C29.2354 7.66435 29.029 7.97696 28.8994 8.3384C28.847 8.48429 28.9114 8.54024 29.0973 8.4446ZM27.7332 8.3247C27.5216 8.30157 27.3098 8.25932 27.0985 8.26189C26.9464 8.2636 26.8044 8.34639 26.7867 8.5194C26.7665 8.71554 26.9325 8.78805 27.0734 8.78263C27.4325 8.7695 27.7904 8.71811 28.148 8.67699C28.1811 8.67328 28.2098 8.63389 28.2406 8.61105C28.2115 8.57736 28.189 8.53082 28.152 8.51198C28.0279 8.4486 27.8983 8.39493 27.7332 8.3247ZM27.7147 9.82639C28.0022 9.58344 28.1944 9.29052 28.2548 8.87998C27.8485 8.9996 27.521 9.1669 27.3314 9.50121C27.2656 9.61713 27.2266 9.8321 27.2915 9.9149C27.3943 10.0465 27.5603 9.93117 27.7147 9.82639ZM28.4376 9.41785C28.4046 9.48237 28.3542 9.54404 28.3416 9.61227C28.2978 9.85095 28.2537 10.0913 28.2403 10.3326C28.2366 10.4017 28.3374 10.4762 28.39 10.5481C28.4729 10.4725 28.5933 10.4119 28.6321 10.3186C28.765 9.99969 28.6264 9.68622 28.5654 9.37331C28.5652 9.3716 28.4917 9.38302 28.4376 9.41785Z" fill="#101010"/>
<path d="M16.0034 33.4062C16.9983 33.422 17.9689 33.4362 18.9399 33.4542C19.6696 33.4676 20.3991 33.4845 21.1289 33.503C21.6591 33.5165 22.1898 33.5222 22.7189 33.555C23.5597 33.607 24.3994 33.6786 25.2396 33.742C25.8985 33.7917 26.5602 33.8202 27.2157 33.8973C27.9511 33.9835 28.6943 34.0535 29.3939 34.3175C29.5149 34.3632 29.6089 34.4783 29.7151 34.5614C29.6251 34.6499 29.5491 34.7643 29.4412 34.82C29.3062 34.89 29.1476 34.9302 28.9947 34.9508C28.1618 35.0627 27.3486 35.2859 26.4998 35.3156C25.6004 35.347 24.7037 35.4492 23.8048 35.4989C22.6975 35.5603 21.589 35.6311 20.4806 35.6422C17.2904 35.6742 14.0997 35.6899 10.9092 35.6862C9.99237 35.6851 9.07524 35.6003 8.15868 35.5466C7.43289 35.5041 6.70624 35.4658 5.98273 35.3981C5.14562 35.3199 4.31049 35.2197 3.47679 35.1132C3.09581 35.0644 2.71854 34.9833 2.34269 34.9037C2.24246 34.8825 2.14594 34.8223 2.06052 34.7623C1.82561 34.5973 1.83899 34.48 2.10266 34.3501C2.51467 34.1468 2.96056 34.0832 3.41357 34.0341C3.97849 33.973 4.54055 33.8856 5.10433 33.8137C5.32528 33.7854 5.54709 33.7611 5.76947 33.748C6.39702 33.7106 7.02486 33.6749 7.65327 33.6478C8.52228 33.6101 9.39129 33.5775 10.2606 33.5487C10.8987 33.5273 11.5371 33.5127 12.1754 33.4996C13.0629 33.4813 13.9507 33.4691 14.8385 33.4496C15.2184 33.4411 15.5988 33.4211 16.0034 33.4062Z" fill="#DBDBDB"/>
<path d="M23.266 17.9025C22.967 17.8503 22.6903 17.798 22.4126 17.7495C22.1663 17.7066 22.045 17.7757 22.061 18.0196C22.086 18.4047 22.1601 18.7872 22.2199 19.1698C22.2361 19.2729 22.2765 19.3725 22.3093 19.485C21.7495 19.7805 21.1584 19.9992 20.5382 20.1448C18.6943 20.5781 16.841 20.9461 14.929 20.8676C14.0822 20.8328 13.2439 20.7426 12.425 20.5025C11.8726 20.3403 11.4552 19.994 11.0369 19.6374C10.9188 19.5367 10.798 19.4353 10.6656 19.3548C10.5045 19.2569 10.4293 19.1224 10.4552 18.9477C10.486 18.741 10.5244 18.5329 10.5868 18.3333C10.7892 17.6858 11.064 17.0534 11.1978 16.3934C11.347 15.6585 11.4188 14.9014 11.4412 14.1514C11.4848 12.7154 11.4669 11.2773 11.4797 9.84044C11.4894 8.77184 11.7137 7.73721 11.9743 6.70315C12.2422 5.6394 12.5862 4.60306 12.9774 3.5787C13.0423 3.40884 13.1346 3.32062 13.3122 3.27694C13.8994 3.13276 14.4816 3.17045 15.0653 3.28921C16.4554 3.57214 17.6997 4.18053 18.8651 4.94793C19.1561 5.1395 19.3933 5.41243 19.6407 5.66167C19.6988 5.72019 19.7202 5.83468 19.7199 5.92318C19.7188 6.51586 19.7216 7.10941 19.6957 7.70123C19.6507 8.72901 19.9112 9.69284 20.2936 10.6353C20.3119 10.6801 20.3278 10.726 20.3503 10.7854C20.3022 10.8037 20.2606 10.8311 20.2168 10.8345C19.807 10.8662 19.5237 11.124 19.2324 11.3627C19.1872 11.3998 19.1829 11.4846 19.1595 11.5471C19.2339 11.5545 19.313 11.5808 19.3814 11.5645C19.4762 11.5417 19.571 11.4983 19.6518 11.4441C20.1786 11.0895 20.9346 11.2465 21.4303 11.6319C21.9337 12.0233 22.4699 12.3776 23.0129 12.7154C23.4727 13.0014 24.0012 13.1205 24.5393 13.1956C25.4448 13.3218 26.3388 13.3003 27.2363 13.1042C28.3528 12.8598 29.4783 12.6551 30.5999 12.433C30.6568 12.4219 30.7118 12.3987 30.769 12.3933C30.8374 12.3868 30.9071 12.3933 30.9763 12.3945C30.955 12.4616 30.9504 12.5415 30.9091 12.5932C30.7761 12.7582 30.6329 12.9155 30.4869 13.0699C30.396 13.1659 30.3046 13.2786 30.4299 13.3766C30.4843 13.4191 30.6603 13.3866 30.726 13.3289C30.9265 13.1527 31.1002 12.9478 31.2855 12.7528C31.4251 12.9709 31.4444 13.245 31.3624 13.4851C31.1714 14.0435 30.9894 14.6179 30.6967 15.1272C30.2346 15.9314 29.5438 16.5424 28.6933 16.9592C28.1552 17.223 27.621 17.5065 27.0569 17.7052C26.1381 18.029 25.1768 18.0892 24.2056 17.9853C23.9004 17.9525 23.5937 17.9308 23.266 17.9025ZM12.7846 5.36561C12.5452 5.82982 12.4276 6.32487 12.4301 6.84133C12.4313 7.03118 12.4671 7.2336 12.5415 7.40832C12.7963 8.00757 13.5369 8.20142 14.0876 7.85198C14.1311 7.82428 14.2459 7.83456 14.2786 7.87025C14.6351 8.25738 15.1921 8.34017 15.6462 8.07609C16.1476 7.7846 16.4554 7.34151 16.6547 6.82791C16.8224 6.39596 16.915 5.94545 16.8148 5.47438C16.6806 4.8443 15.952 4.5254 15.4281 4.81004C15.2795 4.89083 15.1365 4.98162 14.9888 5.06898C14.9683 5.03415 14.9495 5.01474 14.9446 4.99247C14.7917 4.309 14.157 4.24476 13.6787 4.44718C13.2618 4.62447 13.0002 4.94907 12.7846 5.36561ZM16.6758 4.5885C16.8005 4.37409 16.6695 4.23505 16.5161 4.11657C16.3099 3.95755 16.0346 3.92587 15.8968 4.04406C15.8487 4.08546 15.8028 4.17225 15.8148 4.22535C15.8262 4.27617 15.9139 4.34497 15.9691 4.34583C16.1374 4.34868 16.2424 4.42548 16.3364 4.55138C16.4161 4.65901 16.526 4.70897 16.6758 4.5885ZM14.3686 3.53474C14.1756 3.52018 13.9794 3.5079 13.8561 3.69347C13.8242 3.74144 13.8045 3.82451 13.8262 3.87048C13.847 3.91502 13.9415 3.96926 13.9802 3.95556C14.1627 3.89132 14.3111 3.94185 14.4748 4.02065C14.5326 4.04863 14.6775 3.99581 14.7185 3.93728C14.755 3.88504 14.7305 3.75 14.6818 3.69433C14.6172 3.62124 14.5027 3.58927 14.3686 3.53474Z" fill="#FDFDFD"/>
<path d="M12.292 20.9512C12.8299 21.056 13.3452 21.1813 13.8689 21.247C14.3697 21.3098 14.8785 21.3272 15.3842 21.3349C16.3489 21.3495 17.307 21.267 18.2535 21.0806C19.0969 20.9147 19.9408 20.7505 20.7785 20.5601C21.3736 20.4248 21.975 20.2943 22.4966 19.9509C22.6341 19.8604 22.7959 19.8735 22.9086 19.9914C23.1617 20.2566 23.4254 20.5181 23.6387 20.8131C24.2227 21.6204 24.4077 22.5294 24.3294 23.5093C24.281 24.1162 24.2739 24.7275 24.0729 25.3099C23.8642 25.9137 23.6595 26.5215 23.4046 27.1073C23.0376 27.9513 22.4656 28.6684 21.8221 29.3285C21.4027 29.7584 20.8748 30.0194 20.3127 30.2421C19.0009 30.7619 17.6439 30.7662 16.2692 30.6523C15.6328 30.5995 14.9958 30.5144 14.3589 30.5144C13.4469 30.5144 12.5352 30.5895 11.6226 30.6123C11.0762 30.626 10.5272 30.6229 9.98309 30.5807C9.80456 30.5667 9.61721 30.4305 9.46971 30.3086C8.49535 29.5038 7.72343 28.5519 7.21034 27.3971C6.84133 26.5663 6.57652 25.7121 6.45096 24.8188C6.37949 24.3109 6.5042 23.8184 6.70893 23.3517C6.79634 23.1524 6.96234 23.0154 7.19155 22.9648C7.36125 22.9274 7.52583 22.864 7.69696 22.8369C8.25845 22.7473 8.6212 22.4424 8.80059 21.9162C8.92615 21.5482 9.04403 21.1756 9.20292 20.8213C9.37119 20.4462 9.57364 20.0839 9.78634 19.7305C9.82933 19.6588 9.98451 19.622 10.0887 19.6211C10.3387 19.6188 10.5047 19.7898 10.6855 19.9352C11.0172 20.2015 11.3527 20.4656 11.7054 20.7037C11.8729 20.8168 12.083 20.8673 12.292 20.9512Z" fill="#947B97"/>
<path d="M0.933567 13.9534C0.896551 13.8743 0.870641 13.8107 0.845015 13.7467C0.923032 13.7322 1.00532 13.6945 1.0785 13.7068C1.47883 13.7738 1.87746 13.8521 2.27637 13.9283C3.3857 14.1399 4.50471 14.1613 5.6277 14.0833C7.0098 13.9871 8.34151 13.6482 9.66096 13.26C10.0471 13.1463 10.4192 12.9873 10.7988 12.8517C10.858 12.8306 10.9226 12.8232 10.9875 12.8086C10.9998 12.8494 11.0135 12.8723 11.012 12.894C10.9491 13.8978 10.95 14.911 10.7993 15.9025C10.69 16.6219 10.3859 17.314 10.153 18.0131C10.1248 18.0974 10.0061 18.1956 9.9158 18.2107C8.81701 18.3951 7.7148 18.5285 6.59466 18.4231C5.56107 18.3258 4.57504 18.0583 3.62203 17.6668C2.82363 17.3388 2.07535 16.9248 1.42189 16.3641C0.94695 15.9564 0.554871 15.492 0.457207 14.8513C0.417628 14.5906 0.455782 14.3426 0.559995 14.0768C0.754184 14.3014 0.917622 14.5096 1.10384 14.6966C1.17872 14.7719 1.29888 14.8196 1.4068 14.8425C1.4683 14.8556 1.56568 14.8088 1.60896 14.7582C1.63088 14.7325 1.58447 14.6238 1.54119 14.5775C1.34786 14.3697 1.14456 14.1707 0.933567 13.9534Z" fill="#FCFCFC"/>
<path d="M0.659218 24.0806C0.890138 23.5861 1.29304 23.4031 1.78534 23.5933C2.42343 23.8393 2.97098 24.2048 3.26966 24.84C3.35224 25.0159 3.48492 25.0316 3.6384 24.9765C3.80895 24.9154 3.96897 24.8269 4.13839 24.7618C4.63867 24.5699 5.14094 24.3832 5.64321 24.1962C5.75796 24.1537 5.87555 24.1183 5.96866 24.0874C6.05294 26.7228 7.12241 28.9009 9.14915 30.6438C9.14203 30.6618 9.13491 30.6801 9.12779 30.698C8.8106 30.7226 8.4934 30.7534 8.17593 30.7706C7.63692 30.7997 7.09735 30.8202 6.5854 31.0152C6.52389 31.0386 6.45955 31.0563 6.40174 31.0863C5.72436 31.4372 5.289 31.2199 4.8656 30.7086C4.62158 30.4137 4.40604 30.0965 4.17398 29.7922C3.67427 29.137 3.04131 28.6131 2.40549 28.0938C1.70419 27.5205 1.1091 26.8684 0.773112 26.0242C0.523685 25.3976 0.430861 24.7558 0.659218 24.0806Z" fill="#FCFCFC"/>
<path d="M26.2833 30.8027C25.7694 30.8458 25.2762 30.8886 24.7828 30.9315C24.77 30.9055 24.7574 30.8795 24.7446 30.8535C24.836 30.7376 24.9334 30.6257 25.018 30.5052C25.5943 29.6839 26.0094 28.7957 26.2617 27.8256C26.5185 26.8369 26.8337 25.8631 27.1105 24.8793C27.1711 24.6634 27.1859 24.4333 27.2019 24.2087C27.2087 24.1119 27.2167 24.0599 27.3289 24.0488C27.4265 24.0391 27.531 24.0211 27.6162 23.9768C28.0151 23.7693 28.5535 24.1887 28.5797 24.5821C28.5937 24.7919 28.6056 25.0075 28.5743 25.2139C28.467 25.9205 28.6532 26.6005 28.7332 27.2917C28.8582 28.3712 28.959 29.4532 29.0569 30.5352C29.1253 31.2909 28.1213 32.3401 27.2736 32.2627C27.1597 32.2524 27.043 32.2316 26.9362 32.1928C26.6344 32.0829 26.5501 31.8539 26.6956 31.5713C26.703 31.5567 26.7119 31.5427 26.7193 31.5284C26.92 31.133 26.7509 30.8373 26.2833 30.8027Z" fill="#FBFBFB"/>
<path d="M21.1645 30.8253C20.9988 30.7534 20.8527 30.6845 20.7212 30.6229C21.0916 30.3891 21.4652 30.1804 21.808 29.9308C22.2832 29.5854 22.6343 29.1212 22.988 28.6621C23.8049 27.6015 24.2983 26.3981 24.6004 25.1177C24.7023 24.6863 24.732 24.2375 24.7778 23.795C24.7923 23.6545 24.8214 23.5915 24.9802 23.6029C25.4093 23.6337 25.8421 23.6289 26.2678 23.6814C26.6118 23.7239 26.7778 23.9292 26.7573 24.2729C26.741 24.5441 26.6727 24.8157 26.5993 25.0797C26.3501 25.9765 26.0859 26.8689 25.8322 27.7645C25.4956 28.9522 24.9748 30.0379 24.0626 30.9189C23.8362 31.1376 23.5546 31.1202 23.2949 31.1122C22.5834 31.0911 21.8727 31.0294 21.1645 30.8253Z" fill="#937A96"/>
<path d="M10.8621 1.37618C10.8408 1.21231 10.8106 1.06756 10.8137 0.923671C10.8194 0.657305 11.0153 0.45489 11.2844 0.404643C11.6947 0.328131 12.0836 0.401217 12.4825 0.510276C13.3903 0.758941 14.2482 1.12152 15.0597 1.57717C15.7331 1.95516 16.3914 2.3677 17.0155 2.81849C17.6325 3.26415 18.2011 3.77433 18.7848 4.26309C18.8785 4.3416 18.9406 4.45609 19.0175 4.55401C19.0027 4.57 18.9879 4.5857 18.9728 4.60169C18.7777 4.48178 18.5898 4.34874 18.3865 4.24425C17.5078 3.79346 16.6385 3.31354 15.6693 3.07201C15.2547 2.96866 14.8196 2.93126 14.3911 2.89843C13.9455 2.86417 13.4968 2.85304 13.0566 2.98037C12.972 3.00492 12.8609 2.97152 12.7704 2.94154C12.021 2.69316 11.4005 2.27292 10.9638 1.61714C10.9196 1.55147 10.8994 1.47011 10.8621 1.37618Z" fill="#927995"/>
<path d="M18.0596 1.55859C18.5852 1.91032 18.9588 2.38396 19.2014 2.9538C19.4337 3.4991 19.5909 4.06552 19.6407 4.61109C19.2834 4.24452 18.9027 3.85396 18.5146 3.42772C18.4428 3.04716 18.3904 2.69914 18.309 2.35798C18.2444 2.08704 18.1439 1.82467 18.0596 1.55859Z" fill="#C5A2CA"/>
<path d="M18.3053 3.26686C17.9523 2.99992 17.5995 2.73327 17.2441 2.43151C17.3526 2.11232 17.479 1.83225 17.5676 1.54134C17.6129 1.39259 17.6784 1.33949 17.8247 1.36262C17.8247 1.36262 17.8259 1.3669 17.8207 1.38574C17.8657 1.54819 17.9175 1.69094 17.9654 1.83511C18.1208 2.30303 18.3589 2.75212 18.3053 3.26686Z" fill="#C9A5CE"/>
<path d="M17.3892 1.1543C17.4066 1.15829 17.4239 1.16258 17.449 1.19512C17.3294 1.59139 17.2864 1.99336 17.0011 2.29713C16.7392 2.12155 16.4775 1.94569 16.209 1.74127C16.3103 1.4672 16.5655 1.42494 16.7762 1.33473C16.9704 1.25165 17.1842 1.21282 17.3892 1.1543Z" fill="#C9A5CE"/>
<path d="M29.0403 9.51613C28.9529 9.36082 28.864 9.22436 28.804 9.07676C28.782 9.02309 28.8108 8.92887 28.8509 8.88034C28.8734 8.85293 28.9785 8.86093 29.0255 8.88748C29.3011 9.04393 29.579 9.19866 29.8378 9.3791C29.9472 9.45532 30.0391 9.60035 29.9412 9.73967C29.8407 9.88242 29.6704 9.9084 29.5186 9.83246C29.3529 9.75024 29.2057 9.63262 29.0403 9.51613Z" fill="#D57378"/>
<path d="M28.6343 8.37505C28.6198 8.53293 28.5389 8.50781 28.4626 8.45642C28.1608 8.25286 27.9168 7.57995 28.0287 7.23736C28.0526 7.16456 28.1309 7.05607 28.1833 7.05664C28.2721 7.0575 28.4119 7.11203 28.439 7.17941C28.5249 7.39267 28.5845 7.61992 28.6237 7.8466C28.6528 8.01133 28.6331 8.18434 28.6343 8.37505Z" fill="#D57378"/>
<path d="M29.0793 8.45202C28.9116 8.54024 28.8472 8.48428 28.8996 8.33839C29.0292 7.97696 29.2356 7.66434 29.6177 7.51931C29.7074 7.48534 29.86 7.51018 29.9338 7.56813C29.9896 7.6121 29.9947 7.7597 29.9711 7.84792C29.9238 8.02378 29.8185 8.1651 29.6248 8.23105C29.4455 8.29214 29.2729 8.37265 29.0793 8.45202Z" fill="#C99FA2"/>
<path d="M27.7521 8.3309C27.8985 8.39456 28.028 8.44824 28.1522 8.5119C28.1892 8.53074 28.2117 8.57728 28.2407 8.61097C28.21 8.63381 28.1812 8.6732 28.1482 8.67692C27.7906 8.71803 27.4327 8.76942 27.0736 8.78255C26.9324 8.78769 26.7664 8.71546 26.7869 8.51932C26.8048 8.34631 26.9469 8.26352 27.0987 8.26181C27.3099 8.25952 27.5218 8.30149 27.7521 8.3309Z" fill="#CFBE73"/>
<path d="M27.6997 9.83812C27.5602 9.93205 27.3942 10.0471 27.2911 9.91577C27.2262 9.83298 27.2652 9.618 27.331 9.50209C27.5206 9.16778 27.8481 9.00048 28.2544 8.88086C28.1943 9.2914 28.0021 9.58432 27.6997 9.83812Z" fill="#C99FA2"/>
<path d="M15.7684 1.01369C16.0321 1.01112 16.2957 1.00827 16.587 1.02483C16.6801 1.04167 16.7456 1.0391 16.8108 1.03682C16.8473 1.0391 16.8834 1.04167 16.9338 1.06565C16.8979 1.10562 16.8492 1.12732 16.7983 1.14188C16.4979 1.22867 16.1955 1.31089 16.0491 1.62522C15.7969 1.49161 15.5449 1.358 15.2926 1.22439C15.2895 1.20098 15.2863 1.17756 15.2832 1.15415C15.3803 1.11647 15.4774 1.07878 15.6018 1.05309C15.6756 1.04824 15.722 1.03111 15.7684 1.01369Z" fill="#C5A2CA"/>
<path d="M28.4453 9.40268C28.492 9.38269 28.5657 9.37127 28.566 9.37327C28.6269 9.68646 28.7656 9.99993 28.6326 10.3185C28.5939 10.4116 28.4735 10.4724 28.3906 10.5481C28.3376 10.4761 28.2371 10.4016 28.2408 10.3325C28.2539 10.0913 28.2983 9.8509 28.3422 9.61223C28.3544 9.544 28.4048 9.48233 28.4453 9.40268Z" fill="#CFBE73"/>
<path d="M17.9679 14.3116C17.9818 14.1483 17.9098 14.009 17.8628 13.8639C17.8483 13.8191 17.8326 13.7749 17.8198 13.7246C17.844 13.7355 17.8662 13.7523 17.8899 13.7737C17.9169 13.8608 17.9471 13.9422 17.9667 14.0261C17.9912 14.132 18.0072 14.2399 18.0263 14.3536C18.0072 14.345 17.9887 14.3301 17.9679 14.3116Z" fill="#947B97"/>
<path d="M17.0059 2.31027C17.2866 1.99252 17.3293 1.59054 17.4589 1.20312C17.5787 1.23225 17.6966 1.28078 17.8196 1.3453C17.6781 1.33788 17.6129 1.39098 17.5674 1.54001C17.4785 1.83093 17.3524 2.11071 17.2351 2.41619C17.1562 2.39934 17.0833 2.36194 17.0059 2.31027Z" fill="#947B97"/>
<path d="M16.0508 1.63902C16.1954 1.31098 16.4981 1.22876 16.7985 1.14197C16.8495 1.12741 16.8981 1.10571 16.9517 1.07031C17.0935 1.07659 17.2316 1.10029 17.3796 1.13855C17.1846 1.21192 16.9708 1.25074 16.7769 1.33382C16.5659 1.42404 16.311 1.46629 16.1963 1.7298C16.1436 1.71667 16.098 1.6847 16.0508 1.63902Z" fill="#947B97"/>
<path d="M17.5098 13.6138C17.4941 13.6181 17.4742 13.6189 17.4531 13.6149C17.4696 13.6103 17.4876 13.6103 17.5098 13.6138Z" fill="#947B97"/>
<path d="M15.7519 1.00977C15.7217 1.03232 15.6753 1.04945 15.6206 1.05459C15.6533 1.02946 15.6946 1.0169 15.7519 1.00977Z" fill="#947B97"/>
<path d="M27.7557 7.95312C27.7614 7.9634 27.7506 7.98853 27.725 8.00737C27.7198 7.98995 27.7295 7.97882 27.7557 7.95312Z" fill="white"/>
<path d="M29.3632 10.2159C29.357 10.2047 29.3661 10.1779 29.3906 10.1582C29.3968 10.1768 29.388 10.1885 29.3632 10.2159Z" fill="white"/>
<path d="M22.5723 18.306C22.5643 18.2915 22.5757 18.2589 22.6028 18.2344C22.6096 18.2578 22.6008 18.2729 22.5723 18.306Z" fill="white"/>
<path d="M12.794 5.34881C13.0005 4.94826 13.2621 4.62337 13.6793 4.44665C14.1576 4.24423 14.7923 4.30818 14.9452 4.99194C14.9503 5.01421 14.9688 5.03362 14.9893 5.06845C15.1368 4.98109 15.2801 4.89031 15.4287 4.80951C15.9529 4.52459 16.6812 4.84377 16.8153 5.47386C16.9156 5.94492 16.823 6.39514 16.6553 6.82738C16.456 7.34098 16.1479 7.78407 15.6468 8.07556C15.1926 8.33964 14.6357 8.25685 14.2792 7.86972C14.2465 7.83403 14.1317 7.82375 14.0882 7.85145C13.5375 8.20089 12.7969 8.00704 12.542 7.40779C12.4677 7.23307 12.4316 7.03065 12.4307 6.8408C12.4279 6.32406 12.5457 5.82901 12.794 5.34881ZM14.6753 6.15561C14.6371 6.27038 14.5901 6.38344 14.5622 6.50049C14.4737 6.87249 14.39 7.24078 14.589 7.61306C14.6801 7.7835 14.8094 7.86087 14.9834 7.84403C15.1439 7.82832 15.3102 7.78807 15.4554 7.72069C15.7738 7.57252 15.9933 7.32043 16.1209 7.00096C16.2985 6.55559 16.4637 6.10508 16.4067 5.61346C16.3629 5.23518 16.0411 4.97824 15.7237 5.11128C15.4816 5.21291 15.2524 5.37565 15.0639 5.55722C14.9048 5.71082 14.8117 5.93036 14.6753 6.15561ZM14.4418 4.83378C14.2487 4.71615 14.05 4.72501 13.8464 4.80609C13.5432 4.92685 13.3031 5.12755 13.1522 5.40534C12.8743 5.91609 12.7368 6.46652 12.8046 7.04607C12.8698 7.60164 13.3117 7.79435 13.8256 7.59622C13.933 7.55482 14.0731 7.39894 14.0668 7.30387C14.0269 6.67464 14.3162 6.14105 14.5409 5.5872C14.6442 5.33311 14.6619 5.0873 14.4418 4.83378Z" fill="#131313"/>
<path d="M16.6661 4.60158C16.526 4.70864 16.4161 4.65868 16.3361 4.55133C16.2421 4.42543 16.137 4.34892 15.9687 4.34578C15.9135 4.34492 15.8258 4.27611 15.8144 4.2253C15.8025 4.17191 15.8483 4.08512 15.8964 4.04401C16.0342 3.92581 16.3096 3.9575 16.5157 4.11652C16.6695 4.23472 16.8005 4.37375 16.6661 4.60158Z" fill="#1D1D1D"/>
<path d="M14.389 3.53635C14.5027 3.58859 14.6171 3.62028 14.6815 3.69394C14.7302 3.74961 14.7546 3.88465 14.7182 3.9369C14.6775 3.99542 14.5323 4.04824 14.4745 4.02026C14.3107 3.94147 14.1624 3.89093 13.9799 3.95517C13.9412 3.96887 13.8466 3.91434 13.8258 3.87009C13.8045 3.82384 13.8241 3.74076 13.8557 3.69309C13.9793 3.50694 14.1755 3.51922 14.389 3.53635Z" fill="#1D1D1D"/>
<path d="M14.6819 6.13834C14.8111 5.9305 14.9045 5.71124 15.064 5.55764C15.2525 5.37607 15.4817 5.21334 15.7237 5.1117C16.0412 4.97866 16.3629 5.23532 16.4068 5.61388C16.4637 6.1055 16.2986 6.55601 16.1209 7.00138C15.9934 7.32085 15.7738 7.57294 15.4555 7.72111C15.3103 7.78878 15.144 7.82875 14.9834 7.84445C14.8094 7.86158 14.6802 7.78421 14.589 7.61348C14.39 7.2412 14.4737 6.87291 14.5623 6.50091C14.5902 6.38358 14.6369 6.27081 14.6819 6.13834ZM14.8803 6.73273C15.0406 6.96969 15.2177 7.01223 15.3687 6.81382C15.4771 6.67078 15.5409 6.48521 15.5856 6.30935C15.6226 6.16289 15.5409 6.015 15.3803 6.00301C15.2701 5.99473 15.0956 6.05012 15.0506 6.13091C14.9561 6.29964 14.9282 6.50405 14.8803 6.73273Z" fill="#F5F5F5"/>
<path d="M16.8019 14.7987C16.8642 14.8732 16.8588 14.9494 16.8278 15.0282C16.7597 15.2001 16.6723 15.3654 16.6846 15.5606C16.6863 15.5901 16.6441 15.6386 16.6117 15.6514C16.4565 15.7128 16.323 15.6531 16.303 15.4807C16.2825 15.3008 16.3241 15.1304 16.4081 14.9717C16.4536 14.8855 16.5263 14.8232 16.6179 14.7858C16.6792 14.761 16.7392 14.7581 16.8019 14.7987ZM16.4454 15.2169C16.4394 15.2709 16.4482 15.3245 16.5058 15.3382C16.5342 15.3448 16.5826 15.3263 16.6017 15.3026C16.6461 15.2477 16.6735 15.1798 16.6475 15.1073C16.639 15.083 16.614 15.0508 16.5929 15.0479C16.5658 15.0439 16.5245 15.0576 16.5083 15.0787C16.4801 15.1144 16.4662 15.1618 16.4454 15.2169Z" fill="#F5F5F5"/>
<path d="M14.8768 6.71375C14.8414 6.50134 14.9112 6.26724 15.0504 6.13106C15.1555 6.02856 15.27 5.99487 15.3802 6.00315C15.5408 6.01514 15.5963 6.15903 15.5855 6.30949C15.5712 6.50734 15.5006 6.64295 15.3685 6.81396C15.2164 7.0118 14.9263 7.01237 14.8768 6.71375Z" fill="#131313"/>
<path d="M13.2779 6.17637C13.3451 6.01878 13.3907 5.86575 13.4844 5.74956C13.5385 5.68218 13.6749 5.63822 13.7645 5.65049C13.8346 5.6602 13.9172 5.76355 13.9459 5.84206C14.0313 6.07645 13.9411 6.29485 13.7942 6.47186C13.7309 6.54808 13.5712 6.60861 13.4767 6.58691C13.2859 6.5438 13.2566 6.37051 13.2779 6.17637Z" fill="#131313"/>
<path d="M37.6186 19.6547C37.46 19.6661 37.3353 19.6264 37.2446 19.5357C37.154 19.4337 37.1086 19.3034 37.1086 19.1447V17.9207C37.1086 17.7621 37.154 17.6374 37.2446 17.5467C37.3353 17.4561 37.46 17.4107 37.6186 17.4107L41.9706 17.3937L41.9536 16.4247L39.3356 16.4587C38.6783 16.4701 38.3383 16.1357 38.3156 15.4557L38.2476 11.7327C38.2363 11.3361 38.3156 11.0697 38.4856 10.9337C38.6556 10.7864 38.9163 10.7127 39.2676 10.7127L48.1416 10.6787C48.323 10.6787 48.4646 10.7354 48.5666 10.8487C48.68 10.9507 48.7366 11.0924 48.7366 11.2737V12.3787C48.7366 12.5601 48.68 12.7074 48.5666 12.8207C48.4646 12.9227 48.323 12.9737 48.1416 12.9737L41.2566 13.0247V14.1807L48.2096 14.2147C48.5836 14.2147 48.7706 14.3677 48.7706 14.6737V15.8467C48.7706 16.1641 48.612 16.3227 48.2946 16.3227L44.9796 16.3737L44.9626 17.3767L49.2806 17.3427C49.4393 17.3427 49.564 17.3881 49.6546 17.4787C49.7453 17.5694 49.7906 17.6941 49.7906 17.8527V18.8897C49.7906 19.0484 49.7453 19.1731 49.6546 19.2637C49.564 19.3431 49.4393 19.3884 49.2806 19.3997L37.6186 19.6547ZM40.3726 25.9108C39.9986 25.6161 39.704 25.2648 39.4886 24.8568C39.2846 24.4488 39.1826 23.9898 39.1826 23.4798C39.1826 23.0037 39.2846 22.5617 39.4886 22.1537C39.6926 21.7457 39.9816 21.3944 40.3556 21.0998C40.741 20.7937 41.1943 20.5557 41.7156 20.3857C42.2483 20.2157 42.8376 20.1307 43.4836 20.1307C44.1183 20.1307 44.6963 20.2157 45.2176 20.3857C45.7503 20.5557 46.2036 20.7881 46.5776 21.0827C46.963 21.3774 47.2576 21.7287 47.4616 22.1367C47.677 22.5447 47.7846 22.9924 47.7846 23.4798C47.7846 23.9784 47.677 24.4318 47.4616 24.8398C47.2576 25.2591 46.963 25.6161 46.5776 25.9108C46.2036 26.2054 45.7503 26.4321 45.2176 26.5908C44.6963 26.7494 44.1183 26.8288 43.4836 26.8288C42.849 26.8288 42.2653 26.7494 41.7326 26.5908C41.2113 26.4321 40.758 26.2054 40.3726 25.9108ZM42.1236 23.4798C42.1236 23.8651 42.2766 24.1768 42.5826 24.4148C42.9 24.6528 43.3023 24.7718 43.7896 24.7718C44.2656 24.7718 44.6623 24.6528 44.9796 24.4148C45.297 24.1768 45.4556 23.8651 45.4556 23.4798C45.4556 23.1171 45.2913 22.8111 44.9626 22.5617C44.6453 22.3124 44.2543 22.1877 43.7896 22.1877C43.2796 22.1877 42.8716 22.3124 42.5656 22.5617C42.271 22.8111 42.1236 23.1171 42.1236 23.4798ZM59.2879 24.3298C58.9479 24.3298 58.7779 24.1598 58.7779 23.8198L58.6759 17.5807H56.3979C56.2166 17.5807 56.0693 17.5297 55.9559 17.4277C55.8539 17.3144 55.8029 17.1671 55.8029 16.9857V15.5237C55.8029 15.3424 55.8539 15.2007 55.9559 15.0987C56.0693 14.9854 56.2166 14.9287 56.3979 14.9287H58.6419L58.6079 11.9537C58.6079 11.6137 58.7723 11.4437 59.1009 11.4437H61.0049C61.3449 11.4437 61.5093 11.6137 61.4979 11.9537L61.2939 23.8198C61.2939 24.1598 61.1239 24.3298 60.7839 24.3298H59.2879ZM62.6709 24.3298C62.3309 24.3298 62.1609 24.1598 62.1609 23.8198V11.7837C62.1609 11.4437 62.3253 11.2737 62.6539 11.2737H64.5579C64.8979 11.2737 65.0623 11.4437 65.0509 11.7837L64.6769 23.8198C64.6769 24.1598 64.5069 24.3298 64.1669 24.3298H62.6709ZM54.2729 19.5867C54.7603 19.5867 55.2419 19.5641 55.7179 19.5187C56.1939 19.4734 56.6473 19.4167 57.0779 19.3487C57.2706 19.3147 57.4066 19.3261 57.4859 19.3827C57.5653 19.4281 57.6163 19.5301 57.6389 19.6887L57.8939 21.0998C57.9279 21.2811 57.9109 21.4171 57.8429 21.5077C57.7863 21.5871 57.6843 21.6494 57.5369 21.6947C57.1403 21.7967 56.7266 21.8931 56.2959 21.9837C55.8766 22.0631 55.4459 22.1367 55.0039 22.2047C54.5733 22.2614 54.1426 22.3067 53.7119 22.3407C53.2813 22.3634 52.8733 22.3691 52.4879 22.3577C51.7059 22.3351 51.3093 21.9441 51.2979 21.1847L51.0429 12.5487C51.0203 12.2087 51.1846 12.0387 51.5359 12.0387H53.5759C53.7459 12.0387 53.8649 12.0841 53.9329 12.1747C54.0123 12.2541 54.0576 12.3787 54.0689 12.5487L54.2729 19.5867ZM76.6136 24.3298C76.2736 24.3298 76.1036 24.1598 76.1036 23.8198V11.7837C76.1036 11.4437 76.2679 11.2737 76.5966 11.2737H78.6706C79.0106 11.2737 79.1749 11.4437 79.1636 11.7837L79.0446 15.6597L80.4556 15.6427C80.6369 15.6427 80.7786 15.6994 80.8806 15.8127C80.9939 15.9147 81.0506 16.0564 81.0506 16.2377V17.6317C81.0506 17.8131 80.9939 17.9604 80.8806 18.0737C80.7786 18.1757 80.6369 18.2267 80.4556 18.2267L78.9596 18.2607L78.7896 23.8198C78.7896 24.1598 78.6196 24.3298 78.2796 24.3298H76.6136ZM67.8076 22.4937C67.4902 22.4937 67.2409 22.4031 67.0596 22.2218C66.8782 22.0404 66.7876 21.7911 66.7876 21.4737L66.5666 12.6847C66.5552 12.3674 66.6402 12.1181 66.8216 11.9367C67.0142 11.7554 67.2692 11.6647 67.5866 11.6647L73.5706 11.6307C73.8879 11.6307 74.1372 11.7214 74.3186 11.9027C74.4999 12.0841 74.5849 12.3334 74.5736 12.6507L74.4376 21.4057C74.4262 21.7231 74.3299 21.9724 74.1486 22.1537C73.9786 22.3351 73.7349 22.4257 73.4176 22.4257L67.8076 22.4937ZM69.4906 19.8077L71.7346 19.7907V14.3167L69.4056 14.3507L69.4906 19.8077ZM85.3582 26.2168C85.1316 26.2168 84.9502 26.1431 84.8142 25.9958C84.6782 25.8598 84.6046 25.6784 84.5932 25.4518L84.5422 22.6637C84.5309 22.4371 84.5989 22.2557 84.7462 22.1197C84.8936 21.9837 85.0806 21.9101 85.3072 21.8987L91.5632 21.7797L91.5802 20.9977L84.9332 21.0998C84.7746 21.0998 84.6499 21.0544 84.5592 20.9637C84.4686 20.8617 84.4232 20.7371 84.4232 20.5897V19.5867C84.4232 19.2467 84.5932 19.0767 84.9332 19.0767L93.8582 18.9577C94.1076 18.9464 94.3002 19.0087 94.4362 19.1447C94.5722 19.2807 94.6346 19.4734 94.6232 19.7227L94.5212 22.7147C94.5099 22.9414 94.4362 23.1227 94.3002 23.2587C94.1642 23.3948 93.9829 23.4684 93.7562 23.4798L87.5342 23.5308V24.2448L94.2492 24.3298C94.4079 24.3298 94.5326 24.3751 94.6232 24.4657C94.7139 24.5564 94.7592 24.6811 94.7592 24.8398L94.7422 25.6558C94.7422 25.8144 94.6969 25.9391 94.6062 26.0298C94.5156 26.1204 94.3909 26.1658 94.2322 26.1658L85.3582 26.2168ZM92.4982 18.4647C92.1582 18.4647 91.9882 18.2947 91.9882 17.9547L91.8862 11.2737C91.8862 10.9337 92.0506 10.7637 92.3792 10.7637H94.4532C94.7932 10.7637 94.9576 10.9337 94.9462 11.2737L94.7762 17.9547C94.7536 18.2947 94.5836 18.4647 94.2662 18.4647H92.4982ZM81.3632 17.6317C81.2726 17.5297 81.2272 17.4107 81.2272 17.2747C81.2386 17.1274 81.3236 17.0027 81.4822 16.9007C81.9469 16.5947 82.3832 16.2377 82.7912 15.8297C83.1992 15.4217 83.5562 14.9854 83.8622 14.5207C84.1682 14.0561 84.4119 13.5744 84.5932 13.0757C84.7746 12.5657 84.8766 12.0501 84.8992 11.5287C84.9106 11.2681 84.9786 11.0754 85.1032 10.9507C85.2279 10.8261 85.3866 10.7637 85.5792 10.7637H87.3982C87.6249 10.7637 87.7949 10.8374 87.9082 10.9847C88.0216 11.1207 88.0726 11.3021 88.0612 11.5287C88.0159 12.3107 87.8176 13.0984 87.4662 13.8917C88.0102 14.3677 88.5599 14.7701 89.1152 15.0987C89.6819 15.4161 90.2542 15.7051 90.8322 15.9657C91.0022 16.0451 91.0929 16.1527 91.1042 16.2887C91.1269 16.4134 91.0986 16.5381 91.0192 16.6627L90.0842 18.0227C90.0049 18.1587 89.8972 18.2381 89.7612 18.2607C89.6366 18.2721 89.4949 18.2381 89.3362 18.1587C88.7922 17.8754 88.2539 17.5581 87.7212 17.2067C87.1886 16.8554 86.6842 16.4361 86.2082 15.9487C85.3356 17.0367 84.2872 17.9207 83.0632 18.6007C82.7232 18.7821 82.4456 18.7537 82.2302 18.5157L81.3632 17.6317Z" fill="#856A85"/>
</svg>
