<svg width="42" height="54" viewBox="0 0 42 54" fill="none" xmlns="http://www.w3.org/2000/svg">
<path d="M17.9154 50.8833L17.9168 50.8853C19.407 53.0382 22.5928 53.0383 24.0832 50.8853L24.0846 50.8833C26.4774 47.4145 28.5377 44.4791 30.306 41.9598C33.5343 37.3605 35.7896 34.1473 37.3185 31.6051C38.5206 29.6063 39.3307 27.934 39.8303 26.2469C40.3334 24.5482 40.5 22.9081 40.5 21C40.5 10.2304 31.7696 1.5 21 1.5C10.2304 1.5 1.5 10.2304 1.5 21C1.5 22.9081 1.66661 24.5482 2.16965 26.2469C2.66928 27.934 3.47937 29.6063 4.68149 31.6051C6.21038 34.1473 8.46569 37.3605 11.694 41.9598C13.4623 44.4792 15.5226 47.4145 17.9154 50.8833ZM27 21C27 24.3137 24.3137 27 21 27C17.6863 27 15 24.3137 15 21C15 17.6863 17.6863 15 21 15C24.3137 15 27 17.6863 27 21Z" fill="#EC5E65" stroke="#A0464B" stroke-width="3"/>
</svg>
