<svg width="33" height="33" viewBox="0 0 33 33" fill="none" xmlns="http://www.w3.org/2000/svg">
<path id="Vector" d="M2.65167 22.6897C0.261583 29.7058 0 30.272 0 30.908C0 31.854 0.824167 32.25 1.34196 32.25C1.97263 32.25 2.53879 32.0045 9.53704 29.5768L2.65167 22.6897ZM4.55083 20.7887L11.4416 27.6795L31.725 7.41392C32.0744 7.06454 32.25 6.60767 32.25 6.14721C32.25 5.69033 32.0744 5.23346 31.725 4.88229C30.4852 3.64425 28.604 1.76479 27.3623 0.524959C27.013 0.175584 26.5543 0 26.0956 0C25.6405 0 25.1819 0.175584 24.8307 0.524959L4.55083 20.7887Z" fill="#866A86"/>
</svg>
