<svg width="11" height="15" viewBox="0 0 11 15" fill="none" xmlns="http://www.w3.org/2000/svg">
<path d="M4.93476 14.3708C0.772578 8.33683 0 7.71756 0 5.5C0 2.46242 2.46242 0 5.5 0C8.53758 0 11 2.46242 11 5.5C11 7.71756 10.2274 8.33683 6.06524 14.3708C5.7921 14.7653 5.20787 14.7653 4.93476 14.3708ZM5.5 7.79167C6.76566 7.79167 7.79167 6.76566 7.79167 5.5C7.79167 4.23434 6.76566 3.20833 5.5 3.20833C4.23434 3.20833 3.20833 4.23434 3.20833 5.5C3.20833 6.76566 4.23434 7.79167 5.5 7.79167Z" fill="#9A7B9A"/>
</svg>
