<svg width="28" height="28" viewBox="0 0 28 28" fill="none" xmlns="http://www.w3.org/2000/svg">
<g id="Search">
<path id="Vector" d="M2.33398 10.5002C2.33398 6.00366 6.00414 2.3335 10.5007 2.3335C14.9972 2.3335 18.6673 6.00366 18.6673 10.5002C18.6673 12.5395 17.9067 14.4027 16.6621 15.8368L17.1589 16.3335H18.6673L25.6673 23.3335L23.334 25.6668L16.334 18.6668V17.1584L15.8372 16.6616C14.4032 17.9062 12.54 18.6668 10.5007 18.6668C6.00414 18.6668 2.33398 14.9967 2.33398 10.5002ZM4.66732 10.5002C4.66732 13.7356 7.26517 16.3335 10.5007 16.3335C13.7361 16.3335 16.334 13.7356 16.334 10.5002C16.334 7.26468 13.7361 4.66683 10.5007 4.66683C7.26517 4.66683 4.66732 7.26468 4.66732 10.5002Z" fill="#333333"/>
</g>
</svg>
