<svg width="9" height="14" viewBox="0 0 9 14" fill="none" xmlns="http://www.w3.org/2000/svg">
<g id="&#240;&#159;&#166;&#134; icon &#34;Alternate Map Marker&#34;">
<path id="Vector" d="M4.03753 13.2595C0.632109 7.89966 0 7.34957 0 5.37974C0 2.68149 2.01471 0.494141 4.5 0.494141C6.98529 0.494141 9 2.68149 9 5.37974C9 7.34957 8.36789 7.89966 4.96247 13.2595C4.73899 13.61 4.26098 13.61 4.03753 13.2595ZM4.5 7.4154C5.53554 7.4154 6.375 6.50401 6.375 5.37974C6.375 4.25546 5.53554 3.34407 4.5 3.34407C3.46446 3.34407 2.625 4.25546 2.625 5.37974C2.625 6.50401 3.46446 7.4154 4.5 7.4154Z" fill="white"/>
</g>
</svg>
