<svg width="15" height="16" viewBox="0 0 17 19" fill="none" xmlns="http://www.w3.org/2000/svg">
<path d="M1.31738 17.2188C1.31738 17.6912 1.50505 18.1442 1.8391 18.4783C2.17315 18.8123 2.62622 19 3.09863 19H13.7861C14.2585 19 14.7116 18.8123 15.0457 18.4783C15.3797 18.1442 15.5674 17.6912 15.5674 17.2188V4.75001H1.31738V17.2188ZM11.4111 7.71876C11.4111 7.56128 11.4737 7.41026 11.585 7.29891C11.6964 7.18756 11.8474 7.12501 12.0049 7.12501C12.1624 7.12501 12.3134 7.18756 12.4247 7.29891C12.5361 7.41026 12.5986 7.56128 12.5986 7.71876V16.0313C12.5986 16.1887 12.5361 16.3398 12.4247 16.4511C12.3134 16.5625 12.1624 16.625 12.0049 16.625C11.8474 16.625 11.6964 16.5625 11.585 16.4511C11.4737 16.3398 11.4111 16.1887 11.4111 16.0313V7.71876ZM7.84863 7.71876C7.84863 7.56128 7.91119 7.41026 8.02254 7.29891C8.13389 7.18756 8.28491 7.12501 8.44238 7.12501C8.59986 7.12501 8.75088 7.18756 8.86223 7.29891C8.97358 7.41026 9.03613 7.56128 9.03613 7.71876V16.0313C9.03613 16.1887 8.97358 16.3398 8.86223 16.4511C8.75088 16.5625 8.59986 16.625 8.44238 16.625C8.28491 16.625 8.13389 16.5625 8.02254 16.4511C7.91119 16.3398 7.84863 16.1887 7.84863 16.0313V7.71876ZM4.28613 7.71876C4.28613 7.56128 4.34869 7.41026 4.46004 7.29891C4.57139 7.18756 4.72241 7.12501 4.87988 7.12501C5.03735 7.12501 5.18838 7.18756 5.29973 7.29891C5.41108 7.41026 5.47363 7.56128 5.47363 7.71876V16.0313C5.47363 16.1887 5.41108 16.3398 5.29973 16.4511C5.18838 16.5625 5.03735 16.625 4.87988 16.625C4.72241 16.625 4.57139 16.5625 4.46004 16.4511C4.34869 16.3398 4.28613 16.1887 4.28613 16.0313V7.71876ZM16.1611 1.18751H11.708L11.3592 0.493561C11.2853 0.345203 11.1715 0.220408 11.0305 0.133214C10.8896 0.04602 10.7271 -0.000112366 10.5613 6.50628e-06H6.31973C6.15436 -0.000629197 5.99216 0.0453312 5.85171 0.132622C5.71125 0.219913 5.59823 0.345003 5.52559 0.493561L5.17676 1.18751H0.723633C0.566161 1.18751 0.415138 1.25006 0.303788 1.36141C0.192438 1.47276 0.129883 1.62378 0.129883 1.78126L0.129883 2.96876C0.129883 3.12623 0.192438 3.27725 0.303788 3.3886C0.415138 3.49995 0.566161 3.56251 0.723633 3.56251H16.1611C16.3186 3.56251 16.4696 3.49995 16.581 3.3886C16.6923 3.27725 16.7549 3.12623 16.7549 2.96876V1.78126C16.7549 1.62378 16.6923 1.47276 16.581 1.36141C16.4696 1.25006 16.3186 1.18751 16.1611 1.18751Z" fill="white"/>
</svg>
