<svg width="17" height="19" viewBox="0 0 17 19" fill="none" xmlns="http://www.w3.org/2000/svg">
<g id="&#240;&#159;&#166;&#134; icon &#34;Alternate Trash&#34;">
<path id="Vector" d="M1.1875 17.2188C1.1875 17.6912 1.37517 18.1442 1.70922 18.4783C2.04327 18.8123 2.49633 19 2.96875 19H13.6562C14.1287 19 14.5817 18.8123 14.9158 18.4783C15.2498 18.1442 15.4375 17.6912 15.4375 17.2188V4.75001H1.1875V17.2188ZM11.2812 7.71876C11.2812 7.56128 11.3438 7.41026 11.4552 7.29891C11.5665 7.18756 11.7175 7.12501 11.875 7.12501C12.0325 7.12501 12.1835 7.18756 12.2948 7.29891C12.4062 7.41026 12.4688 7.56128 12.4688 7.71876V16.0313C12.4688 16.1887 12.4062 16.3398 12.2948 16.4511C12.1835 16.5625 12.0325 16.625 11.875 16.625C11.7175 16.625 11.5665 16.5625 11.4552 16.4511C11.3438 16.3398 11.2812 16.1887 11.2812 16.0313V7.71876ZM7.71875 7.71876C7.71875 7.56128 7.78131 7.41026 7.89266 7.29891C8.00401 7.18756 8.15503 7.12501 8.3125 7.12501C8.46997 7.12501 8.62099 7.18756 8.73234 7.29891C8.84369 7.41026 8.90625 7.56128 8.90625 7.71876V16.0313C8.90625 16.1887 8.84369 16.3398 8.73234 16.4511C8.62099 16.5625 8.46997 16.625 8.3125 16.625C8.15503 16.625 8.00401 16.5625 7.89266 16.4511C7.78131 16.3398 7.71875 16.1887 7.71875 16.0313V7.71876ZM4.15625 7.71876C4.15625 7.56128 4.21881 7.41026 4.33016 7.29891C4.4415 7.18756 4.59253 7.12501 4.75 7.12501C4.90747 7.12501 5.0585 7.18756 5.16984 7.29891C5.28119 7.41026 5.34375 7.56128 5.34375 7.71876V16.0313C5.34375 16.1887 5.28119 16.3398 5.16984 16.4511C5.0585 16.5625 4.90747 16.625 4.75 16.625C4.59253 16.625 4.4415 16.5625 4.33016 16.4511C4.21881 16.3398 4.15625 16.1887 4.15625 16.0313V7.71876ZM16.0312 1.18751H11.5781L11.2293 0.493561C11.1554 0.345203 11.0416 0.220408 10.9006 0.133214C10.7597 0.04602 10.5972 -0.000112366 10.4314 6.50628e-06H6.18984C6.02448 -0.000629197 5.86228 0.0453312 5.72182 0.132622C5.58137 0.219913 5.46835 0.345003 5.3957 0.493561L5.04688 1.18751H0.59375C0.436278 1.18751 0.285255 1.25006 0.173905 1.36141C0.0625556 1.47276 0 1.62378 0 1.78126L0 2.96876C0 3.12623 0.0625556 3.27725 0.173905 3.3886C0.285255 3.49995 0.436278 3.56251 0.59375 3.56251H16.0312C16.1887 3.56251 16.3397 3.49995 16.4511 3.3886C16.5624 3.27725 16.625 3.12623 16.625 2.96876V1.78126C16.625 1.62378 16.5624 1.47276 16.4511 1.36141C16.3397 1.25006 16.1887 1.18751 16.0312 1.18751Z" fill="#B3A6B3"/>
</g>
</svg>
