<?xml version="1.0" encoding="utf-8"?>
<!-- Generator: Adobe Illustrator 27.5.0, SVG Export Plug-In . SVG Version: 6.00 Build 0)  -->
<svg version="1.1" id="레이어_1" xmlns="http://www.w3.org/2000/svg" xmlns:xlink="http://www.w3.org/1999/xlink" x="0px"
	 y="0px" viewBox="0 0 243.9 249.8" style="enable-background:new 0 0 243.9 249.8;" xml:space="preserve">
<style type="text/css">
	.st0{fill:#101010;}
	.st1{fill:#FDFDFD;}
	.st2{fill:#947B97;}
	.st3{fill:#FCFCFC;}
	.st4{fill:#FBFBFB;}
	.st5{fill:#937A96;}
	.st6{fill:#927995;}
	.st7{fill:#C5A2CA;}
	.st8{fill:#C9A5CE;}
	.st9{fill:#D57378;}
	.st10{fill:#C99FA2;}
	.st11{fill:#CFBE73;}
	.st12{fill:#FFFFFF;}
	.st13{fill:#131313;}
	.st14{fill:#1D1D1D;}
	.st15{fill:#F5F5F5;}
</style>
<g>
	<path class="st0" d="M212.8,60.7c-0.2-1.9-0.6-3.7-0.5-5.6c0.1-1,0.8-2.1,1.6-2.8c2.3-2,5.2-1.1,6.5,2.2c0.5,1.2,0.7,2.6,1.2,4.2
		c0.5-0.5,0.9-0.8,1.2-1.1c1.8-2.1,4-2.7,6.7-2.1c2.2,0.5,3.4,2.4,2.8,4.5c-0.9,3.3-3.2,5.2-7,6c1.4,1,2.6,1.8,3.7,2.7
		c1.7,1.4,2.8,3.1,2.9,5.2c0.2,3.3-2.6,5-6.7,3.8c-0.3,0.1-0.4,0.3-0.5,0.5c1.2,4.9,2.4,9.7,3.7,14.8c2.1-0.5,4.1-0.8,6-1.3
		c3.5-1,4.9-0.8,7.3,2.9c2.3,3.5,2.6,7.4,1,11.4c-1.1,2.6-1.8,5.4-3,8c-3.3,7.1-8.6,12.7-15.4,16.8c-5,2.9-9.9,5.9-15.6,7.6
		c-7.6,2.3-15.2,3.3-23.1,2.4c-4-0.5-8.1-0.9-12.4-1.4c-0.4,0.2-0.5,0.5-0.5,0.7c0.1,1.3,0.1,2.6,0.3,3.9c0.3,2.3,1.3,3.9,3.3,5.5
		c6.8,5,11.3,11.7,12.8,19.9c0.4,2,0.7,4,0.8,6.1c0.1,1.3,0.5,1.7,1.8,1.7c3,0,6,0.2,9,0.4c2.1,0.2,4.1,0.8,5.6,2.4
		c1.2,1.2,2.6,0.7,3.9,0.3c6-1.9,11.9,2.1,12.1,8.3c0,1,0.1,2,0,3c-1.1,6.1,0.6,12,1.3,17.9c0.9,7.7,1.6,15.4,2.3,23.1
		c0.8,8-7.8,16.7-15.4,17.1c-3.2,0.2-6.1-0.4-8.3-2.9c-1.8-2-1.9-4.2-0.6-6.6c0.2-0.4,0.4-0.9,0.8-1.8c-1.9,0.3-3.4,0.6-4.9,0.6
		c-3.2,0.1-6.4,0-9.7,0.1c-0.8,0-1.6,0.3-2.4,0.6c-1.3,0.4-2.5,1.2-3.7,1.2c-7.3,0.5-14.5-0.5-21.4-2.6c-2-0.6-3.8-1.7-5.7-2.5
		c-0.6-0.3-1.5-0.3-2.2-0.1c-8.6,2.8-17.5,3-26.4,2.1c-9.6-0.9-19.3-1.6-29-0.9c-6.5,0.5-13.1,0.7-19.6,0.3
		c-5.5-0.3-10.6,1.5-16,1.4c-3.1-0.1-6.3,0.9-9.4,1.4c-0.7,0.1-1.3,0.4-1.9,0.7c-5.6,2.6-10.3,1.8-14.4-2.8c-2.4-2.7-4.3-6-6.8-8.7
		c-3.3-3.6-6.8-7-10.5-10.2c-5.2-4.4-10.3-8.9-13.6-14.9c-3.4-6.1-5.1-12.6-3.5-19.5c1.3-5.8,7-9.7,12.1-7.9c3,1,5.9,2.6,8.5,4.4
		c2,1.4,3.4,3.5,5.1,5.2c0.4,0.4,1.3,0.8,1.6,0.6c5.4-3,11.4-4.1,17.1-6.1c0.6-0.2,1.2-0.9,1.4-1.5c1.5-4.8,5-7.2,10-7.9
		c3.3-0.5,5.9-1.8,7-5.3c1.1-3.5,2.2-7,3.9-10.3c1.6-3.2,3.7-6.2,5.9-9c1.4-1.8,1.7-1.5,1.7-4.1c-3,0.4-6,0.7-9,1
		c-7.1,0.8-14.2,0.8-21.3-0.4c-9.5-1.6-18.4-4.6-26.8-9.3c-6.1-3.4-11.8-7.2-15.6-13.1c-3.2-5-4.1-10.3-1.3-15.7
		c1.7-3.3,4.3-4.4,8.1-3.7c4.4,0.9,8.8,1.9,13.3,2.5c10.1,1.2,20.2,1.1,30.2-1c9-1.9,17.9-4.3,26.4-7.7c1.3-0.5,2.6-1.1,3.7-1.8
		c0.5-0.4,1-1.2,1-1.9c0.2-6.3,0.3-12.7,0.4-19c0.1-6.2,1.3-12.2,2.9-18.1c1.9-7.2,4.1-14.3,6.3-21.4c0.7-2.2,1.4-4.4,2.3-6.5
		c0.7-1.5,0.2-1.9-1.1-2.4c-5.1-1.9-9.3-5.1-12.7-9.2c-2.4-3-2.9-6.5-2.2-10.2c0.4-2.3,3.6-4.5,6.4-4.9c5-0.6,9.6,0.7,14.2,2.3
		c3.8,1.3,7.4,2.9,11.1,4.4c0.5,0.2,1.1,0.1,1.7-0.1c2-0.7,4-1.9,6-2c4-0.2,8,0.2,12,0.3c0.6,0,1.5-0.4,1.8-0.8
		c0.8-1.2,1.9-1.4,3.2-1.1c1.3,0.4,1.8,1.4,1.7,2.6c-0.1,1.1,0.2,1.7,1.2,2.4c7.5,5.3,12.6,12.1,13.9,21.1c0.5,3.5,0.5,7,0.7,10.6
		c0.4,9,0.6,18,1.2,27c0.4,5.4,2,10.6,4.5,15.5c0.2,0.5,0.6,1.1,1.1,1.2c4,1.3,6.8,4.3,10,6.6c4.6,3.3,9.3,6.3,15,7.3
		c6.9,1.2,13.9,1.6,20.8,0.1c5.8-1.3,11.7-2.3,17.6-3.4c1.2-0.2,1.5-0.6,1.1-1.8c-1.1-3.7-2-7.4-3.1-11.1c-0.1-0.4-0.5-0.8-0.7-1.2
		c-0.3,0.3-0.7,0.6-1,0.9c-0.8,1.1-1.7,2.1-3.4,1.9c-1.9-0.3-2.7-1.4-3-3.1c-0.1-0.8-0.2-1.6-0.4-2.6c-2.5,1.1-5.1,2.8-7.2-0.1
		c-1.9-2.7,0.1-4.9,1.8-7.3c-0.7-0.1-1.2-0.1-1.7-0.2c-2.6-0.2-4.1-1.3-4.4-3.3c-0.3-2.2,0.8-4.2,3.3-4.7c2-0.4,4.1-0.2,6.5-0.2
		C212.6,61.1,212.7,60.9,212.8,60.7z M136.5,10.2c-0.9-0.4-1.8-0.7-2.9-1.3c-0.1,0-0.3-0.1-0.6-0.3C132,8.4,131,8.2,129.6,8
		c-0.3,0-0.6,0-1-0.2c-0.5,0-0.9,0-1.7-0.1c-2,0-4,0-6.3,0c-0.3,0.1-0.6,0.2-1.2,0.3c-0.7,0.3-1.5,0.6-2.2,0.9c0,0.2,0,0.4,0.1,0.5
		c1.9,1,3.9,2,5.8,3.3c0.3,0.2,0.7,0.5,1.3,0.9c2,1.3,4,2.7,6.1,4.2c0.6,0.3,1.1,0.6,1.8,1.1c2.7,2,5.4,4.1,8.2,6.3
		c0.5,0.4,0.9,0.7,1.5,1.3c2.9,3,5.8,6,8.6,8.8c-0.4-4.2-1.6-8.5-3.4-12.7c-1.9-4.4-4.7-8-8.8-10.9c-0.6-0.4-1.1-0.8-1.7-1.2
		C136.6,10.4,136.6,10.4,136.5,10.2z M178.4,136.9c2.3,0.2,4.7,0.4,7,0.6c7.4,0.8,14.8,0.3,21.8-2.1c4.3-1.5,8.4-3.7,12.5-5.7
		c6.5-3.2,11.8-7.9,15.4-14c2.2-3.9,3.6-8.3,5.1-12.6c0.6-1.8,0.5-3.9-0.6-5.6c-1.4,1.5-2.8,3.1-4.3,4.4c-0.5,0.4-1.9,0.7-2.3,0.4
		c-1-0.7-0.3-1.6,0.4-2.3c1.1-1.2,2.2-2.4,3.2-3.6c0.3-0.4,0.4-1,0.5-1.5c-0.5,0-1.1-0.1-1.6,0c-0.4,0-0.9,0.2-1.3,0.3
		c-8.6,1.7-17.2,3.3-25.8,5.1c-6.9,1.5-13.7,1.7-20.7,0.7c-4.1-0.6-8.2-1.5-11.7-3.7c-4.2-2.6-8.3-5.3-12.1-8.3
		c-3.8-2.9-9.6-4.1-13.6-1.4c-0.6,0.4-1.3,0.7-2.1,0.9c-0.5,0.1-1.1-0.1-1.7-0.1c0.2-0.5,0.2-1.1,0.6-1.4c2.2-1.8,4.4-3.8,7.5-4
		c0.3,0,0.7-0.2,1-0.4c-0.2-0.5-0.3-0.8-0.4-1.1c-2.9-7.2-4.9-14.6-4.6-22.4c0.2-4.5,0.2-9.1,0.2-13.6c0-0.7-0.2-1.6-0.6-2
		c-1.9-1.9-3.7-4-5.9-5.5c-8.9-5.9-18.5-10.5-29.1-12.7c-4.5-0.9-8.9-1.2-13.4-0.1c-1.4,0.3-2.1,1-2.6,2.3c-3,7.8-5.6,15.8-7.7,23.9
		c-2,7.9-3.7,15.8-3.8,24c-0.1,11,0,22-0.3,33c-0.2,5.7-0.7,11.5-1.9,17.1c-1,5-3.1,9.9-4.7,14.8c-0.5,1.5-0.8,3.1-1,4.7
		c-0.2,1.3,0.4,2.4,1.6,3.1c1,0.6,1.9,1.4,2.8,2.2c3.2,2.7,6.4,5.4,10.6,6.6c6.3,1.8,12.7,2.5,19.2,2.8c14.6,0.6,28.9-2.2,43-5.5
		c4.8-1.1,9.3-2.8,13.6-5c-0.3-0.9-0.6-1.6-0.7-2.4c-0.5-2.9-1-5.9-1.2-8.8c-0.1-1.9,0.8-2.4,2.7-2.1
		C173.9,136.1,176,136.5,178.4,136.9z M94,160.2c-1.5-0.6-3.1-1-4.3-1.8c-2.7-1.8-5.3-3.8-7.8-5.9c-1.4-1.1-2.7-2.4-4.6-2.4
		c-0.8,0-2,0.3-2.3,0.8c-1.6,2.7-3.2,5.5-4.5,8.3c-1.2,2.7-2.1,5.6-3.1,8.4c-1.4,4-4.2,6.4-8.5,7c-1.3,0.2-2.6,0.7-3.9,1
		c-1.8,0.4-3,1.4-3.7,3c-1.6,3.6-2.5,7.3-2,11.2c1,6.8,3,13.4,5.8,19.7c3.9,8.8,9.8,16.1,17.3,22.3c1.1,0.9,2.6,2,3.9,2.1
		c4.2,0.3,8.4,0.3,12.6,0.2c7-0.2,14-0.7,21-0.7c4.9,0,9.8,0.7,14.6,1.1c10.5,0.9,20.9,0.8,31-3.1c4.3-1.7,8.4-3.7,11.6-7
		c4.9-5,9.3-10.5,12.1-17c2-4.5,3.5-9.1,5.1-13.7c1.5-4.5,1.6-9.1,2-13.8c0.6-7.5-0.8-14.4-5.3-20.6c-1.6-2.3-3.7-4.3-5.6-6.3
		c-0.9-0.9-2.1-1-3.2-0.3c-4,2.6-8.6,3.6-13.2,4.7c-6.4,1.5-12.9,2.7-19.3,4c-7.3,1.4-14.6,2.1-22,1.9c-3.9-0.1-7.8-0.2-11.6-0.7
		C102.3,162,98.3,161,94,160.2z M7.2,106.8c1.5,1.5,3.1,3.1,4.6,4.7c0.3,0.4,0.7,1.2,0.5,1.4c-0.3,0.4-1.1,0.7-1.5,0.6
		c-0.8-0.2-1.7-0.5-2.3-1.1c-1.4-1.4-2.7-3-4.2-4.7c-0.8,2-1.1,3.9-0.8,5.9c0.7,4.9,3.8,8.5,7.4,11.6c5,4.3,10.7,7.5,16.9,10
		c7.3,3,14.9,5,22.8,5.8c8.6,0.8,17-0.2,25.4-1.6c0.7-0.1,1.6-0.9,1.8-1.5c1.8-5.3,4.1-10.6,5-16.1c1.2-7.6,1.1-15.3,1.6-23
		c0-0.2-0.1-0.3-0.2-0.7c-0.5,0.1-1,0.2-1.4,0.3c-2.9,1-5.8,2.3-8.7,3.1c-10.1,3-20.3,5.6-30.9,6.3c-8.6,0.6-17.2,0.4-25.7-1.2
		c-3.1-0.6-6.1-1.2-9.2-1.7c-0.6-0.1-1.2,0.2-1.8,0.3C6.7,105.6,6.9,106.1,7.2,106.8z M5,184.3c-1.7,5-1,9.9,0.9,14.7
		c2.6,6.5,7.1,11.4,12.5,15.8c4.9,4,9.7,8,13.6,13c1.8,2.3,3.4,4.8,5.3,7c3.2,3.9,6.6,5.6,11.8,2.9c0.4-0.2,0.9-0.4,1.4-0.5
		c3.9-1.5,8.1-1.6,12.2-1.9c2.4-0.1,4.9-0.4,7.3-0.6c0.1-0.1,0.1-0.3,0.2-0.4c-15.5-13.3-23.7-30-24.4-50.1
		c-0.7,0.2-1.6,0.5-2.5,0.8c-3.8,1.4-7.7,2.9-11.5,4.3c-1.3,0.5-2.5,1.2-3.8,1.6c-1.2,0.4-2.2,0.3-2.8-1c-2.3-4.9-6.5-7.7-11.4-9.5
		C9.9,179,6.8,180.4,5,184.3z M201.5,235.6c3.4,0.3,4.7,2.5,3.2,5.6c-0.1,0.1-0.1,0.2-0.2,0.3c-1.1,2.2-0.5,3.9,1.8,4.8
		c0.8,0.3,1.7,0.5,2.6,0.5c6.5,0.6,14.2-7.4,13.7-13.2c-0.8-8.3-1.5-16.6-2.5-24.8c-0.6-5.3-2-10.5-1.2-15.9c0.2-1.6,0.1-3.2,0-4.8
		c-0.2-3-4.3-6.2-7.4-4.6c-0.7,0.3-1.5,0.5-2.2,0.6c-0.9,0.1-0.9,0.5-1,1.2c-0.1,1.7-0.2,3.5-0.7,5.1c-2.1,7.5-4.5,15-6.5,22.5
		c-1.9,7.4-5.1,14.2-9.5,20.5c-0.6,0.9-1.4,1.8-2.1,2.7c0.1,0.2,0.2,0.4,0.3,0.6C193.7,236.3,197.5,235.9,201.5,235.6z M162.3,235.8
		c5.3,1.5,10.7,2,16.2,2.2c2,0.1,4.1,0.2,5.9-1.5c7-6.7,11-15,13.6-24.1c1.9-6.9,4-13.7,5.9-20.5c0.6-2,1.1-4.1,1.2-6.2
		c0.2-2.6-1.1-4.2-3.8-4.5c-3.3-0.4-6.6-0.4-9.9-0.6c-1.2-0.1-1.4,0.4-1.6,1.5c-0.4,3.4-0.6,6.8-1.4,10.1c-2.3,9.8-6.1,19-12.4,27.1
		c-2.7,3.5-5.4,7.1-9,9.7c-2.6,1.9-5.5,3.5-8.3,5.3C159.8,234.7,160.9,235.2,162.3,235.8z M83.3,10.7c0.2,0.6,0.4,1.2,0.7,1.7
		c3.3,5,8.1,8.2,13.8,10.1c0.7,0.2,1.5,0.5,2.2,0.3c3.4-1,6.8-0.9,10.2-0.6c3.3,0.3,6.6,0.5,9.8,1.3c7.4,1.8,14.1,5.5,20.8,9
		c1.6,0.8,3,1.8,4.5,2.7c0.1-0.1,0.2-0.2,0.3-0.4c-0.6-0.7-1.1-1.6-1.8-2.2c-4.5-3.7-8.8-7.6-13.6-11c-4.8-3.4-9.8-6.6-15-9.5
		c-6.2-3.5-12.8-6.3-19.7-8.2c-3.1-0.8-6-1.4-9.2-0.8c-2.1,0.4-3.6,1.9-3.6,4C82.8,8.2,83.1,9.3,83.3,10.7z M222.6,72.9
		c1.2,0.8,2.3,1.7,3.6,2.3c1.2,0.6,2.5,0.4,3.2-0.7c0.8-1.1,0-2.2-0.8-2.8c-2-1.4-4.1-2.6-6.2-3.8c-0.4-0.2-1.2-0.3-1.3-0.1
		c-0.3,0.4-0.5,1.1-0.4,1.5C221.2,70.5,221.8,71.6,222.6,72.9z M219.4,63.9c0-1.3,0.1-2.6-0.1-3.9c-0.3-1.7-0.8-3.5-1.4-5.1
		c-0.2-0.5-1.3-0.9-2-0.9c-0.4,0-1,0.8-1.2,1.4c-0.9,2.6,1,7.8,3.3,9.3C218.7,65.1,219.3,65.3,219.4,63.9z M223,64.6
		c1.3-0.6,2.7-1.2,4-1.6c1.5-0.5,2.3-1.6,2.7-2.9c0.2-0.7,0.1-1.8-0.3-2.1c-0.6-0.4-1.7-0.6-2.4-0.4c-2.9,1.1-4.5,3.5-5.5,6.3
		C221,64.9,221.5,65.3,223,64.6z M212.5,63.7c-1.6-0.2-3.2-0.5-4.9-0.5c-1.2,0-2.3,0.6-2.4,2c-0.2,1.5,1.1,2.1,2.2,2
		c2.8-0.1,5.5-0.5,8.2-0.8c0.3,0,0.5-0.3,0.7-0.5c-0.2-0.3-0.4-0.6-0.7-0.8C214.8,64.6,213.8,64.2,212.5,63.7z M212.4,75.2
		c2.2-1.9,3.7-4.1,4.1-7.2c-3.1,0.9-5.6,2.2-7.1,4.8c-0.5,0.9-0.8,2.5-0.3,3.2C209.9,76.8,211.2,76,212.4,75.2z M217.9,72
		c-0.3,0.5-0.6,1-0.7,1.5c-0.3,1.8-0.7,3.7-0.8,5.5c0,0.5,0.7,1.1,1.1,1.6c0.6-0.6,1.6-1,1.9-1.8c1-2.4,0-4.8-0.5-7.2
		C218.9,71.7,218.3,71.8,217.9,72z"/>
	<path class="st1" d="M178.3,136.9c-2.3-0.4-4.4-0.8-6.5-1.2c-1.9-0.3-2.8,0.2-2.7,2.1c0.2,2.9,0.8,5.9,1.2,8.8
		c0.1,0.8,0.4,1.5,0.7,2.4c-4.3,2.3-8.8,3.9-13.6,5c-14.1,3.3-28.3,6.1-43,5.5c-6.5-0.3-12.9-1-19.2-2.8c-4.2-1.2-7.4-3.9-10.6-6.6
		c-0.9-0.8-1.8-1.5-2.8-2.2c-1.2-0.7-1.8-1.8-1.6-3.1c0.2-1.6,0.5-3.2,1-4.7c1.6-5,3.7-9.8,4.7-14.8c1.1-5.6,1.7-11.4,1.9-17.1
		c0.3-11,0.2-22,0.3-33c0.1-8.2,1.8-16.1,3.8-24c2.1-8.1,4.7-16.1,7.7-23.9c0.5-1.3,1.2-2,2.6-2.3c4.5-1.1,9-0.8,13.4,0.1
		c10.7,2.2,20.2,6.8,29.1,12.7c2.2,1.5,4,3.6,5.9,5.5c0.4,0.4,0.6,1.3,0.6,2c0,4.5,0,9.1-0.2,13.6c-0.3,7.9,1.7,15.2,4.6,22.4
		c0.1,0.3,0.3,0.7,0.4,1.1c-0.4,0.1-0.7,0.3-1,0.4c-3.1,0.2-5.3,2.2-7.5,4c-0.3,0.3-0.4,0.9-0.6,1.4c0.6,0.1,1.2,0.3,1.7,0.1
		c0.7-0.2,1.5-0.5,2.1-0.9c4-2.7,9.8-1.5,13.6,1.4c3.9,3,8,5.7,12.1,8.3c3.5,2.2,7.6,3.1,11.7,3.7c6.9,1,13.8,0.8,20.7-0.7
		c8.6-1.9,17.2-3.4,25.8-5.1c0.4-0.1,0.9-0.3,1.3-0.3c0.5-0.1,1.1,0,1.6,0c-0.2,0.5-0.2,1.1-0.5,1.5c-1,1.3-2.1,2.5-3.2,3.6
		c-0.7,0.7-1.4,1.6-0.4,2.3c0.4,0.3,1.8,0.1,2.3-0.4c1.5-1.3,2.9-2.9,4.3-4.4c1.1,1.7,1.2,3.8,0.6,5.6c-1.5,4.3-2.9,8.7-5.1,12.6
		c-3.5,6.2-8.8,10.8-15.4,14c-4.1,2-8.2,4.2-12.5,5.7c-7,2.5-14.4,2.9-21.8,2.1C183.1,137.3,180.8,137.1,178.3,136.9z M98,41
		c-1.8,3.6-2.7,7.3-2.7,11.3c0,1.5,0.3,3,0.9,4.3c2,4.6,7.6,6.1,11.8,3.4c0.3-0.2,1.2-0.1,1.5,0.1c2.7,3,7,3.6,10.5,1.6
		c3.8-2.2,6.2-5.6,7.7-9.5c1.3-3.3,2-6.7,1.2-10.4c-1-4.8-6.6-7.3-10.6-5.1c-1.1,0.6-2.2,1.3-3.4,2c-0.2-0.3-0.3-0.4-0.3-0.6
		c-1.2-5.2-6-5.7-9.7-4.2C101.6,35.4,99.6,37.8,98,41z M127.8,35.1c1-1.6,0-2.7-1.2-3.6c-1.6-1.2-3.7-1.5-4.7-0.6
		c-0.4,0.3-0.7,1-0.6,1.4c0.1,0.4,0.8,0.9,1.2,0.9c1.3,0,2.1,0.6,2.8,1.6C125.8,35.6,126.6,36,127.8,35.1z M110.1,27
		c-1.5-0.1-3-0.2-3.9,1.2c-0.2,0.4-0.4,1-0.2,1.4c0.2,0.3,0.9,0.8,1.2,0.7c1.4-0.5,2.5-0.1,3.8,0.5c0.4,0.2,1.6-0.2,1.9-0.6
		c0.3-0.4,0.1-1.4-0.3-1.9C112,27.7,111.1,27.4,110.1,27z"/>
	<path class="st2" d="M94.2,160.2c4.1,0.8,8.1,1.8,12.1,2.3c3.8,0.5,7.7,0.6,11.6,0.7c7.4,0.1,14.7-0.5,22-1.9
		c6.5-1.3,12.9-2.5,19.3-4c4.6-1,9.2-2,13.2-4.7c1.1-0.7,2.3-0.6,3.2,0.3c1.9,2,4,4,5.6,6.3c4.5,6.2,5.9,13.1,5.3,20.6
		c-0.4,4.6-0.4,9.3-2,13.8c-1.6,4.6-3.2,9.3-5.1,13.7c-2.8,6.5-7.2,11.9-12.1,17c-3.2,3.3-7.3,5.3-11.6,7c-10.1,4-20.4,4-31,3.1
		c-4.9-0.4-9.8-1.1-14.6-1.1c-7,0-14,0.6-21,0.7c-4.2,0.1-8.4,0.1-12.6-0.2c-1.4-0.1-2.8-1.1-3.9-2.1c-7.5-6.2-13.4-13.4-17.3-22.3
		c-2.8-6.4-4.9-12.9-5.8-19.7c-0.5-3.9,0.4-7.7,2-11.2c0.7-1.5,1.9-2.6,3.7-3c1.3-0.3,2.6-0.8,3.9-1c4.3-0.7,7.1-3,8.5-7
		c1-2.8,1.9-5.7,3.1-8.4c1.3-2.9,2.8-5.6,4.5-8.3c0.3-0.5,1.5-0.8,2.3-0.8c1.9,0,3.2,1.3,4.6,2.4c2.5,2,5.1,4.1,7.8,5.9
		C91,159.2,92.6,159.6,94.2,160.2z"/>
	<path class="st3" d="M7.2,106.7c-0.3-0.6-0.5-1.1-0.7-1.6c0.6-0.1,1.2-0.4,1.8-0.3c3.1,0.5,6.1,1.1,9.2,1.7
		c8.5,1.6,17.1,1.8,25.7,1.2c10.6-0.7,20.8-3.3,30.9-6.3c3-0.9,5.8-2.1,8.7-3.1c0.5-0.2,0.9-0.2,1.4-0.3c0.1,0.3,0.2,0.5,0.2,0.7
		c-0.5,7.7-0.5,15.4-1.6,23c-0.8,5.5-3.2,10.8-5,16.1c-0.2,0.6-1.1,1.4-1.8,1.5c-8.4,1.4-16.9,2.4-25.4,1.6
		c-7.9-0.7-15.5-2.8-22.8-5.8c-6.1-2.5-11.9-5.7-16.9-10c-3.6-3.1-6.6-6.7-7.4-11.6c-0.3-2,0-3.9,0.8-5.9c1.5,1.7,2.7,3.3,4.2,4.7
		c0.6,0.6,1.5,0.9,2.3,1.1c0.5,0.1,1.2-0.3,1.5-0.6c0.2-0.2-0.2-1-0.5-1.4C10.3,109.9,8.8,108.4,7.2,106.7z"/>
	<path class="st3" d="M5.1,184.2c1.8-3.8,4.9-5.2,8.6-3.7c4.9,1.9,9.1,4.7,11.4,9.5c0.6,1.3,1.6,1.5,2.8,1c1.3-0.5,2.5-1.1,3.8-1.6
		c3.8-1.5,7.7-2.9,11.5-4.3c0.9-0.3,1.8-0.6,2.5-0.8c0.6,20.2,8.8,36.8,24.4,50.1c-0.1,0.1-0.1,0.3-0.2,0.4
		c-2.4,0.2-4.9,0.4-7.3,0.6c-4.1,0.2-8.3,0.4-12.2,1.9c-0.5,0.2-1,0.3-1.4,0.5c-5.2,2.7-8.5,1-11.8-2.9c-1.9-2.3-3.5-4.7-5.3-7
		c-3.8-5-8.7-9-13.6-13c-5.4-4.4-9.9-9.4-12.5-15.8C4,194.3,3.3,189.3,5.1,184.2z"/>
	<path class="st4" d="M201.4,235.6c-3.9,0.3-7.7,0.7-11.5,1c-0.1-0.2-0.2-0.4-0.3-0.6c0.7-0.9,1.4-1.7,2.1-2.7
		c4.4-6.3,7.6-13.1,9.5-20.5c2-7.6,4.4-15,6.5-22.5c0.5-1.7,0.6-3.4,0.7-5.1c0.1-0.7,0.1-1.1,1-1.2c0.7-0.1,1.5-0.2,2.2-0.6
		c3.1-1.6,7.2,1.6,7.4,4.6c0.1,1.6,0.2,3.3,0,4.8c-0.8,5.4,0.6,10.6,1.2,15.9c1,8.3,1.7,16.5,2.5,24.8c0.5,5.8-7.2,13.8-13.7,13.2
		c-0.9-0.1-1.8-0.2-2.6-0.5c-2.3-0.8-3-2.6-1.8-4.8c0.1-0.1,0.1-0.2,0.2-0.3C206.3,238.1,205,235.9,201.4,235.6z"/>
	<path class="st5" d="M162.2,235.8c-1.3-0.6-2.4-1.1-3.4-1.5c2.8-1.8,5.7-3.4,8.3-5.3c3.6-2.6,6.3-6.2,9-9.7
		c6.3-8.1,10-17.3,12.4-27.1c0.8-3.3,1-6.7,1.4-10.1c0.1-1.1,0.3-1.6,1.6-1.5c3.3,0.2,6.6,0.2,9.9,0.6c2.6,0.3,3.9,1.9,3.8,4.5
		c-0.1,2.1-0.6,4.2-1.2,6.2c-1.9,6.9-3.9,13.7-5.9,20.5c-2.6,9.1-6.6,17.4-13.6,24.1c-1.7,1.7-3.9,1.5-5.9,1.5
		C173,237.8,167.6,237.3,162.2,235.8z"/>
	<path class="st6" d="M83.2,10.5c-0.2-1.3-0.4-2.4-0.4-3.5c0-2,1.5-3.6,3.6-4c3.1-0.6,6.1,0,9.2,0.8c7,1.9,13.5,4.7,19.7,8.2
		c5.2,2.9,10.2,6,15,9.5c4.7,3.4,9.1,7.3,13.6,11c0.7,0.6,1.2,1.5,1.8,2.2c-0.1,0.1-0.2,0.2-0.3,0.4c-1.5-0.9-2.9-1.9-4.5-2.7
		c-6.7-3.4-13.4-7.1-20.8-9c-3.2-0.8-6.5-1.1-9.8-1.3c-3.4-0.3-6.9-0.3-10.2,0.6c-0.6,0.2-1.5-0.1-2.2-0.3
		c-5.7-1.9-10.5-5.1-13.8-10.1C83.7,11.9,83.5,11.2,83.2,10.5z"/>
	<path class="st7" d="M133.7,8.1c3.9-2.8,12.3,10.7,13.4,13.9c1.1,3.1,7.3,10.9,3.4,12.7c-3.6,1.6-9.8-4.8-10.2-8.5
		c-0.3-2.9,0.7-6.8,0-8.7C139.7,15.9,131.9,9.3,133.7,8.1z"/>
	<path class="st8" d="M140.3,26.1c-2.7-2-7.3-5.3-10-7.6c0.8-2.4,1.8-4.6,2.5-6.8c0.3-1.1,0.8-1.5,2-1.4c0,0,0,0,0,0.2
		c2.3-0.8,2.3,0.2,3.5,2.9C139.9,17.5,142.6,22.7,140.3,26.1z"/>
	<path class="st8" d="M132.6,8.2c0.1,0,1.3-0.3,1.3,0c0.6,3.1-2.3,8.3-4.5,10.6c-2-1.3-4.7-2.7-6.8-4.3c0.8-2.1,1.1-2.8,2.7-3.5
		C126.9,10.5,133.1,7.2,132.6,8.2z"/>
	<path class="st9" d="M222.5,72.8c-0.7-1.2-1.4-2.2-1.8-3.4c-0.2-0.4,0.1-1.1,0.4-1.5c0.2-0.2,1-0.1,1.3,0.1
		c2.1,1.2,4.2,2.4,6.2,3.8c0.8,0.6,1.5,1.7,0.8,2.8c-0.8,1.1-2.1,1.3-3.2,0.7C224.9,74.6,223.8,73.7,222.5,72.8z"/>
	<path class="st9" d="M219.4,64.1c-0.1,1.2-0.7,1-1.3,0.6c-2.3-1.6-4.2-6.7-3.3-9.3c0.2-0.6,0.8-1.4,1.2-1.4c0.7,0,1.8,0.4,2,0.9
		c0.7,1.6,1.1,3.4,1.4,5.1C219.5,61.3,219.4,62.6,219.4,64.1z"/>
	<path class="st10" d="M222.8,64.6c-1.3,0.7-1.8,0.2-1.4-0.9c1-2.8,2.6-5.2,5.5-6.3c0.7-0.3,1.9-0.1,2.4,0.4
		c0.4,0.3,0.5,1.5,0.3,2.1c-0.4,1.3-1.2,2.4-2.7,2.9C225.6,63.4,224.3,64,222.8,64.6z"/>
	<path class="st11" d="M212.6,63.7c1.1,0.5,2.1,0.9,3.1,1.4c0.3,0.1,0.5,0.5,0.7,0.8c-0.2,0.2-0.5,0.5-0.7,0.5
		c-2.7,0.3-5.5,0.7-8.2,0.8c-1.1,0-2.4-0.5-2.2-2c0.1-1.3,1.2-2,2.4-2C209.3,63.2,210.9,63.5,212.6,63.7z"/>
	<path class="st10" d="M212.2,75.2c-1.1,0.7-2.3,1.6-3.1,0.6c-0.5-0.6-0.2-2.3,0.3-3.2c1.5-2.6,4-3.8,7.1-4.8
		C216,71.1,214.6,73.3,212.2,75.2z"/>
	<path class="st7" d="M118.3,7.7c1.2-1.6,14.1-1.9,14.8,0.5c0.1,0.4-4.5,1.3-4.9,1.4c-2.3,0.7-3.2,2.9-5.7,3.7
		c-2,0.7-5.4-1.5-5.9-3.6C117.3,8.8,117.3,8.1,118.3,7.7z"/>
	<path class="st11" d="M218,71.9c0.4-0.2,0.9-0.2,0.9-0.2c0.5,2.4,1.5,4.8,0.5,7.2c-0.3,0.7-1.2,1.2-1.9,1.8
		c-0.4-0.6-1.2-1.1-1.1-1.6c0.1-1.8,0.4-3.7,0.8-5.5C217.3,73,217.6,72.5,218,71.9z"/>
	<path class="st2" d="M140.3,25.1c0.4-4-1.5-7.5-2.7-11c-0.4-1.1-0.8-2.2-1.1-3.4c0.6,0.3,1.2,0.7,1.8,1.2c0.7,2.1,1.5,4.2,1.9,6.2
		c0.6,2.6,1,5.3,1.5,8.1C141.3,25.9,140.8,25.5,140.3,25.1z"/>
	<path class="st2" d="M130.3,17.7c2.2-2.4,2.5-5.5,3.5-8.5c0.9,0.2,1.8,0.6,2.8,1.1c-1.1-0.1-1.6,0.3-1.9,1.5
		c-0.7,2.2-1.6,4.4-2.5,6.7C131.5,18.4,130.9,18.1,130.3,17.7z"/>
	<path class="st2" d="M123,12.5c1.1-2.5,3.4-3.1,5.7-3.8c0.4-0.1,0.8-0.3,1.2-0.5c1.1,0,2.1,0.2,3.3,0.5c-1.5,0.6-3.1,0.9-4.6,1.5
		c-1.6,0.7-3.6,1-4.4,3C123.7,13.1,123.3,12.9,123,12.5z"/>
	<path class="st2" d="M128.7,7.8c-0.4,0.1-0.9,0.1-1.4,0C127.7,7.8,128.1,7.8,128.7,7.8z"/>
	<path class="st2" d="M120.7,7.7c-0.2,0.2-0.6,0.3-1,0.3C119.9,7.9,120.3,7.8,120.7,7.7z"/>
	<path class="st12" d="M212.7,60.8c0,0.1,0,0.3-0.2,0.4C212.4,61.1,212.5,61,212.7,60.8z"/>
	<path class="st12" d="M225,78.1c0-0.1,0-0.3,0.2-0.4C225.2,77.8,225.2,77.9,225,78.1z"/>
	<path class="st12" d="M173,140c-0.1-0.1,0-0.4,0.2-0.5C173.2,139.6,173.2,139.8,173,140z"/>
	<path class="st13" d="M98,40.9c1.6-3.1,3.6-5.5,6.8-6.9c3.7-1.5,8.5-1.1,9.7,4.2c0,0.2,0.2,0.3,0.3,0.6c1.1-0.7,2.2-1.4,3.4-2
		c4-2.2,9.6,0.3,10.6,5.1c0.8,3.6,0.1,7-1.2,10.4c-1.5,3.9-3.9,7.3-7.7,9.5c-3.5,2-7.7,1.4-10.5-1.6c-0.3-0.3-1.1-0.4-1.5-0.1
		c-4.2,2.7-9.9,1.2-11.8-3.4c-0.6-1.3-0.8-2.9-0.9-4.3C95.2,48.4,96.1,44.6,98,40.9z M112.4,47.1c-0.3,0.9-0.7,1.7-0.9,2.6
		c-0.7,2.8-1.3,5.7,0.2,8.5c0.7,1.3,1.7,1.9,3,1.8c1.2-0.1,2.5-0.4,3.6-0.9c2.4-1.1,4.1-3.1,5.1-5.5c1.4-3.4,2.6-6.9,2.2-10.6
		c-0.3-2.9-2.8-4.9-5.2-3.8c-1.9,0.8-3.6,2-5.1,3.4C114.2,43.7,113.5,45.4,112.4,47.1z M110.7,37c-1.5-0.9-3-0.8-4.6-0.2
		c-2.3,0.9-4.2,2.5-5.3,4.6c-2.1,3.9-3.2,8.1-2.7,12.5c0.5,4.2,3.9,5.7,7.8,4.2c0.8-0.3,1.9-1.5,1.8-2.2c-0.3-4.8,1.9-8.9,3.6-13.1
		C112.2,40.8,112.3,38.9,110.7,37z"/>
	<path class="st14" d="M127.7,35.2c-1.1,0.8-1.9,0.4-2.5-0.4c-0.7-1-1.5-1.5-2.8-1.6c-0.4,0-1.1-0.5-1.2-0.9
		c-0.1-0.4,0.3-1.1,0.6-1.4c1.1-0.9,3.2-0.7,4.7,0.6C127.7,32.4,128.7,33.5,127.7,35.2z"/>
	<path class="st14" d="M110.3,27.1c0.9,0.4,1.7,0.6,2.2,1.2c0.4,0.4,0.6,1.5,0.3,1.9c-0.3,0.4-1.4,0.9-1.9,0.6
		c-1.3-0.6-2.4-1-3.8-0.5c-0.3,0.1-1-0.3-1.2-0.7c-0.2-0.4,0-1,0.2-1.4C107.1,26.8,108.6,26.9,110.3,27.1z"/>
	<path class="st15" d="M112.5,47c1-1.6,1.7-3.3,2.9-4.4c1.4-1.4,3.2-2.6,5.1-3.4c2.4-1,4.9,0.9,5.2,3.8c0.4,3.8-0.8,7.2-2.2,10.6
		c-1,2.4-2.7,4.4-5.1,5.5c-1.1,0.5-2.4,0.8-3.6,0.9c-1.3,0.1-2.3-0.5-3-1.8c-1.5-2.8-0.9-5.7-0.2-8.5C111.8,48.8,112.2,48,112.5,47z
		 M114,51.5c1.2,1.8,2.6,2.1,3.7,0.6c0.8-1.1,1.3-2.5,1.7-3.9c0.3-1.1-0.3-2.3-1.6-2.3c-0.8-0.1-2.2,0.4-2.5,1
		C114.6,48.2,114.4,49.7,114,51.5z"/>
	<path class="st15" d="M110.8,37.1c1.6,1.8,1.4,3.7,0.7,5.7c-1.7,4.2-3.9,8.3-3.6,13.1c0,0.7-1,1.9-1.8,2.2c-3.9,1.5-7.3,0-7.8-4.2
		c-0.5-4.4,0.5-8.6,2.7-12.5c1.2-2.1,3-3.7,5.3-4.6C107.7,36.1,109.2,36.1,110.8,37.1z M101.7,47.4c-0.2,1.3,0.1,2.7,1.5,3
		c0.7,0.2,1.9-0.3,2.4-0.9c1.1-1.4,1.8-3,1.2-4.8c-0.2-0.6-0.9-1.4-1.4-1.5c-0.7-0.1-1.7,0.2-2.1,0.8
		C102.6,44.9,102.3,46,101.7,47.4z"/>
	<path class="st13" d="M114,51.3c0.4-1.6,0.6-3.2,1.3-4.5c0.3-0.6,1.7-1,2.5-1c1.2,0.1,1.9,1.2,1.6,2.3c-0.3,1.3-0.8,2.8-1.7,3.9
		C116.6,53.6,115.2,53.3,114,51.3z"/>
	<path class="st13" d="M101.7,47.2c0-1.3,0.9-2.4,1.6-3.3c0.4-0.5,1.5-0.9,2.1-0.8c0.5,0.1,1.2,0.9,1.4,1.5c0.7,1.8,0,3.5-1.2,4.8
		c-0.5,0.6-1.7,1-2.4,0.9C101.8,50,101.7,48.8,101.7,47.2z"/>
	<path class="st0" d="M212.8,60.7c-0.2-1.9-0.6-3.7-0.5-5.6c0.1-1,0.8-2.1,1.6-2.8c2.3-2,5.2-1.1,6.5,2.2c0.5,1.2,0.7,2.6,1.2,4.2
		c0.5-0.5,0.9-0.8,1.2-1.1c1.8-2.1,4-2.7,6.7-2.1c2.2,0.5,3.4,2.4,2.8,4.5c-0.9,3.3-3.2,5.2-7,6c1.4,1,2.6,1.8,3.7,2.7
		c1.7,1.4,2.8,3.1,2.9,5.2c0.2,3.3-2.6,5-6.7,3.8c-0.3,0.1-0.4,0.3-0.5,0.5c1.2,4.9,2.4,9.7,3.7,14.8c2.1-0.5,4.1-0.8,6-1.3
		c3.5-1,4.9-0.8,7.3,2.9c2.3,3.5,2.6,7.4,1,11.4c-1.1,2.6-1.8,5.4-3,8c-3.3,7.1-8.6,12.7-15.4,16.8c-5,2.9-9.9,5.9-15.6,7.6
		c-7.6,2.3-15.2,3.3-23.1,2.4c-4-0.5-8.1-0.9-12.4-1.4c-0.4,0.2-0.5,0.5-0.5,0.7c0.1,1.3,0.1,2.6,0.3,3.9c0.3,2.3,1.3,3.9,3.3,5.5
		c6.8,5,11.3,11.7,12.8,19.9c0.4,2,0.7,4,0.8,6.1c0.1,1.3,0.5,1.7,1.8,1.7c3,0,6,0.2,9,0.4c2.1,0.2,4.1,0.8,5.6,2.4
		c1.2,1.2,2.6,0.7,3.9,0.3c6-1.9,11.9,2.1,12.1,8.3c0,1,0.1,2,0,3c-1.1,6.1,0.6,12,1.3,17.9c0.9,7.7,1.6,15.4,2.3,23.1
		c0.8,8-7.8,16.7-15.4,17.1c-3.2,0.2-6.1-0.4-8.3-2.9c-1.8-2-1.9-4.2-0.6-6.6c0.2-0.4,0.4-0.9,0.8-1.8c-1.9,0.3-3.4,0.6-4.9,0.6
		c-3.2,0.1-6.4,0-9.7,0.1c-0.8,0-1.6,0.3-2.4,0.6c-1.3,0.4-2.5,1.2-3.7,1.2c-7.3,0.5-14.5-0.5-21.4-2.6c-2-0.6-3.8-1.7-5.7-2.5
		c-0.6-0.3-1.5-0.3-2.2-0.1c-8.6,2.8-17.5,3-26.4,2.1c-9.6-0.9-19.3-1.6-29-0.9c-6.5,0.5-13.1,0.7-19.6,0.3
		c-5.5-0.3-10.6,1.5-16,1.4c-3.1-0.1-6.3,0.9-9.4,1.4c-0.7,0.1-1.3,0.4-1.9,0.7c-5.6,2.6-10.3,1.8-14.4-2.8c-2.4-2.7-4.3-6-6.8-8.7
		c-3.3-3.6-6.8-7-10.5-10.2c-5.2-4.4-10.3-8.9-13.6-14.9c-3.4-6.1-5.1-12.6-3.5-19.5c1.3-5.8,7-9.7,12.1-7.9c3,1,5.9,2.6,8.5,4.4
		c2,1.4,3.4,3.5,5.1,5.2c0.4,0.4,1.3,0.8,1.6,0.6c5.4-3,11.4-4.1,17.1-6.1c0.6-0.2,1.2-0.9,1.4-1.5c1.5-4.8,5-7.2,10-7.9
		c3.3-0.5,5.9-1.8,7-5.3c1.1-3.5,2.2-7,3.9-10.3c1.6-3.2,3.7-6.2,5.9-9c1.4-1.8,1.7-1.5,1.7-4.1c-3,0.4-6,0.7-9,1
		c-7.1,0.8-14.2,0.8-21.3-0.4c-9.5-1.6-18.4-4.6-26.8-9.3c-6.1-3.4-11.8-7.2-15.6-13.1c-3.2-5-4.1-10.3-1.3-15.7
		c1.7-3.3,4.3-4.4,8.1-3.7c4.4,0.9,8.8,1.9,13.3,2.5c10.1,1.2,20.2,1.1,30.2-1c9-1.9,17.9-4.3,26.4-7.7c1.3-0.5,2.6-1.1,3.7-1.8
		c0.5-0.4,1-1.2,1-1.9c0.2-6.3,0.3-12.7,0.4-19c0.1-6.2,1.3-12.2,2.9-18.1c1.9-7.2,4.1-14.3,6.3-21.4c0.7-2.2,1.4-4.4,2.3-6.5
		c0.7-1.5,0.2-1.9-1.1-2.4c-5.1-1.9-9.3-5.1-12.7-9.2c-2.4-3-2.9-6.5-2.2-10.2c0.4-2.3,3.6-4.5,6.4-4.9c5-0.6,9.6,0.7,14.2,2.3
		c3.8,1.3,7.4,2.9,11.1,4.4c0.5,0.2,1.1,0.1,1.7-0.1c2-0.7,4-1.9,6-2c4-0.2,8,0.2,12,0.3c0.6,0,1.5-0.4,1.8-0.8
		c0.8-1.2,1.9-1.4,3.2-1.1c1.3,0.4,1.8,1.4,1.7,2.6c-0.1,1.1,0.2,1.7,1.2,2.4c7.5,5.3,12.6,12.1,13.9,21.1c0.5,3.5,0.5,7,0.7,10.6
		c0.4,9,0.6,18,1.2,27c0.4,5.4,2,10.6,4.5,15.5c0.2,0.5,0.6,1.1,1.1,1.2c4,1.3,6.8,4.3,10,6.6c4.6,3.3,9.3,6.3,15,7.3
		c6.9,1.2,13.9,1.6,20.8,0.1c5.8-1.3,11.7-2.3,17.6-3.4c1.2-0.2,1.5-0.6,1.1-1.8c-1.1-3.7-2-7.4-3.1-11.1c-0.1-0.4-0.5-0.8-0.7-1.2
		c-0.3,0.3-0.7,0.6-1,0.9c-0.8,1.1-1.7,2.1-3.4,1.9c-1.9-0.3-2.7-1.4-3-3.1c-0.1-0.8-0.2-1.6-0.4-2.6c-2.5,1.1-5.1,2.8-7.2-0.1
		c-1.9-2.7,0.1-4.9,1.8-7.3c-0.7-0.1-1.2-0.1-1.7-0.2c-2.6-0.2-4.1-1.3-4.4-3.3c-0.3-2.2,0.8-4.2,3.3-4.7c2-0.4,4.1-0.2,6.5-0.2
		C212.6,61.1,212.7,60.9,212.8,60.7z M136.5,10.2c-0.9-0.4-1.8-0.7-2.9-1.3c-0.1,0-0.3-0.1-0.6-0.3C132,8.4,131,8.2,129.6,8
		c-0.3,0-0.6,0-1-0.2c-0.5,0-0.9,0-1.7-0.1c-2,0-4,0-6.3,0c-0.3,0.1-0.6,0.2-1.2,0.3c-0.7,0.3-1.5,0.6-2.2,0.9c0,0.2,0,0.4,0.1,0.5
		c1.9,1,3.9,2,5.8,3.3c0.3,0.2,0.7,0.5,1.3,0.9c2,1.3,4,2.7,6.1,4.2c0.6,0.3,1.1,0.6,1.8,1.1c2.7,2,5.4,4.1,8.2,6.3
		c0.5,0.4,0.9,0.7,1.5,1.3c2.9,3,5.8,6,8.6,8.8c-0.4-4.2-1.6-8.5-3.4-12.7c-1.9-4.4-4.7-8-8.8-10.9c-0.6-0.4-1.1-0.8-1.7-1.2
		C136.6,10.4,136.6,10.4,136.5,10.2z M178.4,136.9c2.3,0.2,4.7,0.4,7,0.6c7.4,0.8,14.8,0.3,21.8-2.1c4.3-1.5,8.4-3.7,12.5-5.7
		c6.5-3.2,11.8-7.9,15.4-14c2.2-3.9,3.6-8.3,5.1-12.6c0.6-1.8,0.5-3.9-0.6-5.6c-1.4,1.5-2.8,3.1-4.3,4.4c-0.5,0.4-1.9,0.7-2.3,0.4
		c-1-0.7-0.3-1.6,0.4-2.3c1.1-1.2,2.2-2.4,3.2-3.6c0.3-0.4,0.4-1,0.5-1.5c-0.5,0-1.1-0.1-1.6,0c-0.4,0-0.9,0.2-1.3,0.3
		c-8.6,1.7-17.2,3.3-25.8,5.1c-6.9,1.5-13.7,1.7-20.7,0.7c-4.1-0.6-8.2-1.5-11.7-3.7c-4.2-2.6-8.3-5.3-12.1-8.3
		c-3.8-2.9-9.6-4.1-13.6-1.4c-0.6,0.4-1.3,0.7-2.1,0.9c-0.5,0.1-1.1-0.1-1.7-0.1c0.2-0.5,0.2-1.1,0.6-1.4c2.2-1.8,4.4-3.8,7.5-4
		c0.3,0,0.7-0.2,1-0.4c-0.2-0.5-0.3-0.8-0.4-1.1c-2.9-7.2-4.9-14.6-4.6-22.4c0.2-4.5,0.2-9.1,0.2-13.6c0-0.7-0.2-1.6-0.6-2
		c-1.9-1.9-3.7-4-5.9-5.5c-8.9-5.9-18.5-10.5-29.1-12.7c-4.5-0.9-8.9-1.2-13.4-0.1c-1.4,0.3-2.1,1-2.6,2.3c-3,7.8-5.6,15.8-7.7,23.9
		c-2,7.9-3.7,15.8-3.8,24c-0.1,11,0,22-0.3,33c-0.2,5.7-0.7,11.5-1.9,17.1c-1,5-3.1,9.9-4.7,14.8c-0.5,1.5-0.8,3.1-1,4.7
		c-0.2,1.3,0.4,2.4,1.6,3.1c1,0.6,1.9,1.4,2.8,2.2c3.2,2.7,6.4,5.4,10.6,6.6c6.3,1.8,12.7,2.5,19.2,2.8c14.6,0.6,28.9-2.2,43-5.5
		c4.8-1.1,9.3-2.8,13.6-5c-0.3-0.9-0.6-1.6-0.7-2.4c-0.5-2.9-1-5.9-1.2-8.8c-0.1-1.9,0.8-2.4,2.7-2.1
		C173.9,136.1,176,136.5,178.4,136.9z M94,160.2c-1.5-0.6-3.1-1-4.3-1.8c-2.7-1.8-5.3-3.8-7.8-5.9c-1.4-1.1-2.7-2.4-4.6-2.4
		c-0.8,0-2,0.3-2.3,0.8c-1.6,2.7-3.2,5.5-4.5,8.3c-1.2,2.7-2.1,5.6-3.1,8.4c-1.4,4-4.2,6.4-8.5,7c-1.3,0.2-2.6,0.7-3.9,1
		c-1.8,0.4-3,1.4-3.7,3c-1.6,3.6-2.5,7.3-2,11.2c1,6.8,3,13.4,5.8,19.7c3.9,8.8,9.8,16.1,17.3,22.3c1.1,0.9,2.6,2,3.9,2.1
		c4.2,0.3,8.4,0.3,12.6,0.2c7-0.2,14-0.7,21-0.7c4.9,0,9.8,0.7,14.6,1.1c10.5,0.9,20.9,0.8,31-3.1c4.3-1.7,8.4-3.7,11.6-7
		c4.9-5,9.3-10.5,12.1-17c2-4.5,3.5-9.1,5.1-13.7c1.5-4.5,1.6-9.1,2-13.8c0.6-7.5-0.8-14.4-5.3-20.6c-1.6-2.3-3.7-4.3-5.6-6.3
		c-0.9-0.9-2.1-1-3.2-0.3c-4,2.6-8.6,3.6-13.2,4.7c-6.4,1.5-12.9,2.7-19.3,4c-7.3,1.4-14.6,2.1-22,1.9c-3.9-0.1-7.8-0.2-11.6-0.7
		C102.3,162,98.3,161,94,160.2z M7.2,106.8c1.5,1.5,3.1,3.1,4.6,4.7c0.3,0.4,0.7,1.2,0.5,1.4c-0.3,0.4-1.1,0.7-1.5,0.6
		c-0.8-0.2-1.7-0.5-2.3-1.1c-1.4-1.4-2.7-3-4.2-4.7c-0.8,2-1.1,3.9-0.8,5.9c0.7,4.9,3.8,8.5,7.4,11.6c5,4.3,10.7,7.5,16.9,10
		c7.3,3,14.9,5,22.8,5.8c8.6,0.8,17-0.2,25.4-1.6c0.7-0.1,1.6-0.9,1.8-1.5c1.8-5.3,4.1-10.6,5-16.1c1.2-7.6,1.1-15.3,1.6-23
		c0-0.2-0.1-0.3-0.2-0.7c-0.5,0.1-1,0.2-1.4,0.3c-2.9,1-5.8,2.3-8.7,3.1c-10.1,3-20.3,5.6-30.9,6.3c-8.6,0.6-17.2,0.4-25.7-1.2
		c-3.1-0.6-6.1-1.2-9.2-1.7c-0.6-0.1-1.2,0.2-1.8,0.3C6.7,105.6,6.9,106.1,7.2,106.8z M5,184.3c-1.7,5-1,9.9,0.9,14.7
		c2.6,6.5,7.1,11.4,12.5,15.8c4.9,4,9.7,8,13.6,13c1.8,2.3,3.4,4.8,5.3,7c3.2,3.9,6.6,5.6,11.8,2.9c0.4-0.2,0.9-0.4,1.4-0.5
		c3.9-1.5,8.1-1.6,12.2-1.9c2.4-0.1,4.9-0.4,7.3-0.6c0.1-0.1,0.1-0.3,0.2-0.4c-15.5-13.3-23.7-30-24.4-50.1
		c-0.7,0.2-1.6,0.5-2.5,0.8c-3.8,1.4-7.7,2.9-11.5,4.3c-1.3,0.5-2.5,1.2-3.8,1.6c-1.2,0.4-2.2,0.3-2.8-1c-2.3-4.9-6.5-7.7-11.4-9.5
		C9.9,179,6.8,180.4,5,184.3z M201.5,235.6c3.4,0.3,4.7,2.5,3.2,5.6c-0.1,0.1-0.1,0.2-0.2,0.3c-1.1,2.2-0.5,3.9,1.8,4.8
		c0.8,0.3,1.7,0.5,2.6,0.5c6.5,0.6,14.2-7.4,13.7-13.2c-0.8-8.3-1.5-16.6-2.5-24.8c-0.6-5.3-2-10.5-1.2-15.9c0.2-1.6,0.1-3.2,0-4.8
		c-0.2-3-4.3-6.2-7.4-4.6c-0.7,0.3-1.5,0.5-2.2,0.6c-0.9,0.1-0.9,0.5-1,1.2c-0.1,1.7-0.2,3.5-0.7,5.1c-2.1,7.5-4.5,15-6.5,22.5
		c-1.9,7.4-5.1,14.2-9.5,20.5c-0.6,0.9-1.4,1.8-2.1,2.7c0.1,0.2,0.2,0.4,0.3,0.6C193.7,236.3,197.5,235.9,201.5,235.6z M162.3,235.8
		c5.3,1.5,10.7,2,16.2,2.2c2,0.1,4.1,0.2,5.9-1.5c7-6.7,11-15,13.6-24.1c1.9-6.9,4-13.7,5.9-20.5c0.6-2,1.1-4.1,1.2-6.2
		c0.2-2.6-1.1-4.2-3.8-4.5c-3.3-0.4-6.6-0.4-9.9-0.6c-1.2-0.1-1.4,0.4-1.6,1.5c-0.4,3.4-0.6,6.8-1.4,10.1c-2.3,9.8-6.1,19-12.4,27.1
		c-2.7,3.5-5.4,7.1-9,9.7c-2.6,1.9-5.5,3.5-8.3,5.3C159.8,234.7,160.9,235.2,162.3,235.8z M83.3,10.7c0.2,0.6,0.4,1.2,0.7,1.7
		c3.3,5,8.1,8.2,13.8,10.1c0.7,0.2,1.5,0.5,2.2,0.3c3.4-1,6.8-0.9,10.2-0.6c3.3,0.3,6.6,0.5,9.8,1.3c7.4,1.8,14.1,5.5,20.8,9
		c1.6,0.8,3,1.8,4.5,2.7c0.1-0.1,0.2-0.2,0.3-0.4c-0.6-0.7-1.1-1.6-1.8-2.2c-4.5-3.7-8.8-7.6-13.6-11c-4.8-3.4-9.8-6.6-15-9.5
		c-6.2-3.5-12.8-6.3-19.7-8.2c-3.1-0.8-6-1.4-9.2-0.8c-2.1,0.4-3.6,1.9-3.6,4C82.8,8.2,83.1,9.3,83.3,10.7z M222.6,72.9
		c1.2,0.8,2.3,1.7,3.6,2.3c1.2,0.6,2.5,0.4,3.2-0.7c0.8-1.1,0-2.2-0.8-2.8c-2-1.4-4.1-2.6-6.2-3.8c-0.4-0.2-1.2-0.3-1.3-0.1
		c-0.3,0.4-0.5,1.1-0.4,1.5C221.2,70.5,221.8,71.6,222.6,72.9z M219.4,63.9c0-1.3,0.1-2.6-0.1-3.9c-0.3-1.7-0.8-3.5-1.4-5.1
		c-0.2-0.5-1.3-0.9-2-0.9c-0.4,0-1,0.8-1.2,1.4c-0.9,2.6,1,7.8,3.3,9.3C218.7,65.1,219.3,65.3,219.4,63.9z M223,64.6
		c1.3-0.6,2.7-1.2,4-1.6c1.5-0.5,2.3-1.6,2.7-2.9c0.2-0.7,0.1-1.8-0.3-2.1c-0.6-0.4-1.7-0.6-2.4-0.4c-2.9,1.1-4.5,3.5-5.5,6.3
		C221,64.9,221.5,65.3,223,64.6z M212.5,63.7c-1.6-0.2-3.2-0.5-4.9-0.5c-1.2,0-2.3,0.6-2.4,2c-0.2,1.5,1.1,2.1,2.2,2
		c2.8-0.1,5.5-0.5,8.2-0.8c0.3,0,0.5-0.3,0.7-0.5c-0.2-0.3-0.4-0.6-0.7-0.8C214.8,64.6,213.8,64.2,212.5,63.7z M212.4,75.2
		c2.2-1.9,3.7-4.1,4.1-7.2c-3.1,0.9-5.6,2.2-7.1,4.8c-0.5,0.9-0.8,2.5-0.3,3.2C209.9,76.8,211.2,76,212.4,75.2z M217.9,72
		c-0.3,0.5-0.6,1-0.7,1.5c-0.3,1.8-0.7,3.7-0.8,5.5c0,0.5,0.7,1.1,1.1,1.6c0.6-0.6,1.6-1,1.9-1.8c1-2.4,0-4.8-0.5-7.2
		C218.9,71.7,218.3,71.8,217.9,72z"/>
	<path class="st1" d="M178.3,136.9c-2.3-0.4-4.4-0.8-6.5-1.2c-1.9-0.3-2.8,0.2-2.7,2.1c0.2,2.9,0.8,5.9,1.2,8.8
		c0.1,0.8,0.4,1.5,0.7,2.4c-4.3,2.3-8.8,3.9-13.6,5c-14.1,3.3-28.3,6.1-43,5.5c-6.5-0.3-12.9-1-19.2-2.8c-4.2-1.2-7.4-3.9-10.6-6.6
		c-0.9-0.8-1.8-1.5-2.8-2.2c-1.2-0.7-1.8-1.8-1.6-3.1c0.2-1.6,0.5-3.2,1-4.7c1.6-5,3.7-9.8,4.7-14.8c1.1-5.6,1.7-11.4,1.9-17.1
		c0.3-11,0.2-22,0.3-33c0.1-8.2,1.8-16.1,3.8-24c2.1-8.1,4.7-16.1,7.7-23.9c0.5-1.3,1.2-2,2.6-2.3c4.5-1.1,9-0.8,13.4,0.1
		c10.7,2.2,20.2,6.8,29.1,12.7c2.2,1.5,4,3.6,5.9,5.5c0.4,0.4,0.6,1.3,0.6,2c0,4.5,0,9.1-0.2,13.6c-0.3,7.9,1.7,15.2,4.6,22.4
		c0.1,0.3,0.3,0.7,0.4,1.1c-0.4,0.1-0.7,0.3-1,0.4c-3.1,0.2-5.3,2.2-7.5,4c-0.3,0.3-0.4,0.9-0.6,1.4c0.6,0.1,1.2,0.3,1.7,0.1
		c0.7-0.2,1.5-0.5,2.1-0.9c4-2.7,9.8-1.5,13.6,1.4c3.9,3,8,5.7,12.1,8.3c3.5,2.2,7.6,3.1,11.7,3.7c6.9,1,13.8,0.8,20.7-0.7
		c8.6-1.9,17.2-3.4,25.8-5.1c0.4-0.1,0.9-0.3,1.3-0.3c0.5-0.1,1.1,0,1.6,0c-0.2,0.5-0.2,1.1-0.5,1.5c-1,1.3-2.1,2.5-3.2,3.6
		c-0.7,0.7-1.4,1.6-0.4,2.3c0.4,0.3,1.8,0.1,2.3-0.4c1.5-1.3,2.9-2.9,4.3-4.4c1.1,1.7,1.2,3.8,0.6,5.6c-1.5,4.3-2.9,8.7-5.1,12.6
		c-3.5,6.2-8.8,10.8-15.4,14c-4.1,2-8.2,4.2-12.5,5.7c-7,2.5-14.4,2.9-21.8,2.1C183.1,137.3,180.8,137.1,178.3,136.9z M98,41
		c-1.8,3.6-2.7,7.3-2.7,11.3c0,1.5,0.3,3,0.9,4.3c2,4.6,7.6,6.1,11.8,3.4c0.3-0.2,1.2-0.1,1.5,0.1c2.7,3,7,3.6,10.5,1.6
		c3.8-2.2,6.2-5.6,7.7-9.5c1.3-3.3,2-6.7,1.2-10.4c-1-4.8-6.6-7.3-10.6-5.1c-1.1,0.6-2.2,1.3-3.4,2c-0.2-0.3-0.3-0.4-0.3-0.6
		c-1.2-5.2-6-5.7-9.7-4.2C101.6,35.4,99.6,37.8,98,41z M127.8,35.1c1-1.6,0-2.7-1.2-3.6c-1.6-1.2-3.7-1.5-4.7-0.6
		c-0.4,0.3-0.7,1-0.6,1.4c0.1,0.4,0.8,0.9,1.2,0.9c1.3,0,2.1,0.6,2.8,1.6C125.8,35.6,126.6,36,127.8,35.1z M110.1,27
		c-1.5-0.1-3-0.2-3.9,1.2c-0.2,0.4-0.4,1-0.2,1.4c0.2,0.3,0.9,0.8,1.2,0.7c1.4-0.5,2.5-0.1,3.8,0.5c0.4,0.2,1.6-0.2,1.9-0.6
		c0.3-0.4,0.1-1.4-0.3-1.9C112,27.7,111.1,27.4,110.1,27z"/>
	<path class="st2" d="M94.2,160.2c4.1,0.8,8.1,1.8,12.1,2.3c3.8,0.5,7.7,0.6,11.6,0.7c7.4,0.1,14.7-0.5,22-1.9
		c6.5-1.3,12.9-2.5,19.3-4c4.6-1,9.2-2,13.2-4.7c1.1-0.7,2.3-0.6,3.2,0.3c1.9,2,4,4,5.6,6.3c4.5,6.2,5.9,13.1,5.3,20.6
		c-0.4,4.6-0.4,9.3-2,13.8c-1.6,4.6-3.2,9.3-5.1,13.7c-2.8,6.5-7.2,11.9-12.1,17c-3.2,3.3-7.3,5.3-11.6,7c-10.1,4-20.4,4-31,3.1
		c-4.9-0.4-9.8-1.1-14.6-1.1c-7,0-14,0.6-21,0.7c-4.2,0.1-8.4,0.1-12.6-0.2c-1.4-0.1-2.8-1.1-3.9-2.1c-7.5-6.2-13.4-13.4-17.3-22.3
		c-2.8-6.4-4.9-12.9-5.8-19.7c-0.5-3.9,0.4-7.7,2-11.2c0.7-1.5,1.9-2.6,3.7-3c1.3-0.3,2.6-0.8,3.9-1c4.3-0.7,7.1-3,8.5-7
		c1-2.8,1.9-5.7,3.1-8.4c1.3-2.9,2.8-5.6,4.5-8.3c0.3-0.5,1.5-0.8,2.3-0.8c1.9,0,3.2,1.3,4.6,2.4c2.5,2,5.1,4.1,7.8,5.9
		C91,159.2,92.6,159.6,94.2,160.2z"/>
	<path class="st3" d="M7.2,106.7c-0.3-0.6-0.5-1.1-0.7-1.6c0.6-0.1,1.2-0.4,1.8-0.3c3.1,0.5,6.1,1.1,9.2,1.7
		c8.5,1.6,17.1,1.8,25.7,1.2c10.6-0.7,20.8-3.3,30.9-6.3c3-0.9,5.8-2.1,8.7-3.1c0.5-0.2,0.9-0.2,1.4-0.3c0.1,0.3,0.2,0.5,0.2,0.7
		c-0.5,7.7-0.5,15.4-1.6,23c-0.8,5.5-3.2,10.8-5,16.1c-0.2,0.6-1.1,1.4-1.8,1.5c-8.4,1.4-16.9,2.4-25.4,1.6
		c-7.9-0.7-15.5-2.8-22.8-5.8c-6.1-2.5-11.9-5.7-16.9-10c-3.6-3.1-6.6-6.7-7.4-11.6c-0.3-2,0-3.9,0.8-5.9c1.5,1.7,2.7,3.3,4.2,4.7
		c0.6,0.6,1.5,0.9,2.3,1.1c0.5,0.1,1.2-0.3,1.5-0.6c0.2-0.2-0.2-1-0.5-1.4C10.3,109.9,8.8,108.4,7.2,106.7z"/>
	<path class="st3" d="M5.1,184.2c1.8-3.8,4.9-5.2,8.6-3.7c4.9,1.9,9.1,4.7,11.4,9.5c0.6,1.3,1.6,1.5,2.8,1c1.3-0.5,2.5-1.1,3.8-1.6
		c3.8-1.5,7.7-2.9,11.5-4.3c0.9-0.3,1.8-0.6,2.5-0.8c0.6,20.2,8.8,36.8,24.4,50.1c-0.1,0.1-0.1,0.3-0.2,0.4
		c-2.4,0.2-4.9,0.4-7.3,0.6c-4.1,0.2-8.3,0.4-12.2,1.9c-0.5,0.2-1,0.3-1.4,0.5c-5.2,2.7-8.5,1-11.8-2.9c-1.9-2.3-3.5-4.7-5.3-7
		c-3.8-5-8.7-9-13.6-13c-5.4-4.4-9.9-9.4-12.5-15.8C4,194.3,3.3,189.3,5.1,184.2z"/>
	<path class="st4" d="M201.4,235.6c-3.9,0.3-7.7,0.7-11.5,1c-0.1-0.2-0.2-0.4-0.3-0.6c0.7-0.9,1.4-1.7,2.1-2.7
		c4.4-6.3,7.6-13.1,9.5-20.5c2-7.6,4.4-15,6.5-22.5c0.5-1.7,0.6-3.4,0.7-5.1c0.1-0.7,0.1-1.1,1-1.2c0.7-0.1,1.5-0.2,2.2-0.6
		c3.1-1.6,7.2,1.6,7.4,4.6c0.1,1.6,0.2,3.3,0,4.8c-0.8,5.4,0.6,10.6,1.2,15.9c1,8.3,1.7,16.5,2.5,24.8c0.5,5.8-7.2,13.8-13.7,13.2
		c-0.9-0.1-1.8-0.2-2.6-0.5c-2.3-0.8-3-2.6-1.8-4.8c0.1-0.1,0.1-0.2,0.2-0.3C206.3,238.1,205,235.9,201.4,235.6z"/>
	<path class="st5" d="M162.2,235.8c-1.3-0.6-2.4-1.1-3.4-1.5c2.8-1.8,5.7-3.4,8.3-5.3c3.6-2.6,6.3-6.2,9-9.7
		c6.3-8.1,10-17.3,12.4-27.1c0.8-3.3,1-6.7,1.4-10.1c0.1-1.1,0.3-1.6,1.6-1.5c3.3,0.2,6.6,0.2,9.9,0.6c2.6,0.3,3.9,1.9,3.8,4.5
		c-0.1,2.1-0.6,4.2-1.2,6.2c-1.9,6.9-3.9,13.7-5.9,20.5c-2.6,9.1-6.6,17.4-13.6,24.1c-1.7,1.7-3.9,1.5-5.9,1.5
		C173,237.8,167.6,237.3,162.2,235.8z"/>
	<path class="st6" d="M83.2,10.5c-0.2-1.3-0.4-2.4-0.4-3.5c0-2,1.5-3.6,3.6-4c3.1-0.6,6.1,0,9.2,0.8c7,1.9,13.5,4.7,19.7,8.2
		c5.2,2.9,10.2,6,15,9.5c4.7,3.4,9.1,7.3,13.6,11c0.7,0.6,1.2,1.5,1.8,2.2c-0.1,0.1-0.2,0.2-0.3,0.4c-1.5-0.9-2.9-1.9-4.5-2.7
		c-6.7-3.4-13.4-7.1-20.8-9c-3.2-0.8-6.5-1.1-9.8-1.3c-3.4-0.3-6.9-0.3-10.2,0.6c-0.6,0.2-1.5-0.1-2.2-0.3
		c-5.7-1.9-10.5-5.1-13.8-10.1C83.7,11.9,83.5,11.2,83.2,10.5z"/>
	<path class="st7" d="M138.4,11.9c4,2.7,6.9,6.3,8.7,10.7c1.8,4.2,3,8.5,3.4,12.7c-2.7-2.8-5.7-5.8-8.6-9.1c-0.6-2.9-1-5.6-1.6-8.2
		C139.8,16,139,13.9,138.4,11.9z"/>
	<path class="st8" d="M140.3,25c-2.7-2-5.4-4.1-8.1-6.4c0.8-2.4,1.8-4.6,2.5-6.8c0.3-1.1,0.8-1.5,2-1.4c0,0,0,0,0,0.2
		c0.3,1.2,0.7,2.3,1.1,3.4C138.8,17.6,140.7,21,140.3,25z"/>
	<path class="st8" d="M133.2,8.8c0.1,0,0.3,0.1,0.5,0.3c-0.9,3-1.2,6.1-3.4,8.4c-2-1.3-4-2.7-6.1-4.3c0.8-2.1,2.7-2.4,4.3-3.1
		C130,9.6,131.7,9.3,133.2,8.8z"/>
	<path class="st9" d="M222.5,72.8c-0.7-1.2-1.4-2.2-1.8-3.4c-0.2-0.4,0.1-1.1,0.4-1.5c0.2-0.2,1-0.1,1.3,0.1
		c2.1,1.2,4.2,2.4,6.2,3.8c0.8,0.6,1.5,1.7,0.8,2.8c-0.8,1.1-2.1,1.3-3.2,0.7C224.9,74.6,223.8,73.7,222.5,72.8z"/>
	<path class="st9" d="M219.4,64.1c-0.1,1.2-0.7,1-1.3,0.6c-2.3-1.6-4.2-6.7-3.3-9.3c0.2-0.6,0.8-1.4,1.2-1.4c0.7,0,1.8,0.4,2,0.9
		c0.7,1.6,1.1,3.4,1.4,5.1C219.5,61.3,219.4,62.6,219.4,64.1z"/>
	<path class="st10" d="M222.8,64.6c-1.3,0.7-1.8,0.2-1.4-0.9c1-2.8,2.6-5.2,5.5-6.3c0.7-0.3,1.9-0.1,2.4,0.4
		c0.4,0.3,0.5,1.5,0.3,2.1c-0.4,1.3-1.2,2.4-2.7,2.9C225.6,63.4,224.3,64,222.8,64.6z"/>
	<path class="st11" d="M212.6,63.7c1.1,0.5,2.1,0.9,3.1,1.4c0.3,0.1,0.5,0.5,0.7,0.8c-0.2,0.2-0.5,0.5-0.7,0.5
		c-2.7,0.3-5.5,0.7-8.2,0.8c-1.1,0-2.4-0.5-2.2-2c0.1-1.3,1.2-2,2.4-2C209.3,63.2,210.9,63.5,212.6,63.7z"/>
	<path class="st10" d="M212.2,75.2c-1.1,0.7-2.3,1.6-3.1,0.6c-0.5-0.6-0.2-2.3,0.3-3.2c1.5-2.6,4-3.8,7.1-4.8
		C216,71.1,214.6,73.3,212.2,75.2z"/>
	<path class="st7" d="M120.8,7.8c2,0,4,0,6.3,0.1c0.7,0.1,1.2,0.1,1.7,0.1c0.3,0,0.6,0,0.9,0.2c-0.3,0.3-0.6,0.5-1,0.6
		c-2.3,0.7-4.6,1.3-5.7,3.7c-1.9-1-3.9-2-5.8-3.1c0-0.2,0-0.4-0.1-0.5c0.7-0.3,1.5-0.6,2.4-0.8C120.1,8,120.5,7.9,120.8,7.8z"/>
	<path class="st11" d="M218,71.9c0.4-0.2,0.9-0.2,0.9-0.2c0.5,2.4,1.5,4.8,0.5,7.2c-0.3,0.7-1.2,1.2-1.9,1.8
		c-0.4-0.6-1.2-1.1-1.1-1.6c0.1-1.8,0.4-3.7,0.8-5.5C217.3,73,217.6,72.5,218,71.9z"/>
	<path class="st2" d="M130.3,17.7c2.2-2.4,2.5-5.5,3.5-8.5c0.9,0.2,1.8,0.6,2.8,1.1c-1.1-0.1-1.6,0.3-1.9,1.5
		c-0.7,2.2-1.6,4.4-2.5,6.7C131.5,18.4,130.9,18.1,130.3,17.7z"/>
	<path class="st2" d="M123,12.5c1.1-2.5,3.4-3.1,5.7-3.8c0.4-0.1,0.8-0.3,1.2-0.5c1.1,0,2.1,0.2,3.3,0.5c-1.5,0.6-3.1,0.9-4.6,1.5
		c-1.6,0.7-3.6,1-4.4,3C123.7,13.1,123.3,12.9,123,12.5z"/>
	<path class="st2" d="M120.7,7.7c-0.2,0.2-0.6,0.3-1,0.3C119.9,7.9,120.3,7.8,120.7,7.7z"/>
	<path class="st12" d="M212.7,60.8c0,0.1,0,0.3-0.2,0.4C212.4,61.1,212.5,61,212.7,60.8z"/>
	<path class="st12" d="M225,78.1c0-0.1,0-0.3,0.2-0.4C225.2,77.8,225.2,77.9,225,78.1z"/>
	<path class="st12" d="M173,140c-0.1-0.1,0-0.4,0.2-0.5C173.2,139.6,173.2,139.8,173,140z"/>
	<path class="st13" d="M98,40.9c1.6-3.1,3.6-5.5,6.8-6.9c3.7-1.5,8.5-1.1,9.7,4.2c0,0.2,0.2,0.3,0.3,0.6c1.1-0.7,2.2-1.4,3.4-2
		c4-2.2,9.6,0.3,10.6,5.1c0.8,3.6,0.1,7-1.2,10.4c-1.5,3.9-3.9,7.3-7.7,9.5c-3.5,2-7.7,1.4-10.5-1.6c-0.3-0.3-1.1-0.4-1.5-0.1
		c-4.2,2.7-9.9,1.2-11.8-3.4c-0.6-1.3-0.8-2.9-0.9-4.3C95.2,48.4,96.1,44.6,98,40.9z M112.4,47.1c-0.3,0.9-0.7,1.7-0.9,2.6
		c-0.7,2.8-1.3,5.7,0.2,8.5c0.7,1.3,1.7,1.9,3,1.8c1.2-0.1,2.5-0.4,3.6-0.9c2.4-1.1,4.1-3.1,5.1-5.5c1.4-3.4,2.6-6.9,2.2-10.6
		c-0.3-2.9-2.8-4.9-5.2-3.8c-1.9,0.8-3.6,2-5.1,3.4C114.2,43.7,113.5,45.4,112.4,47.1z M110.7,37c-1.5-0.9-3-0.8-4.6-0.2
		c-2.3,0.9-4.2,2.5-5.3,4.6c-2.1,3.9-3.2,8.1-2.7,12.5c0.5,4.2,3.9,5.7,7.8,4.2c0.8-0.3,1.9-1.5,1.8-2.2c-0.3-4.8,1.9-8.9,3.6-13.1
		C112.2,40.8,112.3,38.9,110.7,37z"/>
	<path class="st14" d="M127.7,35.2c-1.1,0.8-1.9,0.4-2.5-0.4c-0.7-1-1.5-1.5-2.8-1.6c-0.4,0-1.1-0.5-1.2-0.9
		c-0.1-0.4,0.3-1.1,0.6-1.4c1.1-0.9,3.2-0.7,4.7,0.6C127.7,32.4,128.7,33.5,127.7,35.2z"/>
	<path class="st14" d="M110.3,27.1c0.9,0.4,1.7,0.6,2.2,1.2c0.4,0.4,0.6,1.5,0.3,1.9c-0.3,0.4-1.4,0.9-1.9,0.6
		c-1.3-0.6-2.4-1-3.8-0.5c-0.3,0.1-1-0.3-1.2-0.7c-0.2-0.4,0-1,0.2-1.4C107.1,26.8,108.6,26.9,110.3,27.1z"/>
	<path class="st15" d="M112.5,47c1-1.6,1.7-3.3,2.9-4.4c1.4-1.4,3.2-2.6,5.1-3.4c2.4-1,4.9,0.9,5.2,3.8c0.4,3.8-0.8,7.2-2.2,10.6
		c-1,2.4-2.7,4.4-5.1,5.5c-1.1,0.5-2.4,0.8-3.6,0.9c-1.3,0.1-2.3-0.5-3-1.8c-1.5-2.8-0.9-5.7-0.2-8.5C111.8,48.8,112.2,48,112.5,47z
		 M114,51.5c1.2,1.8,2.6,2.1,3.7,0.6c0.8-1.1,1.3-2.5,1.7-3.9c0.3-1.1-0.3-2.3-1.6-2.3c-0.8-0.1-2.2,0.4-2.5,1
		C114.6,48.2,114.4,49.7,114,51.5z"/>
	<path class="st13" d="M114,51.3c-0.3-1.6,0.3-3.4,1.3-4.5c0.8-0.8,1.7-1,2.5-1c1.2,0.1,1.7,1.2,1.6,2.3c-0.1,1.5-0.6,2.6-1.7,3.9
		C116.6,53.6,114.4,53.6,114,51.3z"/>
	<path class="st13" d="M101.7,47.2c0.5-1.2,0.9-2.4,1.6-3.3c0.4-0.5,1.5-0.9,2.1-0.8c0.5,0.1,1.2,0.9,1.4,1.5c0.7,1.8,0,3.5-1.2,4.8
		c-0.5,0.6-1.7,1-2.4,0.9C101.8,50,101.6,48.7,101.7,47.2z"/>
</g>
</svg>
