<svg width="152" height="50" viewBox="0 0 152 50" fill="none" xmlns="http://www.w3.org/2000/svg">
<path d="M38.9107 11.1204C38.8776 10.7784 38.8053 10.434 38.8265 10.0952C38.8377 9.91557 38.9745 9.70517 39.1189 9.57877C39.5454 9.20517 40.0688 9.38637 40.3121 9.98277C40.4055 10.2112 40.4486 10.4592 40.5307 10.7556C40.6213 10.6712 40.6955 10.6148 40.7533 10.5456C41.0745 10.1608 41.4846 10.05 41.9705 10.152C42.3682 10.2352 42.596 10.5876 42.4891 10.974C42.3208 11.5816 41.9035 11.9308 41.2177 12.078C41.4666 12.262 41.6861 12.412 41.8915 12.5784C42.1987 12.8272 42.395 13.1476 42.4221 13.5396C42.4644 14.1528 41.9545 14.4556 41.2057 14.2356C41.1447 14.2608 41.1315 14.2984 41.1188 14.336C41.341 15.2264 41.5628 16.1168 41.7958 17.0504C42.1847 16.9664 42.5478 16.9072 42.8984 16.8076C43.5295 16.6284 43.7944 16.666 44.2333 17.3332C44.6581 17.9796 44.7096 18.692 44.4156 19.422C44.2201 19.9068 44.0837 20.4168 43.8635 20.89C43.2555 22.1956 42.2992 23.2212 41.051 23.9612C40.1418 24.5004 39.2318 25.05 38.199 25.36C36.8155 25.7752 35.4124 25.9704 33.9663 25.7996C33.2278 25.7124 32.4886 25.634 31.6979 25.5432C31.6305 25.5804 31.6141 25.6264 31.5982 25.672C31.6153 25.91 31.6189 26.1492 31.652 26.3852C31.7099 26.7992 31.8882 27.1076 32.2608 27.3864C33.4971 28.3112 34.3185 29.522 34.6049 31.0408C34.6744 31.4084 34.7258 31.7816 34.7502 32.1548C34.7653 32.3848 34.8431 32.4688 35.0809 32.4724C35.627 32.4808 36.1736 32.5016 36.7181 32.5408C37.1075 32.5688 37.4637 32.692 37.7454 32.9836C37.9584 33.204 38.2261 33.112 38.4607 33.0372C39.5553 32.6884 40.6317 33.4196 40.6724 34.554C40.6787 34.7356 40.6983 34.9224 40.6676 35.0992C40.4737 36.214 40.7745 37.2904 40.9045 38.382C41.0725 39.7924 41.1986 41.2072 41.3326 42.6212C41.4714 44.0856 39.9084 45.672 38.5093 45.7592C37.9285 45.7956 37.3951 45.692 36.9986 45.2284C36.6774 44.8532 36.6535 44.4508 36.8964 44.0268C36.9399 43.9512 36.9678 43.8668 37.0412 43.6988C36.6938 43.7464 36.4181 43.8076 36.1408 43.8176C35.5516 43.8388 34.9616 43.8264 34.3724 43.8432C34.2252 43.8472 34.0776 43.902 33.9343 43.9476C33.7045 44.0208 33.4827 44.1596 33.2506 44.176C31.9125 44.2716 30.6044 44.076 29.3286 43.692C28.9676 43.5836 28.6393 43.3748 28.2862 43.2356C28.1689 43.1892 28.0085 43.1776 27.8897 43.2156C26.3083 43.722 24.683 43.7568 23.0534 43.6032C21.2893 43.4372 19.5323 43.3164 17.7567 43.4452C16.5635 43.5316 15.3571 43.5652 14.1643 43.4936C13.1633 43.4336 12.2214 43.7644 11.2313 43.7424C10.662 43.73 10.0875 43.8984 9.51745 43.9964C9.39498 44.0176 9.27809 44.0788 9.16319 44.1316C8.13394 44.6016 7.28221 44.4556 6.53101 43.6136C6.08301 43.1116 5.73673 42.522 5.28075 42.0284C4.67556 41.3732 4.03846 40.7392 3.35907 40.158C2.412 39.348 1.48008 38.5336 0.872902 37.436C0.253754 36.3168 -0.0538267 35.1368 0.236599 33.8596C0.476359 32.806 1.5116 32.0896 2.45149 32.4048C3.00162 32.5896 3.53021 32.8836 4.00734 33.2128C4.36638 33.4608 4.6221 33.8488 4.93806 34.1608C5.00787 34.23 5.17383 34.3036 5.23447 34.27C6.21625 33.724 7.3245 33.526 8.36811 33.1516C8.47662 33.1128 8.59671 32.992 8.63022 32.8848C8.90947 31.9976 9.54817 31.5652 10.4565 31.4352C11.0641 31.348 11.5417 31.1048 11.7391 30.4604C11.935 29.8204 12.1468 29.1752 12.446 28.5776C12.7381 27.9952 13.1147 27.4432 13.5224 26.9296C13.7793 26.606 13.8355 26.6484 13.8323 26.1696C13.2814 26.234 12.7337 26.3024 12.1851 26.3616C10.8834 26.5024 9.58407 26.5148 8.28793 26.294C6.55734 25.9988 4.91931 25.4484 3.39218 24.5976C2.28553 23.9812 1.24192 23.282 0.544578 22.2044C-0.0458479 21.292 -0.201433 20.3256 0.30362 19.3244C0.609604 18.718 1.09152 18.5144 1.77569 18.6472C2.58474 18.8044 3.39019 18.998 4.20681 19.0984C6.05428 19.3256 7.90176 19.2996 9.73128 18.9228C11.3809 18.5832 12.9994 18.136 14.5644 17.5184C14.7998 17.4256 15.0371 17.3236 15.2442 17.1844C15.3439 17.1176 15.4277 16.956 15.4309 16.8348C15.464 15.6748 15.4795 14.5144 15.4983 13.354C15.5167 12.2232 15.744 11.1212 16.0333 10.0356C16.3839 8.71957 16.7861 7.41637 17.1778 6.11117C17.2983 5.70997 17.4291 5.30717 17.6075 4.92877C17.7335 4.66157 17.6406 4.57357 17.4084 4.48397C16.4797 4.12717 15.7065 3.55277 15.093 2.79277C14.6526 2.24797 14.5568 1.59397 14.6861 0.917973C14.7655 0.501173 15.3399 0.0955731 15.8613 0.0291732C16.7697 -0.0864268 17.6202 0.159973 18.4548 0.443973C19.1442 0.678373 19.8076 0.983173 20.4874 1.24557C20.574 1.27917 20.6964 1.26517 20.7894 1.23477C21.1572 1.11477 21.5151 0.888773 21.8857 0.869173C22.6125 0.830773 23.3458 0.911573 24.0766 0.924373C24.1903 0.926373 24.3515 0.859973 24.4113 0.773173C24.5629 0.551973 24.7604 0.513173 24.9878 0.575973C25.2232 0.640773 25.3157 0.830773 25.295 1.05317C25.2762 1.25277 25.3313 1.36397 25.51 1.49037C26.8728 2.45277 27.8051 3.70357 28.0468 5.36117C28.1398 5.99997 28.1402 6.65237 28.1681 7.29917C28.2391 8.94677 28.2702 10.5964 28.3791 12.2412C28.4446 13.2304 28.7466 14.1788 29.199 15.0732C29.2428 15.16 29.3115 15.2712 29.3932 15.2972C30.1253 15.5308 30.6351 16.0816 31.226 16.5132C32.0617 17.1236 32.9354 17.6668 33.9774 17.8476C35.2428 18.0676 36.5123 18.1492 37.7893 17.8608C38.8528 17.6208 39.9287 17.4344 41.0015 17.234C41.2137 17.1944 41.2668 17.1216 41.2057 16.912C41.0091 16.2356 40.8351 15.5532 40.6464 14.8744C40.6237 14.7932 40.5635 14.722 40.5208 14.6464C40.4613 14.7036 40.3927 14.7544 40.3444 14.8196C40.1908 15.0268 40.0424 15.2124 39.7261 15.1608C39.3806 15.1044 39.2342 14.8976 39.1863 14.5888C39.164 14.4452 39.1468 14.3012 39.1205 14.108C38.6641 14.3148 38.189 14.6292 37.8112 14.0912C37.4597 13.5912 37.8327 13.1972 38.1339 12.758C38.0143 12.7444 37.9225 12.7308 37.8303 12.7244C37.3484 12.69 37.0839 12.4896 37.0305 12.1156C36.9714 11.7036 37.1781 11.348 37.6373 11.2524C38.0011 11.1764 38.3913 11.2208 38.8177 11.2188C38.8803 11.1908 38.8955 11.1556 38.9107 11.1204ZM24.9599 1.86357C24.7947 1.79557 24.6295 1.72717 24.4365 1.63437C24.4121 1.62877 24.3878 1.62277 24.3359 1.57517C24.1424 1.54237 23.949 1.50917 23.7064 1.46317C23.6553 1.45997 23.6047 1.45637 23.5157 1.42037C23.4319 1.42037 23.3482 1.42037 23.201 1.40957C22.8315 1.41317 22.4621 1.41717 22.0472 1.40597C21.9894 1.42357 21.9319 1.44157 21.8206 1.45957C21.6846 1.51237 21.5486 1.56517 21.4129 1.61797C21.4173 1.65077 21.4217 1.68357 21.4261 1.71637C21.7795 1.90357 22.1326 2.09077 22.4905 2.31637C22.5543 2.36117 22.6185 2.40597 22.7194 2.47997C23.0865 2.72597 23.4531 2.97237 23.8337 3.25757C23.9354 3.30997 24.0371 3.36277 24.1636 3.45437C24.6583 3.82837 25.1526 4.20197 25.6688 4.60917C25.7545 4.67637 25.8403 4.74397 25.95 4.85037C26.4838 5.39757 27.0172 5.94517 27.5178 6.45837C27.448 5.69437 27.2278 4.90037 26.9023 4.13637C26.5624 3.33837 26.039 2.67437 25.2894 2.14157C25.1869 2.06557 25.0843 1.98957 24.9754 1.91397C24.9754 1.91397 24.9738 1.90797 24.9599 1.86357ZM32.6282 25.084C33.0571 25.1212 33.4863 25.1516 33.914 25.1976C35.2748 25.3432 36.6216 25.2588 37.9089 24.8052C38.6992 24.5268 39.4476 24.1296 40.2016 23.76C41.3928 23.1756 42.3611 22.32 43.0085 21.1932C43.4186 20.4796 43.6736 19.6748 43.9412 18.8924C44.0565 18.5556 44.0294 18.172 43.8335 17.8664C43.5738 18.1396 43.3305 18.4268 43.0496 18.6736C42.9571 18.7548 42.7109 18.8004 42.6347 18.7404C42.4592 18.6032 42.5873 18.4456 42.7145 18.3108C42.9192 18.0948 43.1198 17.874 43.3061 17.6428C43.3644 17.5708 43.3704 17.4584 43.4003 17.3644C43.3033 17.3632 43.206 17.354 43.1099 17.3628C43.0297 17.3704 42.9527 17.4024 42.8729 17.4184C41.3015 17.73 39.7245 18.0168 38.1603 18.3588C36.9028 18.634 35.6498 18.664 34.3815 18.4868C33.6275 18.3816 32.8871 18.2148 32.2428 17.814C31.4817 17.3408 30.7305 16.844 30.0256 16.296C29.331 15.756 28.2714 15.536 27.5338 16.0328C27.4205 16.1092 27.2877 16.17 27.1548 16.2016C27.0591 16.2244 26.9482 16.1876 26.844 16.1772C26.8768 16.0892 26.8827 15.9708 26.9462 15.9188C27.3543 15.5844 27.7512 15.2228 28.3253 15.1788C28.3867 15.174 28.4454 15.1356 28.5124 15.11C28.4813 15.0268 28.4585 14.9628 28.433 14.8996C27.8972 13.5792 27.5326 12.2288 27.5952 10.7888C27.6315 9.95917 27.6276 9.12797 27.6291 8.29757C27.6295 8.17357 27.5992 8.01277 27.5182 7.93117C27.1716 7.58197 26.8393 7.19957 26.4315 6.93117C24.7987 5.85597 23.0553 5.00397 21.1077 4.60717C20.2899 4.44077 19.4741 4.38757 18.6515 4.58997C18.4022 4.65117 18.2729 4.77517 18.1823 5.01277C17.6342 6.44797 17.1523 7.89997 16.7769 9.39037C16.4123 10.8392 16.0975 12.2888 16.0839 13.786C16.0656 15.7996 16.0907 17.814 16.0301 19.826C15.9982 20.8768 15.8976 21.938 15.689 22.9672C15.5015 23.892 15.1161 24.7776 14.8329 25.6852C14.7455 25.9648 14.6917 26.2564 14.6486 26.546C14.6123 26.7908 14.7176 26.9792 14.9434 27.1164C15.1293 27.2292 15.298 27.3712 15.4636 27.5124C16.0496 28.012 16.6345 28.4976 17.4084 28.7244C18.5557 29.0608 19.7302 29.1876 20.9166 29.236C23.5955 29.346 26.1926 28.8304 28.7757 28.2232C29.6446 28.0188 30.4728 27.7128 31.2571 27.2988C31.2112 27.1412 31.1545 27.0016 31.1318 26.8572C31.0476 26.3212 30.9439 25.7852 30.9092 25.2456C30.8869 24.904 31.0572 24.8072 31.4019 24.8672C31.7908 24.9356 32.179 25.0088 32.6282 25.084ZM17.1958 29.346C16.9289 29.236 16.6345 29.1648 16.4011 29.0076C15.9068 28.6736 15.4365 28.304 14.9721 27.9308C14.7188 27.7272 14.4862 27.4876 14.1359 27.4908C13.9903 27.492 13.7729 27.5436 13.7123 27.644C13.4143 28.1392 13.1306 28.6468 12.8948 29.1724C12.6722 29.6688 12.5071 30.1908 12.3311 30.7064C12.0798 31.4436 11.5712 31.8708 10.7849 31.9964C10.5451 32.0348 10.3145 32.1232 10.0768 32.1756C9.75521 32.2464 9.52304 32.4384 9.40056 32.7176C9.11373 33.3716 8.93899 34.0616 9.03913 34.7732C9.21506 36.0244 9.58607 37.2216 10.1031 38.3856C10.822 40.0036 11.9031 41.3372 13.2686 42.4648C13.4753 42.6356 13.7378 42.8268 13.9879 42.846C14.7503 42.9052 15.5194 42.9096 16.285 42.8904C17.5632 42.8584 18.8406 42.7532 20.1188 42.7532C21.0108 42.7532 21.9036 42.8728 22.7952 42.9464C24.7213 43.106 26.6226 43.0996 28.4605 42.3716C29.248 42.0596 29.9877 41.694 30.5753 41.0916C31.4769 40.1672 32.2784 39.162 32.7926 37.9796C33.1496 37.1588 33.4365 36.3076 33.7289 35.4612C34.0109 34.6452 34.0205 33.7888 34.0883 32.9384C34.198 31.5656 33.9383 30.292 33.1205 29.1608C32.8217 28.7476 32.4527 28.3812 32.0976 28.0096C31.9397 27.8444 31.7135 27.826 31.5204 27.9528C30.7895 28.434 29.9466 28.6168 29.1132 28.8064C27.9395 29.0732 26.7567 29.3032 25.5754 29.5356C24.2494 29.7968 22.9065 29.912 21.5553 29.892C20.8468 29.8812 20.1339 29.8568 19.4322 29.7688C18.6978 29.6764 17.9753 29.5004 17.1958 29.346ZM1.3241 19.5716C1.60375 19.8548 1.88819 20.1336 2.15907 20.4248C2.21971 20.49 2.28474 20.6424 2.25402 20.678C2.19338 20.7492 2.05694 20.8144 1.97077 20.796C1.81958 20.764 1.65162 20.6968 1.54631 20.5916C1.2854 20.3296 1.05641 20.0376 0.784339 19.7232C0.638328 20.0956 0.58487 20.4432 0.640322 20.8084C0.777157 21.706 1.32649 22.3568 1.99192 22.928C2.90748 23.7136 3.95588 24.2936 5.0745 24.7532C6.40974 25.3016 7.79125 25.6764 9.23939 25.8128C10.8088 25.9604 12.3531 25.7736 13.8926 25.5152C14.019 25.494 14.1858 25.3564 14.2249 25.2384C14.5512 24.2588 14.9777 23.2892 15.1305 22.2812C15.3415 20.8924 15.3403 19.4728 15.4285 18.066C15.4305 18.0352 15.4113 18.0032 15.3942 17.9464C15.3032 17.9668 15.2131 17.9768 15.1297 18.0068C14.5979 18.1968 14.0765 18.4196 13.5355 18.5788C11.6869 19.1228 9.82104 19.5976 7.8846 19.7324C6.3112 19.8416 4.74338 19.8116 3.18913 19.5152C2.63022 19.4088 2.0721 19.2988 1.5108 19.2048C1.40788 19.1876 1.29298 19.2404 1.18367 19.2608C1.21998 19.3504 1.25628 19.44 1.3241 19.5716ZM0.911997 33.7624C0.60362 34.684 0.733673 35.5832 1.08314 36.4612C1.55389 37.644 2.38766 38.5576 3.37024 39.3608C4.26107 40.0888 5.1479 40.8228 5.84803 41.7404C6.17317 42.1668 6.47516 42.6116 6.81705 43.0244C7.41027 43.7412 8.02024 44.0452 8.96931 43.5536C9.0503 43.5116 9.14045 43.4868 9.22662 43.454C9.94391 43.1808 10.6999 43.152 11.4551 43.1112C11.9003 43.0872 12.3443 43.044 12.7887 43.0096C12.7987 42.9844 12.8087 42.9588 12.8186 42.9336C9.97942 40.4916 8.48101 37.44 8.36293 33.7476C8.23248 33.7908 8.06771 33.8404 7.90694 33.9C7.20322 34.162 6.4995 34.4236 5.79857 34.6924C5.5612 34.7832 5.337 34.9072 5.09803 34.9932C4.88301 35.0704 4.6975 35.0484 4.58141 34.802C4.16293 33.9116 3.39577 33.4 2.50176 33.0552C1.8116 32.7888 1.2471 33.0448 0.911997 33.7624ZM36.8541 43.1568C37.4801 43.2052 37.717 43.6196 37.4354 44.1736C37.425 44.194 37.4131 44.2136 37.4023 44.2336C37.1984 44.63 37.3165 44.9504 37.7394 45.1044C37.889 45.1588 38.0526 45.188 38.2121 45.2024C39.3998 45.3108 40.8064 43.8408 40.7107 42.782C40.5734 41.266 40.4318 39.7496 40.2571 38.2376C40.145 37.2692 39.8841 36.3164 40.0345 35.3264C40.0784 35.0372 40.0616 34.7352 40.042 34.4412C40.0053 33.89 39.2514 33.3024 38.692 33.5932C38.5728 33.6552 38.4264 33.6808 38.2895 33.694C38.1319 33.7096 38.1212 33.7824 38.1116 33.918C38.0893 34.2332 38.0685 34.5552 37.9835 34.8576C37.5962 36.236 37.1541 37.6004 36.7943 38.9856C36.4412 40.3448 35.8592 41.5892 35.0518 42.74C34.9333 42.9088 34.7968 43.0656 34.6688 43.228C34.6867 43.2644 34.7043 43.3008 34.7222 43.3372C35.414 43.2776 36.1049 43.2172 36.8541 43.1568ZM29.6805 43.1928C30.6455 43.474 31.6412 43.5608 32.6386 43.5908C33.0024 43.602 33.397 43.626 33.7141 43.32C34.9923 42.0856 35.7224 40.5644 36.1935 38.9004C36.549 37.6456 36.9192 36.3952 37.2682 35.1388C37.3712 34.7688 37.4673 34.3884 37.4897 34.0084C37.5184 33.5268 37.2854 33.2392 36.8039 33.1796C36.2075 33.106 35.6007 33.1128 34.9999 33.0696C34.7773 33.0536 34.7366 33.142 34.7162 33.3388C34.6516 33.9588 34.6101 34.5872 34.4677 35.192C34.044 36.986 33.3527 38.672 32.2085 40.158C31.7131 40.8012 31.2212 41.4516 30.5553 41.9356C30.075 42.2848 29.5516 42.5776 29.0326 42.9052C29.2161 42.9912 29.4208 43.0876 29.6805 43.1928ZM15.2266 1.95477C15.2705 2.05877 15.2988 2.17277 15.3603 2.26557C15.9722 3.18397 16.8415 3.77277 17.8915 4.12117C18.0184 4.16317 18.174 4.20997 18.2924 4.17557C18.9092 3.99717 19.5379 4.01277 20.1623 4.06077C20.7627 4.10677 21.3722 4.15917 21.9531 4.30397C23.3111 4.64277 24.5294 5.31477 25.7601 5.94637C26.045 6.09277 26.3083 6.27917 26.5815 6.44717C26.6023 6.42477 26.623 6.40277 26.6442 6.38037C26.5369 6.24317 26.4499 6.08277 26.3182 5.97277C25.5004 5.28797 24.7038 4.57317 23.8393 3.94877C22.9644 3.31717 22.0424 2.73917 21.099 2.20957C19.962 1.57117 18.76 1.06317 17.4882 0.714773C16.9293 0.561573 16.3843 0.459173 15.8095 0.566773C15.4325 0.637173 15.1584 0.920773 15.15 1.29397C15.146 1.49517 15.1887 1.69757 15.2266 1.95477ZM40.7019 13.3512C40.9193 13.4944 41.126 13.6592 41.3577 13.7748C41.5708 13.8808 41.8089 13.8448 41.9498 13.6448C42.0874 13.4496 41.9581 13.2464 41.8049 13.1396C41.4423 12.8868 41.053 12.6696 40.6668 12.4508C40.6006 12.4132 40.4537 12.4024 40.4222 12.4408C40.366 12.5088 40.3257 12.6408 40.3564 12.716C40.4406 12.9224 40.5651 13.1136 40.7019 13.3512ZM40.1202 11.7048C40.1174 11.4672 40.145 11.2248 40.1047 10.9936C40.0496 10.676 39.9663 10.3576 39.8458 10.0588C39.8079 9.96477 39.612 9.88837 39.4875 9.88677C39.4141 9.88597 39.3044 10.038 39.2709 10.14C39.1141 10.62 39.456 11.5628 39.8789 11.848C39.9854 11.9204 40.0987 11.9556 40.1202 11.7048ZM40.7677 11.8316C41.0135 11.7308 41.2552 11.618 41.5065 11.5324C41.7778 11.44 41.9254 11.242 41.9916 10.9956C42.0248 10.872 42.0172 10.6652 41.9394 10.6036C41.8361 10.522 41.6222 10.4876 41.4966 10.5352C40.9612 10.7384 40.672 11.1764 40.4904 11.6828C40.417 11.8872 40.5072 11.9656 40.7677 11.8316ZM38.8564 11.6636C38.56 11.6312 38.2632 11.572 37.9672 11.5756C37.7541 11.578 37.5551 11.694 37.5303 11.9364C37.502 12.2112 37.7346 12.3128 37.9321 12.3052C38.4351 12.2868 38.9366 12.2148 39.4377 12.1572C39.4839 12.152 39.5242 12.0968 39.5673 12.0648C39.5266 12.0176 39.4951 11.9524 39.4432 11.926C39.2693 11.8372 39.0878 11.762 38.8564 11.6636ZM38.8305 13.7676C39.2334 13.4272 39.5027 13.0168 39.5873 12.4416C39.018 12.6092 38.5592 12.8436 38.2935 13.312C38.2014 13.4744 38.1467 13.7756 38.2377 13.8916C38.3817 14.076 38.6143 13.9144 38.8305 13.7676ZM39.8434 13.1952C39.7971 13.2856 39.7265 13.372 39.7089 13.4676C39.6475 13.802 39.5857 14.1388 39.5669 14.4768C39.5617 14.5736 39.7029 14.678 39.7768 14.7788C39.8928 14.6728 40.0616 14.588 40.1158 14.4572C40.3022 14.0104 40.1079 13.5712 40.0225 13.1328C40.0221 13.1304 39.9192 13.1464 39.8434 13.1952Z" fill="#101010"/>
<path d="M22.4226 46.8047C23.8165 46.8267 25.1765 46.8467 26.5369 46.8719C27.5593 46.8907 28.5814 46.9143 29.6039 46.9403C30.3467 46.9591 31.0903 46.9671 31.8315 47.0131C33.0096 47.0859 34.1861 47.1863 35.3633 47.2751C36.2865 47.3447 37.2136 47.3847 38.1319 47.4927C39.1624 47.6135 40.2036 47.7115 41.1838 48.0815C41.3534 48.1455 41.485 48.3067 41.6338 48.4231C41.5077 48.5471 41.4012 48.7075 41.25 48.7855C41.0609 48.8835 40.8387 48.9399 40.6245 48.9687C39.4576 49.1255 38.3182 49.4383 37.129 49.4799C35.8688 49.5239 34.6125 49.6671 33.3531 49.7367C31.8016 49.8227 30.2486 49.9219 28.6955 49.9375C24.2258 49.9823 19.7554 50.0043 15.2853 49.9991C14.0007 49.9975 12.7157 49.8787 11.4316 49.8035C10.4147 49.7439 9.39658 49.6903 8.38288 49.5955C7.21001 49.4859 6.03993 49.3455 4.87185 49.1963C4.33807 49.1279 3.80948 49.0143 3.28289 48.9027C3.14246 48.8731 3.00722 48.7887 2.88754 48.7047C2.55842 48.4735 2.57717 48.3091 2.94658 48.1271C3.52384 47.8423 4.14858 47.7531 4.78328 47.6843C5.57477 47.5987 6.36227 47.4763 7.15217 47.3755C7.46174 47.3359 7.77251 47.3019 8.08408 47.2835C8.96334 47.2311 9.84299 47.1811 10.7234 47.1431C11.941 47.0903 13.1585 47.0447 14.3765 47.0043C15.2705 46.9743 16.1649 46.9539 17.0593 46.9355C18.3028 46.9099 19.5467 46.8927 20.7906 46.8655C21.3228 46.8535 21.8558 46.8255 22.4226 46.8047Z" fill="#DBDBDB"/>
<path d="M32.5976 25.0833C32.1787 25.0101 31.7909 24.9369 31.4019 24.8689C31.0569 24.8089 30.8869 24.9057 30.9093 25.2473C30.9444 25.7869 31.0481 26.3229 31.1319 26.8589C31.1546 27.0033 31.2113 27.1429 31.2571 27.3005C30.4728 27.7145 29.6446 28.0209 28.7757 28.2249C26.1922 28.8321 23.5956 29.3477 20.9167 29.2377C19.7303 29.1889 18.5558 29.0625 17.4085 28.7261C16.6345 28.4989 16.0497 28.0137 15.4637 27.5141C15.2981 27.3729 15.1289 27.2309 14.9434 27.1181C14.7176 26.9809 14.6123 26.7925 14.6486 26.5477C14.6917 26.2581 14.7456 25.9665 14.8329 25.6869C15.1166 24.7797 15.5016 23.8937 15.6891 22.9689C15.8981 21.9393 15.9986 20.8785 16.0301 19.8277C16.0912 17.8157 16.066 15.8009 16.084 13.7877C16.0976 12.2905 16.4119 10.8409 16.7769 9.39212C17.1523 7.90172 17.6343 6.44972 18.1824 5.01452C18.2734 4.77652 18.4026 4.65292 18.6515 4.59172C19.4742 4.38972 20.29 4.44252 21.1078 4.60892C23.0554 5.00532 24.7988 5.85772 26.4316 6.93292C26.8393 7.20132 27.1716 7.58372 27.5183 7.93292C27.5997 8.01492 27.6296 8.17532 27.6292 8.29932C27.6276 9.12972 27.6316 9.96132 27.5953 10.7905C27.5323 12.2305 27.8973 13.5809 28.4331 14.9013C28.4586 14.9641 28.4809 15.0285 28.5125 15.1117C28.445 15.1373 28.3868 15.1757 28.3254 15.1805C27.7513 15.2249 27.3543 15.5861 26.9462 15.9205C26.8828 15.9725 26.8768 16.0913 26.8441 16.1789C26.9482 16.1893 27.0591 16.2261 27.1549 16.2033C27.2877 16.1713 27.4206 16.1105 27.5339 16.0345C28.2719 15.5377 29.3311 15.7577 30.0256 16.2977C30.7309 16.8461 31.4821 17.3425 32.2429 17.8157C32.8872 18.2165 33.6276 18.3833 34.3816 18.4885C35.6502 18.6653 36.9029 18.6353 38.1603 18.3605C39.7246 18.0181 41.3015 17.7313 42.873 17.4201C42.9527 17.4045 43.0297 17.3721 43.1099 17.3645C43.2057 17.3553 43.3034 17.3645 43.4004 17.3661C43.3704 17.4601 43.364 17.5721 43.3062 17.6445C43.1199 17.8757 42.9192 18.0961 42.7146 18.3125C42.5873 18.4469 42.4593 18.6049 42.6348 18.7421C42.711 18.8017 42.9575 18.7561 43.0497 18.6753C43.3305 18.4285 43.5739 18.1413 43.8336 17.8681C44.0291 18.1737 44.0562 18.5577 43.9413 18.8941C43.6736 19.6765 43.4187 20.4813 43.0086 21.1949C42.3611 22.3217 41.3933 23.1777 40.2017 23.7617C39.4477 24.1313 38.6993 24.5285 37.909 24.8069C36.6216 25.2605 35.2748 25.3449 33.914 25.1993C33.4864 25.1533 33.0567 25.1229 32.5976 25.0833ZM17.9123 7.51812C17.5768 8.16852 17.4121 8.86212 17.4156 9.58572C17.4172 9.85172 17.4675 10.1353 17.5716 10.3801C17.9287 11.2197 18.9663 11.4913 19.7379 11.0017C19.7989 10.9629 19.9597 10.9773 20.0055 11.0273C20.505 11.5697 21.2853 11.6857 21.9216 11.3157C22.6242 10.9073 23.0554 10.2865 23.3347 9.56692C23.5696 8.96172 23.6993 8.33052 23.5589 7.67052C23.371 6.78772 22.3501 6.34092 21.616 6.73972C21.4078 6.85292 21.2075 6.98012 21.0005 7.10252C20.9718 7.05372 20.9454 7.02652 20.9387 6.99532C20.7244 6.03772 19.8352 5.94772 19.165 6.23132C18.5809 6.47972 18.2143 6.93452 17.9123 7.51812ZM23.3642 6.42932C23.5389 6.12892 23.3554 5.93412 23.1404 5.76812C22.8515 5.54532 22.4658 5.50092 22.2727 5.66652C22.2053 5.72452 22.141 5.84612 22.1578 5.92052C22.1738 5.99172 22.2966 6.08812 22.374 6.08932C22.6098 6.09332 22.757 6.20092 22.8887 6.37732C23.0004 6.52812 23.1543 6.59812 23.3642 6.42932ZM20.1316 4.95292C19.8611 4.93252 19.5863 4.91532 19.4135 5.17532C19.3688 5.24252 19.3413 5.35892 19.3716 5.42332C19.4008 5.48572 19.5332 5.56172 19.5875 5.54252C19.8432 5.45252 20.051 5.52332 20.2804 5.63372C20.3614 5.67292 20.5644 5.59892 20.6219 5.51692C20.673 5.44372 20.6387 5.25452 20.5704 5.17652C20.4799 5.07412 20.3195 5.02932 20.1316 4.95292Z" fill="#FDFDFD"/>
<path d="M17.222 29.3548C17.9756 29.5016 18.6976 29.6772 19.4313 29.7692C20.133 29.8572 20.8459 29.8816 21.5544 29.8924C22.906 29.9128 24.2484 29.7972 25.5745 29.536C26.7561 29.3036 27.9386 29.0736 29.1123 28.8068C29.946 28.6172 30.7886 28.4344 31.5194 27.9532C31.7121 27.8264 31.9387 27.8448 32.0967 28.01C32.4514 28.3816 32.8208 28.748 33.1196 29.1612C33.9378 30.2924 34.1971 31.566 34.0874 32.9388C34.0196 33.7892 34.0096 34.6456 33.7279 35.4616C33.4355 36.3076 33.1487 37.1592 32.7916 37.98C32.2774 39.1624 31.476 40.1672 30.5744 41.092C29.9867 41.6944 29.2471 42.06 28.4596 42.372C26.6217 43.1004 24.7204 43.1064 22.7943 42.9468C21.9027 42.8728 21.0103 42.7536 20.1178 42.7536C18.8401 42.7536 17.5627 42.8588 16.2841 42.8908C15.5185 42.91 14.7494 42.9056 13.987 42.8464C13.7369 42.8268 13.4744 42.636 13.2677 42.4652C11.9026 41.3376 10.821 40.004 10.1022 38.386C9.58514 37.222 9.21413 36.0252 9.0382 34.7736C8.93806 34.062 9.1128 33.372 9.39963 32.718C9.52211 32.4388 9.75469 32.2468 10.0758 32.176C10.3136 32.1236 10.5442 32.0348 10.7839 31.9968C11.5706 31.8712 12.0789 31.444 12.3302 30.7068C12.5061 30.1912 12.6713 29.6692 12.8939 29.1728C13.1297 28.6472 13.4133 28.1396 13.7113 27.6444C13.7716 27.544 13.989 27.4924 14.135 27.4912C14.4853 27.488 14.7179 27.7276 14.9712 27.9312C15.4359 28.3044 15.9059 28.6744 16.4002 29.008C16.6347 29.1664 16.9292 29.2372 17.222 29.3548Z" fill="#947B97"/>
<path d="M1.30728 19.5503C1.25542 19.4395 1.21912 19.3503 1.18321 19.2607C1.29252 19.2403 1.40781 19.1875 1.51034 19.2047C2.07124 19.2987 2.62975 19.4083 3.18866 19.5151C4.74292 19.8115 6.31074 19.8415 7.88414 19.7323C9.82058 19.5975 11.6864 19.1227 13.5351 18.5787C14.076 18.4195 14.5974 18.1967 15.1292 18.0067C15.2122 17.9771 15.3028 17.9667 15.3937 17.9463C15.4109 18.0035 15.43 18.0355 15.428 18.0659C15.3399 19.4723 15.3411 20.8919 15.13 22.2811C14.9768 23.2891 14.5508 24.2587 14.2244 25.2383C14.1849 25.3563 14.0186 25.4939 13.8921 25.5151C12.3526 25.7735 10.8083 25.9603 9.23893 25.8127C7.79079 25.6763 6.40927 25.3015 5.07404 24.7531C3.95542 24.2935 2.90702 23.7135 1.99146 22.9279C1.32603 22.3567 0.776697 21.7059 0.639862 20.8083C0.58441 20.4431 0.637866 20.0955 0.783877 19.7231C1.05595 20.0379 1.28494 20.3295 1.54585 20.5915C1.65077 20.6971 1.81912 20.7639 1.97031 20.7959C2.05648 20.8143 2.19292 20.7487 2.25356 20.6779C2.28428 20.6419 2.21925 20.4895 2.15861 20.4247C1.88773 20.1335 1.60289 19.8547 1.30728 19.5503Z" fill="#FCFCFC"/>
<path d="M0.924414 33.7392C1.24795 33.0464 1.81244 32.79 2.50221 33.0564C3.39622 33.4012 4.16338 33.9132 4.58186 34.8032C4.69755 35.0496 4.88346 35.0716 5.09848 34.9944C5.33744 34.9088 5.56165 34.7848 5.79901 34.6936C6.49994 34.4248 7.20367 34.1632 7.90739 33.9012C8.06816 33.8416 8.23292 33.792 8.36337 33.7488C8.48146 37.4412 9.97986 40.4928 12.8195 42.9348C12.8095 42.96 12.7995 42.9856 12.7896 43.0108C12.3452 43.0452 11.9007 43.0884 11.4559 43.1124C10.7007 43.1532 9.94476 43.182 9.22747 43.4552C9.1413 43.488 9.05114 43.5128 8.97016 43.5548C8.02109 44.0464 7.41111 43.742 6.8179 43.0256C6.47601 42.6124 6.17401 42.168 5.84888 41.7416C5.14875 40.8236 4.26191 40.0896 3.37109 39.362C2.38851 38.5588 1.55473 37.6452 1.08399 36.4624C0.73452 35.5844 0.604467 34.6852 0.924414 33.7392Z" fill="#FCFCFC"/>
<path d="M36.8243 43.1572C36.1042 43.2176 35.4133 43.2776 34.7219 43.3376C34.704 43.3012 34.6864 43.2648 34.6685 43.2284C34.7965 43.066 34.933 42.9092 35.0514 42.7404C35.8589 41.5896 36.4405 40.3452 36.794 38.986C37.1538 37.6008 37.5954 36.2364 37.9832 34.858C38.0682 34.5556 38.0889 34.2332 38.1113 33.9184C38.1208 33.7828 38.132 33.71 38.2892 33.6944C38.426 33.6808 38.5724 33.6556 38.6917 33.5936C39.2506 33.3028 40.005 33.8904 40.0417 34.4416C40.0613 34.7356 40.078 35.0376 40.0341 35.3268C39.8837 36.3168 40.1447 37.2696 40.2568 38.238C40.4319 39.7504 40.5731 41.2664 40.7103 42.7824C40.8061 43.8412 39.3994 45.3112 38.2118 45.2028C38.0522 45.1884 37.8887 45.1592 37.7391 45.1048C37.3162 44.9508 37.1981 44.63 37.402 44.234C37.4123 44.2136 37.4247 44.194 37.4351 44.174C37.7163 43.62 37.4794 43.2056 36.8243 43.1572Z" fill="#FBFBFB"/>
<path d="M29.6526 43.1884C29.4205 43.0876 29.2158 42.9912 29.0315 42.9048C29.5505 42.5772 30.0739 42.2848 30.5542 41.9352C31.2201 41.4512 31.7119 40.8008 32.2074 40.1576C33.352 38.6716 34.0433 36.9856 34.4666 35.1916C34.6094 34.5872 34.6509 33.9584 34.7151 33.3384C34.7355 33.1416 34.7762 33.0532 34.9988 33.0692C35.6 33.1124 36.2064 33.1056 36.8028 33.1792C37.2847 33.2388 37.5173 33.5264 37.4885 34.008C37.4658 34.388 37.3701 34.7684 37.2671 35.1384C36.9181 36.3948 36.5478 37.6452 36.1924 38.9C35.7209 40.564 34.9912 42.0852 33.713 43.3196C33.3959 43.626 33.0013 43.6016 32.6375 43.5904C31.6405 43.5608 30.6448 43.4744 29.6526 43.1884Z" fill="#937A96"/>
<path d="M15.2188 1.92793C15.1888 1.69833 15.1466 1.49553 15.151 1.29393C15.1589 0.92073 15.4334 0.63713 15.8104 0.56673C16.3853 0.45953 16.9302 0.56193 17.4891 0.71473C18.7609 1.06313 19.9629 1.57113 21.0999 2.20953C22.0434 2.73913 22.9657 3.31713 23.8402 3.94873C24.7047 4.57313 25.5013 5.28793 26.3192 5.97273C26.4504 6.08273 26.5374 6.24313 26.6451 6.38033C26.6244 6.40273 26.6036 6.42473 26.5825 6.44713C26.3092 6.27913 26.0459 6.09273 25.7611 5.94633C24.5299 5.31473 23.312 4.64233 21.954 4.30393C21.3732 4.15913 20.7636 4.10673 20.1632 4.06073C19.5388 4.01273 18.9101 3.99713 18.2934 4.17553C18.1749 4.20993 18.0193 4.16313 17.8924 4.12113C16.8424 3.77313 15.9732 3.18433 15.3612 2.26553C15.2994 2.17353 15.271 2.05953 15.2188 1.92793Z" fill="#927995"/>
<path d="M24.4481 1.47718C25.1666 0.959183 26.6937 3.42838 26.9028 4.01958C27.103 4.58638 28.2336 6.02518 27.5183 6.34158C26.8573 6.63398 25.7283 5.45918 25.6585 4.78118C25.6026 4.24158 25.7826 3.54438 25.6529 3.18478C25.5532 2.90878 24.127 1.70878 24.4481 1.47718Z" fill="#C5A2CA"/>
<path d="M25.6578 4.78196C25.1631 4.40796 24.3241 3.80956 23.8267 3.38716C23.9787 2.93996 24.1558 2.54756 24.2799 2.13996C24.3433 1.93156 24.435 1.85716 24.6401 1.88956C24.6401 1.88956 24.6417 1.89556 24.6345 1.92196C25.0546 1.78436 25.055 1.96236 25.266 2.45516C25.5904 3.21116 26.0763 4.15276 25.6578 4.78196Z" fill="#C9A5CE"/>
<path d="M24.2549 1.5004C24.2792 1.506 24.4843 1.444 24.495 1.5004C24.6016 2.0696 24.0781 3.0192 23.6784 3.4448C23.3114 3.1988 22.8127 2.9524 22.4365 2.666C22.5785 2.282 22.6388 2.1584 22.9344 2.032C23.2061 1.9152 24.3331 1.3108 24.2549 1.5004Z" fill="#C9A5CE"/>
<path d="M40.6884 13.3327C40.5659 13.1151 40.4415 12.9239 40.3573 12.7171C40.3266 12.6419 40.3669 12.5099 40.4231 12.4419C40.4546 12.4035 40.6018 12.4147 40.6677 12.4519C41.0538 12.6711 41.4432 12.8879 41.8058 13.1407C41.959 13.2475 42.0879 13.4507 41.9506 13.6459C41.8098 13.8459 41.5712 13.8823 41.3586 13.7759C41.1264 13.6607 40.9202 13.4959 40.6884 13.3327Z" fill="#D57378"/>
<path d="M40.119 11.7339C40.0987 11.9551 39.9854 11.9199 39.8784 11.8479C39.4556 11.5627 39.1137 10.6199 39.2705 10.1399C39.304 10.0379 39.4137 9.88592 39.4871 9.88672C39.6116 9.88792 39.8074 9.96432 39.8453 10.0587C39.9658 10.3575 40.0492 10.6759 40.1042 10.9935C40.1449 11.2243 40.1174 11.4667 40.119 11.7339Z" fill="#D57378"/>
<path d="M40.7425 11.8421C40.5075 11.9657 40.4173 11.8873 40.4907 11.6829C40.6723 11.1765 40.9615 10.7385 41.4969 10.5353C41.6225 10.4877 41.8364 10.5225 41.9397 10.6037C42.0179 10.6653 42.0251 10.8721 41.9919 10.9957C41.9257 11.2421 41.7781 11.4401 41.5068 11.5325C41.2555 11.6181 41.0138 11.7309 40.7425 11.8421Z" fill="#C99FA2"/>
<path d="M38.8829 11.6721C39.0879 11.7613 39.2695 11.8365 39.4434 11.9257C39.4953 11.9521 39.5268 12.0173 39.5675 12.0645C39.5244 12.0965 39.4841 12.1517 39.4378 12.1569C38.9367 12.2145 38.4353 12.2865 37.9322 12.3049C37.7344 12.3121 37.5018 12.2109 37.5305 11.9361C37.5556 11.6937 37.7547 11.5777 37.9673 11.5753C38.2633 11.5721 38.5602 11.6309 38.8829 11.6721Z" fill="#CFBE73"/>
<path d="M38.8096 13.7836C38.6141 13.9152 38.3815 14.0764 38.2371 13.8924C38.1461 13.7764 38.2008 13.4752 38.2929 13.3128C38.5586 12.8444 39.0174 12.61 39.5867 12.4424C39.5025 13.0176 39.2332 13.428 38.8096 13.7836Z" fill="#C99FA2"/>
<path d="M21.6371 1.40541C21.8569 1.10621 24.2234 1.04821 24.3503 1.49981C24.3654 1.57301 23.5337 1.74301 23.4622 1.76381C23.0414 1.88541 22.8818 2.28741 22.4126 2.44101C22.0452 2.56301 21.4273 2.16421 21.3391 1.78141C21.4468 1.61461 21.4552 1.48781 21.6371 1.40541Z" fill="#C5A2CA"/>
<path d="M39.8535 13.1743C39.9189 13.1463 40.0222 13.1303 40.0226 13.1331C40.108 13.5719 40.3023 14.0111 40.116 14.4575C40.0617 14.5879 39.893 14.6731 39.7769 14.7791C39.7027 14.6783 39.5618 14.5739 39.567 14.4771C39.5854 14.1391 39.6476 13.8023 39.7091 13.4679C39.7262 13.3723 39.7968 13.2859 39.8535 13.1743Z" fill="#CFBE73"/>
<path d="M25.6578 4.59243C25.7221 3.85443 25.3886 3.22523 25.1711 2.57043C25.1041 2.36843 25.0315 2.16803 24.9717 1.94043C25.0846 1.98963 25.1871 2.06563 25.296 2.16163C25.4209 2.55443 25.5617 2.92243 25.6523 3.30163C25.7664 3.77963 25.8394 4.26723 25.9279 4.78083C25.8398 4.74363 25.7544 4.67643 25.6578 4.59243Z" fill="#947B97"/>
<path d="M23.8267 3.23675C24.22 2.79155 24.2799 2.22835 24.4614 1.68555C24.6293 1.72635 24.7945 1.79435 24.9668 1.88475C24.7685 1.87435 24.6772 1.94875 24.6134 2.15755C24.4889 2.56515 24.3122 2.95715 24.1478 3.38515C24.0373 3.36155 23.9352 3.30915 23.8267 3.23675Z" fill="#947B97"/>
<path d="M22.4885 2.2968C22.6912 1.8372 23.1153 1.722 23.5361 1.6004C23.6075 1.58 23.6758 1.5496 23.7508 1.5C23.9494 1.5088 24.1429 1.542 24.3504 1.5956C24.0771 1.6984 23.7775 1.7528 23.5058 1.8692C23.2102 1.9956 22.8532 2.0548 22.6924 2.424C22.6186 2.4056 22.5547 2.3608 22.4885 2.2968Z" fill="#947B97"/>
<path d="M23.5343 1.43724C23.4617 1.45684 23.3699 1.46004 23.271 1.44204C23.348 1.42124 23.4318 1.42124 23.5343 1.43724Z" fill="#947B97"/>
<path d="M22.0704 1.41504C22.0281 1.44664 21.9631 1.47064 21.8865 1.47784C21.9324 1.44264 21.9902 1.42504 22.0704 1.41504Z" fill="#947B97"/>
<path d="M38.888 11.1426C38.8959 11.157 38.8808 11.1922 38.8449 11.2186C38.8377 11.1942 38.8513 11.1786 38.888 11.1426Z" fill="white"/>
<path d="M41.1404 14.3132C41.1316 14.2976 41.1444 14.26 41.1787 14.2324C41.1875 14.2584 41.1751 14.2748 41.1404 14.3132Z" fill="white"/>
<path d="M31.6263 25.6482C31.6151 25.6278 31.6311 25.5823 31.669 25.5479C31.6786 25.5807 31.6662 25.6018 31.6263 25.6482Z" fill="white"/>
<path d="M17.9254 7.4943C18.2146 6.9331 18.5812 6.4779 19.1657 6.2303C19.8359 5.9467 20.7251 6.0363 20.9393 6.9943C20.9465 7.0255 20.9724 7.0527 21.0012 7.1015C21.2078 6.9791 21.4085 6.8519 21.6167 6.7387C22.3512 6.3395 23.3716 6.7867 23.5595 7.6695C23.7 8.3295 23.5703 8.9603 23.3353 9.5659C23.0561 10.2855 22.6244 10.9063 21.9223 11.3147C21.286 11.6847 20.5057 11.5687 20.0062 11.0263C19.9603 10.9763 19.7996 10.9619 19.7385 11.0007C18.967 11.4903 17.9294 11.2187 17.5723 10.3791C17.4682 10.1343 17.4175 9.8507 17.4163 9.5847C17.4123 8.8607 17.5775 8.1671 17.9254 7.4943ZM20.5611 8.6247C20.5077 8.7855 20.4419 8.9439 20.4028 9.1079C20.2787 9.6291 20.1614 10.1451 20.4403 10.6667C20.5679 10.9055 20.749 11.0139 20.9928 10.9903C21.2178 10.9683 21.4508 10.9119 21.6542 10.8175C22.1002 10.6099 22.4078 10.2567 22.5865 9.8091C22.8355 9.1851 23.0669 8.5539 22.9871 7.8651C22.9256 7.3351 22.4748 6.9751 22.03 7.1615C21.6909 7.3039 21.3698 7.5319 21.1057 7.7863C20.8827 8.0015 20.7522 8.3091 20.5611 8.6247ZM20.234 6.7727C19.9635 6.6079 19.6851 6.6203 19.3998 6.7339C18.975 6.9031 18.6387 7.1843 18.4272 7.5735C18.0379 8.2891 17.8452 9.0603 17.9401 9.8723C18.0315 10.6507 18.6506 10.9207 19.3707 10.6431C19.5211 10.5851 19.7174 10.3667 19.7086 10.2335C19.6528 9.3519 20.0581 8.6043 20.3728 7.8283C20.5177 7.4723 20.5424 7.1279 20.234 6.7727Z" fill="#131313"/>
<path d="M23.3505 6.44758C23.1542 6.59758 23.0002 6.52758 22.8881 6.37718C22.7564 6.20078 22.6092 6.09358 22.3735 6.08918C22.2961 6.08798 22.1732 5.99158 22.1572 5.92038C22.1405 5.84558 22.2047 5.72398 22.2721 5.66638C22.4652 5.50078 22.851 5.54518 23.1398 5.76798C23.3552 5.93358 23.5388 6.12838 23.3505 6.44758Z" fill="#1D1D1D"/>
<path d="M20.1595 4.955C20.3187 5.0282 20.4791 5.0726 20.5692 5.1758C20.6375 5.2538 20.6718 5.443 20.6207 5.5162C20.5637 5.5982 20.3602 5.6722 20.2792 5.633C20.0498 5.5226 19.842 5.4518 19.5863 5.5418C19.532 5.561 19.3996 5.4846 19.3704 5.4226C19.3405 5.3578 19.368 5.2414 19.4123 5.1746C19.5855 4.9138 19.8603 4.931 20.1595 4.955Z" fill="#1D1D1D"/>
<path d="M20.5704 8.60048C20.7515 8.30928 20.8823 8.00208 21.1058 7.78688C21.3698 7.53248 21.691 7.30448 22.0301 7.16208C22.4749 6.97568 22.9257 7.33528 22.9871 7.86568C23.0669 8.55448 22.8355 9.18568 22.5866 9.80968C22.4079 10.2573 22.1003 10.6105 21.6543 10.8181C21.4508 10.9129 21.2179 10.9689 20.9929 10.9909C20.7491 11.0149 20.568 10.9065 20.4403 10.6673C20.1615 10.1457 20.2788 9.62968 20.4028 9.10848C20.4419 8.94408 20.5073 8.78608 20.5704 8.60048ZM20.8484 9.43328C21.073 9.76528 21.3212 9.82488 21.5326 9.54688C21.6846 9.34648 21.774 9.08648 21.8366 8.84008C21.8885 8.63488 21.774 8.42768 21.549 8.41088C21.3946 8.39928 21.15 8.47688 21.087 8.59008C20.9546 8.82648 20.9155 9.11288 20.8484 9.43328Z" fill="#F5F5F5"/>
<path d="M20.2529 6.79344C20.5417 7.12944 20.5174 7.47384 20.3726 7.82984C20.0578 8.60584 19.6525 9.35304 19.7083 10.235C19.7167 10.3682 19.5208 10.5866 19.3704 10.6446C18.6507 10.9226 18.0316 10.6526 17.9398 9.87384C17.8445 9.06184 18.0376 8.29064 18.4269 7.57504C18.6384 7.18584 18.9747 6.90464 19.3995 6.73544C19.6844 6.62224 19.9628 6.60944 20.2529 6.79344ZM18.6013 8.68224C18.5734 8.92624 18.6148 9.16904 18.8817 9.22984C19.0142 9.26024 19.238 9.17544 19.3265 9.06864C19.5324 8.82064 19.6589 8.51464 19.5392 8.18624C19.4993 8.07624 19.3832 7.93144 19.2851 7.91784C19.1594 7.90024 18.9683 7.96224 18.8925 8.05664C18.7613 8.21944 18.6974 8.43384 18.6013 8.68224Z" fill="#F5F5F5"/>
<path d="M20.8438 9.40593C20.916 9.11273 20.9551 8.82633 21.0871 8.58953C21.1501 8.47633 21.3947 8.39873 21.5491 8.41033C21.7741 8.42713 21.889 8.63473 21.8367 8.83953C21.7741 9.08633 21.6851 9.34633 21.5327 9.54633C21.3217 9.82513 21.0735 9.76553 20.8438 9.40593Z" fill="#131313"/>
<path d="M18.604 8.65374C18.604 8.41454 18.762 8.21854 18.8932 8.05574C18.969 7.96134 19.1601 7.89974 19.2858 7.91694C19.3839 7.93054 19.4996 8.07534 19.5399 8.18534C19.6596 8.51374 19.5331 8.81974 19.3273 9.06774C19.2387 9.17454 19.0149 9.25934 18.8825 9.22894C18.6152 9.16854 18.604 8.94534 18.604 8.65374Z" fill="#131313"/>
<path d="M38.9107 11.1204C38.8776 10.7784 38.8053 10.434 38.8265 10.0952C38.8377 9.91557 38.9745 9.70517 39.1189 9.57877C39.5454 9.20517 40.0688 9.38637 40.3121 9.98277C40.4055 10.2112 40.4486 10.4592 40.5307 10.7556C40.6213 10.6712 40.6955 10.6148 40.7533 10.5456C41.0745 10.1608 41.4846 10.05 41.9705 10.152C42.3682 10.2352 42.596 10.5876 42.4891 10.974C42.3208 11.5816 41.9035 11.9308 41.2177 12.078C41.4666 12.262 41.6861 12.412 41.8915 12.5784C42.1987 12.8272 42.395 13.1476 42.4221 13.5396C42.4644 14.1528 41.9545 14.4556 41.2057 14.2356C41.1447 14.2608 41.1315 14.2984 41.1188 14.336C41.341 15.2264 41.5628 16.1168 41.7958 17.0504C42.1847 16.9664 42.5478 16.9072 42.8984 16.8076C43.5295 16.6284 43.7944 16.666 44.2333 17.3332C44.6581 17.9796 44.7096 18.692 44.4156 19.422C44.2201 19.9068 44.0837 20.4168 43.8635 20.89C43.2555 22.1956 42.2992 23.2212 41.051 23.9612C40.1418 24.5004 39.2318 25.05 38.199 25.36C36.8155 25.7752 35.4124 25.9704 33.9663 25.7996C33.2278 25.7124 32.4886 25.634 31.6979 25.5432C31.6305 25.5804 31.6141 25.6264 31.5982 25.672C31.6153 25.91 31.6189 26.1492 31.652 26.3852C31.7099 26.7992 31.8882 27.1076 32.2608 27.3864C33.4971 28.3112 34.3185 29.522 34.6049 31.0408C34.6744 31.4084 34.7258 31.7816 34.7502 32.1548C34.7653 32.3848 34.8431 32.4688 35.0809 32.4724C35.627 32.4808 36.1736 32.5016 36.7181 32.5408C37.1075 32.5688 37.4637 32.692 37.7454 32.9836C37.9584 33.204 38.2261 33.112 38.4607 33.0372C39.5553 32.6884 40.6317 33.4196 40.6724 34.554C40.6787 34.7356 40.6983 34.9224 40.6676 35.0992C40.4737 36.214 40.7745 37.2904 40.9045 38.382C41.0725 39.7924 41.1986 41.2072 41.3326 42.6212C41.4714 44.0856 39.9084 45.672 38.5093 45.7592C37.9285 45.7956 37.3951 45.692 36.9986 45.2284C36.6774 44.8532 36.6535 44.4508 36.8964 44.0268C36.9399 43.9512 36.9678 43.8668 37.0412 43.6988C36.6938 43.7464 36.4181 43.8076 36.1408 43.8176C35.5516 43.8388 34.9616 43.8264 34.3724 43.8432C34.2252 43.8472 34.0776 43.902 33.9343 43.9476C33.7045 44.0208 33.4827 44.1596 33.2506 44.176C31.9125 44.2716 30.6044 44.076 29.3286 43.692C28.9676 43.5836 28.6393 43.3748 28.2862 43.2356C28.1689 43.1892 28.0085 43.1776 27.8897 43.2156C26.3083 43.722 24.683 43.7568 23.0534 43.6032C21.2893 43.4372 19.5323 43.3164 17.7567 43.4452C16.5635 43.5316 15.3571 43.5652 14.1643 43.4936C13.1633 43.4336 12.2214 43.7644 11.2313 43.7424C10.662 43.73 10.0875 43.8984 9.51745 43.9964C9.39498 44.0176 9.27809 44.0788 9.16319 44.1316C8.13394 44.6016 7.28221 44.4556 6.53101 43.6136C6.08301 43.1116 5.73673 42.522 5.28075 42.0284C4.67556 41.3732 4.03846 40.7392 3.35907 40.158C2.412 39.348 1.48008 38.5336 0.872902 37.436C0.253754 36.3168 -0.0538267 35.1368 0.236599 33.8596C0.476359 32.806 1.5116 32.0896 2.45149 32.4048C3.00162 32.5896 3.53021 32.8836 4.00734 33.2128C4.36638 33.4608 4.6221 33.8488 4.93806 34.1608C5.00787 34.23 5.17383 34.3036 5.23447 34.27C6.21625 33.724 7.3245 33.526 8.36811 33.1516C8.47662 33.1128 8.59671 32.992 8.63022 32.8848C8.90947 31.9976 9.54817 31.5652 10.4565 31.4352C11.0641 31.348 11.5417 31.1048 11.7391 30.4604C11.935 29.8204 12.1468 29.1752 12.446 28.5776C12.7381 27.9952 13.1147 27.4432 13.5224 26.9296C13.7793 26.606 13.8355 26.6484 13.8323 26.1696C13.2814 26.234 12.7337 26.3024 12.1851 26.3616C10.8834 26.5024 9.58407 26.5148 8.28793 26.294C6.55734 25.9988 4.91931 25.4484 3.39218 24.5976C2.28553 23.9812 1.24192 23.282 0.544578 22.2044C-0.0458479 21.292 -0.201433 20.3256 0.30362 19.3244C0.609604 18.718 1.09152 18.5144 1.77569 18.6472C2.58474 18.8044 3.39019 18.998 4.20681 19.0984C6.05428 19.3256 7.90176 19.2996 9.73128 18.9228C11.3809 18.5832 12.9994 18.136 14.5644 17.5184C14.7998 17.4256 15.0371 17.3236 15.2442 17.1844C15.3439 17.1176 15.4277 16.956 15.4309 16.8348C15.464 15.6748 15.4795 14.5144 15.4983 13.354C15.5167 12.2232 15.744 11.1212 16.0333 10.0356C16.3839 8.71957 16.7861 7.41637 17.1778 6.11117C17.2983 5.70997 17.4291 5.30717 17.6075 4.92877C17.7335 4.66157 17.6406 4.57357 17.4084 4.48397C16.4797 4.12717 15.7065 3.55277 15.093 2.79277C14.6526 2.24797 14.5568 1.59397 14.6861 0.917973C14.7655 0.501173 15.3399 0.0955731 15.8613 0.0291732C16.7697 -0.0864268 17.6202 0.159973 18.4548 0.443973C19.1442 0.678373 19.8076 0.983173 20.4874 1.24557C20.574 1.27917 20.6964 1.26517 20.7894 1.23477C21.1572 1.11477 21.5151 0.888773 21.8857 0.869173C22.6125 0.830773 23.3458 0.911573 24.0766 0.924373C24.1903 0.926373 24.3515 0.859973 24.4113 0.773173C24.5629 0.551973 24.7604 0.513173 24.9878 0.575973C25.2232 0.640773 25.3157 0.830773 25.295 1.05317C25.2762 1.25277 25.3313 1.36397 25.51 1.49037C26.8728 2.45277 27.8051 3.70357 28.0468 5.36117C28.1398 5.99997 28.1402 6.65237 28.1681 7.29917C28.2391 8.94677 28.2702 10.5964 28.3791 12.2412C28.4446 13.2304 28.7466 14.1788 29.199 15.0732C29.2428 15.16 29.3115 15.2712 29.3932 15.2972C30.1253 15.5308 30.6351 16.0816 31.226 16.5132C32.0617 17.1236 32.9354 17.6668 33.9774 17.8476C35.2428 18.0676 36.5123 18.1492 37.7893 17.8608C38.8528 17.6208 39.9287 17.4344 41.0015 17.234C41.2137 17.1944 41.2668 17.1216 41.2057 16.912C41.0091 16.2356 40.8351 15.5532 40.6464 14.8744C40.6237 14.7932 40.5635 14.722 40.5208 14.6464C40.4613 14.7036 40.3927 14.7544 40.3444 14.8196C40.1908 15.0268 40.0424 15.2124 39.7261 15.1608C39.3806 15.1044 39.2342 14.8976 39.1863 14.5888C39.164 14.4452 39.1468 14.3012 39.1205 14.108C38.6641 14.3148 38.189 14.6292 37.8112 14.0912C37.4597 13.5912 37.8327 13.1972 38.1339 12.758C38.0143 12.7444 37.9225 12.7308 37.8303 12.7244C37.3484 12.69 37.0839 12.4896 37.0305 12.1156C36.9714 11.7036 37.1781 11.348 37.6373 11.2524C38.0011 11.1764 38.3913 11.2208 38.8177 11.2188C38.8803 11.1908 38.8955 11.1556 38.9107 11.1204ZM24.9599 1.86357C24.7947 1.79557 24.6295 1.72717 24.4365 1.63437C24.4121 1.62877 24.3878 1.62277 24.3359 1.57517C24.1424 1.54237 23.949 1.50917 23.7064 1.46317C23.6553 1.45997 23.6047 1.45637 23.5157 1.42037C23.4319 1.42037 23.3482 1.42037 23.201 1.40957C22.8315 1.41317 22.4621 1.41717 22.0472 1.40597C21.9894 1.42357 21.9319 1.44157 21.8206 1.45957C21.6846 1.51237 21.5486 1.56517 21.4129 1.61797C21.4173 1.65077 21.4217 1.68357 21.4261 1.71637C21.7795 1.90357 22.1326 2.09077 22.4905 2.31637C22.5543 2.36117 22.6185 2.40597 22.7194 2.47997C23.0865 2.72597 23.4531 2.97237 23.8337 3.25757C23.9354 3.30997 24.0371 3.36277 24.1636 3.45437C24.6583 3.82837 25.1526 4.20197 25.6688 4.60917C25.7545 4.67637 25.8403 4.74397 25.95 4.85037C26.4838 5.39757 27.0172 5.94517 27.5178 6.45837C27.448 5.69437 27.2278 4.90037 26.9023 4.13637C26.5624 3.33837 26.039 2.67437 25.2894 2.14157C25.1869 2.06557 25.0843 1.98957 24.9754 1.91397C24.9754 1.91397 24.9738 1.90797 24.9599 1.86357ZM32.6282 25.084C33.0571 25.1212 33.4863 25.1516 33.914 25.1976C35.2748 25.3432 36.6216 25.2588 37.9089 24.8052C38.6992 24.5268 39.4476 24.1296 40.2016 23.76C41.3928 23.1756 42.3611 22.32 43.0085 21.1932C43.4186 20.4796 43.6736 19.6748 43.9412 18.8924C44.0565 18.5556 44.0294 18.172 43.8335 17.8664C43.5738 18.1396 43.3305 18.4268 43.0496 18.6736C42.9571 18.7548 42.7109 18.8004 42.6347 18.7404C42.4592 18.6032 42.5873 18.4456 42.7145 18.3108C42.9192 18.0948 43.1198 17.874 43.3061 17.6428C43.3644 17.5708 43.3704 17.4584 43.4003 17.3644C43.3033 17.3632 43.206 17.354 43.1099 17.3628C43.0297 17.3704 42.9527 17.4024 42.8729 17.4184C41.3015 17.73 39.7245 18.0168 38.1603 18.3588C36.9028 18.634 35.6498 18.664 34.3815 18.4868C33.6275 18.3816 32.8871 18.2148 32.2428 17.814C31.4817 17.3408 30.7305 16.844 30.0256 16.296C29.331 15.756 28.2714 15.536 27.5338 16.0328C27.4205 16.1092 27.2877 16.17 27.1548 16.2016C27.0591 16.2244 26.9482 16.1876 26.844 16.1772C26.8768 16.0892 26.8827 15.9708 26.9462 15.9188C27.3543 15.5844 27.7512 15.2228 28.3253 15.1788C28.3867 15.174 28.4454 15.1356 28.5124 15.11C28.4813 15.0268 28.4585 14.9628 28.433 14.8996C27.8972 13.5792 27.5326 12.2288 27.5952 10.7888C27.6315 9.95917 27.6276 9.12797 27.6291 8.29757C27.6295 8.17357 27.5992 8.01277 27.5182 7.93117C27.1716 7.58197 26.8393 7.19957 26.4315 6.93117C24.7987 5.85597 23.0553 5.00397 21.1077 4.60717C20.2899 4.44077 19.4741 4.38757 18.6515 4.58997C18.4022 4.65117 18.2729 4.77517 18.1823 5.01277C17.6342 6.44797 17.1523 7.89997 16.7769 9.39037C16.4123 10.8392 16.0975 12.2888 16.0839 13.786C16.0656 15.7996 16.0907 17.814 16.0301 19.826C15.9982 20.8768 15.8976 21.938 15.689 22.9672C15.5015 23.892 15.1161 24.7776 14.8329 25.6852C14.7455 25.9648 14.6917 26.2564 14.6486 26.546C14.6123 26.7908 14.7176 26.9792 14.9434 27.1164C15.1293 27.2292 15.298 27.3712 15.4636 27.5124C16.0496 28.012 16.6345 28.4976 17.4084 28.7244C18.5557 29.0608 19.7302 29.1876 20.9166 29.236C23.5955 29.346 26.1926 28.8304 28.7757 28.2232C29.6446 28.0188 30.4728 27.7128 31.2571 27.2988C31.2112 27.1412 31.1545 27.0016 31.1318 26.8572C31.0476 26.3212 30.9439 25.7852 30.9092 25.2456C30.8869 24.904 31.0572 24.8072 31.4019 24.8672C31.7908 24.9356 32.179 25.0088 32.6282 25.084ZM17.1958 29.346C16.9289 29.236 16.6345 29.1648 16.4011 29.0076C15.9068 28.6736 15.4365 28.304 14.9721 27.9308C14.7188 27.7272 14.4862 27.4876 14.1359 27.4908C13.9903 27.492 13.7729 27.5436 13.7123 27.644C13.4143 28.1392 13.1306 28.6468 12.8948 29.1724C12.6722 29.6688 12.5071 30.1908 12.3311 30.7064C12.0798 31.4436 11.5712 31.8708 10.7849 31.9964C10.5451 32.0348 10.3145 32.1232 10.0768 32.1756C9.75521 32.2464 9.52304 32.4384 9.40056 32.7176C9.11373 33.3716 8.93899 34.0616 9.03913 34.7732C9.21506 36.0244 9.58607 37.2216 10.1031 38.3856C10.822 40.0036 11.9031 41.3372 13.2686 42.4648C13.4753 42.6356 13.7378 42.8268 13.9879 42.846C14.7503 42.9052 15.5194 42.9096 16.285 42.8904C17.5632 42.8584 18.8406 42.7532 20.1188 42.7532C21.0108 42.7532 21.9036 42.8728 22.7952 42.9464C24.7213 43.106 26.6226 43.0996 28.4605 42.3716C29.248 42.0596 29.9877 41.694 30.5753 41.0916C31.4769 40.1672 32.2784 39.162 32.7926 37.9796C33.1496 37.1588 33.4365 36.3076 33.7289 35.4612C34.0109 34.6452 34.0205 33.7888 34.0883 32.9384C34.198 31.5656 33.9383 30.292 33.1205 29.1608C32.8217 28.7476 32.4527 28.3812 32.0976 28.0096C31.9397 27.8444 31.7135 27.826 31.5204 27.9528C30.7895 28.434 29.9466 28.6168 29.1132 28.8064C27.9395 29.0732 26.7567 29.3032 25.5754 29.5356C24.2494 29.7968 22.9065 29.912 21.5553 29.892C20.8468 29.8812 20.1339 29.8568 19.4322 29.7688C18.6978 29.6764 17.9753 29.5004 17.1958 29.346ZM1.3241 19.5716C1.60375 19.8548 1.88819 20.1336 2.15907 20.4248C2.21971 20.49 2.28474 20.6424 2.25402 20.678C2.19338 20.7492 2.05694 20.8144 1.97077 20.796C1.81958 20.764 1.65162 20.6968 1.54631 20.5916C1.2854 20.3296 1.05641 20.0376 0.784339 19.7232C0.638328 20.0956 0.58487 20.4432 0.640322 20.8084C0.777157 21.706 1.32649 22.3568 1.99192 22.928C2.90748 23.7136 3.95588 24.2936 5.0745 24.7532C6.40974 25.3016 7.79125 25.6764 9.23939 25.8128C10.8088 25.9604 12.3531 25.7736 13.8926 25.5152C14.019 25.494 14.1858 25.3564 14.2249 25.2384C14.5512 24.2588 14.9777 23.2892 15.1305 22.2812C15.3415 20.8924 15.3403 19.4728 15.4285 18.066C15.4305 18.0352 15.4113 18.0032 15.3942 17.9464C15.3032 17.9668 15.2131 17.9768 15.1297 18.0068C14.5979 18.1968 14.0765 18.4196 13.5355 18.5788C11.6869 19.1228 9.82104 19.5976 7.8846 19.7324C6.3112 19.8416 4.74338 19.8116 3.18913 19.5152C2.63022 19.4088 2.0721 19.2988 1.5108 19.2048C1.40788 19.1876 1.29298 19.2404 1.18367 19.2608C1.21998 19.3504 1.25628 19.44 1.3241 19.5716ZM0.911997 33.7624C0.60362 34.684 0.733673 35.5832 1.08314 36.4612C1.55389 37.644 2.38766 38.5576 3.37024 39.3608C4.26107 40.0888 5.1479 40.8228 5.84803 41.7404C6.17317 42.1668 6.47516 42.6116 6.81705 43.0244C7.41027 43.7412 8.02024 44.0452 8.96931 43.5536C9.0503 43.5116 9.14045 43.4868 9.22662 43.454C9.94391 43.1808 10.6999 43.152 11.4551 43.1112C11.9003 43.0872 12.3443 43.044 12.7887 43.0096C12.7987 42.9844 12.8087 42.9588 12.8186 42.9336C9.97942 40.4916 8.48101 37.44 8.36293 33.7476C8.23248 33.7908 8.06771 33.8404 7.90694 33.9C7.20322 34.162 6.4995 34.4236 5.79857 34.6924C5.5612 34.7832 5.337 34.9072 5.09803 34.9932C4.88301 35.0704 4.6975 35.0484 4.58141 34.802C4.16293 33.9116 3.39577 33.4 2.50176 33.0552C1.8116 32.7888 1.2471 33.0448 0.911997 33.7624ZM36.8541 43.1568C37.4801 43.2052 37.717 43.6196 37.4354 44.1736C37.425 44.194 37.4131 44.2136 37.4023 44.2336C37.1984 44.63 37.3165 44.9504 37.7394 45.1044C37.889 45.1588 38.0526 45.188 38.2121 45.2024C39.3998 45.3108 40.8064 43.8408 40.7107 42.782C40.5734 41.266 40.4318 39.7496 40.2571 38.2376C40.145 37.2692 39.8841 36.3164 40.0345 35.3264C40.0784 35.0372 40.0616 34.7352 40.042 34.4412C40.0053 33.89 39.2514 33.3024 38.692 33.5932C38.5728 33.6552 38.4264 33.6808 38.2895 33.694C38.1319 33.7096 38.1212 33.7824 38.1116 33.918C38.0893 34.2332 38.0685 34.5552 37.9835 34.8576C37.5962 36.236 37.1541 37.6004 36.7943 38.9856C36.4412 40.3448 35.8592 41.5892 35.0518 42.74C34.9333 42.9088 34.7968 43.0656 34.6688 43.228C34.6867 43.2644 34.7043 43.3008 34.7222 43.3372C35.414 43.2776 36.1049 43.2172 36.8541 43.1568ZM29.6805 43.1928C30.6455 43.474 31.6412 43.5608 32.6386 43.5908C33.0024 43.602 33.397 43.626 33.7141 43.32C34.9923 42.0856 35.7224 40.5644 36.1935 38.9004C36.549 37.6456 36.9192 36.3952 37.2682 35.1388C37.3712 34.7688 37.4673 34.3884 37.4897 34.0084C37.5184 33.5268 37.2854 33.2392 36.8039 33.1796C36.2075 33.106 35.6007 33.1128 34.9999 33.0696C34.7773 33.0536 34.7366 33.142 34.7162 33.3388C34.6516 33.9588 34.6101 34.5872 34.4677 35.192C34.044 36.986 33.3527 38.672 32.2085 40.158C31.7131 40.8012 31.2212 41.4516 30.5553 41.9356C30.075 42.2848 29.5516 42.5776 29.0326 42.9052C29.2161 42.9912 29.4208 43.0876 29.6805 43.1928ZM15.2266 1.95477C15.2705 2.05877 15.2988 2.17277 15.3603 2.26557C15.9722 3.18397 16.8415 3.77277 17.8915 4.12117C18.0184 4.16317 18.174 4.20997 18.2924 4.17557C18.9092 3.99717 19.5379 4.01277 20.1623 4.06077C20.7627 4.10677 21.3722 4.15917 21.9531 4.30397C23.3111 4.64277 24.5294 5.31477 25.7601 5.94637C26.045 6.09277 26.3083 6.27917 26.5815 6.44717C26.6023 6.42477 26.623 6.40277 26.6442 6.38037C26.5369 6.24317 26.4499 6.08277 26.3182 5.97277C25.5004 5.28797 24.7038 4.57317 23.8393 3.94877C22.9644 3.31717 22.0424 2.73917 21.099 2.20957C19.962 1.57117 18.76 1.06317 17.4882 0.714773C16.9293 0.561573 16.3843 0.459173 15.8095 0.566773C15.4325 0.637173 15.1584 0.920773 15.15 1.29397C15.146 1.49517 15.1887 1.69757 15.2266 1.95477ZM40.7019 13.3512C40.9193 13.4944 41.126 13.6592 41.3577 13.7748C41.5708 13.8808 41.8089 13.8448 41.9498 13.6448C42.0874 13.4496 41.9581 13.2464 41.8049 13.1396C41.4423 12.8868 41.053 12.6696 40.6668 12.4508C40.6006 12.4132 40.4537 12.4024 40.4222 12.4408C40.366 12.5088 40.3257 12.6408 40.3564 12.716C40.4406 12.9224 40.5651 13.1136 40.7019 13.3512ZM40.1202 11.7048C40.1174 11.4672 40.145 11.2248 40.1047 10.9936C40.0496 10.676 39.9663 10.3576 39.8458 10.0588C39.8079 9.96477 39.612 9.88837 39.4875 9.88677C39.4141 9.88597 39.3044 10.038 39.2709 10.14C39.1141 10.62 39.456 11.5628 39.8789 11.848C39.9854 11.9204 40.0987 11.9556 40.1202 11.7048ZM40.7677 11.8316C41.0135 11.7308 41.2552 11.618 41.5065 11.5324C41.7778 11.44 41.9254 11.242 41.9916 10.9956C42.0248 10.872 42.0172 10.6652 41.9394 10.6036C41.8361 10.522 41.6222 10.4876 41.4966 10.5352C40.9612 10.7384 40.672 11.1764 40.4904 11.6828C40.417 11.8872 40.5072 11.9656 40.7677 11.8316ZM38.8564 11.6636C38.56 11.6312 38.2632 11.572 37.9672 11.5756C37.7541 11.578 37.5551 11.694 37.5303 11.9364C37.502 12.2112 37.7346 12.3128 37.9321 12.3052C38.4351 12.2868 38.9366 12.2148 39.4377 12.1572C39.4839 12.152 39.5242 12.0968 39.5673 12.0648C39.5266 12.0176 39.4951 11.9524 39.4432 11.926C39.2693 11.8372 39.0878 11.762 38.8564 11.6636ZM38.8305 13.7676C39.2334 13.4272 39.5027 13.0168 39.5873 12.4416C39.018 12.6092 38.5592 12.8436 38.2935 13.312C38.2014 13.4744 38.1467 13.7756 38.2377 13.8916C38.3817 14.076 38.6143 13.9144 38.8305 13.7676ZM39.8434 13.1952C39.7971 13.2856 39.7265 13.372 39.7089 13.4676C39.6475 13.802 39.5857 14.1388 39.5669 14.4768C39.5617 14.5736 39.7029 14.678 39.7768 14.7788C39.8928 14.6728 40.0616 14.588 40.1158 14.4572C40.3022 14.0104 40.1079 13.5712 40.0225 13.1328C40.0221 13.1304 39.9192 13.1464 39.8434 13.1952Z" fill="#101010"/>
<path d="M22.4226 46.8047C23.8165 46.8267 25.1765 46.8467 26.5369 46.8719C27.5593 46.8907 28.5814 46.9143 29.6039 46.9403C30.3467 46.9591 31.0903 46.9671 31.8315 47.0131C33.0096 47.0859 34.1861 47.1863 35.3633 47.2751C36.2865 47.3447 37.2136 47.3847 38.1319 47.4927C39.1624 47.6135 40.2036 47.7115 41.1838 48.0815C41.3534 48.1455 41.485 48.3067 41.6338 48.4231C41.5077 48.5471 41.4012 48.7075 41.25 48.7855C41.0609 48.8835 40.8387 48.9399 40.6245 48.9687C39.4576 49.1255 38.3182 49.4383 37.129 49.4799C35.8688 49.5239 34.6125 49.6671 33.3531 49.7367C31.8016 49.8227 30.2486 49.9219 28.6955 49.9375C24.2258 49.9823 19.7554 50.0043 15.2853 49.9991C14.0007 49.9975 12.7157 49.8787 11.4316 49.8035C10.4147 49.7439 9.39658 49.6903 8.38288 49.5955C7.21001 49.4859 6.03993 49.3455 4.87185 49.1963C4.33807 49.1279 3.80948 49.0143 3.28289 48.9027C3.14246 48.8731 3.00722 48.7887 2.88754 48.7047C2.55842 48.4735 2.57717 48.3091 2.94658 48.1271C3.52384 47.8423 4.14858 47.7531 4.78328 47.6843C5.57477 47.5987 6.36227 47.4763 7.15217 47.3755C7.46174 47.3359 7.77251 47.3019 8.08408 47.2835C8.96334 47.2311 9.84299 47.1811 10.7234 47.1431C11.941 47.0903 13.1585 47.0447 14.3765 47.0043C15.2705 46.9743 16.1649 46.9539 17.0593 46.9355C18.3028 46.9099 19.5467 46.8927 20.7906 46.8655C21.3228 46.8535 21.8558 46.8255 22.4226 46.8047Z" fill="#DBDBDB"/>
<path d="M32.5976 25.0833C32.1787 25.0101 31.7909 24.9369 31.4019 24.8689C31.0569 24.8089 30.8869 24.9057 30.9093 25.2473C30.9444 25.7869 31.0481 26.3229 31.1319 26.8589C31.1546 27.0033 31.2113 27.1429 31.2571 27.3005C30.4728 27.7145 29.6446 28.0209 28.7757 28.2249C26.1922 28.8321 23.5956 29.3477 20.9167 29.2377C19.7303 29.1889 18.5558 29.0625 17.4085 28.7261C16.6345 28.4989 16.0497 28.0137 15.4637 27.5141C15.2981 27.3729 15.1289 27.2309 14.9434 27.1181C14.7176 26.9809 14.6123 26.7925 14.6486 26.5477C14.6917 26.2581 14.7456 25.9665 14.8329 25.6869C15.1166 24.7797 15.5016 23.8937 15.6891 22.9689C15.8981 21.9393 15.9986 20.8785 16.0301 19.8277C16.0912 17.8157 16.066 15.8009 16.084 13.7877C16.0976 12.2905 16.4119 10.8409 16.7769 9.39212C17.1523 7.90172 17.6343 6.44972 18.1824 5.01452C18.2734 4.77652 18.4026 4.65292 18.6515 4.59172C19.4742 4.38972 20.29 4.44252 21.1078 4.60892C23.0554 5.00532 24.7988 5.85772 26.4316 6.93292C26.8393 7.20132 27.1716 7.58372 27.5183 7.93292C27.5997 8.01492 27.6296 8.17532 27.6292 8.29932C27.6276 9.12972 27.6316 9.96132 27.5953 10.7905C27.5323 12.2305 27.8973 13.5809 28.4331 14.9013C28.4586 14.9641 28.4809 15.0285 28.5125 15.1117C28.445 15.1373 28.3868 15.1757 28.3254 15.1805C27.7513 15.2249 27.3543 15.5861 26.9462 15.9205C26.8828 15.9725 26.8768 16.0913 26.8441 16.1789C26.9482 16.1893 27.0591 16.2261 27.1549 16.2033C27.2877 16.1713 27.4206 16.1105 27.5339 16.0345C28.2719 15.5377 29.3311 15.7577 30.0256 16.2977C30.7309 16.8461 31.4821 17.3425 32.2429 17.8157C32.8872 18.2165 33.6276 18.3833 34.3816 18.4885C35.6502 18.6653 36.9029 18.6353 38.1603 18.3605C39.7246 18.0181 41.3015 17.7313 42.873 17.4201C42.9527 17.4045 43.0297 17.3721 43.1099 17.3645C43.2057 17.3553 43.3034 17.3645 43.4004 17.3661C43.3704 17.4601 43.364 17.5721 43.3062 17.6445C43.1199 17.8757 42.9192 18.0961 42.7146 18.3125C42.5873 18.4469 42.4593 18.6049 42.6348 18.7421C42.711 18.8017 42.9575 18.7561 43.0497 18.6753C43.3305 18.4285 43.5739 18.1413 43.8336 17.8681C44.0291 18.1737 44.0562 18.5577 43.9413 18.8941C43.6736 19.6765 43.4187 20.4813 43.0086 21.1949C42.3611 22.3217 41.3933 23.1777 40.2017 23.7617C39.4477 24.1313 38.6993 24.5285 37.909 24.8069C36.6216 25.2605 35.2748 25.3449 33.914 25.1993C33.4864 25.1533 33.0567 25.1229 32.5976 25.0833ZM17.9123 7.51812C17.5768 8.16852 17.4121 8.86212 17.4156 9.58572C17.4172 9.85172 17.4675 10.1353 17.5716 10.3801C17.9287 11.2197 18.9663 11.4913 19.7379 11.0017C19.7989 10.9629 19.9597 10.9773 20.0055 11.0273C20.505 11.5697 21.2853 11.6857 21.9216 11.3157C22.6242 10.9073 23.0554 10.2865 23.3347 9.56692C23.5696 8.96172 23.6993 8.33052 23.5589 7.67052C23.371 6.78772 22.3501 6.34092 21.616 6.73972C21.4078 6.85292 21.2075 6.98012 21.0005 7.10252C20.9718 7.05372 20.9454 7.02652 20.9387 6.99532C20.7244 6.03772 19.8352 5.94772 19.165 6.23132C18.5809 6.47972 18.2143 6.93452 17.9123 7.51812ZM23.3642 6.42932C23.5389 6.12892 23.3554 5.93412 23.1404 5.76812C22.8515 5.54532 22.4658 5.50092 22.2727 5.66652C22.2053 5.72452 22.141 5.84612 22.1578 5.92052C22.1738 5.99172 22.2966 6.08812 22.374 6.08932C22.6098 6.09332 22.757 6.20092 22.8887 6.37732C23.0004 6.52812 23.1543 6.59812 23.3642 6.42932ZM20.1316 4.95292C19.8611 4.93252 19.5863 4.91532 19.4135 5.17532C19.3688 5.24252 19.3413 5.35892 19.3716 5.42332C19.4008 5.48572 19.5332 5.56172 19.5875 5.54252C19.8432 5.45252 20.051 5.52332 20.2804 5.63372C20.3614 5.67292 20.5644 5.59892 20.6219 5.51692C20.673 5.44372 20.6387 5.25452 20.5704 5.17652C20.4799 5.07412 20.3195 5.02932 20.1316 4.95292Z" fill="#FDFDFD"/>
<path d="M17.222 29.3548C17.9756 29.5016 18.6976 29.6772 19.4313 29.7692C20.133 29.8572 20.8459 29.8816 21.5544 29.8924C22.906 29.9128 24.2484 29.7972 25.5745 29.536C26.7561 29.3036 27.9386 29.0736 29.1123 28.8068C29.946 28.6172 30.7886 28.4344 31.5194 27.9532C31.7121 27.8264 31.9387 27.8448 32.0967 28.01C32.4514 28.3816 32.8208 28.748 33.1196 29.1612C33.9378 30.2924 34.1971 31.566 34.0874 32.9388C34.0196 33.7892 34.0096 34.6456 33.7279 35.4616C33.4355 36.3076 33.1487 37.1592 32.7916 37.98C32.2774 39.1624 31.476 40.1672 30.5744 41.092C29.9867 41.6944 29.2471 42.06 28.4596 42.372C26.6217 43.1004 24.7204 43.1064 22.7943 42.9468C21.9027 42.8728 21.0103 42.7536 20.1178 42.7536C18.8401 42.7536 17.5627 42.8588 16.2841 42.8908C15.5185 42.91 14.7494 42.9056 13.987 42.8464C13.7369 42.8268 13.4744 42.636 13.2677 42.4652C11.9026 41.3376 10.821 40.004 10.1022 38.386C9.58514 37.222 9.21413 36.0252 9.0382 34.7736C8.93806 34.062 9.1128 33.372 9.39963 32.718C9.52211 32.4388 9.75469 32.2468 10.0758 32.176C10.3136 32.1236 10.5442 32.0348 10.7839 31.9968C11.5706 31.8712 12.0789 31.444 12.3302 30.7068C12.5061 30.1912 12.6713 29.6692 12.8939 29.1728C13.1297 28.6472 13.4133 28.1396 13.7113 27.6444C13.7716 27.544 13.989 27.4924 14.135 27.4912C14.4853 27.488 14.7179 27.7276 14.9712 27.9312C15.4359 28.3044 15.9059 28.6744 16.4002 29.008C16.6347 29.1664 16.9292 29.2372 17.222 29.3548Z" fill="#947B97"/>
<path d="M1.30728 19.5503C1.25542 19.4395 1.21912 19.3503 1.18321 19.2607C1.29252 19.2403 1.40781 19.1875 1.51034 19.2047C2.07124 19.2987 2.62975 19.4083 3.18866 19.5151C4.74292 19.8115 6.31074 19.8415 7.88414 19.7323C9.82058 19.5975 11.6864 19.1227 13.5351 18.5787C14.076 18.4195 14.5974 18.1967 15.1292 18.0067C15.2122 17.9771 15.3028 17.9667 15.3937 17.9463C15.4109 18.0035 15.43 18.0355 15.428 18.0659C15.3399 19.4723 15.3411 20.8919 15.13 22.2811C14.9768 23.2891 14.5508 24.2587 14.2244 25.2383C14.1849 25.3563 14.0186 25.4939 13.8921 25.5151C12.3526 25.7735 10.8083 25.9603 9.23893 25.8127C7.79079 25.6763 6.40927 25.3015 5.07404 24.7531C3.95542 24.2935 2.90702 23.7135 1.99146 22.9279C1.32603 22.3567 0.776697 21.7059 0.639862 20.8083C0.58441 20.4431 0.637866 20.0955 0.783877 19.7231C1.05595 20.0379 1.28494 20.3295 1.54585 20.5915C1.65077 20.6971 1.81912 20.7639 1.97031 20.7959C2.05648 20.8143 2.19292 20.7487 2.25356 20.6779C2.28428 20.6419 2.21925 20.4895 2.15861 20.4247C1.88773 20.1335 1.60289 19.8547 1.30728 19.5503Z" fill="#FCFCFC"/>
<path d="M0.924414 33.7392C1.24795 33.0464 1.81244 32.79 2.50221 33.0564C3.39622 33.4012 4.16338 33.9132 4.58186 34.8032C4.69755 35.0496 4.88346 35.0716 5.09848 34.9944C5.33744 34.9088 5.56165 34.7848 5.79901 34.6936C6.49994 34.4248 7.20367 34.1632 7.90739 33.9012C8.06816 33.8416 8.23292 33.792 8.36337 33.7488C8.48146 37.4412 9.97986 40.4928 12.8195 42.9348C12.8095 42.96 12.7995 42.9856 12.7896 43.0108C12.3452 43.0452 11.9007 43.0884 11.4559 43.1124C10.7007 43.1532 9.94476 43.182 9.22747 43.4552C9.1413 43.488 9.05114 43.5128 8.97016 43.5548C8.02109 44.0464 7.41111 43.742 6.8179 43.0256C6.47601 42.6124 6.17401 42.168 5.84888 41.7416C5.14875 40.8236 4.26191 40.0896 3.37109 39.362C2.38851 38.5588 1.55473 37.6452 1.08399 36.4624C0.73452 35.5844 0.604467 34.6852 0.924414 33.7392Z" fill="#FCFCFC"/>
<path d="M36.8243 43.1572C36.1042 43.2176 35.4133 43.2776 34.7219 43.3376C34.704 43.3012 34.6864 43.2648 34.6685 43.2284C34.7965 43.066 34.933 42.9092 35.0514 42.7404C35.8589 41.5896 36.4405 40.3452 36.794 38.986C37.1538 37.6008 37.5954 36.2364 37.9832 34.858C38.0682 34.5556 38.0889 34.2332 38.1113 33.9184C38.1208 33.7828 38.132 33.71 38.2892 33.6944C38.426 33.6808 38.5724 33.6556 38.6917 33.5936C39.2506 33.3028 40.005 33.8904 40.0417 34.4416C40.0613 34.7356 40.078 35.0376 40.0341 35.3268C39.8837 36.3168 40.1447 37.2696 40.2568 38.238C40.4319 39.7504 40.5731 41.2664 40.7103 42.7824C40.8061 43.8412 39.3994 45.3112 38.2118 45.2028C38.0522 45.1884 37.8887 45.1592 37.7391 45.1048C37.3162 44.9508 37.1981 44.63 37.402 44.234C37.4123 44.2136 37.4247 44.194 37.4351 44.174C37.7163 43.62 37.4794 43.2056 36.8243 43.1572Z" fill="#FBFBFB"/>
<path d="M29.6526 43.1884C29.4205 43.0876 29.2158 42.9912 29.0315 42.9048C29.5505 42.5772 30.0739 42.2848 30.5542 41.9352C31.2201 41.4512 31.7119 40.8008 32.2074 40.1576C33.352 38.6716 34.0433 36.9856 34.4666 35.1916C34.6094 34.5872 34.6509 33.9584 34.7151 33.3384C34.7355 33.1416 34.7762 33.0532 34.9988 33.0692C35.6 33.1124 36.2064 33.1056 36.8028 33.1792C37.2847 33.2388 37.5173 33.5264 37.4885 34.008C37.4658 34.388 37.3701 34.7684 37.2671 35.1384C36.9181 36.3948 36.5478 37.6452 36.1924 38.9C35.7209 40.564 34.9912 42.0852 33.713 43.3196C33.3959 43.626 33.0013 43.6016 32.6375 43.5904C31.6405 43.5608 30.6448 43.4744 29.6526 43.1884Z" fill="#937A96"/>
<path d="M15.2188 1.92793C15.1888 1.69833 15.1466 1.49553 15.151 1.29393C15.1589 0.92073 15.4334 0.63713 15.8104 0.56673C16.3853 0.45953 16.9302 0.56193 17.4891 0.71473C18.7609 1.06313 19.9629 1.57113 21.0999 2.20953C22.0434 2.73913 22.9657 3.31713 23.8402 3.94873C24.7047 4.57313 25.5013 5.28793 26.3192 5.97273C26.4504 6.08273 26.5374 6.24313 26.6451 6.38033C26.6244 6.40273 26.6036 6.42473 26.5825 6.44713C26.3092 6.27913 26.0459 6.09273 25.7611 5.94633C24.5299 5.31473 23.312 4.64233 21.954 4.30393C21.3732 4.15913 20.7636 4.10673 20.1632 4.06073C19.5388 4.01273 18.9101 3.99713 18.2934 4.17553C18.1749 4.20993 18.0193 4.16313 17.8924 4.12113C16.8424 3.77313 15.9732 3.18433 15.3612 2.26553C15.2994 2.17353 15.271 2.05953 15.2188 1.92793Z" fill="#927995"/>
<path d="M25.303 2.18359C26.0394 2.67639 26.5628 3.33999 26.9027 4.13839C27.2282 4.90239 27.4485 5.69599 27.5183 6.46039C27.0176 5.94679 26.4842 5.39959 25.9405 4.80239C25.8399 4.26919 25.7665 3.78159 25.6524 3.30359C25.5619 2.92399 25.4211 2.55639 25.303 2.18359Z" fill="#C5A2CA"/>
<path d="M25.6472 4.57762C25.1526 4.20362 24.6583 3.83002 24.1604 3.40722C24.3124 2.96002 24.4895 2.56762 24.6136 2.16002C24.677 1.95162 24.7688 1.87722 24.9738 1.90962C24.9738 1.90962 24.9754 1.91562 24.9682 1.94202C25.0313 2.16962 25.1039 2.36962 25.1709 2.57162C25.3887 3.22722 25.7222 3.85642 25.6472 4.57762Z" fill="#C9A5CE"/>
<path d="M24.3638 1.61719C24.3881 1.62279 24.4125 1.62879 24.4476 1.67439C24.28 2.22959 24.2198 2.79279 23.82 3.21839C23.453 2.97239 23.0864 2.72599 22.7102 2.43959C22.8522 2.05559 23.2097 1.99639 23.5049 1.86999C23.777 1.75359 24.0766 1.69919 24.3638 1.61719Z" fill="#C9A5CE"/>
<path d="M40.6884 13.3327C40.5659 13.1151 40.4415 12.9239 40.3573 12.7171C40.3266 12.6419 40.3669 12.5099 40.4231 12.4419C40.4546 12.4035 40.6018 12.4147 40.6677 12.4519C41.0538 12.6711 41.4432 12.8879 41.8058 13.1407C41.959 13.2475 42.0879 13.4507 41.9506 13.6459C41.8098 13.8459 41.5712 13.8823 41.3586 13.7759C41.1264 13.6607 40.9202 13.4959 40.6884 13.3327Z" fill="#D57378"/>
<path d="M40.119 11.7339C40.0987 11.9551 39.9854 11.9199 39.8784 11.8479C39.4556 11.5627 39.1137 10.6199 39.2705 10.1399C39.304 10.0379 39.4137 9.88592 39.4871 9.88672C39.6116 9.88792 39.8074 9.96432 39.8453 10.0587C39.9658 10.3575 40.0492 10.6759 40.1042 10.9935C40.1449 11.2243 40.1174 11.4667 40.119 11.7339Z" fill="#D57378"/>
<path d="M40.7425 11.8421C40.5075 11.9657 40.4173 11.8873 40.4907 11.6829C40.6723 11.1765 40.9615 10.7385 41.4969 10.5353C41.6225 10.4877 41.8364 10.5225 41.9397 10.6037C42.0179 10.6653 42.0251 10.8721 41.9919 10.9957C41.9257 11.2421 41.7781 11.4401 41.5068 11.5325C41.2555 11.6181 41.0138 11.7309 40.7425 11.8421Z" fill="#C99FA2"/>
<path d="M38.8829 11.6721C39.0879 11.7613 39.2695 11.8365 39.4434 11.9257C39.4953 11.9521 39.5268 12.0173 39.5675 12.0645C39.5244 12.0965 39.4841 12.1517 39.4378 12.1569C38.9367 12.2145 38.4353 12.2865 37.9322 12.3049C37.7344 12.3121 37.5018 12.2109 37.5305 11.9361C37.5556 11.6937 37.7547 11.5777 37.9673 11.5753C38.2633 11.5721 38.5602 11.6309 38.8829 11.6721Z" fill="#CFBE73"/>
<path d="M38.8096 13.7836C38.6141 13.9152 38.3815 14.0764 38.2371 13.8924C38.1461 13.7764 38.2008 13.4752 38.2929 13.3128C38.5586 12.8444 39.0174 12.61 39.5867 12.4424C39.5025 13.0176 39.2332 13.428 38.8096 13.7836Z" fill="#C99FA2"/>
<path d="M22.0929 1.42073C22.4623 1.41713 22.8317 1.41313 23.2398 1.43633C23.3703 1.45993 23.462 1.45633 23.5534 1.45313C23.6044 1.45633 23.6551 1.45993 23.7257 1.49353C23.6755 1.54953 23.6072 1.57993 23.5358 1.60033C23.1149 1.72193 22.6913 1.83713 22.4862 2.27753C22.1328 2.09033 21.7797 1.90313 21.4263 1.71593C21.4219 1.68313 21.4175 1.65033 21.4131 1.61753C21.5491 1.56473 21.6852 1.51193 21.8595 1.47593C21.9628 1.46913 22.0278 1.44513 22.0929 1.42073Z" fill="#C5A2CA"/>
<path d="M39.8535 13.1743C39.9189 13.1463 40.0222 13.1303 40.0226 13.1331C40.108 13.5719 40.3023 14.0111 40.116 14.4575C40.0617 14.5879 39.893 14.6731 39.7769 14.7791C39.7027 14.6783 39.5618 14.5739 39.567 14.4771C39.5854 14.1391 39.6476 13.8023 39.7091 13.4679C39.7262 13.3723 39.7968 13.2859 39.8535 13.1743Z" fill="#CFBE73"/>
<path d="M23.8267 3.23675C24.22 2.79155 24.2799 2.22835 24.4614 1.68555C24.6293 1.72635 24.7945 1.79435 24.9668 1.88475C24.7685 1.87435 24.6772 1.94875 24.6134 2.15755C24.4889 2.56515 24.3122 2.95715 24.1478 3.38515C24.0373 3.36155 23.9352 3.30915 23.8267 3.23675Z" fill="#947B97"/>
<path d="M22.4885 2.2968C22.6912 1.8372 23.1153 1.722 23.5361 1.6004C23.6075 1.58 23.6758 1.5496 23.7508 1.5C23.9494 1.5088 24.1429 1.542 24.3504 1.5956C24.0771 1.6984 23.7775 1.7528 23.5058 1.8692C23.2102 1.9956 22.8532 2.0548 22.6924 2.424C22.6186 2.4056 22.5547 2.3608 22.4885 2.2968Z" fill="#947B97"/>
<path d="M24.5325 19.0737C24.5106 19.0797 24.4826 19.0809 24.4531 19.0753C24.4763 19.0689 24.5014 19.0689 24.5325 19.0737Z" fill="#947B97"/>
<path d="M22.0704 1.41504C22.0281 1.44664 21.9631 1.47064 21.8865 1.47784C21.9324 1.44264 21.9902 1.42504 22.0704 1.41504Z" fill="#947B97"/>
<path d="M38.888 11.1426C38.8959 11.157 38.8808 11.1922 38.8449 11.2186C38.8377 11.1942 38.8513 11.1786 38.888 11.1426Z" fill="white"/>
<path d="M41.1404 14.3132C41.1316 14.2976 41.1444 14.26 41.1787 14.2324C41.1875 14.2584 41.1751 14.2748 41.1404 14.3132Z" fill="white"/>
<path d="M31.6263 25.6482C31.6151 25.6278 31.6311 25.5823 31.669 25.5479C31.6786 25.5807 31.6662 25.6018 31.6263 25.6482Z" fill="white"/>
<path d="M17.9254 7.4943C18.2146 6.9331 18.5812 6.4779 19.1657 6.2303C19.8359 5.9467 20.7251 6.0363 20.9393 6.9943C20.9465 7.0255 20.9724 7.0527 21.0012 7.1015C21.2078 6.9791 21.4085 6.8519 21.6167 6.7387C22.3512 6.3395 23.3716 6.7867 23.5595 7.6695C23.7 8.3295 23.5703 8.9603 23.3353 9.5659C23.0561 10.2855 22.6244 10.9063 21.9223 11.3147C21.286 11.6847 20.5057 11.5687 20.0062 11.0263C19.9603 10.9763 19.7996 10.9619 19.7385 11.0007C18.967 11.4903 17.9294 11.2187 17.5723 10.3791C17.4682 10.1343 17.4175 9.8507 17.4163 9.5847C17.4123 8.8607 17.5775 8.1671 17.9254 7.4943ZM20.5611 8.6247C20.5077 8.7855 20.4419 8.9439 20.4028 9.1079C20.2787 9.6291 20.1614 10.1451 20.4403 10.6667C20.5679 10.9055 20.749 11.0139 20.9928 10.9903C21.2178 10.9683 21.4508 10.9119 21.6542 10.8175C22.1002 10.6099 22.4078 10.2567 22.5865 9.8091C22.8355 9.1851 23.0669 8.5539 22.9871 7.8651C22.9256 7.3351 22.4748 6.9751 22.03 7.1615C21.6909 7.3039 21.3698 7.5319 21.1057 7.7863C20.8827 8.0015 20.7522 8.3091 20.5611 8.6247ZM20.234 6.7727C19.9635 6.6079 19.6851 6.6203 19.3998 6.7339C18.975 6.9031 18.6387 7.1843 18.4272 7.5735C18.0379 8.2891 17.8452 9.0603 17.9401 9.8723C18.0315 10.6507 18.6506 10.9207 19.3707 10.6431C19.5211 10.5851 19.7174 10.3667 19.7086 10.2335C19.6528 9.3519 20.0581 8.6043 20.3728 7.8283C20.5177 7.4723 20.5424 7.1279 20.234 6.7727Z" fill="#131313"/>
<path d="M23.3505 6.44758C23.1542 6.59758 23.0002 6.52758 22.8881 6.37718C22.7564 6.20078 22.6092 6.09358 22.3735 6.08918C22.2961 6.08798 22.1732 5.99158 22.1572 5.92038C22.1405 5.84558 22.2047 5.72398 22.2721 5.66638C22.4652 5.50078 22.851 5.54518 23.1398 5.76798C23.3552 5.93358 23.5388 6.12838 23.3505 6.44758Z" fill="#1D1D1D"/>
<path d="M20.1595 4.955C20.3187 5.0282 20.4791 5.0726 20.5692 5.1758C20.6375 5.2538 20.6718 5.443 20.6207 5.5162C20.5637 5.5982 20.3602 5.6722 20.2792 5.633C20.0498 5.5226 19.842 5.4518 19.5863 5.5418C19.532 5.561 19.3996 5.4846 19.3704 5.4226C19.3405 5.3578 19.368 5.2414 19.4123 5.1746C19.5855 4.9138 19.8603 4.931 20.1595 4.955Z" fill="#1D1D1D"/>
<path d="M20.5704 8.60048C20.7515 8.30928 20.8823 8.00208 21.1058 7.78688C21.3698 7.53248 21.691 7.30448 22.0301 7.16208C22.4749 6.97568 22.9257 7.33528 22.9871 7.86568C23.0669 8.55448 22.8355 9.18568 22.5866 9.80968C22.4079 10.2573 22.1003 10.6105 21.6543 10.8181C21.4508 10.9129 21.2179 10.9689 20.9929 10.9909C20.7491 11.0149 20.568 10.9065 20.4403 10.6673C20.1615 10.1457 20.2788 9.62968 20.4028 9.10848C20.4419 8.94408 20.5073 8.78608 20.5704 8.60048ZM20.8484 9.43328C21.073 9.76528 21.3212 9.82488 21.5326 9.54688C21.6846 9.34648 21.774 9.08648 21.8366 8.84008C21.8885 8.63488 21.774 8.42768 21.549 8.41088C21.3946 8.39928 21.15 8.47688 21.087 8.59008C20.9546 8.82648 20.9155 9.11288 20.8484 9.43328Z" fill="#F5F5F5"/>
<path d="M23.5409 20.734C23.6283 20.8384 23.6207 20.9452 23.5772 21.0556C23.4819 21.2964 23.3594 21.528 23.3765 21.8016C23.3789 21.8428 23.3199 21.9108 23.2744 21.9288C23.057 22.0148 22.8699 21.9312 22.842 21.6896C22.8132 21.4376 22.8715 21.1988 22.9892 20.9764C23.053 20.8556 23.1547 20.7684 23.2832 20.716C23.369 20.6812 23.4531 20.6772 23.5409 20.734ZM23.0414 21.32C23.0331 21.3956 23.0454 21.4708 23.126 21.49C23.1659 21.4992 23.2337 21.4732 23.2604 21.44C23.3227 21.3632 23.361 21.268 23.3247 21.1664C23.3127 21.1324 23.2776 21.0872 23.2481 21.0832C23.2102 21.0776 23.1523 21.0968 23.1296 21.1264C23.0901 21.1764 23.0706 21.2428 23.0414 21.32Z" fill="#F5F5F5"/>
<path d="M20.8428 9.40646C20.7933 9.10886 20.8911 8.78086 21.0861 8.59006C21.2334 8.44646 21.3937 8.39926 21.5481 8.41086C21.7731 8.42766 21.8509 8.62926 21.8357 8.84006C21.8158 9.11726 21.7169 9.30726 21.5318 9.54686C21.3187 9.82406 20.9122 9.82486 20.8428 9.40646Z" fill="#131313"/>
<path d="M18.6028 8.65374C18.697 8.43294 18.7608 8.21854 18.8921 8.05574C18.9679 7.96134 19.159 7.89974 19.2846 7.91694C19.3828 7.93054 19.4984 8.07534 19.5387 8.18534C19.6584 8.51374 19.532 8.81974 19.3261 9.06774C19.2375 9.17454 19.0137 9.25934 18.8813 9.22894C18.614 9.16854 18.5729 8.92574 18.6028 8.65374Z" fill="#131313"/>
<path d="M55.6155 28.6144C55.3542 28.6331 55.1489 28.5678 54.9995 28.4184C54.8502 28.2504 54.7755 28.0358 54.7755 27.7744V25.7584C54.7755 25.4971 54.8502 25.2918 54.9995 25.1424C55.1489 24.9931 55.3542 24.9184 55.6155 24.9184L62.7835 24.8904L62.7555 23.2944L58.4435 23.3504C57.3609 23.3691 56.8009 22.8184 56.7635 21.6984L56.6515 15.5664C56.6329 14.9131 56.7635 14.4744 57.0435 14.2504C57.3235 14.0078 57.7529 13.8864 58.3315 13.8864L72.9475 13.8304C73.2462 13.8304 73.4795 13.9238 73.6475 14.1104C73.8342 14.2784 73.9275 14.5118 73.9275 14.8104V16.6304C73.9275 16.9291 73.8342 17.1718 73.6475 17.3584C73.4795 17.5264 73.2462 17.6104 72.9475 17.6104L61.6075 17.6944V19.5984L73.0595 19.6544C73.6755 19.6544 73.9835 19.9064 73.9835 20.4104V22.3424C73.9835 22.8651 73.7222 23.1264 73.1995 23.1264L67.7395 23.2104L67.7115 24.8624L74.8235 24.8064C75.0849 24.8064 75.2902 24.8811 75.4395 25.0304C75.5889 25.1798 75.6635 25.3851 75.6635 25.6464V27.3544C75.6635 27.6158 75.5889 27.8211 75.4395 27.9704C75.2902 28.1011 75.0849 28.1758 74.8235 28.1944L55.6155 28.6144ZM60.1515 38.9184C59.5355 38.4331 59.0502 37.8544 58.6955 37.1824C58.3595 36.5104 58.1915 35.7544 58.1915 34.9144C58.1915 34.1304 58.3595 33.4024 58.6955 32.7304C59.0315 32.0584 59.5075 31.4798 60.1235 30.9944C60.7582 30.4904 61.5049 30.0984 62.3635 29.8184C63.2409 29.5384 64.2115 29.3984 65.2755 29.3984C66.3209 29.3984 67.2729 29.5384 68.1315 29.8184C69.0089 30.0984 69.7555 30.4811 70.3715 30.9664C71.0062 31.4518 71.4915 32.0304 71.8275 32.7024C72.1822 33.3744 72.3595 34.1118 72.3595 34.9144C72.3595 35.7358 72.1822 36.4824 71.8275 37.1544C71.4915 37.8451 71.0062 38.4331 70.3715 38.9184C69.7555 39.4038 69.0089 39.7771 68.1315 40.0384C67.2729 40.2998 66.3209 40.4304 65.2755 40.4304C64.2302 40.4304 63.2689 40.2998 62.3915 40.0384C61.5329 39.7771 60.7862 39.4038 60.1515 38.9184ZM63.0355 34.9144C63.0355 35.5491 63.2875 36.0624 63.7915 36.4544C64.3142 36.8464 64.9769 37.0424 65.7795 37.0424C66.5635 37.0424 67.2169 36.8464 67.7395 36.4544C68.2622 36.0624 68.5235 35.5491 68.5235 34.9144C68.5235 34.3171 68.2529 33.8131 67.7115 33.4024C67.1889 32.9918 66.5449 32.7864 65.7795 32.7864C64.9395 32.7864 64.2675 32.9918 63.7635 33.4024C63.2782 33.8131 63.0355 34.3171 63.0355 34.9144ZM91.3061 36.3144C90.7461 36.3144 90.4661 36.0344 90.4661 35.4744L90.2981 25.1984H86.5461C86.2475 25.1984 86.0048 25.1144 85.8181 24.9464C85.6501 24.7598 85.5661 24.5171 85.5661 24.2184V21.8104C85.5661 21.5118 85.6501 21.2784 85.8181 21.1104C86.0048 20.9238 86.2475 20.8304 86.5461 20.8304H90.2421L90.1861 15.9304C90.1861 15.3704 90.4568 15.0904 90.9981 15.0904H94.1341C94.6941 15.0904 94.9648 15.3704 94.9461 15.9304L94.6101 35.4744C94.6101 36.0344 94.3301 36.3144 93.7701 36.3144H91.3061ZM96.8781 36.3144C96.3181 36.3144 96.0381 36.0344 96.0381 35.4744V15.6504C96.0381 15.0904 96.3088 14.8104 96.8501 14.8104H99.9861C100.546 14.8104 100.817 15.0904 100.798 15.6504L100.182 35.4744C100.182 36.0344 99.9021 36.3144 99.3421 36.3144H96.8781ZM83.0461 28.5024C83.8488 28.5024 84.6421 28.4651 85.4261 28.3904C86.2101 28.3158 86.9568 28.2224 87.6661 28.1104C87.9835 28.0544 88.2075 28.0731 88.3381 28.1664C88.4688 28.2411 88.5528 28.4091 88.5901 28.6704L89.0101 30.9944C89.0661 31.2931 89.0381 31.5171 88.9261 31.6664C88.8328 31.7971 88.6648 31.8998 88.4221 31.9744C87.7688 32.1424 87.0875 32.3011 86.3781 32.4504C85.6875 32.5811 84.9781 32.7024 84.2501 32.8144C83.5408 32.9078 82.8315 32.9824 82.1221 33.0384C81.4128 33.0758 80.7408 33.0851 80.1061 33.0664C78.8181 33.0291 78.1648 32.3851 78.1461 31.1344L77.7261 16.9104C77.6888 16.3504 77.9595 16.0704 78.5381 16.0704H81.8981C82.1781 16.0704 82.3741 16.1451 82.4861 16.2944C82.6168 16.4251 82.6915 16.6304 82.7101 16.9104L83.0461 28.5024ZM119.843 36.3144C119.283 36.3144 119.003 36.0344 119.003 35.4744V15.6504C119.003 15.0904 119.273 14.8104 119.815 14.8104H123.231C123.791 14.8104 124.061 15.0904 124.043 15.6504L123.847 22.0344L126.171 22.0064C126.469 22.0064 126.703 22.0998 126.871 22.2864C127.057 22.4544 127.151 22.6878 127.151 22.9864V25.2824C127.151 25.5811 127.057 25.8238 126.871 26.0104C126.703 26.1784 126.469 26.2624 126.171 26.2624L123.707 26.3184L123.427 35.4744C123.427 36.0344 123.147 36.3144 122.587 36.3144H119.843ZM105.339 33.2904C104.816 33.2904 104.405 33.1411 104.107 32.8424C103.808 32.5438 103.659 32.1331 103.659 31.6104L103.295 17.1344C103.276 16.6118 103.416 16.2011 103.715 15.9024C104.032 15.6038 104.452 15.4544 104.975 15.4544L114.831 15.3984C115.353 15.3984 115.764 15.5478 116.063 15.8464C116.361 16.1451 116.501 16.5558 116.483 17.0784L116.259 31.4984C116.24 32.0211 116.081 32.4318 115.783 32.7304C115.503 33.0291 115.101 33.1784 114.579 33.1784L105.339 33.2904ZM108.111 28.8664L111.807 28.8384V19.8224L107.971 19.8784L108.111 28.8664ZM134.245 39.4224C133.872 39.4224 133.573 39.3011 133.349 39.0584C133.125 38.8344 133.004 38.5358 132.985 38.1624L132.901 33.5704C132.883 33.1971 132.995 32.8984 133.237 32.6744C133.48 32.4504 133.788 32.3291 134.161 32.3104L144.465 32.1144L144.493 30.8264L133.545 30.9944C133.284 30.9944 133.079 30.9198 132.929 30.7704C132.78 30.6024 132.705 30.3971 132.705 30.1544V28.5024C132.705 27.9424 132.985 27.6624 133.545 27.6624L148.245 27.4664C148.656 27.4478 148.973 27.5504 149.197 27.7744C149.421 27.9984 149.524 28.3158 149.505 28.7264L149.337 33.6544C149.319 34.0278 149.197 34.3264 148.973 34.5504C148.749 34.7744 148.451 34.8958 148.077 34.9144L137.829 34.9984V36.1744L148.889 36.3144C149.151 36.3144 149.356 36.3891 149.505 36.5384C149.655 36.6878 149.729 36.8931 149.729 37.1544L149.701 38.4984C149.701 38.7598 149.627 38.9651 149.477 39.1144C149.328 39.2638 149.123 39.3384 148.861 39.3384L134.245 39.4224ZM146.005 26.6544C145.445 26.6544 145.165 26.3744 145.165 25.8144L144.997 14.8104C144.997 14.2504 145.268 13.9704 145.809 13.9704H149.225C149.785 13.9704 150.056 14.2504 150.037 14.8104L149.757 25.8144C149.72 26.3744 149.44 26.6544 148.917 26.6544H146.005ZM127.665 25.2824C127.516 25.1144 127.441 24.9184 127.441 24.6944C127.46 24.4518 127.6 24.2464 127.861 24.0784C128.627 23.5744 129.345 22.9864 130.017 22.3144C130.689 21.6424 131.277 20.9238 131.781 20.1584C132.285 19.3931 132.687 18.5998 132.985 17.7784C133.284 16.9384 133.452 16.0891 133.489 15.2304C133.508 14.8011 133.62 14.4838 133.825 14.2784C134.031 14.0731 134.292 13.9704 134.609 13.9704H137.605C137.979 13.9704 138.259 14.0918 138.445 14.3344C138.632 14.5584 138.716 14.8571 138.697 15.2304C138.623 16.5184 138.296 17.8158 137.717 19.1224C138.613 19.9064 139.519 20.5691 140.433 21.1104C141.367 21.6331 142.309 22.1091 143.261 22.5384C143.541 22.6691 143.691 22.8464 143.709 23.0704C143.747 23.2758 143.7 23.4811 143.569 23.6864L142.029 25.9264C141.899 26.1504 141.721 26.2811 141.497 26.3184C141.292 26.3371 141.059 26.2811 140.797 26.1504C139.901 25.6838 139.015 25.1611 138.137 24.5824C137.26 24.0038 136.429 23.3131 135.645 22.5104C134.208 24.3024 132.481 25.7584 130.465 26.8784C129.905 27.1771 129.448 27.1304 129.093 26.7384L127.665 25.2824Z" fill="#856A85"/>
</svg>
