<svg width="13" height="16" viewBox="0 0 13 16" fill="none" xmlns="http://www.w3.org/2000/svg">
<g id="Emoji">
<path id="Vector" d="M4.00022 8.88892C3.51133 8.88892 3.11133 9.28892 3.11133 9.7778V14.2222C3.11133 14.7111 3.51133 15.1111 4.00022 15.1111C4.48911 15.1111 4.88911 14.7111 4.88911 14.2222V9.7778C4.88911 9.28892 4.48911 8.88892 4.00022 8.88892ZM12.0002 8.88892C11.5113 8.88892 11.1113 9.28892 11.1113 9.7778V14.2222C11.1113 14.7111 11.5113 15.1111 12.0002 15.1111C12.4891 15.1111 12.8891 14.7111 12.8891 14.2222V9.7778C12.8891 9.28892 12.4891 8.88892 12.0002 8.88892Z" fill="#A4523A"/>
<path id="Vector_2" d="M4.44434 0.888916H11.5554V4.44447H4.44434V0.888916Z" fill="#C1694F"/>
<path id="Vector_3" d="M5.77756 4H6.66645V9.77778H5.77756V4ZM7.55534 4H8.44423V9.77778H7.55534V4ZM9.33312 4H10.222V9.77778H9.33312V4ZM1.77756 10.2222C1.28867 10.2222 0.888672 10.6222 0.888672 11.1111V15.1111C0.888672 15.6 1.28867 16 1.77756 16C2.26645 16 2.66645 15.6 2.66645 15.1111V11.1111C2.66645 10.6222 2.26645 10.2222 1.77756 10.2222Z" fill="#C1694F"/>
<path id="Vector_4" d="M9.778 9.33333C9.28911 9.33333 8.88911 9.73333 8.88911 10.2222V15.1111C8.88911 15.6 9.28911 16 9.778 16C10.2669 16 10.6669 15.6 10.6669 15.1111V10.2222C10.6669 9.73333 10.2669 9.33333 9.778 9.33333ZM4.00022 0C3.51133 0 3.11133 0.4 3.11133 0.888889V9.77778H4.88911V0.888889C4.88911 0.4 4.48911 0 4.00022 0ZM12.0002 0C11.5113 0 11.1113 0.4 11.1113 0.888889V9.77778H12.8891V0.888889C12.8891 0.4 12.4891 0 12.0002 0Z" fill="#C1694F"/>
<path id="Vector_5" d="M4.88867 0.888916H5.33312V4.44447H4.88867V0.888916ZM11.1109 4.44447H10.6664V0.888916H11.1109V4.44447Z" fill="#A4523A"/>
<path id="Vector_6" d="M12.3416 8.88892H3.26252C3.16341 8.88892 3.06607 8.91603 2.98118 8.96669L0.334961 10.3182C0.334961 10.3182 10.4354 11.3929 11.3243 11.3929L12.6705 10.3862C12.8079 10.2831 12.8887 10.1209 12.8887 9.94847V9.43603C12.8887 9.13381 12.6439 8.88892 12.3416 8.88892Z" fill="#D99E82"/>
<path id="Vector_7" d="M5.77756 4.44458H6.66645V4.88902H5.77756V4.44458ZM0.888672 11.5557H2.66645V12.0001H0.888672V11.5557ZM8.88867 11.5557H10.6665V12.0001H8.88867V11.5557ZM7.55534 4.44458H8.44423V4.88902H7.55534V4.44458ZM9.33312 4.44458H10.222V4.88902H9.33312V4.44458Z" fill="#A4523A"/>
<path id="Vector_8" d="M10.8622 11.5555H0.693333C0.310222 11.5555 0 11.2568 0 10.8888C0 10.5208 0.310222 10.2222 0.693333 10.2222H10.8622C11.2453 10.2222 11.5556 10.5208 11.5556 10.8888C11.5556 11.2568 11.2453 11.5555 10.8622 11.5555Z" fill="#C1694F"/>
</g>
</svg>
