<svg width="18" height="13" viewBox="0 0 18 13" fill="none" xmlns="http://www.w3.org/2000/svg">
<g id="Emoji">
<path id="Vector" d="M3.49931 6.66895C4.47781 6.66895 5.31581 7.23644 5.72681 8.05494L7.46531 7.18545C6.74331 5.69795 5.22231 4.66895 3.45731 4.66895C2.80681 4.66895 2.19031 4.81145 1.63281 5.06245L2.46681 6.89745C2.78231 6.75395 3.13031 6.66895 3.49931 6.66895ZM14.4993 6.66895C15.2328 6.66895 15.8853 6.99045 16.3433 7.49295L17.7918 6.17545C16.9753 5.25345 15.7858 4.66895 14.4573 4.66895C12.6693 4.66895 11.1313 5.72445 10.4208 7.24395L12.2448 8.10495C12.6458 7.25895 13.5008 6.66895 14.4993 6.66895Z" fill="#EA596E"/>
<path id="Vector_2" d="M3.5 5.66895C1.567 5.66895 0 7.23595 0 9.16895C0 11.1019 1.567 12.6689 3.5 12.6689C5.433 12.6689 7 11.1019 7 9.16895C7 7.23595 5.4335 5.66895 3.5 5.66895ZM3.5 11.6689C2.1195 11.6689 1 10.5499 1 9.16895C1 7.78795 2.1195 6.66895 3.5 6.66895C4.8805 6.66895 6 7.78795 6 9.16895C6 10.5499 4.881 11.6689 3.5 11.6689ZM14.5 5.66895C12.5675 5.66895 11 7.23595 11 9.16895C11 11.1019 12.5675 12.6689 14.5 12.6689C16.4335 12.6689 18 11.1019 18 9.16895C18 7.23595 16.4335 5.66895 14.5 5.66895ZM14.5 11.6689C13.1195 11.6689 12 10.5499 12 9.16895C12 7.78795 13.1195 6.66895 14.5 6.66895C15.881 6.66895 17 7.78795 17 9.16895C17 10.5499 15.881 11.6689 14.5 11.6689Z" fill="#292F33"/>
<path id="Vector_3" d="M14.992 9.12977C14.9895 9.09627 14.9815 9.06377 14.972 9.03077C14.9625 8.99827 14.952 8.96777 14.9365 8.93777C14.93 8.92577 14.929 8.91177 14.922 8.90027L11.422 3.40027C11.2735 3.16727 10.965 3.09827 10.7315 3.24677C10.582 3.34177 10.5095 3.50327 10.509 3.66827H6C5.724 3.66827 5.5 3.89177 5.5 4.16827C5.5 4.44477 5.724 4.66827 6 4.66827H11C11.0135 4.66827 11.025 4.66127 11.0385 4.66027L13.589 8.66877H9C8.724 8.66877 8.5 8.89227 8.5 9.16877C8.5 9.44527 8.724 9.66877 9 9.66877H14.5005C14.5585 9.66877 14.6155 9.65477 14.672 9.63427C14.689 9.62777 14.704 9.62077 14.7205 9.61277C14.736 9.60427 14.7535 9.60077 14.769 9.59077C14.784 9.58077 14.793 9.56527 14.8065 9.55477C14.834 9.53277 14.858 9.51027 14.88 9.48327C14.9005 9.45877 14.917 9.43377 14.932 9.40627C14.947 9.37827 14.9595 9.35127 14.9695 9.32027C14.98 9.28727 14.986 9.25427 14.9895 9.21977C14.9915 9.20177 15 9.18677 15 9.16877C15 9.15527 14.993 9.14327 14.992 9.12977Z" fill="#DD2E44"/>
<path id="Vector_4" d="M10.79 2.66895L9.34049 6.72745L6.37599 3.33994C6.19399 3.13244 5.87799 3.11044 5.67049 3.29294C5.46299 3.47494 5.44199 3.79045 5.62349 3.99845L8.95549 7.80595L8.52849 9.00095C8.43599 9.26045 8.57149 9.54695 8.83149 9.63945C8.88699 9.65945 8.94349 9.66895 8.99949 9.66895C9.20499 9.66895 9.39749 9.54145 9.47049 9.33695L11.852 2.66895H10.79Z" fill="#DD2E44"/>
<path id="Vector_5" d="M3.49942 9.66892C3.42442 9.66892 3.34792 9.65192 3.27642 9.61642C3.02942 9.49292 2.92942 9.19242 3.05292 8.94542L4.58392 5.89242C4.59242 5.87842 5.49942 4.49442 5.49942 3.16892C5.49942 1.54792 4.35292 1.14742 4.34142 1.14342C4.07942 1.05592 3.93792 0.772923 4.02542 0.510923C4.11242 0.248923 4.39492 0.105923 4.65792 0.194923C4.73292 0.219923 6.49942 0.835423 6.49942 3.16892C6.49942 4.70292 5.58142 6.18992 5.43392 6.41742L3.94692 9.39192C3.85942 9.56792 3.68292 9.66892 3.49942 9.66892Z" fill="#DD2E44"/>
<path id="Vector_6" d="M7.30606 1.5004C7.27906 1.5004 7.25106 1.4984 7.22356 1.4934L4.22356 0.993396C3.95156 0.947896 3.76706 0.690396 3.81256 0.417896C3.85806 0.145896 4.11306 -0.0386045 4.38806 0.00689547L7.38806 0.506895C7.66006 0.552395 7.84456 0.809895 7.79906 1.0824C7.75806 1.3269 7.54606 1.5004 7.30606 1.5004ZM13.1916 3.1689C13.1766 3.1689 13.1621 3.1679 13.1471 3.1659L10.3111 2.8119C10.1251 2.7889 9.98906 2.6249 10.0011 2.4379C10.0126 2.2509 10.1676 2.1054 10.3546 2.1054C10.3751 2.1054 12.3881 2.0964 13.3491 1.4559C13.4741 1.3724 13.6401 1.3774 13.7611 1.4689C13.8806 1.5614 13.9296 1.7194 13.8816 1.8629L13.5271 2.9264C13.4791 3.0729 13.3426 3.1689 13.1916 3.1689Z" fill="#292F33"/>
<path id="Vector_7" d="M10 9.16895C10 9.72095 9.5525 10.1689 9 10.1689C8.448 10.1689 8 9.72095 8 9.16895C8 8.61695 8.448 8.16895 9 8.16895C9.5525 8.16895 10 8.61695 10 9.16895Z" fill="#66757F"/>
</g>
</svg>
