<svg width="19" height="21" viewBox="0 0 19 21" fill="none" xmlns="http://www.w3.org/2000/svg">
<g id="Emoji">
<path id="Vector" d="M11.299 18.6436C11.299 19.8916 10.2871 20.3385 9.03914 20.3385C7.79114 20.3385 6.7793 19.8916 6.7793 18.6436L7.34426 13.5589C7.34426 12.3109 7.79114 12.429 9.03914 12.429C10.2871 12.429 10.734 12.3109 10.734 13.5589L11.299 18.6436Z" fill="#662113"/>
<path id="Vector_2" d="M18.0788 9.60434C18.0788 14.5969 14.0319 16.3839 9.03938 16.3839C4.04738 16.3839 0 14.5969 0 9.60434C0 4.61234 5.08465 0 9.03938 0C12.9941 0 18.0788 4.61234 18.0788 9.60434Z" fill="#5C913B"/>
<g id="Group">
<path id="Vector_3" d="M2.25981 12.429C2.88384 12.429 3.38973 12.1761 3.38973 11.864C3.38973 11.552 2.88384 11.2991 2.25981 11.2991C1.63577 11.2991 1.12988 11.552 1.12988 11.864C1.12988 12.1761 1.63577 12.429 2.25981 12.429Z" fill="#3E721D"/>
<path id="Vector_4" d="M15.8194 12.429C16.4434 12.429 16.9493 12.1761 16.9493 11.864C16.9493 11.552 16.4434 11.2991 15.8194 11.2991C15.1953 11.2991 14.6895 11.552 14.6895 11.864C14.6895 12.1761 15.1953 12.429 15.8194 12.429Z" fill="#3E721D"/>
<path id="Vector_5" d="M4.51957 14.6888C5.14361 14.6888 5.64949 14.4358 5.64949 14.1238C5.64949 13.8118 5.14361 13.5588 4.51957 13.5588C3.89553 13.5588 3.38965 13.8118 3.38965 14.1238C3.38965 14.4358 3.89553 14.6888 4.51957 14.6888Z" fill="#3E721D"/>
<path id="Vector_6" d="M6.77934 12.9939C7.40338 12.9939 7.90926 12.741 7.90926 12.429C7.90926 12.117 7.40338 11.864 6.77934 11.864C6.1553 11.864 5.64941 12.117 5.64941 12.429C5.64941 12.741 6.1553 12.9939 6.77934 12.9939Z" fill="#3E721D"/>
<path id="Vector_7" d="M4.51957 9.60404C5.14361 9.60404 5.64949 9.3511 5.64949 9.03908C5.64949 8.72706 5.14361 8.47412 4.51957 8.47412C3.89553 8.47412 3.38965 8.72706 3.38965 9.03908C3.38965 9.3511 3.89553 9.60404 4.51957 9.60404Z" fill="#3E721D"/>
<path id="Vector_8" d="M2.82426 7.34452C3.4483 7.34452 3.95418 7.09158 3.95418 6.77956C3.95418 6.46754 3.4483 6.2146 2.82426 6.2146C2.20022 6.2146 1.69434 6.46754 1.69434 6.77956C1.69434 7.09158 2.20022 7.34452 2.82426 7.34452Z" fill="#3E721D"/>
<path id="Vector_9" d="M15.2539 7.34452C15.878 7.34452 16.3839 7.09158 16.3839 6.77956C16.3839 6.46754 15.878 6.2146 15.2539 6.2146C14.6299 6.2146 14.124 6.46754 14.124 6.77956C14.124 7.09158 14.6299 7.34452 15.2539 7.34452Z" fill="#3E721D"/>
<path id="Vector_10" d="M6.77934 6.2144C7.40338 6.2144 7.90926 5.96145 7.90926 5.64943C7.90926 5.33741 7.40338 5.08447 6.77934 5.08447C6.1553 5.08447 5.64941 5.33741 5.64941 5.64943C5.64941 5.96145 6.1553 6.2144 6.77934 6.2144Z" fill="#3E721D"/>
<path id="Vector_11" d="M11.2989 6.2144C11.9229 6.2144 12.4288 5.96145 12.4288 5.64943C12.4288 5.33741 11.9229 5.08447 11.2989 5.08447C10.6748 5.08447 10.1689 5.33741 10.1689 5.64943C10.1689 5.96145 10.6748 6.2144 11.2989 6.2144Z" fill="#3E721D"/>
<path id="Vector_12" d="M13.5596 9.60404C14.1836 9.60404 14.6895 9.3511 14.6895 9.03908C14.6895 8.72706 14.1836 8.47412 13.5596 8.47412C12.9356 8.47412 12.4297 8.72706 12.4297 9.03908C12.4297 9.3511 12.9356 9.60404 13.5596 9.60404Z" fill="#3E721D"/>
<path id="Vector_13" d="M9.0391 10.169C9.66314 10.169 10.169 9.91604 10.169 9.60402C10.169 9.292 9.66314 9.03906 9.0391 9.03906C8.41506 9.03906 7.90918 9.292 7.90918 9.60402C7.90918 9.91604 8.41506 10.169 9.0391 10.169Z" fill="#3E721D"/>
<path id="Vector_14" d="M11.2989 12.9939C11.9229 12.9939 12.4288 12.741 12.4288 12.429C12.4288 12.117 11.9229 11.864 11.2989 11.864C10.6748 11.864 10.1689 12.117 10.1689 12.429C10.1689 12.741 10.6748 12.9939 11.2989 12.9939Z" fill="#3E721D"/>
<path id="Vector_15" d="M9.0391 15.2537C9.66314 15.2537 10.169 15.0008 10.169 14.6887C10.169 14.3767 9.66314 14.1238 9.0391 14.1238C8.41506 14.1238 7.90918 14.3767 7.90918 14.6887C7.90918 15.0008 8.41506 15.2537 9.0391 15.2537Z" fill="#3E721D"/>
<path id="Vector_16" d="M13.5596 14.6888C14.1836 14.6888 14.6895 14.4358 14.6895 14.1238C14.6895 13.8118 14.1836 13.5588 13.5596 13.5588C12.9356 13.5588 12.4297 13.8118 12.4297 14.1238C12.4297 14.4358 12.9356 14.6888 13.5596 14.6888Z" fill="#3E721D"/>
</g>
</g>
</svg>
