<svg width="14" height="16" viewBox="0 0 14 16" fill="none" xmlns="http://www.w3.org/2000/svg">
<g id="Emoji">
<path id="Vector" d="M8.09165 9.62773C6.90603 9.48271 6.38508 8.81629 5.34318 7.48565C6.67469 6.44463 7.34067 5.92368 8.52672 6.06826C9.71409 6.21373 10.827 6.95156 11.2752 8.21034C10.5378 9.32454 9.27858 9.77144 8.09165 9.62773ZM5.48076 13.4895C4.36393 13.4076 3.84517 12.8091 2.80896 11.6108C4.00728 10.575 4.60622 10.0567 5.72349 10.1369C6.84119 10.2179 7.91814 10.8572 8.39528 12.0152C7.75603 13.0921 6.5989 13.5697 5.48076 13.4895ZM2.75551 6.60762C3.34174 7.32223 3.27734 7.97331 3.14896 9.27503C1.84768 9.14621 1.1966 9.08224 0.609925 8.36763C0.0232523 7.65171 -0.205458 6.64354 0.216473 5.70022C1.22464 5.47064 2.16884 5.89257 2.75551 6.60762ZM12.0073 4.22061C10.9405 4.66752 10.1847 4.35819 8.67175 3.73997C9.28997 2.22707 9.59973 1.47039 10.6649 1.02217C11.7313 0.57483 13.0212 0.660268 14 1.50238C13.915 2.79227 13.0725 3.7724 12.0073 4.22061ZM6.42057 2.66389C6.80351 3.92092 6.36624 4.74157 5.49215 6.38285C3.8513 5.50832 3.03022 5.07105 2.64685 3.81358C2.26304 2.55524 2.50884 1.10586 3.57484 0.09375C5.02421 0.339548 6.03676 1.40511 6.42057 2.66389Z" fill="#77B255"/>
<path id="Vector_2" d="M2.64676 3.81423C3.02444 5.0533 3.83062 5.49802 5.42371 6.34714V6.34495C5.39304 5.24039 4.22627 1.57971 3.55415 0.117188C2.50743 1.12842 2.26558 2.56509 2.64676 3.81423ZM0.196668 5.75477C-0.193278 6.68275 0.0341176 7.66595 0.609837 8.36829C1.19695 9.08334 1.84803 9.14687 3.14887 9.27568C2.71204 8.427 0.997155 6.47683 0.196668 5.75477Z" fill="#A6D388"/>
<path id="Vector_3" d="M8.52675 6.0684C7.40379 5.9317 6.74044 6.39701 5.54388 7.32982C6.30887 7.37582 9.3934 7.65623 11.266 8.22231C11.2686 8.21793 11.2726 8.21486 11.2752 8.21048C10.827 6.9517 9.71412 6.21387 8.52675 6.0684ZM8.39356 12.0118C7.91554 10.8564 6.84034 10.2181 5.72352 10.137C4.62816 10.0586 4.0279 10.5581 2.87646 11.5531C4.08881 11.4194 6.33998 11.1719 8.39356 12.0118Z" fill="#5C913B"/>
<path id="Vector_4" d="M8.75049 3.77178C10.2082 4.36722 10.96 4.65859 12.0068 4.22044C13.0666 3.77441 13.9048 2.8013 13.9968 1.52148C12.2784 1.85491 9.44407 3.33978 8.75049 3.77178Z" fill="#A6D388"/>
<path id="Vector_5" d="M1.00864 15.1303C0.752765 15.0904 0.411452 14.7662 0.450885 14.5099C0.690111 12.9492 1.7031 9.17857 8.46802 3.66367C8.66869 3.49937 8.89565 3.37494 9.06564 3.57079C9.23696 3.76664 9.04286 3.98702 8.84745 4.15746C3.02541 9.22677 2.05011 13.2419 1.82709 14.7014C1.78722 14.9577 1.26495 15.1689 1.00864 15.1303Z" fill="#A06253"/>
</g>
</svg>
