<svg width="15" height="15" viewBox="0 0 15 15" fill="none" xmlns="http://www.w3.org/2000/svg">
<g id="Emoji">
<path id="Vector" d="M7.5 15C11.6421 15 15 11.6421 15 7.5C15 3.35786 11.6421 0 7.5 0C3.35786 0 0 3.35786 0 7.5C0 11.6421 3.35786 15 7.5 15Z" fill="#FFD983"/>
<path id="Vector_2" d="M15.0003 7.5C15.0003 11.6421 11.6424 15 7.50033 15C7.37783 15 7.25866 14.9879 7.13783 14.9821C4.68324 13.9137 2.91699 10.9717 2.91699 7.5C2.91699 4.02875 4.68324 1.08625 7.13783 0.0183333C7.25866 0.0125 7.37783 0 7.50033 0C11.6424 0 15.0003 3.35792 15.0003 7.5Z" fill="#66757F"/>
<path id="Vector_3" d="M10.6253 4.99992C11.4307 4.99992 12.0837 4.347 12.0837 3.54159C12.0837 2.73617 11.4307 2.08325 10.6253 2.08325C9.81991 2.08325 9.16699 2.73617 9.16699 3.54159C9.16699 4.347 9.81991 4.99992 10.6253 4.99992Z" fill="#5B6876"/>
<path id="Vector_4" d="M6.66699 7.91675C7.35735 7.91675 7.91699 7.3571 7.91699 6.66675C7.91699 5.97639 7.35735 5.41675 6.66699 5.41675C5.97664 5.41675 5.41699 5.97639 5.41699 6.66675C5.41699 7.3571 5.97664 7.91675 6.66699 7.91675Z" fill="#5B6876"/>
<path id="Vector_5" d="M6.04134 12.9167C6.84676 12.9167 7.49967 12.2637 7.49967 11.4583C7.49967 10.6529 6.84676 10 6.04134 10C5.23593 10 4.58301 10.6529 4.58301 11.4583C4.58301 12.2637 5.23593 12.9167 6.04134 12.9167Z" fill="#5B6876"/>
<path id="Vector_6" d="M6.25033 3.33341C6.71056 3.33341 7.08366 2.96032 7.08366 2.50008C7.08366 2.03984 6.71056 1.66675 6.25033 1.66675C5.79009 1.66675 5.41699 2.03984 5.41699 2.50008C5.41699 2.96032 5.79009 3.33341 6.25033 3.33341Z" fill="#5B6876"/>
<path id="Vector_7" d="M13.7497 7.91659C13.9798 7.91659 14.1663 7.73004 14.1663 7.49992C14.1663 7.2698 13.9798 7.08325 13.7497 7.08325C13.5196 7.08325 13.333 7.2698 13.333 7.49992C13.333 7.73004 13.5196 7.91659 13.7497 7.91659Z" fill="#5B6876"/>
<path id="Vector_8" d="M2.49967 4.16659C2.72979 4.16659 2.91634 3.98004 2.91634 3.74992C2.91634 3.5198 2.72979 3.33325 2.49967 3.33325C2.26956 3.33325 2.08301 3.5198 2.08301 3.74992C2.08301 3.98004 2.26956 4.16659 2.49967 4.16659Z" fill="#FFCC4D"/>
<path id="Vector_9" d="M8.74967 13.3333C8.97979 13.3333 9.16634 13.1468 9.16634 12.9167C9.16634 12.6865 8.97979 12.5 8.74967 12.5C8.51956 12.5 8.33301 12.6865 8.33301 12.9167C8.33301 13.1468 8.51956 13.3333 8.74967 13.3333Z" fill="#5B6876"/>
<path id="Vector_10" d="M1.66634 8.74992C2.12658 8.74992 2.49967 8.37682 2.49967 7.91659C2.49967 7.45635 2.12658 7.08325 1.66634 7.08325C1.2061 7.08325 0.833008 7.45635 0.833008 7.91659C0.833008 8.37682 1.2061 8.74992 1.66634 8.74992Z" fill="#FFCC4D"/>
<path id="Vector_11" d="M10.8333 10.4167C11.2936 10.4167 11.6667 10.0436 11.6667 9.58333C11.6667 9.1231 11.2936 8.75 10.8333 8.75C10.3731 8.75 10 9.1231 10 9.58333C10 10.0436 10.3731 10.4167 10.8333 10.4167Z" fill="#5B6876"/>
</g>
</svg>
