<svg width="15" height="13" viewBox="0 0 15 13" fill="none" xmlns="http://www.w3.org/2000/svg">
<g id="Emoji">
<path id="Vector" d="M0 4.0625C0 4.0625 0 2.4375 1.625 2.4375H13C13 2.4375 14.625 2.4375 14.625 4.0625V11.375C14.625 11.375 14.625 13 13 13H1.625C1.625 13 0 13 0 11.375V4.0625Z" fill="#31373D"/>
<path id="Vector_2" d="M8.53125 11.7812C10.7749 11.7812 12.5938 9.96241 12.5938 7.71875C12.5938 5.47509 10.7749 3.65625 8.53125 3.65625C6.28759 3.65625 4.46875 5.47509 4.46875 7.71875C4.46875 9.96241 6.28759 11.7812 8.53125 11.7812Z" fill="#CCD6DD"/>
<path id="Vector_3" d="M8.53125 10.9688C10.3262 10.9688 11.7812 9.51368 11.7812 7.71875C11.7812 5.92382 10.3262 4.46875 8.53125 4.46875C6.73632 4.46875 5.28125 5.92382 5.28125 7.71875C5.28125 9.51368 6.73632 10.9688 8.53125 10.9688Z" fill="#31373D"/>
<path id="Vector_4" d="M8.53125 9.75C9.65308 9.75 10.5625 8.84058 10.5625 7.71875C10.5625 6.59692 9.65308 5.6875 8.53125 5.6875C7.40942 5.6875 6.5 6.59692 6.5 7.71875C6.5 8.84058 7.40942 9.75 8.53125 9.75Z" fill="#3B88C3"/>
<path id="Vector_5" d="M13.2031 4.46875C13.5397 4.46875 13.8125 4.19592 13.8125 3.85938C13.8125 3.52283 13.5397 3.25 13.2031 3.25C12.8666 3.25 12.5938 3.52283 12.5938 3.85938C12.5938 4.19592 12.8666 4.46875 13.2031 4.46875Z" fill="white"/>
<path id="Vector_6" d="M6.5 3.65625L7.71875 1.21875L5.28125 2.03125L3.65625 0L2.84375 2.03125L0.40625 1.625L2.03125 4.0625L0 5.6875H2.4375L1.625 8.125L4.0625 6.90625L6.5 8.9375L6.09375 5.6875L8.53125 5.28125L6.5 3.65625Z" fill="#FFAC33"/>
<path id="Vector_7" d="M4.0625 5.6875L2.84375 6.5L3.25 5.28125L2.03125 4.875L3.25 4.0625L2.03125 2.84375H3.65625L4.0625 1.625L4.875 2.84375L6.09375 2.4375L5.28125 3.65625L6.5 4.875L5.28125 5.28125L5.6875 6.90625L4.0625 5.6875Z" fill="white"/>
</g>
</svg>
