<svg width="15" height="15" viewBox="0 0 15 15" fill="none" xmlns="http://www.w3.org/2000/svg">
<g id="Emoji">
<path id="Vector" d="M15 13.3333C15 13.3333 15 15 13.3333 15H1.66667C1.66667 15 0 15 0 13.3333V1.66667C0 0 1.66667 0 1.66667 0H13.3333C15 0 15 1.66667 15 1.66667V13.3333Z" fill="#88C9F9"/>
<path id="Vector_2" d="M0 13.3334C0 15.0001 1.66667 15.0001 1.66667 15.0001H13.3333C15 15.0001 15 13.3334 15 13.3334V7.91675H0V13.3334Z" fill="#77B255"/>
<path id="Vector_3" d="M12.2134 1.94919C12.0993 1.94919 11.9888 1.96669 11.8855 1.99877C11.7622 1.64752 11.4288 1.39502 11.0355 1.39502C10.6134 1.39502 10.2605 1.68544 10.1622 2.0771C10.058 1.99835 9.92926 1.9496 9.78801 1.9496C9.44342 1.9496 9.16426 2.22877 9.16426 2.57335C9.16426 2.6571 9.18134 2.73669 9.21176 2.8096C9.15176 2.79294 9.09009 2.78127 9.02592 2.78127C8.64301 2.78085 8.33301 3.09085 8.33301 3.47377C8.33301 3.85669 8.64301 4.16669 9.02592 4.16669H12.2134C12.8255 4.16669 13.3222 3.67044 13.3222 3.05794C13.3226 2.44585 12.8255 1.94919 12.2134 1.94919Z" fill="#F5F8FA"/>
<path id="Vector_4" d="M9.32238 7.91675H5.67655L0.942383 14.8401C1.31905 14.998 1.66613 15.0001 1.66613 15.0001H13.3328C13.6286 15.0001 13.8699 14.9459 14.0703 14.8592L9.32238 7.91675Z" fill="#C1694F"/>
<path id="Vector_5" d="M1.66699 15.0001H13.3337L8.90658 7.91675H6.09408L1.66699 15.0001Z" fill="#CCD6DD"/>
<path id="Vector_6" d="M2.76074 15.0001H12.2399L8.59408 7.91675H6.40658L2.76074 15.0001Z" fill="#58595B"/>
<path id="Vector_7" d="M3.85449 15.0001H11.1462L8.28158 7.91675H6.71908L3.85449 15.0001Z" fill="#808285"/>
<path id="Vector_8" d="M11.6663 14.5834C11.6663 14.8138 11.4801 15.0001 11.2497 15.0001H3.74967C3.51967 15.0001 3.33301 14.8138 3.33301 14.5834C3.33301 14.353 3.51967 14.1667 3.74967 14.1667H11.2497C11.4801 14.1667 11.6663 14.353 11.6663 14.5834ZM10.833 12.9167C10.833 13.1472 10.6468 13.3334 10.4163 13.3334H4.58301C4.35301 13.3334 4.16634 13.1472 4.16634 12.9167C4.16634 12.6863 4.35301 12.5001 4.58301 12.5001H10.4163C10.6468 12.5001 10.833 12.6863 10.833 12.9167ZM9.99967 11.2501C9.99967 11.4805 9.81342 11.6667 9.58301 11.6667H5.41634C5.18634 11.6667 4.99967 11.4805 4.99967 11.2501C4.99967 11.0197 5.18634 10.8334 5.41634 10.8334H9.58301C9.81342 10.8334 9.99967 11.0197 9.99967 11.2501ZM9.16634 9.87508C9.16634 10.0363 9.07301 10.1667 8.95801 10.1667H6.04134C5.92634 10.1667 5.83301 10.0363 5.83301 9.87508C5.83301 9.71383 5.92634 9.58341 6.04134 9.58341H8.95801C9.07301 9.58341 9.16634 9.71383 9.16634 9.87508ZM8.74967 8.88925C8.74967 8.98133 8.67467 9.0555 8.58301 9.0555H6.41634C6.32426 9.0555 6.24967 8.98091 6.24967 8.88925V8.8055C6.24967 8.71341 6.32426 8.63925 6.41634 8.63925H8.58301C8.67509 8.63925 8.74967 8.71383 8.74967 8.8055V8.88925ZM8.33301 8.01341C8.33301 8.04883 8.25801 8.18508 8.16634 8.18508H6.83301C6.74092 8.18508 6.66634 8.04883 6.66634 8.01341V7.98091C6.66634 7.9455 6.74092 7.91675 6.83301 7.91675H8.16634C8.25842 7.91675 8.33301 7.9455 8.33301 7.98091V8.01341Z" fill="#A7A9AC"/>
<path id="Vector_9" d="M1.48417 6.302C2.37292 6.302 2.965 7.24034 3.40958 7.24034C3.85417 7.24034 3.9125 7.03117 4.505 7.03117C5.0975 7.03117 5.27958 7.91659 5.92792 7.91659H0L0.00208333 7.08284C0.00208333 7.08284 0.558333 6.302 1.48417 6.302ZM13.5158 6.79659C12.6271 6.79659 12.035 7.24034 11.5904 7.24034C11.1462 7.24034 11.0617 7.18742 10.4692 7.18742C9.87667 7.18742 9.72042 7.91659 9.07208 7.91659H15L14.9975 7.08284C14.9975 7.08284 14.4417 6.79659 13.5158 6.79659Z" fill="#5C913B"/>
</g>
</svg>
