<svg width="14" height="15" viewBox="0 0 14 15" fill="none" xmlns="http://www.w3.org/2000/svg">
<g id="Emoji">
<path id="Vector" d="M9.47059 10.9116V9.85504C10.2941 9.29998 11.1506 8.29899 11.4071 7.01551C11.4837 7.05793 11.4919 7.08551 11.5772 7.08551C11.9852 7.08551 12.2809 6.55557 12.2809 5.90251C12.2809 5.25934 11.942 4.73846 11.5422 4.72281C11.6192 4.44528 11.6628 4.07346 11.6628 3.59663C11.6628 2.00475 10.2941 0.09375 7.22276 0.09375C4.49318 0.09375 2.78518 2.00475 2.78518 3.59663C2.78518 4.05904 2.81359 4.43787 2.86259 4.73104C2.48747 4.78746 2.19182 5.28775 2.19182 5.90251C2.19182 6.55598 2.52288 7.08551 2.93135 7.08551C3.01618 7.08551 2.94165 7.05793 3.01741 7.01551C3.27435 8.29857 4.11765 9.29998 4.94118 9.85463V10.8486C2.88235 11.1142 0 12.2639 0 13.4139V13.8508C0 14.2885 0.443059 14.2885 0.879941 14.2885H13.1196C13.5569 14.2885 14 14.2885 14 13.8512V13.4143C14 12.3376 11.5294 11.2629 9.47059 10.9116Z" fill="#226699"/>
</g>
</svg>
