<svg width="20" height="19" viewBox="0 0 20 19" fill="none" xmlns="http://www.w3.org/2000/svg">
<g id="Emoji">
<path id="Vector" d="M15.0026 2.14323C14.5606 2.14323 14.1346 2.21021 13.7333 2.33451C13.258 0.976242 11.9689 0 10.4483 0C8.81725 0 7.45201 1.12305 7.0732 2.63671C6.6692 2.3313 6.17197 2.14323 5.62598 2.14323C4.2945 2.14323 3.21485 3.22288 3.21485 4.55437C3.21485 4.87799 3.28075 5.18555 3.39649 5.46738C3.16662 5.40362 2.92926 5.35808 2.67904 5.35808C1.19914 5.35808 0 6.55721 0 8.03712C0 9.51702 1.19914 10.7162 2.67904 10.7162H15.0026C17.3698 10.7162 19.2891 8.79743 19.2891 6.42969C19.2891 4.06249 17.3698 2.14323 15.0026 2.14323Z" fill="#E1E8ED"/>
<path id="Vector_2" d="M6.42955 13.3743L6.36901 11.5413L4.83124 12.4564C4.48939 12.6413 4.26221 13.0051 4.27614 13.4203C4.29597 14.0113 4.79373 14.4791 5.38848 14.4668C5.98269 14.4544 6.44938 13.9647 6.42955 13.3743ZM5.36919 17.3714L5.30864 15.5384L3.77088 16.4535C3.42903 16.6384 3.20185 17.0022 3.21578 17.4175C3.2356 18.0085 3.73337 18.4762 4.32811 18.4639C4.92286 18.4516 5.38901 17.9618 5.36919 17.3714ZM2.69015 14.9817L2.6296 13.1487L1.09184 14.0638C0.749991 14.2487 0.522809 14.6125 0.53674 15.0278C0.556564 15.6182 1.05433 16.086 1.64908 16.0742C2.24382 16.0619 2.70998 15.5721 2.69015 14.9817ZM12.3347 13.3743L12.2741 11.5413L10.7369 12.4564C10.3945 12.6413 10.1679 13.0051 10.1818 13.4203C10.2016 14.0113 10.6994 14.4791 11.2942 14.4668C11.8884 14.4544 12.3545 13.9647 12.3347 13.3743ZM9.10859 15.5175L9.04805 13.6845L7.51081 14.5996C7.16843 14.7845 6.94179 15.1483 6.95572 15.5636C6.97554 16.1546 7.47331 16.6223 8.06805 16.61C8.66226 16.5977 9.12842 16.1079 9.10859 15.5175ZM11.7989 17.9072L11.7378 16.0742L10.2006 16.9894C9.85819 17.1742 9.63154 17.538 9.64547 17.9533C9.66529 18.5443 10.1631 19.012 10.7578 18.9997C11.3526 18.9874 11.8187 18.4977 11.7989 17.9072ZM15.5383 14.9817L15.4777 13.1487L13.9405 14.0638C13.5981 14.2487 13.3715 14.6125 13.3854 15.0278C13.4052 15.6188 13.903 16.0865 14.4977 16.0742C15.092 16.0619 15.5581 15.5721 15.5383 14.9817Z" fill="#5DADEC"/>
</g>
</svg>
