<svg width="17" height="16" viewBox="0 0 17 16" fill="none" xmlns="http://www.w3.org/2000/svg">
<g id="Emoji">
<path id="Vector" d="M2.84563 12.2917C5.07866 14.5247 10.2067 17.6307 16.0194 12.2605C12.7337 11.6284 12.1556 7.44782 9.92209 5.21524C7.68906 2.98177 4.57326 2.47682 2.33978 4.70984C0.106757 6.94287 0.612155 10.0582 2.84563 12.2917Z" fill="#A6D388"/>
<path id="Vector_2" d="M11.0008 12.8541C13.7343 13.583 15.755 12.5249 15.9415 12.3385C15.9415 12.3385 14.2526 13.1195 11.3206 11.6801C11.7453 11.1394 13.0398 10.3825 13.0398 10.3825C12.7931 10.2281 11.2207 10.2821 10.147 11.0199C9.63046 10.6929 9.08358 10.2986 8.5086 9.82665L8.8833 9.43813C10.333 7.92863 11.9808 8.28548 11.9808 8.28548C11.6962 8.01204 9.48326 6.75055 7.70612 8.59773L7.43267 8.88232C7.24265 8.70434 7.05084 8.52011 6.85546 8.32474L6.03023 7.49951L6.50485 7.02444C7.98625 5.54349 10.1742 5.48505 10.1742 5.48505C9.89498 5.20537 7.11284 4.30341 5.30135 6.1149L4.97304 6.44277L1.27423 2.74306C0.994988 2.46337 0.519477 2.48657 0.240683 2.76536C-0.0385568 3.0446 -0.0613064 3.51967 0.217934 3.79891L3.91719 7.49817L3.89088 7.52449C2.07938 9.33642 2.83146 12.268 3.11115 12.5477C3.11115 12.5477 3.31991 10.2094 4.80131 8.72843L4.97393 8.55535L6.53563 10.1175C6.56105 10.1429 6.58603 10.1648 6.61146 10.1902C5.52974 12.33 7.15968 14.8026 7.48486 15.0006C7.48486 15.0006 6.83137 12.8938 7.69898 11.1488C8.37968 11.6819 9.04611 12.0833 9.68711 12.3777C9.72414 13.7128 10.8946 14.9203 11.1788 15.0234C11.1788 15.0234 10.7724 13.6838 10.9406 13.0219L11.0008 12.8541Z" fill="#77B255"/>
<path id="Vector_3" d="M9.84064 4.0172C9.664 4.0172 9.49672 3.91104 9.42669 3.73707C9.33525 3.50868 9.44543 3.24996 9.67337 3.15763C9.74742 3.12729 11.4648 2.4002 11.6432 0.408496C11.6655 0.163603 11.877 -0.015717 12.1272 0.00391005C12.373 0.0257675 12.5536 0.242558 12.5318 0.487896C12.3034 3.0354 10.1003 3.94717 10.0066 3.98464C9.95216 4.00694 9.89596 4.0172 9.84064 4.0172ZM12.071 5.80149C11.8863 5.80149 11.7137 5.68595 11.6499 5.50217C11.5692 5.27022 11.6909 5.01685 11.922 4.93522C12.0059 4.90488 13.9405 4.17199 14.3219 1.28279C14.354 1.03879 14.5721 0.865718 14.8224 0.899173C15.0668 0.93129 15.2385 1.15522 15.206 1.39966C14.7505 4.85671 12.3208 5.74127 12.2178 5.77695C12.1691 5.79346 12.1196 5.80149 12.071 5.80149ZM13.4097 8.47791C13.2522 8.47791 13.1001 8.39405 13.0184 8.2464C12.8998 8.03094 12.9787 7.75973 13.1942 7.64108C13.2062 7.63439 14.4213 6.95591 14.8005 6.0718C14.8977 5.8452 15.1609 5.74082 15.3857 5.83762C15.6123 5.93441 15.7172 6.1967 15.6199 6.42331C15.119 7.59201 13.6844 8.38958 13.6238 8.42304C13.5555 8.46006 13.4824 8.47791 13.4097 8.47791Z" fill="#5DADEC"/>
</g>
</svg>
