<svg width="17" height="17" viewBox="0 0 17 17" fill="none" xmlns="http://www.w3.org/2000/svg">
<g id="Emoji">
<path id="Vector" d="M3.30566 0H11.3334V11.3333H3.30566V0Z" fill="#E1E8ED"/>
<path id="Vector_2" d="M3.30566 5.66675H11.3334V11.3334H3.30566V5.66675Z" fill="#99AAB5"/>
<path id="Vector_3" d="M3.30556 11.3333C5.13116 11.3333 6.61111 8.79628 6.61111 5.66667C6.61111 2.53705 5.13116 0 3.30556 0C1.47995 0 0 2.53705 0 5.66667C0 8.79628 1.47995 11.3333 3.30556 11.3333Z" fill="#CCD6DD"/>
<path id="Vector_4" d="M11.3334 11.3333C13.4199 11.3333 15.1112 8.79628 15.1112 5.66667C15.1112 2.53705 13.4199 0 11.3334 0C9.24703 0 7.55566 2.53705 7.55566 5.66667C7.55566 8.79628 9.24703 11.3333 11.3334 11.3333Z" fill="#E1E8ED"/>
<path id="Vector_5" d="M15.1113 5.66656V11.3332C15.1113 15.5832 17.0002 16.9999 17.0002 16.9999H8.50022C8.50022 16.9999 6.61133 15.5832 6.61133 11.3332V5.19434L15.1113 5.66656Z" fill="#E1E8ED"/>
<path id="Vector_6" d="M15.1113 5.66661C15.1113 3.34139 14.1768 1.34578 12.8413 0.472168H5.34668C6.39832 1.55072 7.08351 3.45472 7.08351 5.66661V12.2777C7.2861 14.9614 8.35049 16.1972 8.68104 16.5277H16.5516C15.9929 15.8175 15.1113 14.2379 15.1113 11.3333V5.66661Z" fill="#F5F8FA"/>
<path id="Vector_7" d="M2.83366 8.02789C3.61606 8.02789 4.25033 6.97078 4.25033 5.66678C4.25033 4.36277 3.61606 3.30566 2.83366 3.30566C2.05126 3.30566 1.41699 4.36277 1.41699 5.66678C1.41699 6.97078 2.05126 8.02789 2.83366 8.02789Z" fill="#99AAB5"/>
<path id="Vector_8" d="M1.53516 4.72705C1.75332 3.89122 2.25199 3.30566 2.83377 3.30566C3.61624 3.30566 4.25043 4.36297 4.25043 5.66678C4.25043 5.95766 4.21455 6.23344 4.15693 6.4908C3.85046 5.5048 2.80118 4.77097 1.53516 4.72705Z" fill="#66757F"/>
<path id="Vector_9" d="M7.79134 6.13897H7.08301V5.66675H7.79134C7.9212 5.66675 8.02745 5.773 8.02745 5.90286C8.02745 6.03272 7.9212 6.13897 7.79134 6.13897ZM9.68023 6.13897H8.73579C8.60592 6.13897 8.49967 6.03272 8.49967 5.90286C8.49967 5.773 8.60592 5.66675 8.73579 5.66675H9.68023C9.81009 5.66675 9.91634 5.773 9.91634 5.90286C9.91634 6.03272 9.81009 6.13897 9.68023 6.13897ZM11.5691 6.13897H10.6247C10.4948 6.13897 10.3886 6.03272 10.3886 5.90286C10.3886 5.773 10.4948 5.66675 10.6247 5.66675H11.5691C11.699 5.66675 11.8052 5.773 11.8052 5.90286C11.8052 6.03272 11.699 6.13897 11.5691 6.13897ZM13.458 6.13897H12.5136C12.3837 6.13897 12.2775 6.03272 12.2775 5.90286C12.2775 5.773 12.3837 5.66675 12.5136 5.66675H13.458C13.5879 5.66675 13.6941 5.773 13.6941 5.90286C13.6941 6.03272 13.5879 6.13897 13.458 6.13897ZM15.1108 6.13897H14.4025C14.2726 6.13897 14.1663 6.03272 14.1663 5.90286C14.1663 5.773 14.2726 5.66675 14.4025 5.66675H15.1108V6.13897ZM7.79134 11.8056H7.08301V11.3334H7.79134C7.9212 11.3334 8.02745 11.4397 8.02745 11.5695C8.02745 11.6994 7.9212 11.8056 7.79134 11.8056ZM9.68023 11.8056H8.73579C8.60592 11.8056 8.49967 11.6994 8.49967 11.5695C8.49967 11.4397 8.60592 11.3334 8.73579 11.3334H9.68023C9.81009 11.3334 9.91634 11.4397 9.91634 11.5695C9.91634 11.6994 9.81009 11.8056 9.68023 11.8056ZM11.5691 11.8056H10.6247C10.4948 11.8056 10.3886 11.6994 10.3886 11.5695C10.3886 11.4397 10.4948 11.3334 10.6247 11.3334H11.5691C11.699 11.3334 11.8052 11.4397 11.8052 11.5695C11.8052 11.6994 11.699 11.8056 11.5691 11.8056ZM13.458 11.8056H12.5136C12.3837 11.8056 12.2775 11.6994 12.2775 11.5695C12.2775 11.4397 12.3837 11.3334 12.5136 11.3334H13.458C13.5879 11.3334 13.6941 11.4397 13.6941 11.5695C13.6941 11.6994 13.5879 11.8056 13.458 11.8056ZM15.1108 11.8056H14.4025C14.2726 11.8056 14.1663 11.6994 14.1663 11.5695C14.1663 11.4397 14.2726 11.3334 14.4025 11.3334H15.1108V11.8056Z" fill="#CCD6DD"/>
</g>
</svg>
