<svg width="15" height="16" viewBox="0 0 15 16" fill="none" xmlns="http://www.w3.org/2000/svg">
<g id="Emoji">
<path id="Vector" d="M5.82559 8.42673H5.83309V4.67689C5.83309 2.14575 3.78109 0.09375 1.24995 0.09375C0.814966 0.09375 0.3979 0.162497 0 0.277076V13.2086C0.271655 13.2544 0.548727 13.2832 0.833299 13.2832C3.5461 13.2832 5.74934 11.1212 5.82559 8.42673Z" fill="#FFAC33"/>
<path id="Vector_2" d="M4.76272 11.3428C4.70272 11.3361 0 11.3428 0 11.3428V15.0926H6.24974V13.0094C6.24974 12.1507 5.59727 11.4336 4.76272 11.3428Z" fill="#9268CA"/>
<path id="Vector_3" d="M4.16699 13.4258H4.58364V15.0924H4.16699V13.4258Z" fill="#7450A8"/>
<path id="Vector_4" d="M0 3.43359V12.6849C0.221657 12.884 0.511645 13.009 0.833299 13.009C1.52369 13.009 2.08325 12.4495 2.08325 11.7591V10.7079C3.53902 10.1925 4.58314 8.80795 4.58314 7.17594V5.08477C2.11658 5.00145 0.747052 4.18148 0 3.43359Z" fill="#FFDC5D"/>
<path id="Vector_5" d="M0 9.25977V9.94182C0.224157 10.0301 0.496229 10.0931 0.833299 10.0931C1.42202 10.0931 1.82034 9.90765 2.08325 9.71183C2.37782 9.49226 2.4999 9.25977 2.4999 9.25977H0Z" fill="#DF1F32"/>
<path id="Vector_6" d="M1.25012 8.21743H0.416821C0.301826 8.21743 0.208496 8.1241 0.208496 8.00911C0.208496 7.89411 0.301826 7.80078 0.416821 7.80078H1.25012C1.36511 7.80078 1.45844 7.89411 1.45844 8.00911C1.45844 8.1241 1.36511 8.21743 1.25012 8.21743Z" fill="#C1694F"/>
<path id="Vector_7" d="M2.50015 6.75971C2.27015 6.75971 2.0835 6.57305 2.0835 6.34306V5.92641C2.0835 5.69642 2.27015 5.50977 2.50015 5.50977C2.73014 5.50977 2.91679 5.69642 2.91679 5.92641V6.34306C2.91679 6.57305 2.73014 6.75971 2.50015 6.75971Z" fill="#662113"/>
<path id="Vector_8" d="M13.7492 0.09375C11.218 0.09375 9.16602 2.14575 9.16602 4.67689C9.16602 7.20804 11.218 9.26003 13.7492 9.26003C14.1829 9.26003 14.6012 9.19587 14.9991 9.08296V0.270826C14.6012 0.157914 14.1829 0.09375 13.7492 0.09375Z" fill="#FFAC33"/>
<path id="Vector_9" d="M10.4156 11.3438C9.49524 11.3438 8.74902 12.09 8.74902 13.0103V15.0936H14.9988V11.3438H10.4156Z" fill="#4289C1"/>
<path id="Vector_10" d="M10.417 13.4258H10.8336V15.0924H10.417V13.4258Z" fill="#2A6797"/>
<path id="Vector_11" d="M15.0001 4.79455C13.2377 4.32582 12.3698 3.40794 11.9728 2.79297C11.7978 3.5446 11.3736 4.7508 10.417 5.02996V7.17779C10.417 7.42319 10.4424 7.66193 10.487 7.89401C10.7411 9.20645 11.6799 10.2714 12.9169 10.7093V11.3443L14.1668 13.4275L15.0001 12.0126V4.79455Z" fill="#FFDC5D"/>
<path id="Vector_12" d="M12.499 9.25905C12.499 9.25905 12.6211 9.49154 12.9157 9.71112C13.1782 9.90653 13.5769 10.0924 14.1656 10.0924C14.5027 10.0924 14.7748 10.0294 14.9989 9.94111V9.25905H12.499ZM14.5823 8.21743H13.749C13.634 8.21743 13.5406 8.1241 13.5406 8.00911C13.5406 7.89411 13.634 7.80078 13.749 7.80078H14.5823C14.6973 7.80078 14.7906 7.89411 14.7906 8.00911C14.7906 8.1241 14.6973 8.21743 14.5823 8.21743Z" fill="#C1694F"/>
<path id="Vector_13" d="M12.4987 6.75971C12.2683 6.75971 12.082 6.57305 12.082 6.34306V5.92641C12.082 5.69642 12.2683 5.50977 12.4987 5.50977C12.7291 5.50977 12.9153 5.69642 12.9153 5.92641V6.34306C12.9153 6.57305 12.7291 6.75971 12.4987 6.75971Z" fill="#662113"/>
<path id="Vector_14" d="M11.0579 2.05658C11.0579 0.972463 10.1788 0.09375 9.09508 0.09375C8.43719 0.09375 7.85639 0.418736 7.50015 0.915382C7.1435 0.418736 6.56269 0.09375 5.90522 0.09375C4.82151 0.09375 3.94238 0.972463 3.94238 2.05658C3.94238 2.21033 3.96197 2.35949 3.9953 2.5024C4.26779 4.19608 6.15062 5.98267 7.49973 6.47265C8.84885 5.98225 10.7321 4.19566 11.0046 2.50282C11.0383 2.35949 11.0579 2.21033 11.0579 2.05658Z" fill="#DD2E44"/>
</g>
</svg>
