<svg width="18" height="16" viewBox="0 0 18 16" fill="none" xmlns="http://www.w3.org/2000/svg">
<g id="Emoji">
<path id="Vector" d="M17.12 8.62888C17.12 7.84945 16.6587 7.20032 16.039 7.01913C15.3923 3.47292 12.2931 0.782227 8.55999 0.782227C4.82688 0.782227 1.72769 3.47292 1.08094 7.01913C0.461288 7.20032 0 7.84945 0 8.62888C0 9.45445 0.516928 10.1354 1.19364 10.2657C2.03014 13.5594 5.00617 16 8.55999 16C12.1138 16 15.0898 13.5594 15.9263 10.2657C16.6026 10.1354 17.12 9.45445 17.12 8.62888Z" fill="#F3D2A2"/>
<path id="Vector_2" d="M8.56042 11.72C7.13376 11.72 6.6582 11.2444 6.6582 12.1955C6.6582 13.1466 7.60931 14.0977 8.56042 14.0977C9.51153 14.0977 10.4626 13.1466 10.4626 12.1955C10.4626 11.2444 9.98709 11.72 8.56042 11.72Z" fill="#662214"/>
<path id="Vector_3" d="M10.6996 9.81796C11.3562 9.81796 11.8885 9.28568 11.8885 8.62907C11.8885 7.97247 11.3562 7.44019 10.6996 7.44019C10.043 7.44019 9.51074 7.97247 9.51074 8.62907C9.51074 9.28568 10.043 9.81796 10.6996 9.81796Z" fill="#662214"/>
<path id="Vector_4" d="M6.42033 9.81796C7.07694 9.81796 7.60922 9.28568 7.60922 8.62907C7.60922 7.97247 7.07694 7.44019 6.42033 7.44019C5.76373 7.44019 5.23145 7.97247 5.23145 8.62907C5.23145 9.28568 5.76373 9.81796 6.42033 9.81796Z" fill="#662214"/>
<path id="Vector_5" d="M8.55957 12.1956H9.51068V12.6711C9.51068 12.6711 9.51068 13.1467 9.03513 13.1467C8.55957 13.1467 8.55957 12.6711 8.55957 12.6711V12.1956Z" fill="white"/>
<path id="Vector_6" d="M8.55102 5.06224H8.53628C7.97132 5.06224 7.44202 4.84443 7.04541 4.44211C6.69065 4.08259 6.50423 3.5923 6.53371 3.08821C6.54893 2.82618 6.76674 2.63168 7.03638 2.64356C7.29841 2.65926 7.49861 2.88515 7.48292 3.14765C7.46913 3.38305 7.55663 3.61512 7.72213 3.78299C7.94041 4.0046 8.23145 4.12777 8.54246 4.12967C8.853 4.11255 9.14641 4.01221 9.36755 3.79441C9.98482 3.1857 9.99147 2.18798 9.38276 1.57024C8.5748 0.751806 7.25228 0.74277 6.43337 1.55026C6.246 1.73525 5.94498 1.7324 5.76094 1.54551C5.57642 1.35861 5.5788 1.05759 5.76569 0.873073C6.95743 -0.302499 8.88391 -0.289184 10.06 0.902557C11.0372 1.89361 11.0258 3.48577 10.0352 4.46256C9.63766 4.85537 9.11027 5.06224 8.55102 5.06224Z" fill="#C68F6A"/>
</g>
</svg>
