<svg width="15" height="17" viewBox="0 0 15 17" fill="none" xmlns="http://www.w3.org/2000/svg">
<g id="Emoji">
<path id="Vector" d="M4.14484 0C3.54797 0 2.99502 0.185577 2.5384 0.501012C2.44537 0.486845 2.35282 0.472207 2.25602 0.472207C1.21291 0.472207 0.367188 1.31793 0.367188 2.36104V5.19428C0.367188 7.01983 1.84708 8.49973 3.67264 8.49973C5.49819 8.49973 6.97809 7.01983 6.97809 5.19428V2.83371C6.97809 1.26882 5.70974 0 4.14484 0Z" fill="#292F33"/>
<path id="Vector_2" d="M4.24515 16.201C4.2206 16.5231 5.11826 16.651 5.25048 16.5745C5.39167 16.4929 4.92088 16.2804 4.91899 16.1132C4.91002 15.2646 5.16926 15.335 5.06585 14.4643C5.27504 13.6969 5.38317 13.2403 5.38317 12.9858C5.38317 12.3955 3.81922 12.6241 3.81922 12.9858C3.81922 13.1482 3.99158 13.7796 4.01613 14.4643C3.86833 15.2476 4.31882 15.2269 4.24515 16.201ZM3.08919 16.201C3.11375 16.5231 2.21608 16.651 2.08386 16.5745C1.94267 16.4929 2.41346 16.2804 2.41535 16.1132C2.42432 15.2646 2.16508 15.335 2.26849 14.4643C2.05931 13.6969 1.95117 13.2403 1.95117 12.9858C1.95117 12.3955 3.51559 12.6241 3.51559 12.9858C3.51559 13.1482 3.34324 13.7796 3.31868 14.4643C3.46554 15.2476 3.01553 15.2269 3.08919 16.201Z" fill="#F7DECE"/>
<path id="Vector_3" d="M5.38317 12.9858C5.38317 12.3955 3.81922 12.6241 3.81922 12.9858C3.81922 13.0571 3.85275 13.2214 3.89194 13.4396H5.32226C5.36192 13.2455 5.38317 13.0953 5.38317 12.9858ZM3.51512 12.9858C3.51512 12.6241 1.95117 12.3955 1.95117 12.9858C1.95117 13.0953 1.97242 13.2455 2.01256 13.4396H3.44287C3.48159 13.2214 3.51512 13.0571 3.51512 12.9858Z" fill="#EEC2AD"/>
<path id="Vector_4" d="M0.488752 12.7307C0.366923 12.7892 0.251232 12.6849 0.196456 12.6235C0.041572 12.4502 -0.0788408 12.0351 0.0632936 11.5804C0.206372 11.1209 0.346618 10.4547 0.62947 9.69063C0.667719 9.58674 0.865101 7.91324 1.0096 7.59167C1.10262 7.38531 1.61402 7.16857 1.86429 7.2106C2.11409 7.25262 1.98045 7.518 1.91387 7.74419C1.91387 7.74419 1.48133 9.61082 1.43411 9.77279C1.28489 10.2823 0.667246 11.1507 0.695107 11.7735C0.709745 12.1003 0.723439 12.3662 0.535028 12.3619C0.51189 12.5328 0.533612 12.709 0.488752 12.7307ZM7.5643 12.6363C7.69227 12.6792 7.79427 12.5612 7.84102 12.4936C7.97276 12.3024 8.04029 11.8755 7.84291 11.442C7.64316 11.0043 7.42075 10.3607 7.04487 9.63774C6.99388 9.53952 6.58872 7.9038 6.40503 7.603C6.28698 7.40987 5.75244 7.25876 5.50926 7.33195C5.26702 7.40467 5.43276 7.65116 5.52673 7.86743C5.52673 7.86743 6.18924 9.66513 6.25676 9.82001C6.46878 10.3069 7.19031 11.0907 7.2399 11.7126C7.26634 12.0384 7.2857 12.3043 7.47222 12.2764C7.51661 12.4431 7.51708 12.6207 7.5643 12.6363Z" fill="#F7DECE"/>
<path id="Vector_5" d="M5.5354 16.9991C5.67942 16.9991 5.71106 16.8017 5.57743 16.7021C5.39846 16.5675 5.16189 16.0547 4.84031 16.0547H4.25241C4.14428 16.0547 4.02103 16.6256 4.05881 16.7536C4.10697 16.9165 4.26328 16.9991 4.44224 16.9991H5.5354ZM1.79883 16.9991C1.6548 16.9991 1.62317 16.8017 1.7568 16.7021C1.93577 16.5675 2.17234 16.0547 2.49392 16.0547H3.08181C3.18995 16.0547 3.3132 16.6256 3.27542 16.7536C3.22725 16.9165 3.07095 16.9991 2.89246 16.9991H1.79883Z" fill="#292F33"/>
<path id="Vector_6" d="M5.72908 8.39153L6.50633 7.55525C5.82729 6.70906 4.6175 6.61084 4.6175 6.61084H2.72867C2.72867 6.61084 1.51888 6.70906 0.839844 7.55525L1.6171 8.39153C1.6171 8.39153 1.90231 9.76896 1.90231 9.91629C1.90231 10.0636 1.31205 12.1593 1.31205 13.2217H6.03412C6.03412 12.1593 5.44386 10.0636 5.44386 9.91629C5.44386 9.76896 5.72908 8.39153 5.72908 8.39153Z" fill="#E75A70"/>
<path id="Vector_7" d="M5.44471 9.9163C5.44471 9.86624 5.47776 9.67453 5.52073 9.44409H1.82713C1.87057 9.67453 1.90315 9.86624 1.90315 9.9163C1.90315 9.95549 1.84554 10.1567 1.79785 10.3885H5.54812C5.49712 10.125 5.44471 9.95549 5.44471 9.9163Z" fill="#DA2F47"/>
<path id="Vector_8" d="M2.72754 5.19434V7.08316C2.72754 7.60448 3.15064 8.02758 3.67195 8.02758C4.19327 8.02758 4.61637 7.60448 4.61637 7.08316V5.19434H2.72754Z" fill="#F7DECE"/>
<path id="Vector_9" d="M2.72754 6.40321C3.01464 6.72761 3.2838 6.80883 3.67101 6.80883C4.05775 6.80883 4.32927 6.72714 4.61637 6.40321V6.01978H2.72754V6.40321Z" fill="#EEC2AD"/>
<path id="Vector_10" d="M6.03359 1.4165H1.31152V4.24975C1.31152 5.55398 2.36832 6.61078 3.67256 6.61078C4.97679 6.61078 6.03359 5.55445 6.03359 4.24975V1.4165Z" fill="#F7DECE"/>
<path id="Vector_11" d="M6.03412 0.944336H1.31205L0.839844 3.30537C2.72867 3.30537 2.72867 1.41654 2.72867 1.41654C2.72867 1.41654 2.72867 3.30537 6.50633 3.30537L6.03412 0.944336Z" fill="#292F33"/>
<path id="Vector_12" d="M4.61637 5.6665H2.72754C2.72754 5.6665 2.72754 6.13871 3.67195 6.13871C4.61637 6.13871 4.61637 5.6665 4.61637 5.6665Z" fill="#DF1F32"/>
<path id="Vector_13" d="M2.49196 4.24979C2.62236 4.24979 2.72807 4.14409 2.72807 4.01369C2.72807 3.8833 2.62236 3.77759 2.49196 3.77759C2.36157 3.77759 2.25586 3.8833 2.25586 4.01369C2.25586 4.14409 2.36157 4.24979 2.49196 4.24979Z" fill="#662113"/>
<path id="Vector_14" d="M4.85329 4.24979C4.98369 4.24979 5.08939 4.14409 5.08939 4.01369C5.08939 3.8833 4.98369 3.77759 4.85329 3.77759C4.72289 3.77759 4.61719 3.8833 4.61719 4.01369C4.61719 4.14409 4.72289 4.24979 4.85329 4.24979Z" fill="#662113"/>
<path id="Vector_15" d="M3.19922 4.72192H4.14363C4.14363 4.72192 4.14363 5.19413 3.67143 5.19413C3.19922 5.19413 3.19922 4.72192 3.19922 4.72192Z" fill="#C1694F"/>
<path id="Vector_16" d="M11.4639 0C10.9034 0 10.3863 0.178966 9.96179 0.480707C9.09009 0.526039 8.39453 1.24143 8.39453 2.12493C8.39453 2.85308 8.39784 3.7701 9.35689 4.11198C9.82815 4.76646 10.595 5.19428 11.4639 5.19428C12.898 5.19428 14.061 4.0317 14.061 2.59761C14.061 1.16305 12.898 0 11.4639 0Z" fill="#292F33"/>
<path id="Vector_17" d="M7.50496 12.6363C7.377 12.6793 7.275 12.5613 7.22825 12.4937C7.09651 12.3025 7.02898 11.8756 7.22636 11.4421C7.42611 11.0044 7.55785 10.4637 8.02439 9.63783C8.0787 9.5415 8.25766 8.34115 8.61087 7.58184C8.70626 7.37643 9.31682 7.25885 9.55954 7.33204C9.80178 7.40476 9.55718 7.7948 9.54207 7.86752C9.37963 8.64714 8.92584 9.79271 8.85737 9.94712C8.4796 10.7999 7.92948 11.0752 7.87942 11.6971C7.85345 12.0229 7.78262 12.3044 7.5961 12.277C7.55266 12.4432 7.55171 12.6208 7.50496 12.6363ZM14.3968 12.7327C14.5182 12.7922 14.6348 12.6883 14.6896 12.6278C14.8454 12.4555 14.9687 12.0414 14.8294 11.5852C14.6891 11.1248 14.6292 10.5719 14.275 9.69166C14.2339 9.58919 14.2141 8.37562 13.9633 7.57664C13.8958 7.36085 13.306 7.16346 13.0558 7.20407C12.806 7.24468 12.9972 7.66306 13.0029 7.73719C13.0614 8.53145 13.3608 9.7266 13.4085 9.88857C13.671 10.7834 14.1801 11.1291 14.148 11.7519C14.131 12.0787 14.164 12.3667 14.3524 12.3639C14.3751 12.5353 14.3524 12.711 14.3968 12.7327Z" fill="#F7DECE"/>
<path id="Vector_18" d="M12.9067 13.9302C13.1428 12.6392 13.106 10.8608 13.106 10.8608H9.34583C9.34583 10.8608 9.309 12.6392 9.5451 13.9302C9.57485 14.0926 9.63388 15.5092 9.49363 16.5273C9.46247 16.7535 10.8564 16.9698 10.8366 16.4683C10.7998 15.5385 10.9613 14.8094 10.9915 14.3434C11.008 14.0851 11.1095 13.458 11.1539 12.8285C11.1591 12.82 11.2932 12.82 11.2984 12.8285C11.3428 13.458 11.4438 14.0851 11.4608 14.3434C11.4911 14.8094 11.6526 15.5385 11.6157 16.4683C11.5959 16.9698 12.9899 16.7535 12.9587 16.5273C12.8184 15.5092 12.8775 14.0926 12.9067 13.9302Z" fill="#AAB8C2"/>
<path id="Vector_19" d="M13.3718 16.9996C13.6074 16.8079 13.3525 16.4514 12.7013 16.3376C12.1521 16.2417 11.6624 16.3225 11.5855 16.5029C11.4853 16.7357 11.5618 16.9996 11.5618 16.9996H13.3718ZM9.0667 16.9996C8.83107 16.8079 9.08606 16.4514 9.73723 16.3376C10.2864 16.2417 10.7761 16.3225 10.8531 16.5029C10.9532 16.7361 10.8767 17.0001 10.8767 17.0001L9.0667 16.9996Z" fill="#292F33"/>
<path id="Vector_20" d="M13.492 6.97255C12.9164 6.61084 12.1713 6.61084 12.1713 6.61084H10.2824C10.2824 6.61084 9.53728 6.61084 8.96166 6.97255C8.39454 7.32859 8.17969 8.38917 8.17969 8.38917L9.21996 8.71405L9.27143 11.3329H13.1818L13.2332 8.71358L14.2735 8.3887C14.274 8.38917 14.0591 7.32859 13.492 6.97255Z" fill="#4289C1"/>
<path id="Vector_21" d="M10.2832 4.74194V6.63077C10.2832 6.95282 10.7063 7.247 11.2276 7.247C11.7489 7.247 12.172 6.93157 12.172 6.63077V4.74194H10.2832Z" fill="#F7DECE"/>
<path id="Vector_22" d="M10.2832 6.4037C10.5703 6.7281 10.8395 6.80932 11.2267 6.80932C11.6134 6.80932 11.8849 6.72763 12.172 6.4037V6.02026H10.2832V6.4037Z" fill="#EEC2AD"/>
<path id="Vector_23" d="M13.5893 1.4165H8.86719V4.24975C8.86719 5.55398 9.92399 6.61078 11.2282 6.61078C12.5325 6.61078 13.5893 5.55445 13.5893 4.24975V1.4165Z" fill="#F7DECE"/>
<path id="Vector_24" d="M8.86696 1.18042L8.63086 2.36094L8.86696 3.30535C9.96862 3.30535 10.2128 2.16639 10.2671 1.65829C10.2855 2.16639 10.6514 3.30535 13.589 3.30535L13.8251 2.36094L13.589 1.18042H8.86696Z" fill="#292F33"/>
<path id="Vector_25" d="M12.172 5.6665H10.2832C10.2832 5.6665 10.2832 6.13871 11.2276 6.13871C12.172 6.13871 12.172 5.6665 12.172 5.6665Z" fill="#C1694F"/>
<path id="Vector_26" d="M10.0476 4.24979C10.178 4.24979 10.2837 4.14409 10.2837 4.01369C10.2837 3.8833 10.178 3.77759 10.0476 3.77759C9.91723 3.77759 9.81152 3.8833 9.81152 4.01369C9.81152 4.14409 9.91723 4.24979 10.0476 4.24979Z" fill="#662113"/>
<path id="Vector_27" d="M12.408 4.24979C12.5384 4.24979 12.6441 4.14409 12.6441 4.01369C12.6441 3.8833 12.5384 3.77759 12.408 3.77759C12.2776 3.77759 12.1719 3.8833 12.1719 4.01369C12.1719 4.14409 12.2776 4.24979 12.408 4.24979Z" fill="#662113"/>
<path id="Vector_28" d="M10.7559 4.72192H11.7003C11.7003 4.72192 11.7003 5.19413 11.2281 5.19413C10.7559 5.19413 10.7559 4.72192 10.7559 4.72192Z" fill="#C1694F"/>
</g>
</svg>
